G04 #@! TF.GenerationSoftware,KiCad,Pcbnew,8.0.4*
G04 #@! TF.CreationDate,2024-11-11T15:06:12+01:00*
G04 #@! TF.ProjectId,100008_hw-vern-aqm,31303030-3038-45f6-9877-2d7665726e2d,1.1*
G04 #@! TF.SameCoordinates,Original*
G04 #@! TF.FileFunction,Profile,NP*
%FSLAX46Y46*%
G04 Gerber Fmt 4.6, Leading zero omitted, Abs format (unit mm)*
G04 Created by KiCad (PCBNEW 8.0.4) date 2024-11-11 15:06:12*
%MOMM*%
%LPD*%
G01*
G04 APERTURE LIST*
G04 #@! TA.AperFunction,Profile*
%ADD10C,0.100000*%
G04 #@! TD*
G04 APERTURE END LIST*
D10*
X103000000Y-307920000D02*
X102000000Y-307920000D01*
X103000000Y-348420000D02*
X102000000Y-348420000D01*
X195000000Y-307920000D02*
G75*
G02*
X190500000Y-303420000I0J4500000D01*
G01*
X198000000Y-346420000D02*
G75*
G02*
X196000000Y-348420000I-2000000J0D01*
G01*
X107500000Y-303420000D02*
G75*
G02*
X103000000Y-307920000I-4500000J0D01*
G01*
X109500000Y-356340000D02*
X188500000Y-356340000D01*
X102000000Y-348420000D02*
G75*
G02*
X100000000Y-346420000I0J2000000D01*
G01*
X188500000Y-300000000D02*
G75*
G02*
X190500000Y-302000000I0J-2000000D01*
G01*
X107500000Y-303420000D02*
X107500000Y-302000000D01*
X188500000Y-300000000D02*
X109500000Y-300000000D01*
X195000000Y-307920000D02*
X196000000Y-307920000D01*
X107500000Y-302000000D02*
G75*
G02*
X109500000Y-300000000I2000000J0D01*
G01*
X100000000Y-309920000D02*
G75*
G02*
X102000000Y-307920000I2000000J0D01*
G01*
X195000000Y-348420000D02*
X196000000Y-348420000D01*
X109500000Y-356340000D02*
G75*
G02*
X107500000Y-354340000I0J2000000D01*
G01*
X190500000Y-354340000D02*
G75*
G02*
X188500000Y-356340000I-2000000J0D01*
G01*
X100000000Y-309920000D02*
X100000000Y-346420000D01*
X107500000Y-352920000D02*
X107500000Y-354340000D01*
X190500000Y-352920000D02*
G75*
G02*
X195000000Y-348420000I4500000J0D01*
G01*
X190500000Y-303420000D02*
X190500000Y-302000000D01*
X196000000Y-307920000D02*
G75*
G02*
X198000000Y-309920000I0J-2000000D01*
G01*
X103000000Y-348420000D02*
G75*
G02*
X107500000Y-352920000I0J-4500000D01*
G01*
X198000000Y-346420000D02*
X198000000Y-309920000D01*
X190500000Y-352920000D02*
X190500000Y-354340000D01*
M02*
