%TF.GenerationSoftware,KiCad,Pcbnew,8.0.4*%
%TF.CreationDate,2024-11-11T15:06:16+01:00*%
%TF.ProjectId,100008_hw-vern-aqm,31303030-3038-45f6-9877-2d7665726e2d,1.1*%
%TF.SameCoordinates,Original*%
%TF.FileFunction,Drillmap*%
%TF.FilePolarity,Positive*%
%FSLAX45Y45*%
G04 Gerber Fmt 4.5, Leading zero omitted, Abs format (unit mm)*
G04 Created by KiCad (PCBNEW 8.0.4) date 2024-11-11 15:06:16*
%MOMM*%
%LPD*%
G01*
G04 APERTURE LIST*
%ADD10C,0.100000*%
%ADD11C,0.200000*%
G04 APERTURE END LIST*
D10*
X10300000Y-30792000D02*
X10200000Y-30792000D01*
X10300000Y-34842000D02*
X10200000Y-34842000D01*
X19500000Y-30792000D02*
G75*
G02*
X19050000Y-30342000I0J450000D01*
G01*
X19800000Y-34642000D02*
G75*
G02*
X19600000Y-34842000I-200000J0D01*
G01*
X10750000Y-30342000D02*
G75*
G02*
X10300000Y-30792000I-450000J0D01*
G01*
X10950000Y-35634000D02*
X18850000Y-35634000D01*
X10200000Y-34842000D02*
G75*
G02*
X10000000Y-34642000I0J200000D01*
G01*
X18850000Y-30000000D02*
G75*
G02*
X19050000Y-30200000I0J-200000D01*
G01*
X10750000Y-30342000D02*
X10750000Y-30200000D01*
X18850000Y-30000000D02*
X10950000Y-30000000D01*
X19500000Y-30792000D02*
X19600000Y-30792000D01*
X10750000Y-30200000D02*
G75*
G02*
X10950000Y-30000000I200000J0D01*
G01*
X10000000Y-30992000D02*
G75*
G02*
X10200000Y-30792000I200000J0D01*
G01*
X19500000Y-34842000D02*
X19600000Y-34842000D01*
X10950000Y-35634000D02*
G75*
G02*
X10750000Y-35434000I0J200000D01*
G01*
X19050000Y-35434000D02*
G75*
G02*
X18850000Y-35634000I-200000J0D01*
G01*
X10000000Y-30992000D02*
X10000000Y-34642000D01*
X10750000Y-35292000D02*
X10750000Y-35434000D01*
X19050000Y-35292000D02*
G75*
G02*
X19500000Y-34842000I450000J0D01*
G01*
X19050000Y-30342000D02*
X19050000Y-30200000D01*
X19600000Y-30792000D02*
G75*
G02*
X19800000Y-30992000I0J-200000D01*
G01*
X10300000Y-34842000D02*
G75*
G02*
X10750000Y-35292000I0J-450000D01*
G01*
X19800000Y-34642000D02*
X19800000Y-30992000D01*
X19050000Y-35292000D02*
X19050000Y-35434000D01*
D11*
D10*
X19145000Y-32407000D02*
X19215000Y-32477000D01*
X19215000Y-32407000D02*
X19145000Y-32477000D01*
X19215000Y-32457000D02*
X19215000Y-32427000D01*
X19145000Y-32427000D02*
G75*
G02*
X19215000Y-32427000I35000J0D01*
G01*
X19145000Y-32427000D02*
X19145000Y-32457000D01*
X19145000Y-32457000D02*
G75*
G03*
X19215000Y-32457000I35000J0D01*
G01*
X19145000Y-33157000D02*
X19215000Y-33227000D01*
X19215000Y-33157000D02*
X19145000Y-33227000D01*
D11*
X10255777Y-35950484D02*
X10255777Y-35750484D01*
X10255777Y-35750484D02*
X10303396Y-35750484D01*
X10303396Y-35750484D02*
X10331967Y-35760008D01*
X10331967Y-35760008D02*
X10351015Y-35779055D01*
X10351015Y-35779055D02*
X10360539Y-35798103D01*
X10360539Y-35798103D02*
X10370063Y-35836198D01*
X10370063Y-35836198D02*
X10370063Y-35864770D01*
X10370063Y-35864770D02*
X10360539Y-35902865D01*
X10360539Y-35902865D02*
X10351015Y-35921912D01*
X10351015Y-35921912D02*
X10331967Y-35940960D01*
X10331967Y-35940960D02*
X10303396Y-35950484D01*
X10303396Y-35950484D02*
X10255777Y-35950484D01*
X10455777Y-35950484D02*
X10455777Y-35817150D01*
X10455777Y-35855246D02*
X10465301Y-35836198D01*
X10465301Y-35836198D02*
X10474824Y-35826674D01*
X10474824Y-35826674D02*
X10493872Y-35817150D01*
X10493872Y-35817150D02*
X10512920Y-35817150D01*
X10579586Y-35950484D02*
X10579586Y-35817150D01*
X10579586Y-35750484D02*
X10570063Y-35760008D01*
X10570063Y-35760008D02*
X10579586Y-35769531D01*
X10579586Y-35769531D02*
X10589110Y-35760008D01*
X10589110Y-35760008D02*
X10579586Y-35750484D01*
X10579586Y-35750484D02*
X10579586Y-35769531D01*
X10703396Y-35950484D02*
X10684348Y-35940960D01*
X10684348Y-35940960D02*
X10674824Y-35921912D01*
X10674824Y-35921912D02*
X10674824Y-35750484D01*
X10808158Y-35950484D02*
X10789110Y-35940960D01*
X10789110Y-35940960D02*
X10779586Y-35921912D01*
X10779586Y-35921912D02*
X10779586Y-35750484D01*
X11036729Y-35950484D02*
X11036729Y-35750484D01*
X11036729Y-35750484D02*
X11103396Y-35893341D01*
X11103396Y-35893341D02*
X11170063Y-35750484D01*
X11170063Y-35750484D02*
X11170063Y-35950484D01*
X11351015Y-35950484D02*
X11351015Y-35845722D01*
X11351015Y-35845722D02*
X11341491Y-35826674D01*
X11341491Y-35826674D02*
X11322443Y-35817150D01*
X11322443Y-35817150D02*
X11284348Y-35817150D01*
X11284348Y-35817150D02*
X11265301Y-35826674D01*
X11351015Y-35940960D02*
X11331967Y-35950484D01*
X11331967Y-35950484D02*
X11284348Y-35950484D01*
X11284348Y-35950484D02*
X11265301Y-35940960D01*
X11265301Y-35940960D02*
X11255777Y-35921912D01*
X11255777Y-35921912D02*
X11255777Y-35902865D01*
X11255777Y-35902865D02*
X11265301Y-35883817D01*
X11265301Y-35883817D02*
X11284348Y-35874293D01*
X11284348Y-35874293D02*
X11331967Y-35874293D01*
X11331967Y-35874293D02*
X11351015Y-35864770D01*
X11446253Y-35817150D02*
X11446253Y-36017150D01*
X11446253Y-35826674D02*
X11465301Y-35817150D01*
X11465301Y-35817150D02*
X11503396Y-35817150D01*
X11503396Y-35817150D02*
X11522443Y-35826674D01*
X11522443Y-35826674D02*
X11531967Y-35836198D01*
X11531967Y-35836198D02*
X11541491Y-35855246D01*
X11541491Y-35855246D02*
X11541491Y-35912389D01*
X11541491Y-35912389D02*
X11531967Y-35931436D01*
X11531967Y-35931436D02*
X11522443Y-35940960D01*
X11522443Y-35940960D02*
X11503396Y-35950484D01*
X11503396Y-35950484D02*
X11465301Y-35950484D01*
X11465301Y-35950484D02*
X11446253Y-35940960D01*
X11627205Y-35931436D02*
X11636729Y-35940960D01*
X11636729Y-35940960D02*
X11627205Y-35950484D01*
X11627205Y-35950484D02*
X11617682Y-35940960D01*
X11617682Y-35940960D02*
X11627205Y-35931436D01*
X11627205Y-35931436D02*
X11627205Y-35950484D01*
X11627205Y-35826674D02*
X11636729Y-35836198D01*
X11636729Y-35836198D02*
X11627205Y-35845722D01*
X11627205Y-35845722D02*
X11617682Y-35836198D01*
X11617682Y-35836198D02*
X11627205Y-35826674D01*
X11627205Y-35826674D02*
X11627205Y-35845722D01*
D10*
X9925000Y-36244000D02*
X9995000Y-36314000D01*
X9995000Y-36244000D02*
X9925000Y-36314000D01*
D11*
X10293872Y-36170484D02*
X10312920Y-36170484D01*
X10312920Y-36170484D02*
X10331967Y-36180008D01*
X10331967Y-36180008D02*
X10341491Y-36189531D01*
X10341491Y-36189531D02*
X10351015Y-36208579D01*
X10351015Y-36208579D02*
X10360539Y-36246674D01*
X10360539Y-36246674D02*
X10360539Y-36294293D01*
X10360539Y-36294293D02*
X10351015Y-36332389D01*
X10351015Y-36332389D02*
X10341491Y-36351436D01*
X10341491Y-36351436D02*
X10331967Y-36360960D01*
X10331967Y-36360960D02*
X10312920Y-36370484D01*
X10312920Y-36370484D02*
X10293872Y-36370484D01*
X10293872Y-36370484D02*
X10274824Y-36360960D01*
X10274824Y-36360960D02*
X10265301Y-36351436D01*
X10265301Y-36351436D02*
X10255777Y-36332389D01*
X10255777Y-36332389D02*
X10246253Y-36294293D01*
X10246253Y-36294293D02*
X10246253Y-36246674D01*
X10246253Y-36246674D02*
X10255777Y-36208579D01*
X10255777Y-36208579D02*
X10265301Y-36189531D01*
X10265301Y-36189531D02*
X10274824Y-36180008D01*
X10274824Y-36180008D02*
X10293872Y-36170484D01*
X10446253Y-36351436D02*
X10455777Y-36360960D01*
X10455777Y-36360960D02*
X10446253Y-36370484D01*
X10446253Y-36370484D02*
X10436729Y-36360960D01*
X10436729Y-36360960D02*
X10446253Y-36351436D01*
X10446253Y-36351436D02*
X10446253Y-36370484D01*
X10522444Y-36170484D02*
X10655777Y-36170484D01*
X10655777Y-36170484D02*
X10570063Y-36370484D01*
X10770063Y-36170484D02*
X10789110Y-36170484D01*
X10789110Y-36170484D02*
X10808158Y-36180008D01*
X10808158Y-36180008D02*
X10817682Y-36189531D01*
X10817682Y-36189531D02*
X10827205Y-36208579D01*
X10827205Y-36208579D02*
X10836729Y-36246674D01*
X10836729Y-36246674D02*
X10836729Y-36294293D01*
X10836729Y-36294293D02*
X10827205Y-36332389D01*
X10827205Y-36332389D02*
X10817682Y-36351436D01*
X10817682Y-36351436D02*
X10808158Y-36360960D01*
X10808158Y-36360960D02*
X10789110Y-36370484D01*
X10789110Y-36370484D02*
X10770063Y-36370484D01*
X10770063Y-36370484D02*
X10751015Y-36360960D01*
X10751015Y-36360960D02*
X10741491Y-36351436D01*
X10741491Y-36351436D02*
X10731967Y-36332389D01*
X10731967Y-36332389D02*
X10722444Y-36294293D01*
X10722444Y-36294293D02*
X10722444Y-36246674D01*
X10722444Y-36246674D02*
X10731967Y-36208579D01*
X10731967Y-36208579D02*
X10741491Y-36189531D01*
X10741491Y-36189531D02*
X10751015Y-36180008D01*
X10751015Y-36180008D02*
X10770063Y-36170484D01*
X10960539Y-36170484D02*
X10979586Y-36170484D01*
X10979586Y-36170484D02*
X10998634Y-36180008D01*
X10998634Y-36180008D02*
X11008158Y-36189531D01*
X11008158Y-36189531D02*
X11017682Y-36208579D01*
X11017682Y-36208579D02*
X11027205Y-36246674D01*
X11027205Y-36246674D02*
X11027205Y-36294293D01*
X11027205Y-36294293D02*
X11017682Y-36332389D01*
X11017682Y-36332389D02*
X11008158Y-36351436D01*
X11008158Y-36351436D02*
X10998634Y-36360960D01*
X10998634Y-36360960D02*
X10979586Y-36370484D01*
X10979586Y-36370484D02*
X10960539Y-36370484D01*
X10960539Y-36370484D02*
X10941491Y-36360960D01*
X10941491Y-36360960D02*
X10931967Y-36351436D01*
X10931967Y-36351436D02*
X10922444Y-36332389D01*
X10922444Y-36332389D02*
X10912920Y-36294293D01*
X10912920Y-36294293D02*
X10912920Y-36246674D01*
X10912920Y-36246674D02*
X10922444Y-36208579D01*
X10922444Y-36208579D02*
X10931967Y-36189531D01*
X10931967Y-36189531D02*
X10941491Y-36180008D01*
X10941491Y-36180008D02*
X10960539Y-36170484D01*
X11112920Y-36370484D02*
X11112920Y-36237150D01*
X11112920Y-36256198D02*
X11122444Y-36246674D01*
X11122444Y-36246674D02*
X11141491Y-36237150D01*
X11141491Y-36237150D02*
X11170063Y-36237150D01*
X11170063Y-36237150D02*
X11189110Y-36246674D01*
X11189110Y-36246674D02*
X11198634Y-36265722D01*
X11198634Y-36265722D02*
X11198634Y-36370484D01*
X11198634Y-36265722D02*
X11208158Y-36246674D01*
X11208158Y-36246674D02*
X11227205Y-36237150D01*
X11227205Y-36237150D02*
X11255777Y-36237150D01*
X11255777Y-36237150D02*
X11274824Y-36246674D01*
X11274824Y-36246674D02*
X11284348Y-36265722D01*
X11284348Y-36265722D02*
X11284348Y-36370484D01*
X11379586Y-36370484D02*
X11379586Y-36237150D01*
X11379586Y-36256198D02*
X11389110Y-36246674D01*
X11389110Y-36246674D02*
X11408158Y-36237150D01*
X11408158Y-36237150D02*
X11436729Y-36237150D01*
X11436729Y-36237150D02*
X11455777Y-36246674D01*
X11455777Y-36246674D02*
X11465301Y-36265722D01*
X11465301Y-36265722D02*
X11465301Y-36370484D01*
X11465301Y-36265722D02*
X11474824Y-36246674D01*
X11474824Y-36246674D02*
X11493872Y-36237150D01*
X11493872Y-36237150D02*
X11522443Y-36237150D01*
X11522443Y-36237150D02*
X11541491Y-36246674D01*
X11541491Y-36246674D02*
X11551015Y-36265722D01*
X11551015Y-36265722D02*
X11551015Y-36370484D01*
X11941491Y-36160960D02*
X11770063Y-36418103D01*
X12198634Y-36170484D02*
X12217682Y-36170484D01*
X12217682Y-36170484D02*
X12236729Y-36180008D01*
X12236729Y-36180008D02*
X12246253Y-36189531D01*
X12246253Y-36189531D02*
X12255777Y-36208579D01*
X12255777Y-36208579D02*
X12265301Y-36246674D01*
X12265301Y-36246674D02*
X12265301Y-36294293D01*
X12265301Y-36294293D02*
X12255777Y-36332389D01*
X12255777Y-36332389D02*
X12246253Y-36351436D01*
X12246253Y-36351436D02*
X12236729Y-36360960D01*
X12236729Y-36360960D02*
X12217682Y-36370484D01*
X12217682Y-36370484D02*
X12198634Y-36370484D01*
X12198634Y-36370484D02*
X12179586Y-36360960D01*
X12179586Y-36360960D02*
X12170063Y-36351436D01*
X12170063Y-36351436D02*
X12160539Y-36332389D01*
X12160539Y-36332389D02*
X12151015Y-36294293D01*
X12151015Y-36294293D02*
X12151015Y-36246674D01*
X12151015Y-36246674D02*
X12160539Y-36208579D01*
X12160539Y-36208579D02*
X12170063Y-36189531D01*
X12170063Y-36189531D02*
X12179586Y-36180008D01*
X12179586Y-36180008D02*
X12198634Y-36170484D01*
X12351015Y-36351436D02*
X12360539Y-36360960D01*
X12360539Y-36360960D02*
X12351015Y-36370484D01*
X12351015Y-36370484D02*
X12341491Y-36360960D01*
X12341491Y-36360960D02*
X12351015Y-36351436D01*
X12351015Y-36351436D02*
X12351015Y-36370484D01*
X12484348Y-36170484D02*
X12503396Y-36170484D01*
X12503396Y-36170484D02*
X12522444Y-36180008D01*
X12522444Y-36180008D02*
X12531967Y-36189531D01*
X12531967Y-36189531D02*
X12541491Y-36208579D01*
X12541491Y-36208579D02*
X12551015Y-36246674D01*
X12551015Y-36246674D02*
X12551015Y-36294293D01*
X12551015Y-36294293D02*
X12541491Y-36332389D01*
X12541491Y-36332389D02*
X12531967Y-36351436D01*
X12531967Y-36351436D02*
X12522444Y-36360960D01*
X12522444Y-36360960D02*
X12503396Y-36370484D01*
X12503396Y-36370484D02*
X12484348Y-36370484D01*
X12484348Y-36370484D02*
X12465301Y-36360960D01*
X12465301Y-36360960D02*
X12455777Y-36351436D01*
X12455777Y-36351436D02*
X12446253Y-36332389D01*
X12446253Y-36332389D02*
X12436729Y-36294293D01*
X12436729Y-36294293D02*
X12436729Y-36246674D01*
X12436729Y-36246674D02*
X12446253Y-36208579D01*
X12446253Y-36208579D02*
X12455777Y-36189531D01*
X12455777Y-36189531D02*
X12465301Y-36180008D01*
X12465301Y-36180008D02*
X12484348Y-36170484D01*
X12627206Y-36189531D02*
X12636729Y-36180008D01*
X12636729Y-36180008D02*
X12655777Y-36170484D01*
X12655777Y-36170484D02*
X12703396Y-36170484D01*
X12703396Y-36170484D02*
X12722444Y-36180008D01*
X12722444Y-36180008D02*
X12731967Y-36189531D01*
X12731967Y-36189531D02*
X12741491Y-36208579D01*
X12741491Y-36208579D02*
X12741491Y-36227627D01*
X12741491Y-36227627D02*
X12731967Y-36256198D01*
X12731967Y-36256198D02*
X12617682Y-36370484D01*
X12617682Y-36370484D02*
X12741491Y-36370484D01*
X12808158Y-36170484D02*
X12941491Y-36170484D01*
X12941491Y-36170484D02*
X12855777Y-36370484D01*
X13103396Y-36170484D02*
X13065301Y-36170484D01*
X13065301Y-36170484D02*
X13046253Y-36180008D01*
X13046253Y-36180008D02*
X13036729Y-36189531D01*
X13036729Y-36189531D02*
X13017682Y-36218103D01*
X13017682Y-36218103D02*
X13008158Y-36256198D01*
X13008158Y-36256198D02*
X13008158Y-36332389D01*
X13008158Y-36332389D02*
X13017682Y-36351436D01*
X13017682Y-36351436D02*
X13027206Y-36360960D01*
X13027206Y-36360960D02*
X13046253Y-36370484D01*
X13046253Y-36370484D02*
X13084348Y-36370484D01*
X13084348Y-36370484D02*
X13103396Y-36360960D01*
X13103396Y-36360960D02*
X13112920Y-36351436D01*
X13112920Y-36351436D02*
X13122444Y-36332389D01*
X13122444Y-36332389D02*
X13122444Y-36284770D01*
X13122444Y-36284770D02*
X13112920Y-36265722D01*
X13112920Y-36265722D02*
X13103396Y-36256198D01*
X13103396Y-36256198D02*
X13084348Y-36246674D01*
X13084348Y-36246674D02*
X13046253Y-36246674D01*
X13046253Y-36246674D02*
X13027206Y-36256198D01*
X13027206Y-36256198D02*
X13017682Y-36265722D01*
X13017682Y-36265722D02*
X13008158Y-36284770D01*
X13198634Y-36170484D02*
X13198634Y-36208579D01*
X13274825Y-36170484D02*
X13274825Y-36208579D01*
X13570063Y-36446674D02*
X13560539Y-36437150D01*
X13560539Y-36437150D02*
X13541491Y-36408579D01*
X13541491Y-36408579D02*
X13531968Y-36389531D01*
X13531968Y-36389531D02*
X13522444Y-36360960D01*
X13522444Y-36360960D02*
X13512920Y-36313341D01*
X13512920Y-36313341D02*
X13512920Y-36275246D01*
X13512920Y-36275246D02*
X13522444Y-36227627D01*
X13522444Y-36227627D02*
X13531968Y-36199055D01*
X13531968Y-36199055D02*
X13541491Y-36180008D01*
X13541491Y-36180008D02*
X13560539Y-36151436D01*
X13560539Y-36151436D02*
X13570063Y-36141912D01*
X13751015Y-36370484D02*
X13636729Y-36370484D01*
X13693872Y-36370484D02*
X13693872Y-36170484D01*
X13693872Y-36170484D02*
X13674825Y-36199055D01*
X13674825Y-36199055D02*
X13655777Y-36218103D01*
X13655777Y-36218103D02*
X13636729Y-36227627D01*
X13989110Y-36370484D02*
X13989110Y-36170484D01*
X14074825Y-36370484D02*
X14074825Y-36265722D01*
X14074825Y-36265722D02*
X14065301Y-36246674D01*
X14065301Y-36246674D02*
X14046253Y-36237150D01*
X14046253Y-36237150D02*
X14017682Y-36237150D01*
X14017682Y-36237150D02*
X13998634Y-36246674D01*
X13998634Y-36246674D02*
X13989110Y-36256198D01*
X14198634Y-36370484D02*
X14179587Y-36360960D01*
X14179587Y-36360960D02*
X14170063Y-36351436D01*
X14170063Y-36351436D02*
X14160539Y-36332389D01*
X14160539Y-36332389D02*
X14160539Y-36275246D01*
X14160539Y-36275246D02*
X14170063Y-36256198D01*
X14170063Y-36256198D02*
X14179587Y-36246674D01*
X14179587Y-36246674D02*
X14198634Y-36237150D01*
X14198634Y-36237150D02*
X14227206Y-36237150D01*
X14227206Y-36237150D02*
X14246253Y-36246674D01*
X14246253Y-36246674D02*
X14255777Y-36256198D01*
X14255777Y-36256198D02*
X14265301Y-36275246D01*
X14265301Y-36275246D02*
X14265301Y-36332389D01*
X14265301Y-36332389D02*
X14255777Y-36351436D01*
X14255777Y-36351436D02*
X14246253Y-36360960D01*
X14246253Y-36360960D02*
X14227206Y-36370484D01*
X14227206Y-36370484D02*
X14198634Y-36370484D01*
X14379587Y-36370484D02*
X14360539Y-36360960D01*
X14360539Y-36360960D02*
X14351015Y-36341912D01*
X14351015Y-36341912D02*
X14351015Y-36170484D01*
X14531968Y-36360960D02*
X14512920Y-36370484D01*
X14512920Y-36370484D02*
X14474825Y-36370484D01*
X14474825Y-36370484D02*
X14455777Y-36360960D01*
X14455777Y-36360960D02*
X14446253Y-36341912D01*
X14446253Y-36341912D02*
X14446253Y-36265722D01*
X14446253Y-36265722D02*
X14455777Y-36246674D01*
X14455777Y-36246674D02*
X14474825Y-36237150D01*
X14474825Y-36237150D02*
X14512920Y-36237150D01*
X14512920Y-36237150D02*
X14531968Y-36246674D01*
X14531968Y-36246674D02*
X14541491Y-36265722D01*
X14541491Y-36265722D02*
X14541491Y-36284770D01*
X14541491Y-36284770D02*
X14446253Y-36303817D01*
X14617682Y-36360960D02*
X14636730Y-36370484D01*
X14636730Y-36370484D02*
X14674825Y-36370484D01*
X14674825Y-36370484D02*
X14693872Y-36360960D01*
X14693872Y-36360960D02*
X14703396Y-36341912D01*
X14703396Y-36341912D02*
X14703396Y-36332389D01*
X14703396Y-36332389D02*
X14693872Y-36313341D01*
X14693872Y-36313341D02*
X14674825Y-36303817D01*
X14674825Y-36303817D02*
X14646253Y-36303817D01*
X14646253Y-36303817D02*
X14627206Y-36294293D01*
X14627206Y-36294293D02*
X14617682Y-36275246D01*
X14617682Y-36275246D02*
X14617682Y-36265722D01*
X14617682Y-36265722D02*
X14627206Y-36246674D01*
X14627206Y-36246674D02*
X14646253Y-36237150D01*
X14646253Y-36237150D02*
X14674825Y-36237150D01*
X14674825Y-36237150D02*
X14693872Y-36246674D01*
X14941492Y-36294293D02*
X15093873Y-36294293D01*
X15017682Y-36370484D02*
X15017682Y-36218103D01*
X15446253Y-36370484D02*
X15331968Y-36370484D01*
X15389111Y-36370484D02*
X15389111Y-36170484D01*
X15389111Y-36170484D02*
X15370063Y-36199055D01*
X15370063Y-36199055D02*
X15351015Y-36218103D01*
X15351015Y-36218103D02*
X15331968Y-36227627D01*
X15674825Y-36360960D02*
X15693873Y-36370484D01*
X15693873Y-36370484D02*
X15731968Y-36370484D01*
X15731968Y-36370484D02*
X15751015Y-36360960D01*
X15751015Y-36360960D02*
X15760539Y-36341912D01*
X15760539Y-36341912D02*
X15760539Y-36332389D01*
X15760539Y-36332389D02*
X15751015Y-36313341D01*
X15751015Y-36313341D02*
X15731968Y-36303817D01*
X15731968Y-36303817D02*
X15703396Y-36303817D01*
X15703396Y-36303817D02*
X15684349Y-36294293D01*
X15684349Y-36294293D02*
X15674825Y-36275246D01*
X15674825Y-36275246D02*
X15674825Y-36265722D01*
X15674825Y-36265722D02*
X15684349Y-36246674D01*
X15684349Y-36246674D02*
X15703396Y-36237150D01*
X15703396Y-36237150D02*
X15731968Y-36237150D01*
X15731968Y-36237150D02*
X15751015Y-36246674D01*
X15874825Y-36370484D02*
X15855777Y-36360960D01*
X15855777Y-36360960D02*
X15846254Y-36341912D01*
X15846254Y-36341912D02*
X15846254Y-36170484D01*
X15979587Y-36370484D02*
X15960539Y-36360960D01*
X15960539Y-36360960D02*
X15951015Y-36351436D01*
X15951015Y-36351436D02*
X15941492Y-36332389D01*
X15941492Y-36332389D02*
X15941492Y-36275246D01*
X15941492Y-36275246D02*
X15951015Y-36256198D01*
X15951015Y-36256198D02*
X15960539Y-36246674D01*
X15960539Y-36246674D02*
X15979587Y-36237150D01*
X15979587Y-36237150D02*
X16008158Y-36237150D01*
X16008158Y-36237150D02*
X16027206Y-36246674D01*
X16027206Y-36246674D02*
X16036730Y-36256198D01*
X16036730Y-36256198D02*
X16046254Y-36275246D01*
X16046254Y-36275246D02*
X16046254Y-36332389D01*
X16046254Y-36332389D02*
X16036730Y-36351436D01*
X16036730Y-36351436D02*
X16027206Y-36360960D01*
X16027206Y-36360960D02*
X16008158Y-36370484D01*
X16008158Y-36370484D02*
X15979587Y-36370484D01*
X16103396Y-36237150D02*
X16179587Y-36237150D01*
X16131968Y-36170484D02*
X16131968Y-36341912D01*
X16131968Y-36341912D02*
X16141492Y-36360960D01*
X16141492Y-36360960D02*
X16160539Y-36370484D01*
X16160539Y-36370484D02*
X16179587Y-36370484D01*
X16227206Y-36446674D02*
X16236730Y-36437150D01*
X16236730Y-36437150D02*
X16255777Y-36408579D01*
X16255777Y-36408579D02*
X16265301Y-36389531D01*
X16265301Y-36389531D02*
X16274825Y-36360960D01*
X16274825Y-36360960D02*
X16284349Y-36313341D01*
X16284349Y-36313341D02*
X16284349Y-36275246D01*
X16284349Y-36275246D02*
X16274825Y-36227627D01*
X16274825Y-36227627D02*
X16265301Y-36199055D01*
X16265301Y-36199055D02*
X16255777Y-36180008D01*
X16255777Y-36180008D02*
X16236730Y-36151436D01*
X16236730Y-36151436D02*
X16227206Y-36141912D01*
X16589111Y-36446674D02*
X16579587Y-36437150D01*
X16579587Y-36437150D02*
X16560539Y-36408579D01*
X16560539Y-36408579D02*
X16551015Y-36389531D01*
X16551015Y-36389531D02*
X16541492Y-36360960D01*
X16541492Y-36360960D02*
X16531968Y-36313341D01*
X16531968Y-36313341D02*
X16531968Y-36275246D01*
X16531968Y-36275246D02*
X16541492Y-36227627D01*
X16541492Y-36227627D02*
X16551015Y-36199055D01*
X16551015Y-36199055D02*
X16560539Y-36180008D01*
X16560539Y-36180008D02*
X16579587Y-36151436D01*
X16579587Y-36151436D02*
X16589111Y-36141912D01*
X16665301Y-36237150D02*
X16665301Y-36370484D01*
X16665301Y-36256198D02*
X16674825Y-36246674D01*
X16674825Y-36246674D02*
X16693873Y-36237150D01*
X16693873Y-36237150D02*
X16722444Y-36237150D01*
X16722444Y-36237150D02*
X16741492Y-36246674D01*
X16741492Y-36246674D02*
X16751015Y-36265722D01*
X16751015Y-36265722D02*
X16751015Y-36370484D01*
X16874825Y-36370484D02*
X16855777Y-36360960D01*
X16855777Y-36360960D02*
X16846254Y-36351436D01*
X16846254Y-36351436D02*
X16836730Y-36332389D01*
X16836730Y-36332389D02*
X16836730Y-36275246D01*
X16836730Y-36275246D02*
X16846254Y-36256198D01*
X16846254Y-36256198D02*
X16855777Y-36246674D01*
X16855777Y-36246674D02*
X16874825Y-36237150D01*
X16874825Y-36237150D02*
X16903397Y-36237150D01*
X16903397Y-36237150D02*
X16922444Y-36246674D01*
X16922444Y-36246674D02*
X16931968Y-36256198D01*
X16931968Y-36256198D02*
X16941492Y-36275246D01*
X16941492Y-36275246D02*
X16941492Y-36332389D01*
X16941492Y-36332389D02*
X16931968Y-36351436D01*
X16931968Y-36351436D02*
X16922444Y-36360960D01*
X16922444Y-36360960D02*
X16903397Y-36370484D01*
X16903397Y-36370484D02*
X16874825Y-36370484D01*
X16998635Y-36237150D02*
X17074825Y-36237150D01*
X17027206Y-36170484D02*
X17027206Y-36341912D01*
X17027206Y-36341912D02*
X17036730Y-36360960D01*
X17036730Y-36360960D02*
X17055777Y-36370484D01*
X17055777Y-36370484D02*
X17074825Y-36370484D01*
X17293873Y-36237150D02*
X17293873Y-36437150D01*
X17293873Y-36246674D02*
X17312920Y-36237150D01*
X17312920Y-36237150D02*
X17351016Y-36237150D01*
X17351016Y-36237150D02*
X17370063Y-36246674D01*
X17370063Y-36246674D02*
X17379587Y-36256198D01*
X17379587Y-36256198D02*
X17389111Y-36275246D01*
X17389111Y-36275246D02*
X17389111Y-36332389D01*
X17389111Y-36332389D02*
X17379587Y-36351436D01*
X17379587Y-36351436D02*
X17370063Y-36360960D01*
X17370063Y-36360960D02*
X17351016Y-36370484D01*
X17351016Y-36370484D02*
X17312920Y-36370484D01*
X17312920Y-36370484D02*
X17293873Y-36360960D01*
X17503397Y-36370484D02*
X17484349Y-36360960D01*
X17484349Y-36360960D02*
X17474825Y-36341912D01*
X17474825Y-36341912D02*
X17474825Y-36170484D01*
X17665301Y-36370484D02*
X17665301Y-36265722D01*
X17665301Y-36265722D02*
X17655778Y-36246674D01*
X17655778Y-36246674D02*
X17636730Y-36237150D01*
X17636730Y-36237150D02*
X17598635Y-36237150D01*
X17598635Y-36237150D02*
X17579587Y-36246674D01*
X17665301Y-36360960D02*
X17646254Y-36370484D01*
X17646254Y-36370484D02*
X17598635Y-36370484D01*
X17598635Y-36370484D02*
X17579587Y-36360960D01*
X17579587Y-36360960D02*
X17570063Y-36341912D01*
X17570063Y-36341912D02*
X17570063Y-36322865D01*
X17570063Y-36322865D02*
X17579587Y-36303817D01*
X17579587Y-36303817D02*
X17598635Y-36294293D01*
X17598635Y-36294293D02*
X17646254Y-36294293D01*
X17646254Y-36294293D02*
X17665301Y-36284770D01*
X17731968Y-36237150D02*
X17808158Y-36237150D01*
X17760539Y-36170484D02*
X17760539Y-36341912D01*
X17760539Y-36341912D02*
X17770063Y-36360960D01*
X17770063Y-36360960D02*
X17789111Y-36370484D01*
X17789111Y-36370484D02*
X17808158Y-36370484D01*
X17951016Y-36360960D02*
X17931968Y-36370484D01*
X17931968Y-36370484D02*
X17893873Y-36370484D01*
X17893873Y-36370484D02*
X17874825Y-36360960D01*
X17874825Y-36360960D02*
X17865301Y-36341912D01*
X17865301Y-36341912D02*
X17865301Y-36265722D01*
X17865301Y-36265722D02*
X17874825Y-36246674D01*
X17874825Y-36246674D02*
X17893873Y-36237150D01*
X17893873Y-36237150D02*
X17931968Y-36237150D01*
X17931968Y-36237150D02*
X17951016Y-36246674D01*
X17951016Y-36246674D02*
X17960539Y-36265722D01*
X17960539Y-36265722D02*
X17960539Y-36284770D01*
X17960539Y-36284770D02*
X17865301Y-36303817D01*
X18131968Y-36370484D02*
X18131968Y-36170484D01*
X18131968Y-36360960D02*
X18112920Y-36370484D01*
X18112920Y-36370484D02*
X18074825Y-36370484D01*
X18074825Y-36370484D02*
X18055778Y-36360960D01*
X18055778Y-36360960D02*
X18046254Y-36351436D01*
X18046254Y-36351436D02*
X18036730Y-36332389D01*
X18036730Y-36332389D02*
X18036730Y-36275246D01*
X18036730Y-36275246D02*
X18046254Y-36256198D01*
X18046254Y-36256198D02*
X18055778Y-36246674D01*
X18055778Y-36246674D02*
X18074825Y-36237150D01*
X18074825Y-36237150D02*
X18112920Y-36237150D01*
X18112920Y-36237150D02*
X18131968Y-36246674D01*
X18208159Y-36446674D02*
X18217682Y-36437150D01*
X18217682Y-36437150D02*
X18236730Y-36408579D01*
X18236730Y-36408579D02*
X18246254Y-36389531D01*
X18246254Y-36389531D02*
X18255778Y-36360960D01*
X18255778Y-36360960D02*
X18265301Y-36313341D01*
X18265301Y-36313341D02*
X18265301Y-36275246D01*
X18265301Y-36275246D02*
X18255778Y-36227627D01*
X18255778Y-36227627D02*
X18246254Y-36199055D01*
X18246254Y-36199055D02*
X18236730Y-36180008D01*
X18236730Y-36180008D02*
X18217682Y-36151436D01*
X18217682Y-36151436D02*
X18208159Y-36141912D01*
M02*
