G04 #@! TF.GenerationSoftware,KiCad,Pcbnew,8.0.4*
G04 #@! TF.CreationDate,2024-11-11T15:06:12+01:00*
G04 #@! TF.ProjectId,100008_hw-vern-aqm,31303030-3038-45f6-9877-2d7665726e2d,1.1*
G04 #@! TF.SameCoordinates,Original*
G04 #@! TF.FileFunction,Legend,Top*
G04 #@! TF.FilePolarity,Positive*
%FSLAX46Y46*%
G04 Gerber Fmt 4.6, Leading zero omitted, Abs format (unit mm)*
G04 Created by KiCad (PCBNEW 8.0.4) date 2024-11-11 15:06:12*
%MOMM*%
%LPD*%
G01*
G04 APERTURE LIST*
G04 Aperture macros list*
%AMRoundRect*
0 Rectangle with rounded corners*
0 $1 Rounding radius*
0 $2 $3 $4 $5 $6 $7 $8 $9 X,Y pos of 4 corners*
0 Add a 4 corners polygon primitive as box body*
4,1,4,$2,$3,$4,$5,$6,$7,$8,$9,$2,$3,0*
0 Add four circle primitives for the rounded corners*
1,1,$1+$1,$2,$3*
1,1,$1+$1,$4,$5*
1,1,$1+$1,$6,$7*
1,1,$1+$1,$8,$9*
0 Add four rect primitives between the rounded corners*
20,1,$1+$1,$2,$3,$4,$5,0*
20,1,$1+$1,$4,$5,$6,$7,0*
20,1,$1+$1,$6,$7,$8,$9,0*
20,1,$1+$1,$8,$9,$2,$3,0*%
G04 Aperture macros list end*
%ADD10C,0.150000*%
%ADD11C,0.125000*%
%ADD12C,0.120000*%
%ADD13C,0.200000*%
%ADD14C,0.250000*%
%ADD15RoundRect,0.150000X0.200000X-0.150000X0.200000X0.150000X-0.200000X0.150000X-0.200000X-0.150000X0*%
%ADD16RoundRect,0.200000X-0.200000X-0.275000X0.200000X-0.275000X0.200000X0.275000X-0.200000X0.275000X0*%
%ADD17RoundRect,0.200000X0.275000X-0.200000X0.275000X0.200000X-0.275000X0.200000X-0.275000X-0.200000X0*%
%ADD18RoundRect,0.250000X0.475000X-0.250000X0.475000X0.250000X-0.475000X0.250000X-0.475000X-0.250000X0*%
%ADD19R,1.700000X1.700000*%
%ADD20O,1.700000X1.700000*%
%ADD21RoundRect,0.218750X-0.218750X-0.256250X0.218750X-0.256250X0.218750X0.256250X-0.218750X0.256250X0*%
%ADD22RoundRect,0.250000X-0.250000X-0.475000X0.250000X-0.475000X0.250000X0.475000X-0.250000X0.475000X0*%
%ADD23RoundRect,0.225000X-0.225000X-0.250000X0.225000X-0.250000X0.225000X0.250000X-0.225000X0.250000X0*%
%ADD24RoundRect,0.150000X-0.150000X-0.625000X0.150000X-0.625000X0.150000X0.625000X-0.150000X0.625000X0*%
%ADD25RoundRect,0.250000X-0.350000X-0.650000X0.350000X-0.650000X0.350000X0.650000X-0.350000X0.650000X0*%
%ADD26RoundRect,0.225000X0.225000X0.250000X-0.225000X0.250000X-0.225000X-0.250000X0.225000X-0.250000X0*%
%ADD27RoundRect,0.150000X-0.150000X-0.200000X0.150000X-0.200000X0.150000X0.200000X-0.150000X0.200000X0*%
%ADD28C,0.700000*%
%ADD29O,0.700000X1.000000*%
%ADD30RoundRect,0.075000X0.350000X-0.075000X0.350000X0.075000X-0.350000X0.075000X-0.350000X-0.075000X0*%
%ADD31C,1.100000*%
%ADD32RoundRect,0.200000X-0.275000X0.200000X-0.275000X-0.200000X0.275000X-0.200000X0.275000X0.200000X0*%
%ADD33RoundRect,0.200000X0.200000X0.275000X-0.200000X0.275000X-0.200000X-0.275000X0.200000X-0.275000X0*%
%ADD34C,1.500000*%
%ADD35RoundRect,0.250000X0.625000X-0.375000X0.625000X0.375000X-0.625000X0.375000X-0.625000X-0.375000X0*%
%ADD36R,1.350000X1.350000*%
%ADD37O,1.350000X1.350000*%
%ADD38R,1.000000X1.250000*%
%ADD39RoundRect,0.225000X-0.250000X0.225000X-0.250000X-0.225000X0.250000X-0.225000X0.250000X0.225000X0*%
%ADD40RoundRect,0.112500X0.237500X-0.112500X0.237500X0.112500X-0.237500X0.112500X-0.237500X-0.112500X0*%
%ADD41RoundRect,0.150000X0.150000X0.700000X-0.150000X0.700000X-0.150000X-0.700000X0.150000X-0.700000X0*%
%ADD42RoundRect,0.250000X0.250000X1.150000X-0.250000X1.150000X-0.250000X-1.150000X0.250000X-1.150000X0*%
%ADD43RoundRect,0.101600X0.175000X-0.175000X0.175000X0.175000X-0.175000X0.175000X-0.175000X-0.175000X0*%
%ADD44R,1.500000X0.900000*%
%ADD45R,0.900000X1.500000*%
%ADD46R,0.900000X0.900000*%
%ADD47RoundRect,0.218750X0.256250X-0.218750X0.256250X0.218750X-0.256250X0.218750X-0.256250X-0.218750X0*%
%ADD48RoundRect,0.212500X0.212500X-0.737500X0.212500X0.737500X-0.212500X0.737500X-0.212500X-0.737500X0*%
%ADD49RoundRect,0.212500X0.737500X-0.212500X0.737500X0.212500X-0.737500X0.212500X-0.737500X-0.212500X0*%
%ADD50R,4.800000X4.800000*%
%ADD51RoundRect,0.250000X0.250000X0.475000X-0.250000X0.475000X-0.250000X-0.475000X0.250000X-0.475000X0*%
%ADD52RoundRect,0.062500X0.062500X-0.350000X0.062500X0.350000X-0.062500X0.350000X-0.062500X-0.350000X0*%
%ADD53RoundRect,0.062500X0.350000X-0.062500X0.350000X0.062500X-0.350000X0.062500X-0.350000X-0.062500X0*%
%ADD54R,2.600000X2.600000*%
%ADD55RoundRect,0.375000X-0.625000X-0.375000X0.625000X-0.375000X0.625000X0.375000X-0.625000X0.375000X0*%
%ADD56RoundRect,0.500000X-0.500000X-1.400000X0.500000X-1.400000X0.500000X1.400000X-0.500000X1.400000X0*%
G04 APERTURE END LIST*
D10*
X103878572Y-332444819D02*
X103878572Y-331444819D01*
X103878572Y-331444819D02*
X104211905Y-332159104D01*
X104211905Y-332159104D02*
X104545238Y-331444819D01*
X104545238Y-331444819D02*
X104545238Y-332444819D01*
X105211905Y-331444819D02*
X105402381Y-331444819D01*
X105402381Y-331444819D02*
X105497619Y-331492438D01*
X105497619Y-331492438D02*
X105592857Y-331587676D01*
X105592857Y-331587676D02*
X105640476Y-331778152D01*
X105640476Y-331778152D02*
X105640476Y-332111485D01*
X105640476Y-332111485D02*
X105592857Y-332301961D01*
X105592857Y-332301961D02*
X105497619Y-332397200D01*
X105497619Y-332397200D02*
X105402381Y-332444819D01*
X105402381Y-332444819D02*
X105211905Y-332444819D01*
X105211905Y-332444819D02*
X105116667Y-332397200D01*
X105116667Y-332397200D02*
X105021429Y-332301961D01*
X105021429Y-332301961D02*
X104973810Y-332111485D01*
X104973810Y-332111485D02*
X104973810Y-331778152D01*
X104973810Y-331778152D02*
X105021429Y-331587676D01*
X105021429Y-331587676D02*
X105116667Y-331492438D01*
X105116667Y-331492438D02*
X105211905Y-331444819D01*
X106021429Y-332397200D02*
X106164286Y-332444819D01*
X106164286Y-332444819D02*
X106402381Y-332444819D01*
X106402381Y-332444819D02*
X106497619Y-332397200D01*
X106497619Y-332397200D02*
X106545238Y-332349580D01*
X106545238Y-332349580D02*
X106592857Y-332254342D01*
X106592857Y-332254342D02*
X106592857Y-332159104D01*
X106592857Y-332159104D02*
X106545238Y-332063866D01*
X106545238Y-332063866D02*
X106497619Y-332016247D01*
X106497619Y-332016247D02*
X106402381Y-331968628D01*
X106402381Y-331968628D02*
X106211905Y-331921009D01*
X106211905Y-331921009D02*
X106116667Y-331873390D01*
X106116667Y-331873390D02*
X106069048Y-331825771D01*
X106069048Y-331825771D02*
X106021429Y-331730533D01*
X106021429Y-331730533D02*
X106021429Y-331635295D01*
X106021429Y-331635295D02*
X106069048Y-331540057D01*
X106069048Y-331540057D02*
X106116667Y-331492438D01*
X106116667Y-331492438D02*
X106211905Y-331444819D01*
X106211905Y-331444819D02*
X106450000Y-331444819D01*
X106450000Y-331444819D02*
X106592857Y-331492438D01*
X107021429Y-332444819D02*
X107021429Y-331444819D01*
X126017438Y-331166190D02*
X125969819Y-331261428D01*
X125969819Y-331261428D02*
X125969819Y-331404285D01*
X125969819Y-331404285D02*
X126017438Y-331547142D01*
X126017438Y-331547142D02*
X126112676Y-331642380D01*
X126112676Y-331642380D02*
X126207914Y-331689999D01*
X126207914Y-331689999D02*
X126398390Y-331737618D01*
X126398390Y-331737618D02*
X126541247Y-331737618D01*
X126541247Y-331737618D02*
X126731723Y-331689999D01*
X126731723Y-331689999D02*
X126826961Y-331642380D01*
X126826961Y-331642380D02*
X126922200Y-331547142D01*
X126922200Y-331547142D02*
X126969819Y-331404285D01*
X126969819Y-331404285D02*
X126969819Y-331309047D01*
X126969819Y-331309047D02*
X126922200Y-331166190D01*
X126922200Y-331166190D02*
X126874580Y-331118571D01*
X126874580Y-331118571D02*
X126541247Y-331118571D01*
X126541247Y-331118571D02*
X126541247Y-331309047D01*
X126969819Y-330689999D02*
X125969819Y-330689999D01*
X125969819Y-330689999D02*
X125969819Y-330309047D01*
X125969819Y-330309047D02*
X126017438Y-330213809D01*
X126017438Y-330213809D02*
X126065057Y-330166190D01*
X126065057Y-330166190D02*
X126160295Y-330118571D01*
X126160295Y-330118571D02*
X126303152Y-330118571D01*
X126303152Y-330118571D02*
X126398390Y-330166190D01*
X126398390Y-330166190D02*
X126446009Y-330213809D01*
X126446009Y-330213809D02*
X126493628Y-330309047D01*
X126493628Y-330309047D02*
X126493628Y-330689999D01*
X126969819Y-329689999D02*
X125969819Y-329689999D01*
X125969819Y-329023333D02*
X125969819Y-328832857D01*
X125969819Y-328832857D02*
X126017438Y-328737619D01*
X126017438Y-328737619D02*
X126112676Y-328642381D01*
X126112676Y-328642381D02*
X126303152Y-328594762D01*
X126303152Y-328594762D02*
X126636485Y-328594762D01*
X126636485Y-328594762D02*
X126826961Y-328642381D01*
X126826961Y-328642381D02*
X126922200Y-328737619D01*
X126922200Y-328737619D02*
X126969819Y-328832857D01*
X126969819Y-328832857D02*
X126969819Y-329023333D01*
X126969819Y-329023333D02*
X126922200Y-329118571D01*
X126922200Y-329118571D02*
X126826961Y-329213809D01*
X126826961Y-329213809D02*
X126636485Y-329261428D01*
X126636485Y-329261428D02*
X126303152Y-329261428D01*
X126303152Y-329261428D02*
X126112676Y-329213809D01*
X126112676Y-329213809D02*
X126017438Y-329118571D01*
X126017438Y-329118571D02*
X125969819Y-329023333D01*
X125969819Y-327975714D02*
X125969819Y-327880476D01*
X125969819Y-327880476D02*
X126017438Y-327785238D01*
X126017438Y-327785238D02*
X126065057Y-327737619D01*
X126065057Y-327737619D02*
X126160295Y-327690000D01*
X126160295Y-327690000D02*
X126350771Y-327642381D01*
X126350771Y-327642381D02*
X126588866Y-327642381D01*
X126588866Y-327642381D02*
X126779342Y-327690000D01*
X126779342Y-327690000D02*
X126874580Y-327737619D01*
X126874580Y-327737619D02*
X126922200Y-327785238D01*
X126922200Y-327785238D02*
X126969819Y-327880476D01*
X126969819Y-327880476D02*
X126969819Y-327975714D01*
X126969819Y-327975714D02*
X126922200Y-328070952D01*
X126922200Y-328070952D02*
X126874580Y-328118571D01*
X126874580Y-328118571D02*
X126779342Y-328166190D01*
X126779342Y-328166190D02*
X126588866Y-328213809D01*
X126588866Y-328213809D02*
X126350771Y-328213809D01*
X126350771Y-328213809D02*
X126160295Y-328166190D01*
X126160295Y-328166190D02*
X126065057Y-328118571D01*
X126065057Y-328118571D02*
X126017438Y-328070952D01*
X126017438Y-328070952D02*
X125969819Y-327975714D01*
X145417438Y-303679411D02*
X145369819Y-303774649D01*
X145369819Y-303774649D02*
X145369819Y-303917506D01*
X145369819Y-303917506D02*
X145417438Y-304060363D01*
X145417438Y-304060363D02*
X145512676Y-304155601D01*
X145512676Y-304155601D02*
X145607914Y-304203220D01*
X145607914Y-304203220D02*
X145798390Y-304250839D01*
X145798390Y-304250839D02*
X145941247Y-304250839D01*
X145941247Y-304250839D02*
X146131723Y-304203220D01*
X146131723Y-304203220D02*
X146226961Y-304155601D01*
X146226961Y-304155601D02*
X146322200Y-304060363D01*
X146322200Y-304060363D02*
X146369819Y-303917506D01*
X146369819Y-303917506D02*
X146369819Y-303822268D01*
X146369819Y-303822268D02*
X146322200Y-303679411D01*
X146322200Y-303679411D02*
X146274580Y-303631792D01*
X146274580Y-303631792D02*
X145941247Y-303631792D01*
X145941247Y-303631792D02*
X145941247Y-303822268D01*
X146369819Y-303203220D02*
X145369819Y-303203220D01*
X145369819Y-303203220D02*
X146369819Y-302631792D01*
X146369819Y-302631792D02*
X145369819Y-302631792D01*
X146369819Y-302155601D02*
X145369819Y-302155601D01*
X145369819Y-302155601D02*
X145369819Y-301917506D01*
X145369819Y-301917506D02*
X145417438Y-301774649D01*
X145417438Y-301774649D02*
X145512676Y-301679411D01*
X145512676Y-301679411D02*
X145607914Y-301631792D01*
X145607914Y-301631792D02*
X145798390Y-301584173D01*
X145798390Y-301584173D02*
X145941247Y-301584173D01*
X145941247Y-301584173D02*
X146131723Y-301631792D01*
X146131723Y-301631792D02*
X146226961Y-301679411D01*
X146226961Y-301679411D02*
X146322200Y-301774649D01*
X146322200Y-301774649D02*
X146369819Y-301917506D01*
X146369819Y-301917506D02*
X146369819Y-302155601D01*
D11*
X107408333Y-343003595D02*
X107675000Y-343803595D01*
X107675000Y-343803595D02*
X107941666Y-343003595D01*
X108474999Y-343384547D02*
X108589285Y-343422642D01*
X108589285Y-343422642D02*
X108627380Y-343460738D01*
X108627380Y-343460738D02*
X108665476Y-343536928D01*
X108665476Y-343536928D02*
X108665476Y-343651214D01*
X108665476Y-343651214D02*
X108627380Y-343727404D01*
X108627380Y-343727404D02*
X108589285Y-343765500D01*
X108589285Y-343765500D02*
X108513095Y-343803595D01*
X108513095Y-343803595D02*
X108208333Y-343803595D01*
X108208333Y-343803595D02*
X108208333Y-343003595D01*
X108208333Y-343003595D02*
X108474999Y-343003595D01*
X108474999Y-343003595D02*
X108551190Y-343041690D01*
X108551190Y-343041690D02*
X108589285Y-343079785D01*
X108589285Y-343079785D02*
X108627380Y-343155976D01*
X108627380Y-343155976D02*
X108627380Y-343232166D01*
X108627380Y-343232166D02*
X108589285Y-343308357D01*
X108589285Y-343308357D02*
X108551190Y-343346452D01*
X108551190Y-343346452D02*
X108474999Y-343384547D01*
X108474999Y-343384547D02*
X108208333Y-343384547D01*
X109008333Y-343003595D02*
X109008333Y-343651214D01*
X109008333Y-343651214D02*
X109046428Y-343727404D01*
X109046428Y-343727404D02*
X109084523Y-343765500D01*
X109084523Y-343765500D02*
X109160714Y-343803595D01*
X109160714Y-343803595D02*
X109313095Y-343803595D01*
X109313095Y-343803595D02*
X109389285Y-343765500D01*
X109389285Y-343765500D02*
X109427380Y-343727404D01*
X109427380Y-343727404D02*
X109465476Y-343651214D01*
X109465476Y-343651214D02*
X109465476Y-343003595D01*
X109808332Y-343765500D02*
X109922618Y-343803595D01*
X109922618Y-343803595D02*
X110113094Y-343803595D01*
X110113094Y-343803595D02*
X110189285Y-343765500D01*
X110189285Y-343765500D02*
X110227380Y-343727404D01*
X110227380Y-343727404D02*
X110265475Y-343651214D01*
X110265475Y-343651214D02*
X110265475Y-343575023D01*
X110265475Y-343575023D02*
X110227380Y-343498833D01*
X110227380Y-343498833D02*
X110189285Y-343460738D01*
X110189285Y-343460738D02*
X110113094Y-343422642D01*
X110113094Y-343422642D02*
X109960713Y-343384547D01*
X109960713Y-343384547D02*
X109884523Y-343346452D01*
X109884523Y-343346452D02*
X109846428Y-343308357D01*
X109846428Y-343308357D02*
X109808332Y-343232166D01*
X109808332Y-343232166D02*
X109808332Y-343155976D01*
X109808332Y-343155976D02*
X109846428Y-343079785D01*
X109846428Y-343079785D02*
X109884523Y-343041690D01*
X109884523Y-343041690D02*
X109960713Y-343003595D01*
X109960713Y-343003595D02*
X110151190Y-343003595D01*
X110151190Y-343003595D02*
X110265475Y-343041690D01*
X195579068Y-344741284D02*
X195579068Y-344360331D01*
X195807640Y-344817474D02*
X195007640Y-344550807D01*
X195007640Y-344550807D02*
X195807640Y-344284141D01*
X195807640Y-344017474D02*
X195274306Y-344017474D01*
X195007640Y-344017474D02*
X195045735Y-344055570D01*
X195045735Y-344055570D02*
X195083830Y-344017474D01*
X195083830Y-344017474D02*
X195045735Y-343979379D01*
X195045735Y-343979379D02*
X195007640Y-344017474D01*
X195007640Y-344017474D02*
X195083830Y-344017474D01*
X195807640Y-343636522D02*
X195274306Y-343636522D01*
X195426687Y-343636522D02*
X195350497Y-343598427D01*
X195350497Y-343598427D02*
X195312402Y-343560332D01*
X195312402Y-343560332D02*
X195274306Y-343484141D01*
X195274306Y-343484141D02*
X195274306Y-343407951D01*
X195883830Y-341998427D02*
X195845735Y-342074617D01*
X195845735Y-342074617D02*
X195769545Y-342150808D01*
X195769545Y-342150808D02*
X195655259Y-342265094D01*
X195655259Y-342265094D02*
X195617164Y-342341284D01*
X195617164Y-342341284D02*
X195617164Y-342417475D01*
X195807640Y-342379379D02*
X195769545Y-342455570D01*
X195769545Y-342455570D02*
X195693354Y-342531760D01*
X195693354Y-342531760D02*
X195540973Y-342569856D01*
X195540973Y-342569856D02*
X195274306Y-342569856D01*
X195274306Y-342569856D02*
X195121925Y-342531760D01*
X195121925Y-342531760D02*
X195045735Y-342455570D01*
X195045735Y-342455570D02*
X195007640Y-342379379D01*
X195007640Y-342379379D02*
X195007640Y-342226998D01*
X195007640Y-342226998D02*
X195045735Y-342150808D01*
X195045735Y-342150808D02*
X195121925Y-342074617D01*
X195121925Y-342074617D02*
X195274306Y-342036522D01*
X195274306Y-342036522D02*
X195540973Y-342036522D01*
X195540973Y-342036522D02*
X195693354Y-342074617D01*
X195693354Y-342074617D02*
X195769545Y-342150808D01*
X195769545Y-342150808D02*
X195807640Y-342226998D01*
X195807640Y-342226998D02*
X195807640Y-342379379D01*
X195274306Y-341350808D02*
X195807640Y-341350808D01*
X195274306Y-341693665D02*
X195693354Y-341693665D01*
X195693354Y-341693665D02*
X195769545Y-341655570D01*
X195769545Y-341655570D02*
X195807640Y-341579380D01*
X195807640Y-341579380D02*
X195807640Y-341465094D01*
X195807640Y-341465094D02*
X195769545Y-341388903D01*
X195769545Y-341388903D02*
X195731449Y-341350808D01*
X195807640Y-340626998D02*
X195388592Y-340626998D01*
X195388592Y-340626998D02*
X195312402Y-340665093D01*
X195312402Y-340665093D02*
X195274306Y-340741284D01*
X195274306Y-340741284D02*
X195274306Y-340893665D01*
X195274306Y-340893665D02*
X195312402Y-340969855D01*
X195769545Y-340626998D02*
X195807640Y-340703189D01*
X195807640Y-340703189D02*
X195807640Y-340893665D01*
X195807640Y-340893665D02*
X195769545Y-340969855D01*
X195769545Y-340969855D02*
X195693354Y-341007951D01*
X195693354Y-341007951D02*
X195617164Y-341007951D01*
X195617164Y-341007951D02*
X195540973Y-340969855D01*
X195540973Y-340969855D02*
X195502878Y-340893665D01*
X195502878Y-340893665D02*
X195502878Y-340703189D01*
X195502878Y-340703189D02*
X195464783Y-340626998D01*
X195807640Y-340131760D02*
X195769545Y-340207950D01*
X195769545Y-340207950D02*
X195693354Y-340246045D01*
X195693354Y-340246045D02*
X195007640Y-340246045D01*
X195807640Y-339826997D02*
X195274306Y-339826997D01*
X195007640Y-339826997D02*
X195045735Y-339865093D01*
X195045735Y-339865093D02*
X195083830Y-339826997D01*
X195083830Y-339826997D02*
X195045735Y-339788902D01*
X195045735Y-339788902D02*
X195007640Y-339826997D01*
X195007640Y-339826997D02*
X195083830Y-339826997D01*
X195274306Y-339560331D02*
X195274306Y-339255569D01*
X195007640Y-339446045D02*
X195693354Y-339446045D01*
X195693354Y-339446045D02*
X195769545Y-339407950D01*
X195769545Y-339407950D02*
X195807640Y-339331760D01*
X195807640Y-339331760D02*
X195807640Y-339255569D01*
X195274306Y-339065093D02*
X195807640Y-338874617D01*
X195274306Y-338684140D02*
X195807640Y-338874617D01*
X195807640Y-338874617D02*
X195998116Y-338950807D01*
X195998116Y-338950807D02*
X196036211Y-338988902D01*
X196036211Y-338988902D02*
X196074306Y-339065093D01*
X195807640Y-337769854D02*
X195007640Y-337769854D01*
X195007640Y-337769854D02*
X195579068Y-337503188D01*
X195579068Y-337503188D02*
X195007640Y-337236521D01*
X195007640Y-337236521D02*
X195807640Y-337236521D01*
X195769545Y-336550806D02*
X195807640Y-336626997D01*
X195807640Y-336626997D02*
X195807640Y-336779378D01*
X195807640Y-336779378D02*
X195769545Y-336855568D01*
X195769545Y-336855568D02*
X195693354Y-336893664D01*
X195693354Y-336893664D02*
X195388592Y-336893664D01*
X195388592Y-336893664D02*
X195312402Y-336855568D01*
X195312402Y-336855568D02*
X195274306Y-336779378D01*
X195274306Y-336779378D02*
X195274306Y-336626997D01*
X195274306Y-336626997D02*
X195312402Y-336550806D01*
X195312402Y-336550806D02*
X195388592Y-336512711D01*
X195388592Y-336512711D02*
X195464783Y-336512711D01*
X195464783Y-336512711D02*
X195540973Y-336893664D01*
X195274306Y-336284140D02*
X195274306Y-335979378D01*
X195007640Y-336169854D02*
X195693354Y-336169854D01*
X195693354Y-336169854D02*
X195769545Y-336131759D01*
X195769545Y-336131759D02*
X195807640Y-336055569D01*
X195807640Y-336055569D02*
X195807640Y-335979378D01*
X195769545Y-335407949D02*
X195807640Y-335484140D01*
X195807640Y-335484140D02*
X195807640Y-335636521D01*
X195807640Y-335636521D02*
X195769545Y-335712711D01*
X195769545Y-335712711D02*
X195693354Y-335750807D01*
X195693354Y-335750807D02*
X195388592Y-335750807D01*
X195388592Y-335750807D02*
X195312402Y-335712711D01*
X195312402Y-335712711D02*
X195274306Y-335636521D01*
X195274306Y-335636521D02*
X195274306Y-335484140D01*
X195274306Y-335484140D02*
X195312402Y-335407949D01*
X195312402Y-335407949D02*
X195388592Y-335369854D01*
X195388592Y-335369854D02*
X195464783Y-335369854D01*
X195464783Y-335369854D02*
X195540973Y-335750807D01*
X195807640Y-335026997D02*
X195274306Y-335026997D01*
X195426687Y-335026997D02*
X195350497Y-334988902D01*
X195350497Y-334988902D02*
X195312402Y-334950807D01*
X195312402Y-334950807D02*
X195274306Y-334874616D01*
X195274306Y-334874616D02*
X195274306Y-334798426D01*
X196562261Y-346798426D02*
X196562261Y-346493664D01*
X197095595Y-346684140D02*
X196409880Y-346684140D01*
X196409880Y-346684140D02*
X196333690Y-346646045D01*
X196333690Y-346646045D02*
X196295595Y-346569855D01*
X196295595Y-346569855D02*
X196295595Y-346493664D01*
X197095595Y-346112712D02*
X197057500Y-346188902D01*
X197057500Y-346188902D02*
X197019404Y-346226997D01*
X197019404Y-346226997D02*
X196943214Y-346265093D01*
X196943214Y-346265093D02*
X196714642Y-346265093D01*
X196714642Y-346265093D02*
X196638452Y-346226997D01*
X196638452Y-346226997D02*
X196600357Y-346188902D01*
X196600357Y-346188902D02*
X196562261Y-346112712D01*
X196562261Y-346112712D02*
X196562261Y-345998426D01*
X196562261Y-345998426D02*
X196600357Y-345922235D01*
X196600357Y-345922235D02*
X196638452Y-345884140D01*
X196638452Y-345884140D02*
X196714642Y-345846045D01*
X196714642Y-345846045D02*
X196943214Y-345846045D01*
X196943214Y-345846045D02*
X197019404Y-345884140D01*
X197019404Y-345884140D02*
X197057500Y-345922235D01*
X197057500Y-345922235D02*
X197095595Y-345998426D01*
X197095595Y-345998426D02*
X197095595Y-346112712D01*
X197095595Y-345503187D02*
X196562261Y-345503187D01*
X196714642Y-345503187D02*
X196638452Y-345465092D01*
X196638452Y-345465092D02*
X196600357Y-345426997D01*
X196600357Y-345426997D02*
X196562261Y-345350806D01*
X196562261Y-345350806D02*
X196562261Y-345274616D01*
X196295595Y-344512711D02*
X197095595Y-344246044D01*
X197095595Y-344246044D02*
X196295595Y-343979378D01*
X196676547Y-343712711D02*
X196676547Y-343446045D01*
X197095595Y-343331759D02*
X197095595Y-343712711D01*
X197095595Y-343712711D02*
X196295595Y-343712711D01*
X196295595Y-343712711D02*
X196295595Y-343331759D01*
X197095595Y-342531758D02*
X196714642Y-342798425D01*
X197095595Y-342988901D02*
X196295595Y-342988901D01*
X196295595Y-342988901D02*
X196295595Y-342684139D01*
X196295595Y-342684139D02*
X196333690Y-342607949D01*
X196333690Y-342607949D02*
X196371785Y-342569854D01*
X196371785Y-342569854D02*
X196447976Y-342531758D01*
X196447976Y-342531758D02*
X196562261Y-342531758D01*
X196562261Y-342531758D02*
X196638452Y-342569854D01*
X196638452Y-342569854D02*
X196676547Y-342607949D01*
X196676547Y-342607949D02*
X196714642Y-342684139D01*
X196714642Y-342684139D02*
X196714642Y-342988901D01*
X197095595Y-342188901D02*
X196295595Y-342188901D01*
X196295595Y-342188901D02*
X197095595Y-341731758D01*
X197095595Y-341731758D02*
X196295595Y-341731758D01*
X196295595Y-341312711D02*
X196447976Y-341388902D01*
X196295595Y-340360330D02*
X196943214Y-340360330D01*
X196943214Y-340360330D02*
X197019404Y-340322235D01*
X197019404Y-340322235D02*
X197057500Y-340284140D01*
X197057500Y-340284140D02*
X197095595Y-340207949D01*
X197095595Y-340207949D02*
X197095595Y-340055568D01*
X197095595Y-340055568D02*
X197057500Y-339979378D01*
X197057500Y-339979378D02*
X197019404Y-339941283D01*
X197019404Y-339941283D02*
X196943214Y-339903187D01*
X196943214Y-339903187D02*
X196295595Y-339903187D01*
X196562261Y-339522235D02*
X197095595Y-339522235D01*
X196638452Y-339522235D02*
X196600357Y-339484140D01*
X196600357Y-339484140D02*
X196562261Y-339407950D01*
X196562261Y-339407950D02*
X196562261Y-339293664D01*
X196562261Y-339293664D02*
X196600357Y-339217473D01*
X196600357Y-339217473D02*
X196676547Y-339179378D01*
X196676547Y-339179378D02*
X197095595Y-339179378D01*
X197095595Y-338798425D02*
X196562261Y-338798425D01*
X196295595Y-338798425D02*
X196333690Y-338836521D01*
X196333690Y-338836521D02*
X196371785Y-338798425D01*
X196371785Y-338798425D02*
X196333690Y-338760330D01*
X196333690Y-338760330D02*
X196295595Y-338798425D01*
X196295595Y-338798425D02*
X196371785Y-338798425D01*
X196562261Y-338493664D02*
X197095595Y-338303188D01*
X197095595Y-338303188D02*
X196562261Y-338112711D01*
X197057500Y-337503187D02*
X197095595Y-337579378D01*
X197095595Y-337579378D02*
X197095595Y-337731759D01*
X197095595Y-337731759D02*
X197057500Y-337807949D01*
X197057500Y-337807949D02*
X196981309Y-337846045D01*
X196981309Y-337846045D02*
X196676547Y-337846045D01*
X196676547Y-337846045D02*
X196600357Y-337807949D01*
X196600357Y-337807949D02*
X196562261Y-337731759D01*
X196562261Y-337731759D02*
X196562261Y-337579378D01*
X196562261Y-337579378D02*
X196600357Y-337503187D01*
X196600357Y-337503187D02*
X196676547Y-337465092D01*
X196676547Y-337465092D02*
X196752738Y-337465092D01*
X196752738Y-337465092D02*
X196828928Y-337846045D01*
X197095595Y-337122235D02*
X196562261Y-337122235D01*
X196714642Y-337122235D02*
X196638452Y-337084140D01*
X196638452Y-337084140D02*
X196600357Y-337046045D01*
X196600357Y-337046045D02*
X196562261Y-336969854D01*
X196562261Y-336969854D02*
X196562261Y-336893664D01*
X197057500Y-336665093D02*
X197095595Y-336588902D01*
X197095595Y-336588902D02*
X197095595Y-336436521D01*
X197095595Y-336436521D02*
X197057500Y-336360331D01*
X197057500Y-336360331D02*
X196981309Y-336322235D01*
X196981309Y-336322235D02*
X196943214Y-336322235D01*
X196943214Y-336322235D02*
X196867023Y-336360331D01*
X196867023Y-336360331D02*
X196828928Y-336436521D01*
X196828928Y-336436521D02*
X196828928Y-336550807D01*
X196828928Y-336550807D02*
X196790833Y-336626997D01*
X196790833Y-336626997D02*
X196714642Y-336665093D01*
X196714642Y-336665093D02*
X196676547Y-336665093D01*
X196676547Y-336665093D02*
X196600357Y-336626997D01*
X196600357Y-336626997D02*
X196562261Y-336550807D01*
X196562261Y-336550807D02*
X196562261Y-336436521D01*
X196562261Y-336436521D02*
X196600357Y-336360331D01*
X197095595Y-335979378D02*
X196562261Y-335979378D01*
X196295595Y-335979378D02*
X196333690Y-336017474D01*
X196333690Y-336017474D02*
X196371785Y-335979378D01*
X196371785Y-335979378D02*
X196333690Y-335941283D01*
X196333690Y-335941283D02*
X196295595Y-335979378D01*
X196295595Y-335979378D02*
X196371785Y-335979378D01*
X196562261Y-335712712D02*
X196562261Y-335407950D01*
X196295595Y-335598426D02*
X196981309Y-335598426D01*
X196981309Y-335598426D02*
X197057500Y-335560331D01*
X197057500Y-335560331D02*
X197095595Y-335484141D01*
X197095595Y-335484141D02*
X197095595Y-335407950D01*
X196562261Y-335217474D02*
X197095595Y-335026998D01*
X196562261Y-334836521D02*
X197095595Y-335026998D01*
X197095595Y-335026998D02*
X197286071Y-335103188D01*
X197286071Y-335103188D02*
X197324166Y-335141283D01*
X197324166Y-335141283D02*
X197362261Y-335217474D01*
D10*
X143668922Y-324254819D02*
X144240350Y-324254819D01*
X143954636Y-325254819D02*
X143954636Y-324254819D01*
X145145112Y-325159580D02*
X145097493Y-325207200D01*
X145097493Y-325207200D02*
X144954636Y-325254819D01*
X144954636Y-325254819D02*
X144859398Y-325254819D01*
X144859398Y-325254819D02*
X144716541Y-325207200D01*
X144716541Y-325207200D02*
X144621303Y-325111961D01*
X144621303Y-325111961D02*
X144573684Y-325016723D01*
X144573684Y-325016723D02*
X144526065Y-324826247D01*
X144526065Y-324826247D02*
X144526065Y-324683390D01*
X144526065Y-324683390D02*
X144573684Y-324492914D01*
X144573684Y-324492914D02*
X144621303Y-324397676D01*
X144621303Y-324397676D02*
X144716541Y-324302438D01*
X144716541Y-324302438D02*
X144859398Y-324254819D01*
X144859398Y-324254819D02*
X144954636Y-324254819D01*
X144954636Y-324254819D02*
X145097493Y-324302438D01*
X145097493Y-324302438D02*
X145145112Y-324350057D01*
X145573684Y-325254819D02*
X145573684Y-324254819D01*
X146145112Y-325254819D02*
X145716541Y-324683390D01*
X146145112Y-324254819D02*
X145573684Y-324826247D01*
X161744819Y-304206666D02*
X161268628Y-304539999D01*
X161744819Y-304778094D02*
X160744819Y-304778094D01*
X160744819Y-304778094D02*
X160744819Y-304397142D01*
X160744819Y-304397142D02*
X160792438Y-304301904D01*
X160792438Y-304301904D02*
X160840057Y-304254285D01*
X160840057Y-304254285D02*
X160935295Y-304206666D01*
X160935295Y-304206666D02*
X161078152Y-304206666D01*
X161078152Y-304206666D02*
X161173390Y-304254285D01*
X161173390Y-304254285D02*
X161221009Y-304301904D01*
X161221009Y-304301904D02*
X161268628Y-304397142D01*
X161268628Y-304397142D02*
X161268628Y-304778094D01*
X160744819Y-303873332D02*
X161744819Y-303206666D01*
X160744819Y-303206666D02*
X161744819Y-303873332D01*
X104195238Y-326821009D02*
X104338095Y-326868628D01*
X104338095Y-326868628D02*
X104385714Y-326916247D01*
X104385714Y-326916247D02*
X104433333Y-327011485D01*
X104433333Y-327011485D02*
X104433333Y-327154342D01*
X104433333Y-327154342D02*
X104385714Y-327249580D01*
X104385714Y-327249580D02*
X104338095Y-327297200D01*
X104338095Y-327297200D02*
X104242857Y-327344819D01*
X104242857Y-327344819D02*
X103861905Y-327344819D01*
X103861905Y-327344819D02*
X103861905Y-326344819D01*
X103861905Y-326344819D02*
X104195238Y-326344819D01*
X104195238Y-326344819D02*
X104290476Y-326392438D01*
X104290476Y-326392438D02*
X104338095Y-326440057D01*
X104338095Y-326440057D02*
X104385714Y-326535295D01*
X104385714Y-326535295D02*
X104385714Y-326630533D01*
X104385714Y-326630533D02*
X104338095Y-326725771D01*
X104338095Y-326725771D02*
X104290476Y-326773390D01*
X104290476Y-326773390D02*
X104195238Y-326821009D01*
X104195238Y-326821009D02*
X103861905Y-326821009D01*
X104814286Y-327059104D02*
X105290476Y-327059104D01*
X104719048Y-327344819D02*
X105052381Y-326344819D01*
X105052381Y-326344819D02*
X105385714Y-327344819D01*
X106290476Y-327249580D02*
X106242857Y-327297200D01*
X106242857Y-327297200D02*
X106100000Y-327344819D01*
X106100000Y-327344819D02*
X106004762Y-327344819D01*
X106004762Y-327344819D02*
X105861905Y-327297200D01*
X105861905Y-327297200D02*
X105766667Y-327201961D01*
X105766667Y-327201961D02*
X105719048Y-327106723D01*
X105719048Y-327106723D02*
X105671429Y-326916247D01*
X105671429Y-326916247D02*
X105671429Y-326773390D01*
X105671429Y-326773390D02*
X105719048Y-326582914D01*
X105719048Y-326582914D02*
X105766667Y-326487676D01*
X105766667Y-326487676D02*
X105861905Y-326392438D01*
X105861905Y-326392438D02*
X106004762Y-326344819D01*
X106004762Y-326344819D02*
X106100000Y-326344819D01*
X106100000Y-326344819D02*
X106242857Y-326392438D01*
X106242857Y-326392438D02*
X106290476Y-326440057D01*
X106719048Y-327344819D02*
X106719048Y-326344819D01*
X107290476Y-327344819D02*
X106861905Y-326773390D01*
X107290476Y-326344819D02*
X106719048Y-326916247D01*
X108195238Y-327344819D02*
X107719048Y-327344819D01*
X107719048Y-327344819D02*
X107719048Y-326344819D01*
X108528572Y-327344819D02*
X108528572Y-326344819D01*
X109528571Y-326392438D02*
X109433333Y-326344819D01*
X109433333Y-326344819D02*
X109290476Y-326344819D01*
X109290476Y-326344819D02*
X109147619Y-326392438D01*
X109147619Y-326392438D02*
X109052381Y-326487676D01*
X109052381Y-326487676D02*
X109004762Y-326582914D01*
X109004762Y-326582914D02*
X108957143Y-326773390D01*
X108957143Y-326773390D02*
X108957143Y-326916247D01*
X108957143Y-326916247D02*
X109004762Y-327106723D01*
X109004762Y-327106723D02*
X109052381Y-327201961D01*
X109052381Y-327201961D02*
X109147619Y-327297200D01*
X109147619Y-327297200D02*
X109290476Y-327344819D01*
X109290476Y-327344819D02*
X109385714Y-327344819D01*
X109385714Y-327344819D02*
X109528571Y-327297200D01*
X109528571Y-327297200D02*
X109576190Y-327249580D01*
X109576190Y-327249580D02*
X109576190Y-326916247D01*
X109576190Y-326916247D02*
X109385714Y-326916247D01*
X110004762Y-327344819D02*
X110004762Y-326344819D01*
X110004762Y-326821009D02*
X110576190Y-326821009D01*
X110576190Y-327344819D02*
X110576190Y-326344819D01*
X110909524Y-326344819D02*
X111480952Y-326344819D01*
X111195238Y-327344819D02*
X111195238Y-326344819D01*
X142236343Y-354923190D02*
X141236343Y-354923190D01*
X141236343Y-354923190D02*
X141236343Y-354685095D01*
X141236343Y-354685095D02*
X141283962Y-354542238D01*
X141283962Y-354542238D02*
X141379200Y-354447000D01*
X141379200Y-354447000D02*
X141474438Y-354399381D01*
X141474438Y-354399381D02*
X141664914Y-354351762D01*
X141664914Y-354351762D02*
X141807771Y-354351762D01*
X141807771Y-354351762D02*
X141998247Y-354399381D01*
X141998247Y-354399381D02*
X142093485Y-354447000D01*
X142093485Y-354447000D02*
X142188724Y-354542238D01*
X142188724Y-354542238D02*
X142236343Y-354685095D01*
X142236343Y-354685095D02*
X142236343Y-354923190D01*
X142236343Y-353923190D02*
X141236343Y-353923190D01*
X141236343Y-353923190D02*
X141236343Y-353542238D01*
X141236343Y-353542238D02*
X141283962Y-353447000D01*
X141283962Y-353447000D02*
X141331581Y-353399381D01*
X141331581Y-353399381D02*
X141426819Y-353351762D01*
X141426819Y-353351762D02*
X141569676Y-353351762D01*
X141569676Y-353351762D02*
X141664914Y-353399381D01*
X141664914Y-353399381D02*
X141712533Y-353447000D01*
X141712533Y-353447000D02*
X141760152Y-353542238D01*
X141760152Y-353542238D02*
X141760152Y-353923190D01*
X142188724Y-352970809D02*
X142236343Y-352827952D01*
X142236343Y-352827952D02*
X142236343Y-352589857D01*
X142236343Y-352589857D02*
X142188724Y-352494619D01*
X142188724Y-352494619D02*
X142141104Y-352447000D01*
X142141104Y-352447000D02*
X142045866Y-352399381D01*
X142045866Y-352399381D02*
X141950628Y-352399381D01*
X141950628Y-352399381D02*
X141855390Y-352447000D01*
X141855390Y-352447000D02*
X141807771Y-352494619D01*
X141807771Y-352494619D02*
X141760152Y-352589857D01*
X141760152Y-352589857D02*
X141712533Y-352780333D01*
X141712533Y-352780333D02*
X141664914Y-352875571D01*
X141664914Y-352875571D02*
X141617295Y-352923190D01*
X141617295Y-352923190D02*
X141522057Y-352970809D01*
X141522057Y-352970809D02*
X141426819Y-352970809D01*
X141426819Y-352970809D02*
X141331581Y-352923190D01*
X141331581Y-352923190D02*
X141283962Y-352875571D01*
X141283962Y-352875571D02*
X141236343Y-352780333D01*
X141236343Y-352780333D02*
X141236343Y-352542238D01*
X141236343Y-352542238D02*
X141283962Y-352399381D01*
X141236343Y-352066047D02*
X141236343Y-351447000D01*
X141236343Y-351447000D02*
X141617295Y-351780333D01*
X141617295Y-351780333D02*
X141617295Y-351637476D01*
X141617295Y-351637476D02*
X141664914Y-351542238D01*
X141664914Y-351542238D02*
X141712533Y-351494619D01*
X141712533Y-351494619D02*
X141807771Y-351447000D01*
X141807771Y-351447000D02*
X142045866Y-351447000D01*
X142045866Y-351447000D02*
X142141104Y-351494619D01*
X142141104Y-351494619D02*
X142188724Y-351542238D01*
X142188724Y-351542238D02*
X142236343Y-351637476D01*
X142236343Y-351637476D02*
X142236343Y-351923190D01*
X142236343Y-351923190D02*
X142188724Y-352018428D01*
X142188724Y-352018428D02*
X142141104Y-352066047D01*
X141236343Y-350589857D02*
X141236343Y-350780333D01*
X141236343Y-350780333D02*
X141283962Y-350875571D01*
X141283962Y-350875571D02*
X141331581Y-350923190D01*
X141331581Y-350923190D02*
X141474438Y-351018428D01*
X141474438Y-351018428D02*
X141664914Y-351066047D01*
X141664914Y-351066047D02*
X142045866Y-351066047D01*
X142045866Y-351066047D02*
X142141104Y-351018428D01*
X142141104Y-351018428D02*
X142188724Y-350970809D01*
X142188724Y-350970809D02*
X142236343Y-350875571D01*
X142236343Y-350875571D02*
X142236343Y-350685095D01*
X142236343Y-350685095D02*
X142188724Y-350589857D01*
X142188724Y-350589857D02*
X142141104Y-350542238D01*
X142141104Y-350542238D02*
X142045866Y-350494619D01*
X142045866Y-350494619D02*
X141807771Y-350494619D01*
X141807771Y-350494619D02*
X141712533Y-350542238D01*
X141712533Y-350542238D02*
X141664914Y-350589857D01*
X141664914Y-350589857D02*
X141617295Y-350685095D01*
X141617295Y-350685095D02*
X141617295Y-350875571D01*
X141617295Y-350875571D02*
X141664914Y-350970809D01*
X141664914Y-350970809D02*
X141712533Y-351018428D01*
X141712533Y-351018428D02*
X141807771Y-351066047D01*
X141664914Y-349923190D02*
X141617295Y-350018428D01*
X141617295Y-350018428D02*
X141569676Y-350066047D01*
X141569676Y-350066047D02*
X141474438Y-350113666D01*
X141474438Y-350113666D02*
X141426819Y-350113666D01*
X141426819Y-350113666D02*
X141331581Y-350066047D01*
X141331581Y-350066047D02*
X141283962Y-350018428D01*
X141283962Y-350018428D02*
X141236343Y-349923190D01*
X141236343Y-349923190D02*
X141236343Y-349732714D01*
X141236343Y-349732714D02*
X141283962Y-349637476D01*
X141283962Y-349637476D02*
X141331581Y-349589857D01*
X141331581Y-349589857D02*
X141426819Y-349542238D01*
X141426819Y-349542238D02*
X141474438Y-349542238D01*
X141474438Y-349542238D02*
X141569676Y-349589857D01*
X141569676Y-349589857D02*
X141617295Y-349637476D01*
X141617295Y-349637476D02*
X141664914Y-349732714D01*
X141664914Y-349732714D02*
X141664914Y-349923190D01*
X141664914Y-349923190D02*
X141712533Y-350018428D01*
X141712533Y-350018428D02*
X141760152Y-350066047D01*
X141760152Y-350066047D02*
X141855390Y-350113666D01*
X141855390Y-350113666D02*
X142045866Y-350113666D01*
X142045866Y-350113666D02*
X142141104Y-350066047D01*
X142141104Y-350066047D02*
X142188724Y-350018428D01*
X142188724Y-350018428D02*
X142236343Y-349923190D01*
X142236343Y-349923190D02*
X142236343Y-349732714D01*
X142236343Y-349732714D02*
X142188724Y-349637476D01*
X142188724Y-349637476D02*
X142141104Y-349589857D01*
X142141104Y-349589857D02*
X142045866Y-349542238D01*
X142045866Y-349542238D02*
X141855390Y-349542238D01*
X141855390Y-349542238D02*
X141760152Y-349589857D01*
X141760152Y-349589857D02*
X141712533Y-349637476D01*
X141712533Y-349637476D02*
X141664914Y-349732714D01*
X103866667Y-344144819D02*
X104200000Y-345144819D01*
X104200000Y-345144819D02*
X104533333Y-344144819D01*
X105438095Y-345049580D02*
X105390476Y-345097200D01*
X105390476Y-345097200D02*
X105247619Y-345144819D01*
X105247619Y-345144819D02*
X105152381Y-345144819D01*
X105152381Y-345144819D02*
X105009524Y-345097200D01*
X105009524Y-345097200D02*
X104914286Y-345001961D01*
X104914286Y-345001961D02*
X104866667Y-344906723D01*
X104866667Y-344906723D02*
X104819048Y-344716247D01*
X104819048Y-344716247D02*
X104819048Y-344573390D01*
X104819048Y-344573390D02*
X104866667Y-344382914D01*
X104866667Y-344382914D02*
X104914286Y-344287676D01*
X104914286Y-344287676D02*
X105009524Y-344192438D01*
X105009524Y-344192438D02*
X105152381Y-344144819D01*
X105152381Y-344144819D02*
X105247619Y-344144819D01*
X105247619Y-344144819D02*
X105390476Y-344192438D01*
X105390476Y-344192438D02*
X105438095Y-344240057D01*
X106438095Y-345049580D02*
X106390476Y-345097200D01*
X106390476Y-345097200D02*
X106247619Y-345144819D01*
X106247619Y-345144819D02*
X106152381Y-345144819D01*
X106152381Y-345144819D02*
X106009524Y-345097200D01*
X106009524Y-345097200D02*
X105914286Y-345001961D01*
X105914286Y-345001961D02*
X105866667Y-344906723D01*
X105866667Y-344906723D02*
X105819048Y-344716247D01*
X105819048Y-344716247D02*
X105819048Y-344573390D01*
X105819048Y-344573390D02*
X105866667Y-344382914D01*
X105866667Y-344382914D02*
X105914286Y-344287676D01*
X105914286Y-344287676D02*
X106009524Y-344192438D01*
X106009524Y-344192438D02*
X106152381Y-344144819D01*
X106152381Y-344144819D02*
X106247619Y-344144819D01*
X106247619Y-344144819D02*
X106390476Y-344192438D01*
X106390476Y-344192438D02*
X106438095Y-344240057D01*
X103878571Y-321294819D02*
X104449999Y-321294819D01*
X104164285Y-322294819D02*
X104164285Y-321294819D01*
X104545238Y-322390057D02*
X105307142Y-322390057D01*
X106116666Y-322199580D02*
X106069047Y-322247200D01*
X106069047Y-322247200D02*
X105926190Y-322294819D01*
X105926190Y-322294819D02*
X105830952Y-322294819D01*
X105830952Y-322294819D02*
X105688095Y-322247200D01*
X105688095Y-322247200D02*
X105592857Y-322151961D01*
X105592857Y-322151961D02*
X105545238Y-322056723D01*
X105545238Y-322056723D02*
X105497619Y-321866247D01*
X105497619Y-321866247D02*
X105497619Y-321723390D01*
X105497619Y-321723390D02*
X105545238Y-321532914D01*
X105545238Y-321532914D02*
X105592857Y-321437676D01*
X105592857Y-321437676D02*
X105688095Y-321342438D01*
X105688095Y-321342438D02*
X105830952Y-321294819D01*
X105830952Y-321294819D02*
X105926190Y-321294819D01*
X105926190Y-321294819D02*
X106069047Y-321342438D01*
X106069047Y-321342438D02*
X106116666Y-321390057D01*
X107021428Y-322294819D02*
X106545238Y-322294819D01*
X106545238Y-322294819D02*
X106545238Y-321294819D01*
X107354762Y-322294819D02*
X107354762Y-321294819D01*
X107926190Y-322294819D02*
X107497619Y-321723390D01*
X107926190Y-321294819D02*
X107354762Y-321866247D01*
X103854762Y-313644819D02*
X104426190Y-313644819D01*
X104140476Y-314644819D02*
X104140476Y-313644819D01*
X104521429Y-314740057D02*
X105283333Y-314740057D01*
X105711905Y-313644819D02*
X105902381Y-313644819D01*
X105902381Y-313644819D02*
X105997619Y-313692438D01*
X105997619Y-313692438D02*
X106092857Y-313787676D01*
X106092857Y-313787676D02*
X106140476Y-313978152D01*
X106140476Y-313978152D02*
X106140476Y-314311485D01*
X106140476Y-314311485D02*
X106092857Y-314501961D01*
X106092857Y-314501961D02*
X105997619Y-314597200D01*
X105997619Y-314597200D02*
X105902381Y-314644819D01*
X105902381Y-314644819D02*
X105711905Y-314644819D01*
X105711905Y-314644819D02*
X105616667Y-314597200D01*
X105616667Y-314597200D02*
X105521429Y-314501961D01*
X105521429Y-314501961D02*
X105473810Y-314311485D01*
X105473810Y-314311485D02*
X105473810Y-313978152D01*
X105473810Y-313978152D02*
X105521429Y-313787676D01*
X105521429Y-313787676D02*
X105616667Y-313692438D01*
X105616667Y-313692438D02*
X105711905Y-313644819D01*
X106569048Y-313644819D02*
X106569048Y-314454342D01*
X106569048Y-314454342D02*
X106616667Y-314549580D01*
X106616667Y-314549580D02*
X106664286Y-314597200D01*
X106664286Y-314597200D02*
X106759524Y-314644819D01*
X106759524Y-314644819D02*
X106950000Y-314644819D01*
X106950000Y-314644819D02*
X107045238Y-314597200D01*
X107045238Y-314597200D02*
X107092857Y-314549580D01*
X107092857Y-314549580D02*
X107140476Y-314454342D01*
X107140476Y-314454342D02*
X107140476Y-313644819D01*
X107473810Y-313644819D02*
X108045238Y-313644819D01*
X107759524Y-314644819D02*
X107759524Y-313644819D01*
D11*
X107884523Y-345603595D02*
X108379761Y-345603595D01*
X108379761Y-345603595D02*
X108113095Y-345908357D01*
X108113095Y-345908357D02*
X108227380Y-345908357D01*
X108227380Y-345908357D02*
X108303571Y-345946452D01*
X108303571Y-345946452D02*
X108341666Y-345984547D01*
X108341666Y-345984547D02*
X108379761Y-346060738D01*
X108379761Y-346060738D02*
X108379761Y-346251214D01*
X108379761Y-346251214D02*
X108341666Y-346327404D01*
X108341666Y-346327404D02*
X108303571Y-346365500D01*
X108303571Y-346365500D02*
X108227380Y-346403595D01*
X108227380Y-346403595D02*
X107998809Y-346403595D01*
X107998809Y-346403595D02*
X107922618Y-346365500D01*
X107922618Y-346365500D02*
X107884523Y-346327404D01*
X108608333Y-345603595D02*
X108875000Y-346403595D01*
X108875000Y-346403595D02*
X109141666Y-345603595D01*
X109332142Y-345603595D02*
X109827380Y-345603595D01*
X109827380Y-345603595D02*
X109560714Y-345908357D01*
X109560714Y-345908357D02*
X109674999Y-345908357D01*
X109674999Y-345908357D02*
X109751190Y-345946452D01*
X109751190Y-345946452D02*
X109789285Y-345984547D01*
X109789285Y-345984547D02*
X109827380Y-346060738D01*
X109827380Y-346060738D02*
X109827380Y-346251214D01*
X109827380Y-346251214D02*
X109789285Y-346327404D01*
X109789285Y-346327404D02*
X109751190Y-346365500D01*
X109751190Y-346365500D02*
X109674999Y-346403595D01*
X109674999Y-346403595D02*
X109446428Y-346403595D01*
X109446428Y-346403595D02*
X109370237Y-346365500D01*
X109370237Y-346365500D02*
X109332142Y-346327404D01*
D10*
X171694819Y-318578094D02*
X171694819Y-317959047D01*
X171694819Y-317959047D02*
X172075771Y-318292380D01*
X172075771Y-318292380D02*
X172075771Y-318149523D01*
X172075771Y-318149523D02*
X172123390Y-318054285D01*
X172123390Y-318054285D02*
X172171009Y-318006666D01*
X172171009Y-318006666D02*
X172266247Y-317959047D01*
X172266247Y-317959047D02*
X172504342Y-317959047D01*
X172504342Y-317959047D02*
X172599580Y-318006666D01*
X172599580Y-318006666D02*
X172647200Y-318054285D01*
X172647200Y-318054285D02*
X172694819Y-318149523D01*
X172694819Y-318149523D02*
X172694819Y-318435237D01*
X172694819Y-318435237D02*
X172647200Y-318530475D01*
X172647200Y-318530475D02*
X172599580Y-318578094D01*
X171694819Y-317673332D02*
X172694819Y-317339999D01*
X172694819Y-317339999D02*
X171694819Y-317006666D01*
X171694819Y-316768570D02*
X171694819Y-316149523D01*
X171694819Y-316149523D02*
X172075771Y-316482856D01*
X172075771Y-316482856D02*
X172075771Y-316339999D01*
X172075771Y-316339999D02*
X172123390Y-316244761D01*
X172123390Y-316244761D02*
X172171009Y-316197142D01*
X172171009Y-316197142D02*
X172266247Y-316149523D01*
X172266247Y-316149523D02*
X172504342Y-316149523D01*
X172504342Y-316149523D02*
X172599580Y-316197142D01*
X172599580Y-316197142D02*
X172647200Y-316244761D01*
X172647200Y-316244761D02*
X172694819Y-316339999D01*
X172694819Y-316339999D02*
X172694819Y-316625713D01*
X172694819Y-316625713D02*
X172647200Y-316720951D01*
X172647200Y-316720951D02*
X172599580Y-316768570D01*
X103878572Y-324794819D02*
X103878572Y-323794819D01*
X103878572Y-323794819D02*
X104211905Y-324509104D01*
X104211905Y-324509104D02*
X104545238Y-323794819D01*
X104545238Y-323794819D02*
X104545238Y-324794819D01*
X105021429Y-324794819D02*
X105021429Y-323794819D01*
X105450000Y-324747200D02*
X105592857Y-324794819D01*
X105592857Y-324794819D02*
X105830952Y-324794819D01*
X105830952Y-324794819D02*
X105926190Y-324747200D01*
X105926190Y-324747200D02*
X105973809Y-324699580D01*
X105973809Y-324699580D02*
X106021428Y-324604342D01*
X106021428Y-324604342D02*
X106021428Y-324509104D01*
X106021428Y-324509104D02*
X105973809Y-324413866D01*
X105973809Y-324413866D02*
X105926190Y-324366247D01*
X105926190Y-324366247D02*
X105830952Y-324318628D01*
X105830952Y-324318628D02*
X105640476Y-324271009D01*
X105640476Y-324271009D02*
X105545238Y-324223390D01*
X105545238Y-324223390D02*
X105497619Y-324175771D01*
X105497619Y-324175771D02*
X105450000Y-324080533D01*
X105450000Y-324080533D02*
X105450000Y-323985295D01*
X105450000Y-323985295D02*
X105497619Y-323890057D01*
X105497619Y-323890057D02*
X105545238Y-323842438D01*
X105545238Y-323842438D02*
X105640476Y-323794819D01*
X105640476Y-323794819D02*
X105878571Y-323794819D01*
X105878571Y-323794819D02*
X106021428Y-323842438D01*
X106640476Y-323794819D02*
X106830952Y-323794819D01*
X106830952Y-323794819D02*
X106926190Y-323842438D01*
X106926190Y-323842438D02*
X107021428Y-323937676D01*
X107021428Y-323937676D02*
X107069047Y-324128152D01*
X107069047Y-324128152D02*
X107069047Y-324461485D01*
X107069047Y-324461485D02*
X107021428Y-324651961D01*
X107021428Y-324651961D02*
X106926190Y-324747200D01*
X106926190Y-324747200D02*
X106830952Y-324794819D01*
X106830952Y-324794819D02*
X106640476Y-324794819D01*
X106640476Y-324794819D02*
X106545238Y-324747200D01*
X106545238Y-324747200D02*
X106450000Y-324651961D01*
X106450000Y-324651961D02*
X106402381Y-324461485D01*
X106402381Y-324461485D02*
X106402381Y-324128152D01*
X106402381Y-324128152D02*
X106450000Y-323937676D01*
X106450000Y-323937676D02*
X106545238Y-323842438D01*
X106545238Y-323842438D02*
X106640476Y-323794819D01*
X171557438Y-343689411D02*
X171509819Y-343784649D01*
X171509819Y-343784649D02*
X171509819Y-343927506D01*
X171509819Y-343927506D02*
X171557438Y-344070363D01*
X171557438Y-344070363D02*
X171652676Y-344165601D01*
X171652676Y-344165601D02*
X171747914Y-344213220D01*
X171747914Y-344213220D02*
X171938390Y-344260839D01*
X171938390Y-344260839D02*
X172081247Y-344260839D01*
X172081247Y-344260839D02*
X172271723Y-344213220D01*
X172271723Y-344213220D02*
X172366961Y-344165601D01*
X172366961Y-344165601D02*
X172462200Y-344070363D01*
X172462200Y-344070363D02*
X172509819Y-343927506D01*
X172509819Y-343927506D02*
X172509819Y-343832268D01*
X172509819Y-343832268D02*
X172462200Y-343689411D01*
X172462200Y-343689411D02*
X172414580Y-343641792D01*
X172414580Y-343641792D02*
X172081247Y-343641792D01*
X172081247Y-343641792D02*
X172081247Y-343832268D01*
X172509819Y-343213220D02*
X171509819Y-343213220D01*
X171509819Y-343213220D02*
X172509819Y-342641792D01*
X172509819Y-342641792D02*
X171509819Y-342641792D01*
X172509819Y-342165601D02*
X171509819Y-342165601D01*
X171509819Y-342165601D02*
X171509819Y-341927506D01*
X171509819Y-341927506D02*
X171557438Y-341784649D01*
X171557438Y-341784649D02*
X171652676Y-341689411D01*
X171652676Y-341689411D02*
X171747914Y-341641792D01*
X171747914Y-341641792D02*
X171938390Y-341594173D01*
X171938390Y-341594173D02*
X172081247Y-341594173D01*
X172081247Y-341594173D02*
X172271723Y-341641792D01*
X172271723Y-341641792D02*
X172366961Y-341689411D01*
X172366961Y-341689411D02*
X172462200Y-341784649D01*
X172462200Y-341784649D02*
X172509819Y-341927506D01*
X172509819Y-341927506D02*
X172509819Y-342165601D01*
X103864286Y-329897200D02*
X104007143Y-329944819D01*
X104007143Y-329944819D02*
X104245238Y-329944819D01*
X104245238Y-329944819D02*
X104340476Y-329897200D01*
X104340476Y-329897200D02*
X104388095Y-329849580D01*
X104388095Y-329849580D02*
X104435714Y-329754342D01*
X104435714Y-329754342D02*
X104435714Y-329659104D01*
X104435714Y-329659104D02*
X104388095Y-329563866D01*
X104388095Y-329563866D02*
X104340476Y-329516247D01*
X104340476Y-329516247D02*
X104245238Y-329468628D01*
X104245238Y-329468628D02*
X104054762Y-329421009D01*
X104054762Y-329421009D02*
X103959524Y-329373390D01*
X103959524Y-329373390D02*
X103911905Y-329325771D01*
X103911905Y-329325771D02*
X103864286Y-329230533D01*
X103864286Y-329230533D02*
X103864286Y-329135295D01*
X103864286Y-329135295D02*
X103911905Y-329040057D01*
X103911905Y-329040057D02*
X103959524Y-328992438D01*
X103959524Y-328992438D02*
X104054762Y-328944819D01*
X104054762Y-328944819D02*
X104292857Y-328944819D01*
X104292857Y-328944819D02*
X104435714Y-328992438D01*
X105435714Y-329849580D02*
X105388095Y-329897200D01*
X105388095Y-329897200D02*
X105245238Y-329944819D01*
X105245238Y-329944819D02*
X105150000Y-329944819D01*
X105150000Y-329944819D02*
X105007143Y-329897200D01*
X105007143Y-329897200D02*
X104911905Y-329801961D01*
X104911905Y-329801961D02*
X104864286Y-329706723D01*
X104864286Y-329706723D02*
X104816667Y-329516247D01*
X104816667Y-329516247D02*
X104816667Y-329373390D01*
X104816667Y-329373390D02*
X104864286Y-329182914D01*
X104864286Y-329182914D02*
X104911905Y-329087676D01*
X104911905Y-329087676D02*
X105007143Y-328992438D01*
X105007143Y-328992438D02*
X105150000Y-328944819D01*
X105150000Y-328944819D02*
X105245238Y-328944819D01*
X105245238Y-328944819D02*
X105388095Y-328992438D01*
X105388095Y-328992438D02*
X105435714Y-329040057D01*
X105864286Y-329944819D02*
X105864286Y-328944819D01*
X106435714Y-329944819D02*
X106007143Y-329373390D01*
X106435714Y-328944819D02*
X105864286Y-329516247D01*
X103857143Y-318744819D02*
X104428571Y-318744819D01*
X104142857Y-319744819D02*
X104142857Y-318744819D01*
X104523810Y-319840057D02*
X105285714Y-319840057D01*
X106095238Y-319649580D02*
X106047619Y-319697200D01*
X106047619Y-319697200D02*
X105904762Y-319744819D01*
X105904762Y-319744819D02*
X105809524Y-319744819D01*
X105809524Y-319744819D02*
X105666667Y-319697200D01*
X105666667Y-319697200D02*
X105571429Y-319601961D01*
X105571429Y-319601961D02*
X105523810Y-319506723D01*
X105523810Y-319506723D02*
X105476191Y-319316247D01*
X105476191Y-319316247D02*
X105476191Y-319173390D01*
X105476191Y-319173390D02*
X105523810Y-318982914D01*
X105523810Y-318982914D02*
X105571429Y-318887676D01*
X105571429Y-318887676D02*
X105666667Y-318792438D01*
X105666667Y-318792438D02*
X105809524Y-318744819D01*
X105809524Y-318744819D02*
X105904762Y-318744819D01*
X105904762Y-318744819D02*
X106047619Y-318792438D01*
X106047619Y-318792438D02*
X106095238Y-318840057D01*
X106476191Y-319697200D02*
X106619048Y-319744819D01*
X106619048Y-319744819D02*
X106857143Y-319744819D01*
X106857143Y-319744819D02*
X106952381Y-319697200D01*
X106952381Y-319697200D02*
X107000000Y-319649580D01*
X107000000Y-319649580D02*
X107047619Y-319554342D01*
X107047619Y-319554342D02*
X107047619Y-319459104D01*
X107047619Y-319459104D02*
X107000000Y-319363866D01*
X107000000Y-319363866D02*
X106952381Y-319316247D01*
X106952381Y-319316247D02*
X106857143Y-319268628D01*
X106857143Y-319268628D02*
X106666667Y-319221009D01*
X106666667Y-319221009D02*
X106571429Y-319173390D01*
X106571429Y-319173390D02*
X106523810Y-319125771D01*
X106523810Y-319125771D02*
X106476191Y-319030533D01*
X106476191Y-319030533D02*
X106476191Y-318935295D01*
X106476191Y-318935295D02*
X106523810Y-318840057D01*
X106523810Y-318840057D02*
X106571429Y-318792438D01*
X106571429Y-318792438D02*
X106666667Y-318744819D01*
X106666667Y-318744819D02*
X106904762Y-318744819D01*
X106904762Y-318744819D02*
X107047619Y-318792438D01*
X103871429Y-311094819D02*
X104442857Y-311094819D01*
X104157143Y-312094819D02*
X104157143Y-311094819D01*
X104538096Y-312190057D02*
X105300000Y-312190057D01*
X105538096Y-312094819D02*
X105538096Y-311094819D01*
X106585714Y-312094819D02*
X106252381Y-311618628D01*
X106014286Y-312094819D02*
X106014286Y-311094819D01*
X106014286Y-311094819D02*
X106395238Y-311094819D01*
X106395238Y-311094819D02*
X106490476Y-311142438D01*
X106490476Y-311142438D02*
X106538095Y-311190057D01*
X106538095Y-311190057D02*
X106585714Y-311285295D01*
X106585714Y-311285295D02*
X106585714Y-311428152D01*
X106585714Y-311428152D02*
X106538095Y-311523390D01*
X106538095Y-311523390D02*
X106490476Y-311571009D01*
X106490476Y-311571009D02*
X106395238Y-311618628D01*
X106395238Y-311618628D02*
X106014286Y-311618628D01*
X107680952Y-312190057D02*
X107585714Y-312142438D01*
X107585714Y-312142438D02*
X107490476Y-312047200D01*
X107490476Y-312047200D02*
X107347619Y-311904342D01*
X107347619Y-311904342D02*
X107252381Y-311856723D01*
X107252381Y-311856723D02*
X107157143Y-311856723D01*
X107204762Y-312094819D02*
X107109524Y-312047200D01*
X107109524Y-312047200D02*
X107014286Y-311951961D01*
X107014286Y-311951961D02*
X106966667Y-311761485D01*
X106966667Y-311761485D02*
X106966667Y-311428152D01*
X106966667Y-311428152D02*
X107014286Y-311237676D01*
X107014286Y-311237676D02*
X107109524Y-311142438D01*
X107109524Y-311142438D02*
X107204762Y-311094819D01*
X107204762Y-311094819D02*
X107395238Y-311094819D01*
X107395238Y-311094819D02*
X107490476Y-311142438D01*
X107490476Y-311142438D02*
X107585714Y-311237676D01*
X107585714Y-311237676D02*
X107633333Y-311428152D01*
X107633333Y-311428152D02*
X107633333Y-311761485D01*
X107633333Y-311761485D02*
X107585714Y-311951961D01*
X107585714Y-311951961D02*
X107490476Y-312047200D01*
X107490476Y-312047200D02*
X107395238Y-312094819D01*
X107395238Y-312094819D02*
X107204762Y-312094819D01*
X140269819Y-304246077D02*
X140269819Y-303674649D01*
X141269819Y-303960363D02*
X140269819Y-303960363D01*
X140269819Y-303436553D02*
X141269819Y-302769887D01*
X140269819Y-302769887D02*
X141269819Y-303436553D01*
X104438095Y-341642438D02*
X104342857Y-341594819D01*
X104342857Y-341594819D02*
X104200000Y-341594819D01*
X104200000Y-341594819D02*
X104057143Y-341642438D01*
X104057143Y-341642438D02*
X103961905Y-341737676D01*
X103961905Y-341737676D02*
X103914286Y-341832914D01*
X103914286Y-341832914D02*
X103866667Y-342023390D01*
X103866667Y-342023390D02*
X103866667Y-342166247D01*
X103866667Y-342166247D02*
X103914286Y-342356723D01*
X103914286Y-342356723D02*
X103961905Y-342451961D01*
X103961905Y-342451961D02*
X104057143Y-342547200D01*
X104057143Y-342547200D02*
X104200000Y-342594819D01*
X104200000Y-342594819D02*
X104295238Y-342594819D01*
X104295238Y-342594819D02*
X104438095Y-342547200D01*
X104438095Y-342547200D02*
X104485714Y-342499580D01*
X104485714Y-342499580D02*
X104485714Y-342166247D01*
X104485714Y-342166247D02*
X104295238Y-342166247D01*
X104914286Y-342594819D02*
X104914286Y-341594819D01*
X104914286Y-341594819D02*
X105485714Y-342594819D01*
X105485714Y-342594819D02*
X105485714Y-341594819D01*
X105961905Y-342594819D02*
X105961905Y-341594819D01*
X105961905Y-341594819D02*
X106200000Y-341594819D01*
X106200000Y-341594819D02*
X106342857Y-341642438D01*
X106342857Y-341642438D02*
X106438095Y-341737676D01*
X106438095Y-341737676D02*
X106485714Y-341832914D01*
X106485714Y-341832914D02*
X106533333Y-342023390D01*
X106533333Y-342023390D02*
X106533333Y-342166247D01*
X106533333Y-342166247D02*
X106485714Y-342356723D01*
X106485714Y-342356723D02*
X106438095Y-342451961D01*
X106438095Y-342451961D02*
X106342857Y-342547200D01*
X106342857Y-342547200D02*
X106200000Y-342594819D01*
X106200000Y-342594819D02*
X105961905Y-342594819D01*
X143668922Y-321704819D02*
X144240350Y-321704819D01*
X143954636Y-322704819D02*
X143954636Y-321704819D01*
X144573684Y-322704819D02*
X144573684Y-321704819D01*
X144573684Y-321704819D02*
X144811779Y-321704819D01*
X144811779Y-321704819D02*
X144954636Y-321752438D01*
X144954636Y-321752438D02*
X145049874Y-321847676D01*
X145049874Y-321847676D02*
X145097493Y-321942914D01*
X145097493Y-321942914D02*
X145145112Y-322133390D01*
X145145112Y-322133390D02*
X145145112Y-322276247D01*
X145145112Y-322276247D02*
X145097493Y-322466723D01*
X145097493Y-322466723D02*
X145049874Y-322561961D01*
X145049874Y-322561961D02*
X144954636Y-322657200D01*
X144954636Y-322657200D02*
X144811779Y-322704819D01*
X144811779Y-322704819D02*
X144573684Y-322704819D01*
X145764160Y-321704819D02*
X145954636Y-321704819D01*
X145954636Y-321704819D02*
X146049874Y-321752438D01*
X146049874Y-321752438D02*
X146145112Y-321847676D01*
X146145112Y-321847676D02*
X146192731Y-322038152D01*
X146192731Y-322038152D02*
X146192731Y-322371485D01*
X146192731Y-322371485D02*
X146145112Y-322561961D01*
X146145112Y-322561961D02*
X146049874Y-322657200D01*
X146049874Y-322657200D02*
X145954636Y-322704819D01*
X145954636Y-322704819D02*
X145764160Y-322704819D01*
X145764160Y-322704819D02*
X145668922Y-322657200D01*
X145668922Y-322657200D02*
X145573684Y-322561961D01*
X145573684Y-322561961D02*
X145526065Y-322371485D01*
X145526065Y-322371485D02*
X145526065Y-322038152D01*
X145526065Y-322038152D02*
X145573684Y-321847676D01*
X145573684Y-321847676D02*
X145668922Y-321752438D01*
X145668922Y-321752438D02*
X145764160Y-321704819D01*
X104447618Y-337494819D02*
X104114285Y-337018628D01*
X103876190Y-337494819D02*
X103876190Y-336494819D01*
X103876190Y-336494819D02*
X104257142Y-336494819D01*
X104257142Y-336494819D02*
X104352380Y-336542438D01*
X104352380Y-336542438D02*
X104399999Y-336590057D01*
X104399999Y-336590057D02*
X104447618Y-336685295D01*
X104447618Y-336685295D02*
X104447618Y-336828152D01*
X104447618Y-336828152D02*
X104399999Y-336923390D01*
X104399999Y-336923390D02*
X104352380Y-336971009D01*
X104352380Y-336971009D02*
X104257142Y-337018628D01*
X104257142Y-337018628D02*
X103876190Y-337018628D01*
X104876190Y-336971009D02*
X105209523Y-336971009D01*
X105352380Y-337494819D02*
X104876190Y-337494819D01*
X104876190Y-337494819D02*
X104876190Y-336494819D01*
X104876190Y-336494819D02*
X105352380Y-336494819D01*
X105733333Y-337447200D02*
X105876190Y-337494819D01*
X105876190Y-337494819D02*
X106114285Y-337494819D01*
X106114285Y-337494819D02*
X106209523Y-337447200D01*
X106209523Y-337447200D02*
X106257142Y-337399580D01*
X106257142Y-337399580D02*
X106304761Y-337304342D01*
X106304761Y-337304342D02*
X106304761Y-337209104D01*
X106304761Y-337209104D02*
X106257142Y-337113866D01*
X106257142Y-337113866D02*
X106209523Y-337066247D01*
X106209523Y-337066247D02*
X106114285Y-337018628D01*
X106114285Y-337018628D02*
X105923809Y-336971009D01*
X105923809Y-336971009D02*
X105828571Y-336923390D01*
X105828571Y-336923390D02*
X105780952Y-336875771D01*
X105780952Y-336875771D02*
X105733333Y-336780533D01*
X105733333Y-336780533D02*
X105733333Y-336685295D01*
X105733333Y-336685295D02*
X105780952Y-336590057D01*
X105780952Y-336590057D02*
X105828571Y-336542438D01*
X105828571Y-336542438D02*
X105923809Y-336494819D01*
X105923809Y-336494819D02*
X106161904Y-336494819D01*
X106161904Y-336494819D02*
X106304761Y-336542438D01*
X106733333Y-336971009D02*
X107066666Y-336971009D01*
X107209523Y-337494819D02*
X106733333Y-337494819D01*
X106733333Y-337494819D02*
X106733333Y-336494819D01*
X106733333Y-336494819D02*
X107209523Y-336494819D01*
X107495238Y-336494819D02*
X108066666Y-336494819D01*
X107780952Y-337494819D02*
X107780952Y-336494819D01*
X103871429Y-316194819D02*
X104442857Y-316194819D01*
X104157143Y-317194819D02*
X104157143Y-316194819D01*
X104538096Y-317290057D02*
X105300000Y-317290057D01*
X105538096Y-317194819D02*
X105538096Y-316194819D01*
X105538096Y-316194819D02*
X105776191Y-316194819D01*
X105776191Y-316194819D02*
X105919048Y-316242438D01*
X105919048Y-316242438D02*
X106014286Y-316337676D01*
X106014286Y-316337676D02*
X106061905Y-316432914D01*
X106061905Y-316432914D02*
X106109524Y-316623390D01*
X106109524Y-316623390D02*
X106109524Y-316766247D01*
X106109524Y-316766247D02*
X106061905Y-316956723D01*
X106061905Y-316956723D02*
X106014286Y-317051961D01*
X106014286Y-317051961D02*
X105919048Y-317147200D01*
X105919048Y-317147200D02*
X105776191Y-317194819D01*
X105776191Y-317194819D02*
X105538096Y-317194819D01*
X106538096Y-317194819D02*
X106538096Y-316194819D01*
X107014286Y-317194819D02*
X107014286Y-316194819D01*
X107014286Y-316194819D02*
X107585714Y-317194819D01*
X107585714Y-317194819D02*
X107585714Y-316194819D01*
X173529819Y-344256077D02*
X174529819Y-343922744D01*
X174529819Y-343922744D02*
X173529819Y-343589411D01*
X174006009Y-342922744D02*
X174053628Y-342779887D01*
X174053628Y-342779887D02*
X174101247Y-342732268D01*
X174101247Y-342732268D02*
X174196485Y-342684649D01*
X174196485Y-342684649D02*
X174339342Y-342684649D01*
X174339342Y-342684649D02*
X174434580Y-342732268D01*
X174434580Y-342732268D02*
X174482200Y-342779887D01*
X174482200Y-342779887D02*
X174529819Y-342875125D01*
X174529819Y-342875125D02*
X174529819Y-343256077D01*
X174529819Y-343256077D02*
X173529819Y-343256077D01*
X173529819Y-343256077D02*
X173529819Y-342922744D01*
X173529819Y-342922744D02*
X173577438Y-342827506D01*
X173577438Y-342827506D02*
X173625057Y-342779887D01*
X173625057Y-342779887D02*
X173720295Y-342732268D01*
X173720295Y-342732268D02*
X173815533Y-342732268D01*
X173815533Y-342732268D02*
X173910771Y-342779887D01*
X173910771Y-342779887D02*
X173958390Y-342827506D01*
X173958390Y-342827506D02*
X174006009Y-342922744D01*
X174006009Y-342922744D02*
X174006009Y-343256077D01*
X173529819Y-342256077D02*
X174339342Y-342256077D01*
X174339342Y-342256077D02*
X174434580Y-342208458D01*
X174434580Y-342208458D02*
X174482200Y-342160839D01*
X174482200Y-342160839D02*
X174529819Y-342065601D01*
X174529819Y-342065601D02*
X174529819Y-341875125D01*
X174529819Y-341875125D02*
X174482200Y-341779887D01*
X174482200Y-341779887D02*
X174434580Y-341732268D01*
X174434580Y-341732268D02*
X174339342Y-341684649D01*
X174339342Y-341684649D02*
X173529819Y-341684649D01*
X174482200Y-341256077D02*
X174529819Y-341113220D01*
X174529819Y-341113220D02*
X174529819Y-340875125D01*
X174529819Y-340875125D02*
X174482200Y-340779887D01*
X174482200Y-340779887D02*
X174434580Y-340732268D01*
X174434580Y-340732268D02*
X174339342Y-340684649D01*
X174339342Y-340684649D02*
X174244104Y-340684649D01*
X174244104Y-340684649D02*
X174148866Y-340732268D01*
X174148866Y-340732268D02*
X174101247Y-340779887D01*
X174101247Y-340779887D02*
X174053628Y-340875125D01*
X174053628Y-340875125D02*
X174006009Y-341065601D01*
X174006009Y-341065601D02*
X173958390Y-341160839D01*
X173958390Y-341160839D02*
X173910771Y-341208458D01*
X173910771Y-341208458D02*
X173815533Y-341256077D01*
X173815533Y-341256077D02*
X173720295Y-341256077D01*
X173720295Y-341256077D02*
X173625057Y-341208458D01*
X173625057Y-341208458D02*
X173577438Y-341160839D01*
X173577438Y-341160839D02*
X173529819Y-341065601D01*
X173529819Y-341065601D02*
X173529819Y-340827506D01*
X173529819Y-340827506D02*
X173577438Y-340684649D01*
X144235588Y-314152438D02*
X144140350Y-314104819D01*
X144140350Y-314104819D02*
X143997493Y-314104819D01*
X143997493Y-314104819D02*
X143854636Y-314152438D01*
X143854636Y-314152438D02*
X143759398Y-314247676D01*
X143759398Y-314247676D02*
X143711779Y-314342914D01*
X143711779Y-314342914D02*
X143664160Y-314533390D01*
X143664160Y-314533390D02*
X143664160Y-314676247D01*
X143664160Y-314676247D02*
X143711779Y-314866723D01*
X143711779Y-314866723D02*
X143759398Y-314961961D01*
X143759398Y-314961961D02*
X143854636Y-315057200D01*
X143854636Y-315057200D02*
X143997493Y-315104819D01*
X143997493Y-315104819D02*
X144092731Y-315104819D01*
X144092731Y-315104819D02*
X144235588Y-315057200D01*
X144235588Y-315057200D02*
X144283207Y-315009580D01*
X144283207Y-315009580D02*
X144283207Y-314676247D01*
X144283207Y-314676247D02*
X144092731Y-314676247D01*
X144711779Y-315104819D02*
X144711779Y-314104819D01*
X144711779Y-314104819D02*
X145283207Y-315104819D01*
X145283207Y-315104819D02*
X145283207Y-314104819D01*
X145759398Y-315104819D02*
X145759398Y-314104819D01*
X145759398Y-314104819D02*
X145997493Y-314104819D01*
X145997493Y-314104819D02*
X146140350Y-314152438D01*
X146140350Y-314152438D02*
X146235588Y-314247676D01*
X146235588Y-314247676D02*
X146283207Y-314342914D01*
X146283207Y-314342914D02*
X146330826Y-314533390D01*
X146330826Y-314533390D02*
X146330826Y-314676247D01*
X146330826Y-314676247D02*
X146283207Y-314866723D01*
X146283207Y-314866723D02*
X146235588Y-314961961D01*
X146235588Y-314961961D02*
X146140350Y-315057200D01*
X146140350Y-315057200D02*
X145997493Y-315104819D01*
X145997493Y-315104819D02*
X145759398Y-315104819D01*
X162572200Y-355032856D02*
X162619819Y-354889999D01*
X162619819Y-354889999D02*
X162619819Y-354651904D01*
X162619819Y-354651904D02*
X162572200Y-354556666D01*
X162572200Y-354556666D02*
X162524580Y-354509047D01*
X162524580Y-354509047D02*
X162429342Y-354461428D01*
X162429342Y-354461428D02*
X162334104Y-354461428D01*
X162334104Y-354461428D02*
X162238866Y-354509047D01*
X162238866Y-354509047D02*
X162191247Y-354556666D01*
X162191247Y-354556666D02*
X162143628Y-354651904D01*
X162143628Y-354651904D02*
X162096009Y-354842380D01*
X162096009Y-354842380D02*
X162048390Y-354937618D01*
X162048390Y-354937618D02*
X162000771Y-354985237D01*
X162000771Y-354985237D02*
X161905533Y-355032856D01*
X161905533Y-355032856D02*
X161810295Y-355032856D01*
X161810295Y-355032856D02*
X161715057Y-354985237D01*
X161715057Y-354985237D02*
X161667438Y-354937618D01*
X161667438Y-354937618D02*
X161619819Y-354842380D01*
X161619819Y-354842380D02*
X161619819Y-354604285D01*
X161619819Y-354604285D02*
X161667438Y-354461428D01*
X162096009Y-354032856D02*
X162096009Y-353699523D01*
X162619819Y-353556666D02*
X162619819Y-354032856D01*
X162619819Y-354032856D02*
X161619819Y-354032856D01*
X161619819Y-354032856D02*
X161619819Y-353556666D01*
X162619819Y-353128094D02*
X161619819Y-353128094D01*
X161619819Y-353128094D02*
X162619819Y-352556666D01*
X162619819Y-352556666D02*
X161619819Y-352556666D01*
X161619819Y-351604285D02*
X161619819Y-352080475D01*
X161619819Y-352080475D02*
X162096009Y-352128094D01*
X162096009Y-352128094D02*
X162048390Y-352080475D01*
X162048390Y-352080475D02*
X162000771Y-351985237D01*
X162000771Y-351985237D02*
X162000771Y-351747142D01*
X162000771Y-351747142D02*
X162048390Y-351651904D01*
X162048390Y-351651904D02*
X162096009Y-351604285D01*
X162096009Y-351604285D02*
X162191247Y-351556666D01*
X162191247Y-351556666D02*
X162429342Y-351556666D01*
X162429342Y-351556666D02*
X162524580Y-351604285D01*
X162524580Y-351604285D02*
X162572200Y-351651904D01*
X162572200Y-351651904D02*
X162619819Y-351747142D01*
X162619819Y-351747142D02*
X162619819Y-351985237D01*
X162619819Y-351985237D02*
X162572200Y-352080475D01*
X162572200Y-352080475D02*
X162524580Y-352128094D01*
X162619819Y-351223332D02*
X161953152Y-350699523D01*
X161953152Y-351223332D02*
X162619819Y-350699523D01*
X143668922Y-316604819D02*
X144240350Y-316604819D01*
X143954636Y-317604819D02*
X143954636Y-316604819D01*
X144573684Y-317604819D02*
X144573684Y-316604819D01*
X144573684Y-316604819D02*
X144907017Y-317319104D01*
X144907017Y-317319104D02*
X145240350Y-316604819D01*
X145240350Y-316604819D02*
X145240350Y-317604819D01*
X145668922Y-317557200D02*
X145811779Y-317604819D01*
X145811779Y-317604819D02*
X146049874Y-317604819D01*
X146049874Y-317604819D02*
X146145112Y-317557200D01*
X146145112Y-317557200D02*
X146192731Y-317509580D01*
X146192731Y-317509580D02*
X146240350Y-317414342D01*
X146240350Y-317414342D02*
X146240350Y-317319104D01*
X146240350Y-317319104D02*
X146192731Y-317223866D01*
X146192731Y-317223866D02*
X146145112Y-317176247D01*
X146145112Y-317176247D02*
X146049874Y-317128628D01*
X146049874Y-317128628D02*
X145859398Y-317081009D01*
X145859398Y-317081009D02*
X145764160Y-317033390D01*
X145764160Y-317033390D02*
X145716541Y-316985771D01*
X145716541Y-316985771D02*
X145668922Y-316890533D01*
X145668922Y-316890533D02*
X145668922Y-316795295D01*
X145668922Y-316795295D02*
X145716541Y-316700057D01*
X145716541Y-316700057D02*
X145764160Y-316652438D01*
X145764160Y-316652438D02*
X145859398Y-316604819D01*
X145859398Y-316604819D02*
X146097493Y-316604819D01*
X146097493Y-316604819D02*
X146240350Y-316652438D01*
X103888095Y-334994819D02*
X103888095Y-333994819D01*
X103888095Y-333994819D02*
X104126190Y-333994819D01*
X104126190Y-333994819D02*
X104269047Y-334042438D01*
X104269047Y-334042438D02*
X104364285Y-334137676D01*
X104364285Y-334137676D02*
X104411904Y-334232914D01*
X104411904Y-334232914D02*
X104459523Y-334423390D01*
X104459523Y-334423390D02*
X104459523Y-334566247D01*
X104459523Y-334566247D02*
X104411904Y-334756723D01*
X104411904Y-334756723D02*
X104364285Y-334851961D01*
X104364285Y-334851961D02*
X104269047Y-334947200D01*
X104269047Y-334947200D02*
X104126190Y-334994819D01*
X104126190Y-334994819D02*
X103888095Y-334994819D01*
X105459523Y-334899580D02*
X105411904Y-334947200D01*
X105411904Y-334947200D02*
X105269047Y-334994819D01*
X105269047Y-334994819D02*
X105173809Y-334994819D01*
X105173809Y-334994819D02*
X105030952Y-334947200D01*
X105030952Y-334947200D02*
X104935714Y-334851961D01*
X104935714Y-334851961D02*
X104888095Y-334756723D01*
X104888095Y-334756723D02*
X104840476Y-334566247D01*
X104840476Y-334566247D02*
X104840476Y-334423390D01*
X104840476Y-334423390D02*
X104888095Y-334232914D01*
X104888095Y-334232914D02*
X104935714Y-334137676D01*
X104935714Y-334137676D02*
X105030952Y-334042438D01*
X105030952Y-334042438D02*
X105173809Y-333994819D01*
X105173809Y-333994819D02*
X105269047Y-333994819D01*
X105269047Y-333994819D02*
X105411904Y-334042438D01*
X105411904Y-334042438D02*
X105459523Y-334090057D01*
X106602380Y-333947200D02*
X105745238Y-335232914D01*
X107507142Y-334994819D02*
X107173809Y-334518628D01*
X106935714Y-334994819D02*
X106935714Y-333994819D01*
X106935714Y-333994819D02*
X107316666Y-333994819D01*
X107316666Y-333994819D02*
X107411904Y-334042438D01*
X107411904Y-334042438D02*
X107459523Y-334090057D01*
X107459523Y-334090057D02*
X107507142Y-334185295D01*
X107507142Y-334185295D02*
X107507142Y-334328152D01*
X107507142Y-334328152D02*
X107459523Y-334423390D01*
X107459523Y-334423390D02*
X107411904Y-334471009D01*
X107411904Y-334471009D02*
X107316666Y-334518628D01*
X107316666Y-334518628D02*
X106935714Y-334518628D01*
X107888095Y-334947200D02*
X108030952Y-334994819D01*
X108030952Y-334994819D02*
X108269047Y-334994819D01*
X108269047Y-334994819D02*
X108364285Y-334947200D01*
X108364285Y-334947200D02*
X108411904Y-334899580D01*
X108411904Y-334899580D02*
X108459523Y-334804342D01*
X108459523Y-334804342D02*
X108459523Y-334709104D01*
X108459523Y-334709104D02*
X108411904Y-334613866D01*
X108411904Y-334613866D02*
X108364285Y-334566247D01*
X108364285Y-334566247D02*
X108269047Y-334518628D01*
X108269047Y-334518628D02*
X108078571Y-334471009D01*
X108078571Y-334471009D02*
X107983333Y-334423390D01*
X107983333Y-334423390D02*
X107935714Y-334375771D01*
X107935714Y-334375771D02*
X107888095Y-334280533D01*
X107888095Y-334280533D02*
X107888095Y-334185295D01*
X107888095Y-334185295D02*
X107935714Y-334090057D01*
X107935714Y-334090057D02*
X107983333Y-334042438D01*
X107983333Y-334042438D02*
X108078571Y-333994819D01*
X108078571Y-333994819D02*
X108316666Y-333994819D01*
X108316666Y-333994819D02*
X108459523Y-334042438D01*
X170462200Y-344260839D02*
X170509819Y-344117982D01*
X170509819Y-344117982D02*
X170509819Y-343879887D01*
X170509819Y-343879887D02*
X170462200Y-343784649D01*
X170462200Y-343784649D02*
X170414580Y-343737030D01*
X170414580Y-343737030D02*
X170319342Y-343689411D01*
X170319342Y-343689411D02*
X170224104Y-343689411D01*
X170224104Y-343689411D02*
X170128866Y-343737030D01*
X170128866Y-343737030D02*
X170081247Y-343784649D01*
X170081247Y-343784649D02*
X170033628Y-343879887D01*
X170033628Y-343879887D02*
X169986009Y-344070363D01*
X169986009Y-344070363D02*
X169938390Y-344165601D01*
X169938390Y-344165601D02*
X169890771Y-344213220D01*
X169890771Y-344213220D02*
X169795533Y-344260839D01*
X169795533Y-344260839D02*
X169700295Y-344260839D01*
X169700295Y-344260839D02*
X169605057Y-344213220D01*
X169605057Y-344213220D02*
X169557438Y-344165601D01*
X169557438Y-344165601D02*
X169509819Y-344070363D01*
X169509819Y-344070363D02*
X169509819Y-343832268D01*
X169509819Y-343832268D02*
X169557438Y-343689411D01*
X170509819Y-343260839D02*
X169509819Y-343260839D01*
X169509819Y-343260839D02*
X169509819Y-343022744D01*
X169509819Y-343022744D02*
X169557438Y-342879887D01*
X169557438Y-342879887D02*
X169652676Y-342784649D01*
X169652676Y-342784649D02*
X169747914Y-342737030D01*
X169747914Y-342737030D02*
X169938390Y-342689411D01*
X169938390Y-342689411D02*
X170081247Y-342689411D01*
X170081247Y-342689411D02*
X170271723Y-342737030D01*
X170271723Y-342737030D02*
X170366961Y-342784649D01*
X170366961Y-342784649D02*
X170462200Y-342879887D01*
X170462200Y-342879887D02*
X170509819Y-343022744D01*
X170509819Y-343022744D02*
X170509819Y-343260839D01*
X170224104Y-342308458D02*
X170224104Y-341832268D01*
X170509819Y-342403696D02*
X169509819Y-342070363D01*
X169509819Y-342070363D02*
X170509819Y-341737030D01*
X143769819Y-303631792D02*
X143293628Y-303965125D01*
X143769819Y-304203220D02*
X142769819Y-304203220D01*
X142769819Y-304203220D02*
X142769819Y-303822268D01*
X142769819Y-303822268D02*
X142817438Y-303727030D01*
X142817438Y-303727030D02*
X142865057Y-303679411D01*
X142865057Y-303679411D02*
X142960295Y-303631792D01*
X142960295Y-303631792D02*
X143103152Y-303631792D01*
X143103152Y-303631792D02*
X143198390Y-303679411D01*
X143198390Y-303679411D02*
X143246009Y-303727030D01*
X143246009Y-303727030D02*
X143293628Y-303822268D01*
X143293628Y-303822268D02*
X143293628Y-304203220D01*
X142769819Y-303298458D02*
X143769819Y-302631792D01*
X142769819Y-302631792D02*
X143769819Y-303298458D01*
X165557438Y-343689411D02*
X165509819Y-343784649D01*
X165509819Y-343784649D02*
X165509819Y-343927506D01*
X165509819Y-343927506D02*
X165557438Y-344070363D01*
X165557438Y-344070363D02*
X165652676Y-344165601D01*
X165652676Y-344165601D02*
X165747914Y-344213220D01*
X165747914Y-344213220D02*
X165938390Y-344260839D01*
X165938390Y-344260839D02*
X166081247Y-344260839D01*
X166081247Y-344260839D02*
X166271723Y-344213220D01*
X166271723Y-344213220D02*
X166366961Y-344165601D01*
X166366961Y-344165601D02*
X166462200Y-344070363D01*
X166462200Y-344070363D02*
X166509819Y-343927506D01*
X166509819Y-343927506D02*
X166509819Y-343832268D01*
X166509819Y-343832268D02*
X166462200Y-343689411D01*
X166462200Y-343689411D02*
X166414580Y-343641792D01*
X166414580Y-343641792D02*
X166081247Y-343641792D01*
X166081247Y-343641792D02*
X166081247Y-343832268D01*
X166509819Y-343213220D02*
X165509819Y-343213220D01*
X165509819Y-343213220D02*
X166509819Y-342641792D01*
X166509819Y-342641792D02*
X165509819Y-342641792D01*
X166509819Y-342165601D02*
X165509819Y-342165601D01*
X165509819Y-342165601D02*
X165509819Y-341927506D01*
X165509819Y-341927506D02*
X165557438Y-341784649D01*
X165557438Y-341784649D02*
X165652676Y-341689411D01*
X165652676Y-341689411D02*
X165747914Y-341641792D01*
X165747914Y-341641792D02*
X165938390Y-341594173D01*
X165938390Y-341594173D02*
X166081247Y-341594173D01*
X166081247Y-341594173D02*
X166271723Y-341641792D01*
X166271723Y-341641792D02*
X166366961Y-341689411D01*
X166366961Y-341689411D02*
X166462200Y-341784649D01*
X166462200Y-341784649D02*
X166509819Y-341927506D01*
X166509819Y-341927506D02*
X166509819Y-342165601D01*
X168462200Y-344260839D02*
X168509819Y-344117982D01*
X168509819Y-344117982D02*
X168509819Y-343879887D01*
X168509819Y-343879887D02*
X168462200Y-343784649D01*
X168462200Y-343784649D02*
X168414580Y-343737030D01*
X168414580Y-343737030D02*
X168319342Y-343689411D01*
X168319342Y-343689411D02*
X168224104Y-343689411D01*
X168224104Y-343689411D02*
X168128866Y-343737030D01*
X168128866Y-343737030D02*
X168081247Y-343784649D01*
X168081247Y-343784649D02*
X168033628Y-343879887D01*
X168033628Y-343879887D02*
X167986009Y-344070363D01*
X167986009Y-344070363D02*
X167938390Y-344165601D01*
X167938390Y-344165601D02*
X167890771Y-344213220D01*
X167890771Y-344213220D02*
X167795533Y-344260839D01*
X167795533Y-344260839D02*
X167700295Y-344260839D01*
X167700295Y-344260839D02*
X167605057Y-344213220D01*
X167605057Y-344213220D02*
X167557438Y-344165601D01*
X167557438Y-344165601D02*
X167509819Y-344070363D01*
X167509819Y-344070363D02*
X167509819Y-343832268D01*
X167509819Y-343832268D02*
X167557438Y-343689411D01*
X168414580Y-342689411D02*
X168462200Y-342737030D01*
X168462200Y-342737030D02*
X168509819Y-342879887D01*
X168509819Y-342879887D02*
X168509819Y-342975125D01*
X168509819Y-342975125D02*
X168462200Y-343117982D01*
X168462200Y-343117982D02*
X168366961Y-343213220D01*
X168366961Y-343213220D02*
X168271723Y-343260839D01*
X168271723Y-343260839D02*
X168081247Y-343308458D01*
X168081247Y-343308458D02*
X167938390Y-343308458D01*
X167938390Y-343308458D02*
X167747914Y-343260839D01*
X167747914Y-343260839D02*
X167652676Y-343213220D01*
X167652676Y-343213220D02*
X167557438Y-343117982D01*
X167557438Y-343117982D02*
X167509819Y-342975125D01*
X167509819Y-342975125D02*
X167509819Y-342879887D01*
X167509819Y-342879887D02*
X167557438Y-342737030D01*
X167557438Y-342737030D02*
X167605057Y-342689411D01*
X168509819Y-341784649D02*
X168509819Y-342260839D01*
X168509819Y-342260839D02*
X167509819Y-342260839D01*
X177594819Y-318623332D02*
X178594819Y-318289999D01*
X178594819Y-318289999D02*
X177594819Y-317956666D01*
X178071009Y-317289999D02*
X178118628Y-317147142D01*
X178118628Y-317147142D02*
X178166247Y-317099523D01*
X178166247Y-317099523D02*
X178261485Y-317051904D01*
X178261485Y-317051904D02*
X178404342Y-317051904D01*
X178404342Y-317051904D02*
X178499580Y-317099523D01*
X178499580Y-317099523D02*
X178547200Y-317147142D01*
X178547200Y-317147142D02*
X178594819Y-317242380D01*
X178594819Y-317242380D02*
X178594819Y-317623332D01*
X178594819Y-317623332D02*
X177594819Y-317623332D01*
X177594819Y-317623332D02*
X177594819Y-317289999D01*
X177594819Y-317289999D02*
X177642438Y-317194761D01*
X177642438Y-317194761D02*
X177690057Y-317147142D01*
X177690057Y-317147142D02*
X177785295Y-317099523D01*
X177785295Y-317099523D02*
X177880533Y-317099523D01*
X177880533Y-317099523D02*
X177975771Y-317147142D01*
X177975771Y-317147142D02*
X178023390Y-317194761D01*
X178023390Y-317194761D02*
X178071009Y-317289999D01*
X178071009Y-317289999D02*
X178071009Y-317623332D01*
X177594819Y-316623332D02*
X178404342Y-316623332D01*
X178404342Y-316623332D02*
X178499580Y-316575713D01*
X178499580Y-316575713D02*
X178547200Y-316528094D01*
X178547200Y-316528094D02*
X178594819Y-316432856D01*
X178594819Y-316432856D02*
X178594819Y-316242380D01*
X178594819Y-316242380D02*
X178547200Y-316147142D01*
X178547200Y-316147142D02*
X178499580Y-316099523D01*
X178499580Y-316099523D02*
X178404342Y-316051904D01*
X178404342Y-316051904D02*
X177594819Y-316051904D01*
X178547200Y-315623332D02*
X178594819Y-315480475D01*
X178594819Y-315480475D02*
X178594819Y-315242380D01*
X178594819Y-315242380D02*
X178547200Y-315147142D01*
X178547200Y-315147142D02*
X178499580Y-315099523D01*
X178499580Y-315099523D02*
X178404342Y-315051904D01*
X178404342Y-315051904D02*
X178309104Y-315051904D01*
X178309104Y-315051904D02*
X178213866Y-315099523D01*
X178213866Y-315099523D02*
X178166247Y-315147142D01*
X178166247Y-315147142D02*
X178118628Y-315242380D01*
X178118628Y-315242380D02*
X178071009Y-315432856D01*
X178071009Y-315432856D02*
X178023390Y-315528094D01*
X178023390Y-315528094D02*
X177975771Y-315575713D01*
X177975771Y-315575713D02*
X177880533Y-315623332D01*
X177880533Y-315623332D02*
X177785295Y-315623332D01*
X177785295Y-315623332D02*
X177690057Y-315575713D01*
X177690057Y-315575713D02*
X177642438Y-315528094D01*
X177642438Y-315528094D02*
X177594819Y-315432856D01*
X177594819Y-315432856D02*
X177594819Y-315194761D01*
X177594819Y-315194761D02*
X177642438Y-315051904D01*
X180072200Y-355127619D02*
X180119819Y-355222857D01*
X180119819Y-355222857D02*
X180119819Y-355413333D01*
X180119819Y-355413333D02*
X180072200Y-355508571D01*
X180072200Y-355508571D02*
X179976961Y-355556190D01*
X179976961Y-355556190D02*
X179596009Y-355556190D01*
X179596009Y-355556190D02*
X179500771Y-355508571D01*
X179500771Y-355508571D02*
X179453152Y-355413333D01*
X179453152Y-355413333D02*
X179453152Y-355222857D01*
X179453152Y-355222857D02*
X179500771Y-355127619D01*
X179500771Y-355127619D02*
X179596009Y-355080000D01*
X179596009Y-355080000D02*
X179691247Y-355080000D01*
X179691247Y-355080000D02*
X179786485Y-355556190D01*
X180119819Y-354222857D02*
X179596009Y-354222857D01*
X179596009Y-354222857D02*
X179500771Y-354270476D01*
X179500771Y-354270476D02*
X179453152Y-354365714D01*
X179453152Y-354365714D02*
X179453152Y-354556190D01*
X179453152Y-354556190D02*
X179500771Y-354651428D01*
X180072200Y-354222857D02*
X180119819Y-354318095D01*
X180119819Y-354318095D02*
X180119819Y-354556190D01*
X180119819Y-354556190D02*
X180072200Y-354651428D01*
X180072200Y-354651428D02*
X179976961Y-354699047D01*
X179976961Y-354699047D02*
X179881723Y-354699047D01*
X179881723Y-354699047D02*
X179786485Y-354651428D01*
X179786485Y-354651428D02*
X179738866Y-354556190D01*
X179738866Y-354556190D02*
X179738866Y-354318095D01*
X179738866Y-354318095D02*
X179691247Y-354222857D01*
X180072200Y-353794285D02*
X180119819Y-353699047D01*
X180119819Y-353699047D02*
X180119819Y-353508571D01*
X180119819Y-353508571D02*
X180072200Y-353413333D01*
X180072200Y-353413333D02*
X179976961Y-353365714D01*
X179976961Y-353365714D02*
X179929342Y-353365714D01*
X179929342Y-353365714D02*
X179834104Y-353413333D01*
X179834104Y-353413333D02*
X179786485Y-353508571D01*
X179786485Y-353508571D02*
X179786485Y-353651428D01*
X179786485Y-353651428D02*
X179738866Y-353746666D01*
X179738866Y-353746666D02*
X179643628Y-353794285D01*
X179643628Y-353794285D02*
X179596009Y-353794285D01*
X179596009Y-353794285D02*
X179500771Y-353746666D01*
X179500771Y-353746666D02*
X179453152Y-353651428D01*
X179453152Y-353651428D02*
X179453152Y-353508571D01*
X179453152Y-353508571D02*
X179500771Y-353413333D01*
X179453152Y-353032380D02*
X180119819Y-352794285D01*
X179453152Y-352556190D02*
X180119819Y-352794285D01*
X180119819Y-352794285D02*
X180357914Y-352889523D01*
X180357914Y-352889523D02*
X180405533Y-352937142D01*
X180405533Y-352937142D02*
X180453152Y-353032380D01*
X180024580Y-351603809D02*
X180072200Y-351651428D01*
X180072200Y-351651428D02*
X180119819Y-351794285D01*
X180119819Y-351794285D02*
X180119819Y-351889523D01*
X180119819Y-351889523D02*
X180072200Y-352032380D01*
X180072200Y-352032380D02*
X179976961Y-352127618D01*
X179976961Y-352127618D02*
X179881723Y-352175237D01*
X179881723Y-352175237D02*
X179691247Y-352222856D01*
X179691247Y-352222856D02*
X179548390Y-352222856D01*
X179548390Y-352222856D02*
X179357914Y-352175237D01*
X179357914Y-352175237D02*
X179262676Y-352127618D01*
X179262676Y-352127618D02*
X179167438Y-352032380D01*
X179167438Y-352032380D02*
X179119819Y-351889523D01*
X179119819Y-351889523D02*
X179119819Y-351794285D01*
X179119819Y-351794285D02*
X179167438Y-351651428D01*
X179167438Y-351651428D02*
X179215057Y-351603809D01*
X143668922Y-319154819D02*
X144240350Y-319154819D01*
X143954636Y-320154819D02*
X143954636Y-319154819D01*
X144573684Y-320154819D02*
X144573684Y-319154819D01*
X144573684Y-319154819D02*
X144811779Y-319154819D01*
X144811779Y-319154819D02*
X144954636Y-319202438D01*
X144954636Y-319202438D02*
X145049874Y-319297676D01*
X145049874Y-319297676D02*
X145097493Y-319392914D01*
X145097493Y-319392914D02*
X145145112Y-319583390D01*
X145145112Y-319583390D02*
X145145112Y-319726247D01*
X145145112Y-319726247D02*
X145097493Y-319916723D01*
X145097493Y-319916723D02*
X145049874Y-320011961D01*
X145049874Y-320011961D02*
X144954636Y-320107200D01*
X144954636Y-320107200D02*
X144811779Y-320154819D01*
X144811779Y-320154819D02*
X144573684Y-320154819D01*
X145573684Y-320154819D02*
X145573684Y-319154819D01*
X163509819Y-344208458D02*
X164509819Y-343541792D01*
X163509819Y-343541792D02*
X164509819Y-344208458D01*
X155994819Y-304801904D02*
X155994819Y-304230476D01*
X156994819Y-304516190D02*
X155994819Y-304516190D01*
X155994819Y-303992380D02*
X156994819Y-303325714D01*
X155994819Y-303325714D02*
X156994819Y-303992380D01*
X114894819Y-331142381D02*
X114418628Y-331475714D01*
X114894819Y-331713809D02*
X113894819Y-331713809D01*
X113894819Y-331713809D02*
X113894819Y-331332857D01*
X113894819Y-331332857D02*
X113942438Y-331237619D01*
X113942438Y-331237619D02*
X113990057Y-331190000D01*
X113990057Y-331190000D02*
X114085295Y-331142381D01*
X114085295Y-331142381D02*
X114228152Y-331142381D01*
X114228152Y-331142381D02*
X114323390Y-331190000D01*
X114323390Y-331190000D02*
X114371009Y-331237619D01*
X114371009Y-331237619D02*
X114418628Y-331332857D01*
X114418628Y-331332857D02*
X114418628Y-331713809D01*
X114371009Y-330713809D02*
X114371009Y-330380476D01*
X114894819Y-330237619D02*
X114894819Y-330713809D01*
X114894819Y-330713809D02*
X113894819Y-330713809D01*
X113894819Y-330713809D02*
X113894819Y-330237619D01*
X114847200Y-329856666D02*
X114894819Y-329713809D01*
X114894819Y-329713809D02*
X114894819Y-329475714D01*
X114894819Y-329475714D02*
X114847200Y-329380476D01*
X114847200Y-329380476D02*
X114799580Y-329332857D01*
X114799580Y-329332857D02*
X114704342Y-329285238D01*
X114704342Y-329285238D02*
X114609104Y-329285238D01*
X114609104Y-329285238D02*
X114513866Y-329332857D01*
X114513866Y-329332857D02*
X114466247Y-329380476D01*
X114466247Y-329380476D02*
X114418628Y-329475714D01*
X114418628Y-329475714D02*
X114371009Y-329666190D01*
X114371009Y-329666190D02*
X114323390Y-329761428D01*
X114323390Y-329761428D02*
X114275771Y-329809047D01*
X114275771Y-329809047D02*
X114180533Y-329856666D01*
X114180533Y-329856666D02*
X114085295Y-329856666D01*
X114085295Y-329856666D02*
X113990057Y-329809047D01*
X113990057Y-329809047D02*
X113942438Y-329761428D01*
X113942438Y-329761428D02*
X113894819Y-329666190D01*
X113894819Y-329666190D02*
X113894819Y-329428095D01*
X113894819Y-329428095D02*
X113942438Y-329285238D01*
X114371009Y-328856666D02*
X114371009Y-328523333D01*
X114894819Y-328380476D02*
X114894819Y-328856666D01*
X114894819Y-328856666D02*
X113894819Y-328856666D01*
X113894819Y-328856666D02*
X113894819Y-328380476D01*
X113894819Y-328094761D02*
X113894819Y-327523333D01*
X114894819Y-327809047D02*
X113894819Y-327809047D01*
X104483333Y-340049580D02*
X104435714Y-340097200D01*
X104435714Y-340097200D02*
X104292857Y-340144819D01*
X104292857Y-340144819D02*
X104197619Y-340144819D01*
X104197619Y-340144819D02*
X104054762Y-340097200D01*
X104054762Y-340097200D02*
X103959524Y-340001961D01*
X103959524Y-340001961D02*
X103911905Y-339906723D01*
X103911905Y-339906723D02*
X103864286Y-339716247D01*
X103864286Y-339716247D02*
X103864286Y-339573390D01*
X103864286Y-339573390D02*
X103911905Y-339382914D01*
X103911905Y-339382914D02*
X103959524Y-339287676D01*
X103959524Y-339287676D02*
X104054762Y-339192438D01*
X104054762Y-339192438D02*
X104197619Y-339144819D01*
X104197619Y-339144819D02*
X104292857Y-339144819D01*
X104292857Y-339144819D02*
X104435714Y-339192438D01*
X104435714Y-339192438D02*
X104483333Y-339240057D01*
X104864286Y-340097200D02*
X105007143Y-340144819D01*
X105007143Y-340144819D02*
X105245238Y-340144819D01*
X105245238Y-340144819D02*
X105340476Y-340097200D01*
X105340476Y-340097200D02*
X105388095Y-340049580D01*
X105388095Y-340049580D02*
X105435714Y-339954342D01*
X105435714Y-339954342D02*
X105435714Y-339859104D01*
X105435714Y-339859104D02*
X105388095Y-339763866D01*
X105388095Y-339763866D02*
X105340476Y-339716247D01*
X105340476Y-339716247D02*
X105245238Y-339668628D01*
X105245238Y-339668628D02*
X105054762Y-339621009D01*
X105054762Y-339621009D02*
X104959524Y-339573390D01*
X104959524Y-339573390D02*
X104911905Y-339525771D01*
X104911905Y-339525771D02*
X104864286Y-339430533D01*
X104864286Y-339430533D02*
X104864286Y-339335295D01*
X104864286Y-339335295D02*
X104911905Y-339240057D01*
X104911905Y-339240057D02*
X104959524Y-339192438D01*
X104959524Y-339192438D02*
X105054762Y-339144819D01*
X105054762Y-339144819D02*
X105292857Y-339144819D01*
X105292857Y-339144819D02*
X105435714Y-339192438D01*
X117422200Y-349378094D02*
X117469819Y-349235237D01*
X117469819Y-349235237D02*
X117469819Y-348997142D01*
X117469819Y-348997142D02*
X117422200Y-348901904D01*
X117422200Y-348901904D02*
X117374580Y-348854285D01*
X117374580Y-348854285D02*
X117279342Y-348806666D01*
X117279342Y-348806666D02*
X117184104Y-348806666D01*
X117184104Y-348806666D02*
X117088866Y-348854285D01*
X117088866Y-348854285D02*
X117041247Y-348901904D01*
X117041247Y-348901904D02*
X116993628Y-348997142D01*
X116993628Y-348997142D02*
X116946009Y-349187618D01*
X116946009Y-349187618D02*
X116898390Y-349282856D01*
X116898390Y-349282856D02*
X116850771Y-349330475D01*
X116850771Y-349330475D02*
X116755533Y-349378094D01*
X116755533Y-349378094D02*
X116660295Y-349378094D01*
X116660295Y-349378094D02*
X116565057Y-349330475D01*
X116565057Y-349330475D02*
X116517438Y-349282856D01*
X116517438Y-349282856D02*
X116469819Y-349187618D01*
X116469819Y-349187618D02*
X116469819Y-348949523D01*
X116469819Y-348949523D02*
X116517438Y-348806666D01*
X117374580Y-347806666D02*
X117422200Y-347854285D01*
X117422200Y-347854285D02*
X117469819Y-347997142D01*
X117469819Y-347997142D02*
X117469819Y-348092380D01*
X117469819Y-348092380D02*
X117422200Y-348235237D01*
X117422200Y-348235237D02*
X117326961Y-348330475D01*
X117326961Y-348330475D02*
X117231723Y-348378094D01*
X117231723Y-348378094D02*
X117041247Y-348425713D01*
X117041247Y-348425713D02*
X116898390Y-348425713D01*
X116898390Y-348425713D02*
X116707914Y-348378094D01*
X116707914Y-348378094D02*
X116612676Y-348330475D01*
X116612676Y-348330475D02*
X116517438Y-348235237D01*
X116517438Y-348235237D02*
X116469819Y-348092380D01*
X116469819Y-348092380D02*
X116469819Y-347997142D01*
X116469819Y-347997142D02*
X116517438Y-347854285D01*
X116517438Y-347854285D02*
X116565057Y-347806666D01*
X117469819Y-347378094D02*
X116469819Y-347378094D01*
X116469819Y-347378094D02*
X116469819Y-347139999D01*
X116469819Y-347139999D02*
X116517438Y-346997142D01*
X116517438Y-346997142D02*
X116612676Y-346901904D01*
X116612676Y-346901904D02*
X116707914Y-346854285D01*
X116707914Y-346854285D02*
X116898390Y-346806666D01*
X116898390Y-346806666D02*
X117041247Y-346806666D01*
X117041247Y-346806666D02*
X117231723Y-346854285D01*
X117231723Y-346854285D02*
X117326961Y-346901904D01*
X117326961Y-346901904D02*
X117422200Y-346997142D01*
X117422200Y-346997142D02*
X117469819Y-347139999D01*
X117469819Y-347139999D02*
X117469819Y-347378094D01*
X116803152Y-345949523D02*
X117469819Y-345949523D01*
X116422200Y-346187618D02*
X117136485Y-346425713D01*
X117136485Y-346425713D02*
X117136485Y-345806666D01*
X116469819Y-345235237D02*
X116469819Y-345139999D01*
X116469819Y-345139999D02*
X116517438Y-345044761D01*
X116517438Y-345044761D02*
X116565057Y-344997142D01*
X116565057Y-344997142D02*
X116660295Y-344949523D01*
X116660295Y-344949523D02*
X116850771Y-344901904D01*
X116850771Y-344901904D02*
X117088866Y-344901904D01*
X117088866Y-344901904D02*
X117279342Y-344949523D01*
X117279342Y-344949523D02*
X117374580Y-344997142D01*
X117374580Y-344997142D02*
X117422200Y-345044761D01*
X117422200Y-345044761D02*
X117469819Y-345139999D01*
X117469819Y-345139999D02*
X117469819Y-345235237D01*
X117469819Y-345235237D02*
X117422200Y-345330475D01*
X117422200Y-345330475D02*
X117374580Y-345378094D01*
X117374580Y-345378094D02*
X117279342Y-345425713D01*
X117279342Y-345425713D02*
X117088866Y-345473332D01*
X117088866Y-345473332D02*
X116850771Y-345473332D01*
X116850771Y-345473332D02*
X116660295Y-345425713D01*
X116660295Y-345425713D02*
X116565057Y-345378094D01*
X116565057Y-345378094D02*
X116517438Y-345330475D01*
X116517438Y-345330475D02*
X116469819Y-345235237D01*
D12*
X187190000Y-332580000D02*
X187190000Y-330620000D01*
X188390000Y-330620000D02*
X187190000Y-330620000D01*
X188390000Y-332580000D02*
X188390000Y-330620000D01*
X166512742Y-308767500D02*
X166987258Y-308767500D01*
X166512742Y-309812500D02*
X166987258Y-309812500D01*
X160627500Y-306827258D02*
X160627500Y-306352742D01*
X161672500Y-306827258D02*
X161672500Y-306352742D01*
X132587742Y-323467500D02*
X133062258Y-323467500D01*
X132587742Y-324512500D02*
X133062258Y-324512500D01*
X151887742Y-307242500D02*
X152362258Y-307242500D01*
X151887742Y-308287500D02*
X152362258Y-308287500D01*
X175265000Y-305101252D02*
X175265000Y-304578748D01*
X176735000Y-305101252D02*
X176735000Y-304578748D01*
X124377500Y-325077258D02*
X124377500Y-324602742D01*
X125422500Y-325077258D02*
X125422500Y-324602742D01*
X110715000Y-302851252D02*
X110715000Y-302328748D01*
X112185000Y-302851252D02*
X112185000Y-302328748D01*
X187190000Y-329830000D02*
X187190000Y-327870000D01*
X188390000Y-327870000D02*
X187190000Y-327870000D01*
X188390000Y-329830000D02*
X188390000Y-327870000D01*
X139440000Y-307370000D02*
X139440000Y-306040000D01*
X140770000Y-307370000D02*
X139440000Y-307370000D01*
X142040000Y-304710000D02*
X147180000Y-304710000D01*
X142040000Y-307370000D02*
X142040000Y-304710000D01*
X142040000Y-307370000D02*
X147180000Y-307370000D01*
X147180000Y-307370000D02*
X147180000Y-304710000D01*
X162065000Y-303305000D02*
X162065000Y-304775000D01*
X162065000Y-304775000D02*
X164350000Y-304775000D01*
X164350000Y-303305000D02*
X162065000Y-303305000D01*
X166688748Y-315205000D02*
X167211252Y-315205000D01*
X166688748Y-316675000D02*
X167211252Y-316675000D01*
X151200944Y-352871524D02*
X151482104Y-352871524D01*
X151200944Y-353891524D02*
X151482104Y-353891524D01*
X181390000Y-351455000D02*
X182440000Y-351455000D01*
X181390000Y-353955000D02*
X181390000Y-351455000D01*
X182440000Y-351455000D02*
X182440000Y-350465000D01*
X182560000Y-355925000D02*
X186440000Y-355925000D01*
X187610000Y-351455000D02*
X186560000Y-351455000D01*
X187610000Y-353955000D02*
X187610000Y-351455000D01*
X110590580Y-306005000D02*
X110309420Y-306005000D01*
X110590580Y-307025000D02*
X110309420Y-307025000D01*
X184990000Y-331180000D02*
X186950000Y-331180000D01*
X184990000Y-332380000D02*
X186950000Y-332380000D01*
X186950000Y-332380000D02*
X186950000Y-331180000D01*
X189630000Y-332590000D02*
X189630000Y-332090000D01*
X189630000Y-332590000D02*
X190130000Y-332590000D01*
X189780000Y-323900000D02*
X189780000Y-324700000D01*
X189780000Y-323900000D02*
X190680000Y-323900000D01*
X189780000Y-332440000D02*
X189780000Y-331640000D01*
X189780000Y-332440000D02*
X190680000Y-332440000D01*
X193820000Y-323900000D02*
X192920000Y-323900000D01*
X193820000Y-323900000D02*
X193820000Y-324700000D01*
X193820000Y-332440000D02*
X192920000Y-332440000D01*
X193820000Y-332440000D02*
X193820000Y-331640000D01*
X140000000Y-310040000D02*
X140000000Y-308080000D01*
X141200000Y-308080000D02*
X140000000Y-308080000D01*
X141200000Y-310040000D02*
X141200000Y-308080000D01*
X161427500Y-317552742D02*
X161427500Y-318027258D01*
X162472500Y-317552742D02*
X162472500Y-318027258D01*
X166987258Y-311967500D02*
X166512742Y-311967500D01*
X166987258Y-313012500D02*
X166512742Y-313012500D01*
X157315000Y-303305000D02*
X157315000Y-304775000D01*
X157315000Y-304775000D02*
X159600000Y-304775000D01*
X159600000Y-303305000D02*
X157315000Y-303305000D01*
X179050000Y-319990000D02*
G75*
G02*
X177150000Y-319990000I-950000J0D01*
G01*
X177150000Y-319990000D02*
G75*
G02*
X179050000Y-319990000I950000J0D01*
G01*
X175540580Y-308830000D02*
X175259420Y-308830000D01*
X175540580Y-309850000D02*
X175259420Y-309850000D01*
X140445000Y-323495000D02*
X140445000Y-313275000D01*
X143105000Y-313275000D02*
X140445000Y-313275000D01*
X143105000Y-323495000D02*
X140445000Y-323495000D01*
X143105000Y-323495000D02*
X143105000Y-313275000D01*
X143105000Y-324765000D02*
X143105000Y-326095000D01*
X143105000Y-326095000D02*
X141775000Y-326095000D01*
X108715000Y-302851252D02*
X108715000Y-302328748D01*
X110185000Y-302851252D02*
X110185000Y-302328748D01*
X161277500Y-346077258D02*
X161277500Y-345602742D01*
X162322500Y-346077258D02*
X162322500Y-345602742D01*
X151104266Y-349659024D02*
X151578782Y-349659024D01*
X151104266Y-350704024D02*
X151578782Y-350704024D01*
X110212742Y-307467500D02*
X110687258Y-307467500D01*
X110212742Y-308512500D02*
X110687258Y-308512500D01*
X129490580Y-323480000D02*
X129209420Y-323480000D01*
X129490580Y-324500000D02*
X129209420Y-324500000D01*
X186480000Y-326082064D02*
X186480000Y-324877936D01*
X188300000Y-326082064D02*
X188300000Y-324877936D01*
X120902500Y-325077258D02*
X120902500Y-324602742D01*
X121947500Y-325077258D02*
X121947500Y-324602742D01*
X162970000Y-344770000D02*
X162970000Y-346890000D01*
X173030000Y-344770000D02*
X162970000Y-344770000D01*
X173030000Y-344770000D02*
X173030000Y-346890000D01*
X173030000Y-346890000D02*
X162970000Y-346890000D01*
X174030000Y-344770000D02*
X175090000Y-344770000D01*
X175090000Y-344770000D02*
X175090000Y-345830000D01*
X143000000Y-310040000D02*
X143000000Y-308080000D01*
X144200000Y-308080000D02*
X143000000Y-308080000D01*
X144200000Y-310040000D02*
X144200000Y-308080000D01*
X110590580Y-304530000D02*
X110309420Y-304530000D01*
X110590580Y-305550000D02*
X110309420Y-305550000D01*
X159027500Y-306827258D02*
X159027500Y-306352742D01*
X160072500Y-306827258D02*
X160072500Y-306352742D01*
X115350000Y-326490000D02*
X115350000Y-332890000D01*
X115350000Y-332890000D02*
X116550000Y-332890000D01*
X116550000Y-326490000D02*
X115350000Y-326490000D01*
X118150000Y-332890000D02*
X119350000Y-332890000D01*
X119350000Y-326490000D02*
X118150000Y-326490000D01*
X119350000Y-332890000D02*
X119350000Y-326490000D01*
X178788748Y-310705000D02*
X179311252Y-310705000D01*
X178788748Y-312175000D02*
X179311252Y-312175000D01*
X166987258Y-307167500D02*
X166512742Y-307167500D01*
X166987258Y-308212500D02*
X166512742Y-308212500D01*
X179477500Y-313865242D02*
X179477500Y-314339758D01*
X180522500Y-313865242D02*
X180522500Y-314339758D01*
X115690000Y-351899420D02*
X115690000Y-352180580D01*
X116710000Y-351899420D02*
X116710000Y-352180580D01*
X155787258Y-310367500D02*
X155312742Y-310367500D01*
X155787258Y-311412500D02*
X155312742Y-311412500D01*
X155787258Y-313567500D02*
X155312742Y-313567500D01*
X155787258Y-314612500D02*
X155312742Y-314612500D01*
X100670000Y-343410000D02*
X100670000Y-310330000D01*
X103330000Y-310330000D02*
X100670000Y-310330000D01*
X103330000Y-343410000D02*
X100670000Y-343410000D01*
X103330000Y-343410000D02*
X103330000Y-310330000D01*
X103330000Y-344680000D02*
X103330000Y-346010000D01*
X103330000Y-346010000D02*
X102000000Y-346010000D01*
X151395000Y-312790000D02*
X151395000Y-312130000D01*
X151395000Y-314450000D02*
X151395000Y-313790000D01*
X152805000Y-312130000D02*
X151395000Y-312130000D01*
X152805000Y-314450000D02*
X151395000Y-314450000D01*
X153415000Y-314760000D02*
X152935000Y-314760000D01*
X153175000Y-314430000D01*
X153415000Y-314760000D01*
G36*
X153415000Y-314760000D02*
G01*
X152935000Y-314760000D01*
X153175000Y-314430000D01*
X153415000Y-314760000D01*
G37*
X151200944Y-351271524D02*
X151482104Y-351271524D01*
X151200944Y-352291524D02*
X151482104Y-352291524D01*
X163535000Y-350670000D02*
X165335000Y-350670000D01*
X163535000Y-352270000D02*
X163535000Y-350670000D01*
X172705000Y-350670000D02*
X172705000Y-349730000D01*
X173235000Y-355140000D02*
X164805000Y-355140000D01*
X174505000Y-350670000D02*
X172705000Y-350670000D01*
X174505000Y-352270000D02*
X174505000Y-350670000D01*
X158227500Y-318027258D02*
X158227500Y-317552742D01*
X159272500Y-318027258D02*
X159272500Y-317552742D01*
X194670000Y-330710000D02*
X194670000Y-323030000D01*
X197330000Y-323030000D02*
X194670000Y-323030000D01*
X197330000Y-330710000D02*
X194670000Y-330710000D01*
X197330000Y-330710000D02*
X197330000Y-323030000D01*
X197330000Y-331980000D02*
X197330000Y-333310000D01*
X197330000Y-333310000D02*
X196000000Y-333310000D01*
D13*
X143716524Y-353856524D02*
X143716524Y-350656524D01*
X146316524Y-350656524D02*
X143716524Y-350656524D01*
X146316524Y-353856524D02*
X143716524Y-353856524D01*
X146316524Y-353856524D02*
X146316524Y-350656524D01*
D14*
X143341524Y-353231524D02*
G75*
G02*
X143091524Y-353231524I-125000J0D01*
G01*
X143091524Y-353231524D02*
G75*
G02*
X143341524Y-353231524I125000J0D01*
G01*
D12*
X155787258Y-308767500D02*
X155312742Y-308767500D01*
X155787258Y-309812500D02*
X155312742Y-309812500D01*
X122627500Y-325077258D02*
X122627500Y-324602742D01*
X123672500Y-325077258D02*
X123672500Y-324602742D01*
X166609420Y-310380000D02*
X166890580Y-310380000D01*
X166609420Y-311400000D02*
X166890580Y-311400000D01*
X173165000Y-305101252D02*
X173165000Y-304578748D01*
X174635000Y-305101252D02*
X174635000Y-304578748D01*
X114350000Y-318840000D02*
X114350000Y-319590000D01*
X114350000Y-319590000D02*
X115350000Y-319590000D01*
X132350000Y-318840000D02*
X132350000Y-319590000D01*
X132350000Y-319590000D02*
X131350000Y-319590000D01*
X179265000Y-316277500D02*
X179265000Y-318562500D01*
X179265000Y-318562500D02*
X180735000Y-318562500D01*
X180735000Y-318562500D02*
X180735000Y-316277500D01*
X108637742Y-344167500D02*
X109112258Y-344167500D01*
X108637742Y-345212500D02*
X109112258Y-345212500D01*
X141577500Y-309102742D02*
X141577500Y-309577258D01*
X142622500Y-309102742D02*
X142622500Y-309577258D01*
X108637742Y-346767500D02*
X109112258Y-346767500D01*
X108637742Y-347812500D02*
X109112258Y-347812500D01*
X118190000Y-344830000D02*
X120165000Y-344830000D01*
X118190000Y-346805000D02*
X118190000Y-344830000D01*
X118190000Y-353175000D02*
X118190000Y-354850000D01*
X120165000Y-355150000D02*
X118430000Y-355150000D01*
X128510000Y-344830000D02*
X126535000Y-344830000D01*
X128510000Y-346805000D02*
X128510000Y-344830000D01*
X128510000Y-353175000D02*
X128510000Y-355150000D01*
X128510000Y-355150000D02*
X126535000Y-355150000D01*
X118190000Y-355150000D02*
X117860000Y-355390000D01*
X117860000Y-354910000D01*
X118190000Y-355150000D01*
G36*
X118190000Y-355150000D02*
G01*
X117860000Y-355390000D01*
X117860000Y-354910000D01*
X118190000Y-355150000D01*
G37*
X159827500Y-317552742D02*
X159827500Y-318027258D01*
X160872500Y-317552742D02*
X160872500Y-318027258D01*
X163027500Y-318027258D02*
X163027500Y-317552742D01*
X164072500Y-318027258D02*
X164072500Y-317552742D01*
X175811252Y-310705000D02*
X175288748Y-310705000D01*
X175811252Y-312175000D02*
X175288748Y-312175000D01*
X166609420Y-313580000D02*
X166890580Y-313580000D01*
X166609420Y-314600000D02*
X166890580Y-314600000D01*
X127350000Y-326490000D02*
X127350000Y-332890000D01*
X127350000Y-332890000D02*
X128550000Y-332890000D01*
X128550000Y-326490000D02*
X127350000Y-326490000D01*
X130150000Y-332890000D02*
X131350000Y-332890000D01*
X131350000Y-326490000D02*
X130150000Y-326490000D01*
X131350000Y-332890000D02*
X131350000Y-326490000D01*
X151395000Y-309590000D02*
X151395000Y-308930000D01*
X151395000Y-311250000D02*
X151395000Y-310590000D01*
X152805000Y-308930000D02*
X151395000Y-308930000D01*
X152805000Y-311250000D02*
X151395000Y-311250000D01*
X153415000Y-311560000D02*
X152935000Y-311560000D01*
X153175000Y-311230000D01*
X153415000Y-311560000D01*
G36*
X153415000Y-311560000D02*
G01*
X152935000Y-311560000D01*
X153175000Y-311230000D01*
X153415000Y-311560000D01*
G37*
X126102500Y-325077258D02*
X126102500Y-324602742D01*
X127147500Y-325077258D02*
X127147500Y-324602742D01*
X159040000Y-310080000D02*
X159515000Y-310080000D01*
X159040000Y-310555000D02*
X159040000Y-310080000D01*
X159040000Y-313825000D02*
X159040000Y-314000000D01*
X159515000Y-314300000D02*
X159280000Y-314300000D01*
X163260000Y-310080000D02*
X162785000Y-310080000D01*
X163260000Y-310555000D02*
X163260000Y-310080000D01*
X163260000Y-313825000D02*
X163260000Y-314300000D01*
X163260000Y-314300000D02*
X162785000Y-314300000D01*
X159040000Y-314300000D02*
X158710000Y-314540000D01*
X158710000Y-314060000D01*
X159040000Y-314300000D01*
G36*
X159040000Y-314300000D02*
G01*
X158710000Y-314540000D01*
X158710000Y-314060000D01*
X159040000Y-314300000D01*
G37*
X175637258Y-307017500D02*
X175162742Y-307017500D01*
X175637258Y-308062500D02*
X175162742Y-308062500D01*
X162227500Y-306827258D02*
X162227500Y-306352742D01*
X163272500Y-306827258D02*
X163272500Y-306352742D01*
X159777500Y-345602742D02*
X159777500Y-346077258D01*
X160822500Y-345602742D02*
X160822500Y-346077258D01*
X191552742Y-333657500D02*
X192027258Y-333657500D01*
X191552742Y-334702500D02*
X192027258Y-334702500D01*
X129990000Y-351899420D02*
X129990000Y-352180580D01*
X131010000Y-351899420D02*
X131010000Y-352180580D01*
X173365000Y-316315000D02*
X173365000Y-318600000D01*
X173365000Y-318600000D02*
X174835000Y-318600000D01*
X174835000Y-318600000D02*
X174835000Y-316315000D01*
X117209420Y-323580000D02*
X117490580Y-323580000D01*
X117209420Y-324600000D02*
X117490580Y-324600000D01*
X188128748Y-321395000D02*
X188651252Y-321395000D01*
X188128748Y-322865000D02*
X188651252Y-322865000D01*
X192027258Y-321607500D02*
X191552742Y-321607500D01*
X192027258Y-322652500D02*
X191552742Y-322652500D01*
X144577500Y-309102742D02*
X144577500Y-309577258D01*
X145622500Y-309102742D02*
X145622500Y-309577258D01*
X151887742Y-315092500D02*
X152362258Y-315092500D01*
X151887742Y-316137500D02*
X152362258Y-316137500D01*
X155787258Y-311967500D02*
X155312742Y-311967500D01*
X155787258Y-313012500D02*
X155312742Y-313012500D01*
X173577500Y-313902742D02*
X173577500Y-314377258D01*
X174622500Y-313902742D02*
X174622500Y-314377258D01*
X173125000Y-319990000D02*
G75*
G02*
X171225000Y-319990000I-950000J0D01*
G01*
X171225000Y-319990000D02*
G75*
G02*
X173125000Y-319990000I950000J0D01*
G01*
X179750000Y-303330000D02*
X183510000Y-303330000D01*
X179750000Y-310150000D02*
X183510000Y-310150000D01*
X183510000Y-303330000D02*
X183510000Y-304590000D01*
X183510000Y-310150000D02*
X183510000Y-308890000D01*
X178470000Y-303430000D02*
X178230000Y-303100000D01*
X178710000Y-303100000D01*
X178470000Y-303430000D01*
G36*
X178470000Y-303430000D02*
G01*
X178230000Y-303100000D01*
X178710000Y-303100000D01*
X178470000Y-303430000D01*
G37*
%LPC*%
D10*
X195459875Y-321253220D02*
X194459875Y-321253220D01*
X194459875Y-321253220D02*
X194459875Y-321015125D01*
X194459875Y-321015125D02*
X194507494Y-320872268D01*
X194507494Y-320872268D02*
X194602732Y-320777030D01*
X194602732Y-320777030D02*
X194697970Y-320729411D01*
X194697970Y-320729411D02*
X194888446Y-320681792D01*
X194888446Y-320681792D02*
X195031303Y-320681792D01*
X195031303Y-320681792D02*
X195221779Y-320729411D01*
X195221779Y-320729411D02*
X195317017Y-320777030D01*
X195317017Y-320777030D02*
X195412256Y-320872268D01*
X195412256Y-320872268D02*
X195459875Y-321015125D01*
X195459875Y-321015125D02*
X195459875Y-321253220D01*
X195412256Y-319872268D02*
X195459875Y-319967506D01*
X195459875Y-319967506D02*
X195459875Y-320157982D01*
X195459875Y-320157982D02*
X195412256Y-320253220D01*
X195412256Y-320253220D02*
X195317017Y-320300839D01*
X195317017Y-320300839D02*
X194936065Y-320300839D01*
X194936065Y-320300839D02*
X194840827Y-320253220D01*
X194840827Y-320253220D02*
X194793208Y-320157982D01*
X194793208Y-320157982D02*
X194793208Y-319967506D01*
X194793208Y-319967506D02*
X194840827Y-319872268D01*
X194840827Y-319872268D02*
X194936065Y-319824649D01*
X194936065Y-319824649D02*
X195031303Y-319824649D01*
X195031303Y-319824649D02*
X195126541Y-320300839D01*
X195412256Y-319443696D02*
X195459875Y-319348458D01*
X195459875Y-319348458D02*
X195459875Y-319157982D01*
X195459875Y-319157982D02*
X195412256Y-319062744D01*
X195412256Y-319062744D02*
X195317017Y-319015125D01*
X195317017Y-319015125D02*
X195269398Y-319015125D01*
X195269398Y-319015125D02*
X195174160Y-319062744D01*
X195174160Y-319062744D02*
X195126541Y-319157982D01*
X195126541Y-319157982D02*
X195126541Y-319300839D01*
X195126541Y-319300839D02*
X195078922Y-319396077D01*
X195078922Y-319396077D02*
X194983684Y-319443696D01*
X194983684Y-319443696D02*
X194936065Y-319443696D01*
X194936065Y-319443696D02*
X194840827Y-319396077D01*
X194840827Y-319396077D02*
X194793208Y-319300839D01*
X194793208Y-319300839D02*
X194793208Y-319157982D01*
X194793208Y-319157982D02*
X194840827Y-319062744D01*
X195459875Y-318586553D02*
X194793208Y-318586553D01*
X194459875Y-318586553D02*
X194507494Y-318634172D01*
X194507494Y-318634172D02*
X194555113Y-318586553D01*
X194555113Y-318586553D02*
X194507494Y-318538934D01*
X194507494Y-318538934D02*
X194459875Y-318586553D01*
X194459875Y-318586553D02*
X194555113Y-318586553D01*
X194793208Y-317681792D02*
X195602732Y-317681792D01*
X195602732Y-317681792D02*
X195697970Y-317729411D01*
X195697970Y-317729411D02*
X195745589Y-317777030D01*
X195745589Y-317777030D02*
X195793208Y-317872268D01*
X195793208Y-317872268D02*
X195793208Y-318015125D01*
X195793208Y-318015125D02*
X195745589Y-318110363D01*
X195412256Y-317681792D02*
X195459875Y-317777030D01*
X195459875Y-317777030D02*
X195459875Y-317967506D01*
X195459875Y-317967506D02*
X195412256Y-318062744D01*
X195412256Y-318062744D02*
X195364636Y-318110363D01*
X195364636Y-318110363D02*
X195269398Y-318157982D01*
X195269398Y-318157982D02*
X194983684Y-318157982D01*
X194983684Y-318157982D02*
X194888446Y-318110363D01*
X194888446Y-318110363D02*
X194840827Y-318062744D01*
X194840827Y-318062744D02*
X194793208Y-317967506D01*
X194793208Y-317967506D02*
X194793208Y-317777030D01*
X194793208Y-317777030D02*
X194840827Y-317681792D01*
X194793208Y-317205601D02*
X195459875Y-317205601D01*
X194888446Y-317205601D02*
X194840827Y-317157982D01*
X194840827Y-317157982D02*
X194793208Y-317062744D01*
X194793208Y-317062744D02*
X194793208Y-316919887D01*
X194793208Y-316919887D02*
X194840827Y-316824649D01*
X194840827Y-316824649D02*
X194936065Y-316777030D01*
X194936065Y-316777030D02*
X195459875Y-316777030D01*
X195412256Y-315919887D02*
X195459875Y-316015125D01*
X195459875Y-316015125D02*
X195459875Y-316205601D01*
X195459875Y-316205601D02*
X195412256Y-316300839D01*
X195412256Y-316300839D02*
X195317017Y-316348458D01*
X195317017Y-316348458D02*
X194936065Y-316348458D01*
X194936065Y-316348458D02*
X194840827Y-316300839D01*
X194840827Y-316300839D02*
X194793208Y-316205601D01*
X194793208Y-316205601D02*
X194793208Y-316015125D01*
X194793208Y-316015125D02*
X194840827Y-315919887D01*
X194840827Y-315919887D02*
X194936065Y-315872268D01*
X194936065Y-315872268D02*
X195031303Y-315872268D01*
X195031303Y-315872268D02*
X195126541Y-316348458D01*
X195459875Y-315015125D02*
X194459875Y-315015125D01*
X195412256Y-315015125D02*
X195459875Y-315110363D01*
X195459875Y-315110363D02*
X195459875Y-315300839D01*
X195459875Y-315300839D02*
X195412256Y-315396077D01*
X195412256Y-315396077D02*
X195364636Y-315443696D01*
X195364636Y-315443696D02*
X195269398Y-315491315D01*
X195269398Y-315491315D02*
X194983684Y-315491315D01*
X194983684Y-315491315D02*
X194888446Y-315443696D01*
X194888446Y-315443696D02*
X194840827Y-315396077D01*
X194840827Y-315396077D02*
X194793208Y-315300839D01*
X194793208Y-315300839D02*
X194793208Y-315110363D01*
X194793208Y-315110363D02*
X194840827Y-315015125D01*
X195459875Y-313777029D02*
X194459875Y-313777029D01*
X194840827Y-313777029D02*
X194793208Y-313681791D01*
X194793208Y-313681791D02*
X194793208Y-313491315D01*
X194793208Y-313491315D02*
X194840827Y-313396077D01*
X194840827Y-313396077D02*
X194888446Y-313348458D01*
X194888446Y-313348458D02*
X194983684Y-313300839D01*
X194983684Y-313300839D02*
X195269398Y-313300839D01*
X195269398Y-313300839D02*
X195364636Y-313348458D01*
X195364636Y-313348458D02*
X195412256Y-313396077D01*
X195412256Y-313396077D02*
X195459875Y-313491315D01*
X195459875Y-313491315D02*
X195459875Y-313681791D01*
X195459875Y-313681791D02*
X195412256Y-313777029D01*
X194793208Y-312967505D02*
X195459875Y-312729410D01*
X194793208Y-312491315D02*
X195459875Y-312729410D01*
X195459875Y-312729410D02*
X195697970Y-312824648D01*
X195697970Y-312824648D02*
X195745589Y-312872267D01*
X195745589Y-312872267D02*
X195793208Y-312967505D01*
X197022200Y-321300839D02*
X197069819Y-321157982D01*
X197069819Y-321157982D02*
X197069819Y-320919887D01*
X197069819Y-320919887D02*
X197022200Y-320824649D01*
X197022200Y-320824649D02*
X196974580Y-320777030D01*
X196974580Y-320777030D02*
X196879342Y-320729411D01*
X196879342Y-320729411D02*
X196784104Y-320729411D01*
X196784104Y-320729411D02*
X196688866Y-320777030D01*
X196688866Y-320777030D02*
X196641247Y-320824649D01*
X196641247Y-320824649D02*
X196593628Y-320919887D01*
X196593628Y-320919887D02*
X196546009Y-321110363D01*
X196546009Y-321110363D02*
X196498390Y-321205601D01*
X196498390Y-321205601D02*
X196450771Y-321253220D01*
X196450771Y-321253220D02*
X196355533Y-321300839D01*
X196355533Y-321300839D02*
X196260295Y-321300839D01*
X196260295Y-321300839D02*
X196165057Y-321253220D01*
X196165057Y-321253220D02*
X196117438Y-321205601D01*
X196117438Y-321205601D02*
X196069819Y-321110363D01*
X196069819Y-321110363D02*
X196069819Y-320872268D01*
X196069819Y-320872268D02*
X196117438Y-320729411D01*
X195688866Y-321205601D02*
X195831723Y-321015125D01*
X195831723Y-321015125D02*
X195688866Y-320824649D01*
X197069819Y-320300839D02*
X196403152Y-320300839D01*
X196069819Y-320300839D02*
X196117438Y-320348458D01*
X196117438Y-320348458D02*
X196165057Y-320300839D01*
X196165057Y-320300839D02*
X196117438Y-320253220D01*
X196117438Y-320253220D02*
X196069819Y-320300839D01*
X196069819Y-320300839D02*
X196165057Y-320300839D01*
X197069819Y-319824649D02*
X196403152Y-319824649D01*
X196498390Y-319824649D02*
X196450771Y-319777030D01*
X196450771Y-319777030D02*
X196403152Y-319681792D01*
X196403152Y-319681792D02*
X196403152Y-319538935D01*
X196403152Y-319538935D02*
X196450771Y-319443697D01*
X196450771Y-319443697D02*
X196546009Y-319396078D01*
X196546009Y-319396078D02*
X197069819Y-319396078D01*
X196546009Y-319396078D02*
X196450771Y-319348459D01*
X196450771Y-319348459D02*
X196403152Y-319253221D01*
X196403152Y-319253221D02*
X196403152Y-319110364D01*
X196403152Y-319110364D02*
X196450771Y-319015125D01*
X196450771Y-319015125D02*
X196546009Y-318967506D01*
X196546009Y-318967506D02*
X197069819Y-318967506D01*
X196403152Y-318062745D02*
X197069819Y-318062745D01*
X196403152Y-318491316D02*
X196926961Y-318491316D01*
X196926961Y-318491316D02*
X197022200Y-318443697D01*
X197022200Y-318443697D02*
X197069819Y-318348459D01*
X197069819Y-318348459D02*
X197069819Y-318205602D01*
X197069819Y-318205602D02*
X197022200Y-318110364D01*
X197022200Y-318110364D02*
X196974580Y-318062745D01*
X196403152Y-317586554D02*
X197069819Y-317586554D01*
X196498390Y-317586554D02*
X196450771Y-317538935D01*
X196450771Y-317538935D02*
X196403152Y-317443697D01*
X196403152Y-317443697D02*
X196403152Y-317300840D01*
X196403152Y-317300840D02*
X196450771Y-317205602D01*
X196450771Y-317205602D02*
X196546009Y-317157983D01*
X196546009Y-317157983D02*
X197069819Y-317157983D01*
X197022200Y-316253221D02*
X197069819Y-316348459D01*
X197069819Y-316348459D02*
X197069819Y-316538935D01*
X197069819Y-316538935D02*
X197022200Y-316634173D01*
X197022200Y-316634173D02*
X196974580Y-316681792D01*
X196974580Y-316681792D02*
X196879342Y-316729411D01*
X196879342Y-316729411D02*
X196593628Y-316729411D01*
X196593628Y-316729411D02*
X196498390Y-316681792D01*
X196498390Y-316681792D02*
X196450771Y-316634173D01*
X196450771Y-316634173D02*
X196403152Y-316538935D01*
X196403152Y-316538935D02*
X196403152Y-316348459D01*
X196403152Y-316348459D02*
X196450771Y-316253221D01*
X196022200Y-316634173D02*
X196165057Y-316443697D01*
X196165057Y-316443697D02*
X196022200Y-316253221D01*
X197069819Y-315824649D02*
X196403152Y-315824649D01*
X196069819Y-315824649D02*
X196117438Y-315872268D01*
X196117438Y-315872268D02*
X196165057Y-315824649D01*
X196165057Y-315824649D02*
X196117438Y-315777030D01*
X196117438Y-315777030D02*
X196069819Y-315824649D01*
X196069819Y-315824649D02*
X196165057Y-315824649D01*
X197022200Y-314919888D02*
X197069819Y-315015126D01*
X197069819Y-315015126D02*
X197069819Y-315205602D01*
X197069819Y-315205602D02*
X197022200Y-315300840D01*
X197022200Y-315300840D02*
X196974580Y-315348459D01*
X196974580Y-315348459D02*
X196879342Y-315396078D01*
X196879342Y-315396078D02*
X196593628Y-315396078D01*
X196593628Y-315396078D02*
X196498390Y-315348459D01*
X196498390Y-315348459D02*
X196450771Y-315300840D01*
X196450771Y-315300840D02*
X196403152Y-315205602D01*
X196403152Y-315205602D02*
X196403152Y-315015126D01*
X196403152Y-315015126D02*
X196450771Y-314919888D01*
X196022200Y-315015126D02*
X196165057Y-315157983D01*
X196784104Y-313777030D02*
X196784104Y-313300840D01*
X197069819Y-313872268D02*
X196069819Y-313538935D01*
X196069819Y-313538935D02*
X197069819Y-313205602D01*
X196974580Y-312872268D02*
X197022200Y-312824649D01*
X197022200Y-312824649D02*
X197069819Y-312872268D01*
X197069819Y-312872268D02*
X197022200Y-312919887D01*
X197022200Y-312919887D02*
X196974580Y-312872268D01*
X196974580Y-312872268D02*
X197069819Y-312872268D01*
D11*
X196270595Y-311831573D02*
X197070595Y-311564906D01*
X197070595Y-311564906D02*
X196270595Y-311298240D01*
X197070595Y-310612526D02*
X197070595Y-311069669D01*
X197070595Y-310841097D02*
X196270595Y-310841097D01*
X196270595Y-310841097D02*
X196384880Y-310917288D01*
X196384880Y-310917288D02*
X196461071Y-310993478D01*
X196461071Y-310993478D02*
X196499166Y-311069669D01*
X196994404Y-310269668D02*
X197032500Y-310231573D01*
X197032500Y-310231573D02*
X197070595Y-310269668D01*
X197070595Y-310269668D02*
X197032500Y-310307764D01*
X197032500Y-310307764D02*
X196994404Y-310269668D01*
X196994404Y-310269668D02*
X197070595Y-310269668D01*
X196270595Y-309736335D02*
X196270595Y-309660145D01*
X196270595Y-309660145D02*
X196308690Y-309583954D01*
X196308690Y-309583954D02*
X196346785Y-309545859D01*
X196346785Y-309545859D02*
X196422976Y-309507764D01*
X196422976Y-309507764D02*
X196575357Y-309469669D01*
X196575357Y-309469669D02*
X196765833Y-309469669D01*
X196765833Y-309469669D02*
X196918214Y-309507764D01*
X196918214Y-309507764D02*
X196994404Y-309545859D01*
X196994404Y-309545859D02*
X197032500Y-309583954D01*
X197032500Y-309583954D02*
X197070595Y-309660145D01*
X197070595Y-309660145D02*
X197070595Y-309736335D01*
X197070595Y-309736335D02*
X197032500Y-309812526D01*
X197032500Y-309812526D02*
X196994404Y-309850621D01*
X196994404Y-309850621D02*
X196918214Y-309888716D01*
X196918214Y-309888716D02*
X196765833Y-309926812D01*
X196765833Y-309926812D02*
X196575357Y-309926812D01*
X196575357Y-309926812D02*
X196422976Y-309888716D01*
X196422976Y-309888716D02*
X196346785Y-309850621D01*
X196346785Y-309850621D02*
X196308690Y-309812526D01*
X196308690Y-309812526D02*
X196270595Y-309736335D01*
D15*
X187790000Y-331180000D03*
X187790000Y-332580000D03*
D16*
X165925000Y-309290000D03*
X167575000Y-309290000D03*
D17*
X161150000Y-307415000D03*
X161150000Y-305765000D03*
D16*
X132000000Y-323990000D03*
X133650000Y-323990000D03*
X151300000Y-307765000D03*
X152950000Y-307765000D03*
D18*
X176000000Y-305790000D03*
X176000000Y-303890000D03*
D17*
X124900000Y-325665000D03*
X124900000Y-324015000D03*
D18*
X111450000Y-303540000D03*
X111450000Y-301640000D03*
D15*
X187790000Y-328430000D03*
X187790000Y-329830000D03*
D19*
X140770000Y-306040000D03*
D20*
X143310000Y-306040000D03*
X145850000Y-306040000D03*
D21*
X162762500Y-304040000D03*
X164337500Y-304040000D03*
D22*
X166000000Y-315940000D03*
X167900000Y-315940000D03*
D23*
X150566524Y-353381524D03*
X152116524Y-353381524D03*
D24*
X183000000Y-351240000D03*
X184000000Y-351240000D03*
X185000000Y-351240000D03*
X186000000Y-351240000D03*
D25*
X181700000Y-355115000D03*
X187300000Y-355115000D03*
D26*
X111225000Y-306515000D03*
X109675000Y-306515000D03*
D27*
X186390000Y-331780000D03*
X184990000Y-331780000D03*
D28*
X191800000Y-331920000D03*
D29*
X191800000Y-324420000D03*
D30*
X190965000Y-330920000D03*
X190965000Y-329420000D03*
X190965000Y-328920000D03*
X190965000Y-328420000D03*
X190965000Y-327920000D03*
X190965000Y-327420000D03*
X190965000Y-326920000D03*
X190975000Y-325420000D03*
X192635000Y-325420000D03*
X192635000Y-326920000D03*
X192635000Y-327420000D03*
X192635000Y-327920000D03*
X192635000Y-328420000D03*
X192635000Y-328920000D03*
X192635000Y-329420000D03*
X192635000Y-330920000D03*
D31*
X189650000Y-330570000D03*
X193950000Y-330570000D03*
X189650000Y-325770000D03*
X193950000Y-325770000D03*
D15*
X140600000Y-308640000D03*
X140600000Y-310040000D03*
D32*
X161950000Y-316965000D03*
X161950000Y-318615000D03*
D33*
X167575000Y-312490000D03*
X165925000Y-312490000D03*
D21*
X158012500Y-304040000D03*
X159587500Y-304040000D03*
D34*
X178100000Y-319990000D03*
D26*
X176175000Y-309340000D03*
X174625000Y-309340000D03*
D19*
X141775000Y-324765000D03*
D20*
X141775000Y-322225000D03*
X141775000Y-319685000D03*
X141775000Y-317145000D03*
X141775000Y-314605000D03*
D18*
X109450000Y-303540000D03*
X109450000Y-301640000D03*
D17*
X161800000Y-346665000D03*
X161800000Y-345015000D03*
D16*
X150516524Y-350181524D03*
X152166524Y-350181524D03*
X109625000Y-307990000D03*
X111275000Y-307990000D03*
D26*
X130125000Y-323990000D03*
X128575000Y-323990000D03*
D35*
X187390000Y-326880000D03*
X187390000Y-324080000D03*
D17*
X121425000Y-325665000D03*
X121425000Y-324015000D03*
D36*
X174030000Y-345830000D03*
D37*
X172030000Y-345830000D03*
X170030000Y-345830000D03*
X168030000Y-345830000D03*
X166030000Y-345830000D03*
X164030000Y-345830000D03*
D15*
X143600000Y-308640000D03*
X143600000Y-310040000D03*
D26*
X111225000Y-305040000D03*
X109675000Y-305040000D03*
D17*
X159550000Y-307415000D03*
X159550000Y-305765000D03*
D38*
X117350000Y-325815000D03*
X117350000Y-333565000D03*
D22*
X178100000Y-311440000D03*
X180000000Y-311440000D03*
D33*
X167575000Y-307690000D03*
X165925000Y-307690000D03*
D32*
X180000000Y-313277500D03*
X180000000Y-314927500D03*
D39*
X116200000Y-351265000D03*
X116200000Y-352815000D03*
D33*
X156375000Y-310890000D03*
X154725000Y-310890000D03*
X156375000Y-314090000D03*
X154725000Y-314090000D03*
D19*
X102000000Y-344680000D03*
D20*
X102000000Y-342140000D03*
X102000000Y-339600000D03*
X102000000Y-337060000D03*
X102000000Y-334520000D03*
X102000000Y-331980000D03*
X102000000Y-329440000D03*
X102000000Y-326900000D03*
X102000000Y-324360000D03*
X102000000Y-321820000D03*
X102000000Y-319280000D03*
X102000000Y-316740000D03*
X102000000Y-314200000D03*
X102000000Y-311660000D03*
D40*
X153125000Y-313940000D03*
X153125000Y-312640000D03*
X151125000Y-313290000D03*
D23*
X150566524Y-351781524D03*
X152116524Y-351781524D03*
D41*
X172145000Y-350580000D03*
X170895000Y-350580000D03*
X169645000Y-350580000D03*
X168395000Y-350580000D03*
X167145000Y-350580000D03*
X165895000Y-350580000D03*
D42*
X173995000Y-353930000D03*
X164045000Y-353930000D03*
D17*
X158750000Y-318615000D03*
X158750000Y-316965000D03*
D19*
X196000000Y-331980000D03*
D20*
X196000000Y-329440000D03*
X196000000Y-326900000D03*
X196000000Y-324360000D03*
D43*
X144291524Y-353231524D03*
X144291524Y-352581524D03*
X144291524Y-351931524D03*
X144291524Y-351281524D03*
X145741524Y-351281524D03*
X145741524Y-351931524D03*
X145741524Y-352581524D03*
X145741524Y-353231524D03*
D33*
X156375000Y-309290000D03*
X154725000Y-309290000D03*
D17*
X123150000Y-325665000D03*
X123150000Y-324015000D03*
D23*
X165975000Y-310890000D03*
X167525000Y-310890000D03*
D18*
X173900000Y-305790000D03*
X173900000Y-303890000D03*
D44*
X114600000Y-301580000D03*
X114600000Y-302850000D03*
X114600000Y-304120000D03*
X114600000Y-305390000D03*
X114600000Y-306660000D03*
X114600000Y-307930000D03*
X114600000Y-309200000D03*
X114600000Y-310470000D03*
X114600000Y-311740000D03*
X114600000Y-313010000D03*
X114600000Y-314280000D03*
X114600000Y-315550000D03*
X114600000Y-316820000D03*
X114600000Y-318090000D03*
D45*
X116365000Y-319340000D03*
X117635000Y-319340000D03*
X118905000Y-319340000D03*
X120175000Y-319340000D03*
X121445000Y-319340000D03*
X122715000Y-319340000D03*
X123985000Y-319340000D03*
X125255000Y-319340000D03*
X126525000Y-319340000D03*
X127795000Y-319340000D03*
X129065000Y-319340000D03*
X130335000Y-319340000D03*
D44*
X132100000Y-318090000D03*
X132100000Y-316820000D03*
X132100000Y-315550000D03*
X132100000Y-314280000D03*
X132100000Y-313010000D03*
X132100000Y-311740000D03*
X132100000Y-310470000D03*
X132100000Y-309200000D03*
X132100000Y-307930000D03*
X132100000Y-306660000D03*
X132100000Y-305390000D03*
X132100000Y-304120000D03*
X132100000Y-302850000D03*
X132100000Y-301580000D03*
D46*
X120450000Y-307900000D03*
X120450000Y-309300000D03*
X120450000Y-310700000D03*
X120450000Y-310700000D03*
X121850000Y-307900000D03*
X121850000Y-307900000D03*
X121850000Y-309300000D03*
X121850000Y-310700000D03*
X123250000Y-307900000D03*
X123250000Y-309300000D03*
X123250000Y-310700000D03*
D47*
X180000000Y-317865000D03*
X180000000Y-316290000D03*
D16*
X108050000Y-344690000D03*
X109700000Y-344690000D03*
D32*
X142100000Y-308515000D03*
X142100000Y-310165000D03*
D16*
X108050000Y-347290000D03*
X109700000Y-347290000D03*
D48*
X120850000Y-354140000D03*
X122100000Y-354140000D03*
X123350000Y-354140000D03*
X124600000Y-354140000D03*
X125850000Y-354140000D03*
D49*
X127500000Y-352490000D03*
X127500000Y-351240000D03*
X127500000Y-349990000D03*
X127500000Y-348740000D03*
X127500000Y-347490000D03*
D48*
X125850000Y-345840000D03*
X124600000Y-345840000D03*
X123350000Y-345840000D03*
X122100000Y-345840000D03*
X120850000Y-345840000D03*
D49*
X119200000Y-347490000D03*
X119200000Y-348740000D03*
X119200000Y-349990000D03*
X119200000Y-351240000D03*
X119200000Y-352490000D03*
D50*
X123350000Y-349990000D03*
D32*
X160350000Y-316965000D03*
X160350000Y-318615000D03*
D17*
X163550000Y-318615000D03*
X163550000Y-316965000D03*
D51*
X176500000Y-311440000D03*
X174600000Y-311440000D03*
D23*
X165975000Y-314090000D03*
X167525000Y-314090000D03*
D38*
X129350000Y-325815000D03*
X129350000Y-333565000D03*
D40*
X153125000Y-310740000D03*
X153125000Y-309440000D03*
X151125000Y-310090000D03*
D17*
X126625000Y-325665000D03*
X126625000Y-324015000D03*
D52*
X159900000Y-314127500D03*
X160400000Y-314127500D03*
X160900000Y-314127500D03*
X161400000Y-314127500D03*
X161900000Y-314127500D03*
X162400000Y-314127500D03*
D53*
X163087500Y-313440000D03*
X163087500Y-312940000D03*
X163087500Y-312440000D03*
X163087500Y-311940000D03*
X163087500Y-311440000D03*
X163087500Y-310940000D03*
D52*
X162400000Y-310252500D03*
X161900000Y-310252500D03*
X161400000Y-310252500D03*
X160900000Y-310252500D03*
X160400000Y-310252500D03*
X159900000Y-310252500D03*
D53*
X159212500Y-310940000D03*
X159212500Y-311440000D03*
X159212500Y-311940000D03*
X159212500Y-312440000D03*
X159212500Y-312940000D03*
X159212500Y-313440000D03*
D54*
X161150000Y-312190000D03*
D33*
X176225000Y-307540000D03*
X174575000Y-307540000D03*
D17*
X162750000Y-307415000D03*
X162750000Y-305765000D03*
D32*
X160300000Y-345015000D03*
X160300000Y-346665000D03*
D16*
X190965000Y-334180000D03*
X192615000Y-334180000D03*
D39*
X130500000Y-351265000D03*
X130500000Y-352815000D03*
D47*
X174100000Y-317902500D03*
X174100000Y-316327500D03*
D23*
X116575000Y-324090000D03*
X118125000Y-324090000D03*
D22*
X187440000Y-322130000D03*
X189340000Y-322130000D03*
D33*
X192615000Y-322130000D03*
X190965000Y-322130000D03*
D32*
X145100000Y-308515000D03*
X145100000Y-310165000D03*
D16*
X151300000Y-315615000D03*
X152950000Y-315615000D03*
D33*
X156375000Y-312490000D03*
X154725000Y-312490000D03*
D32*
X174100000Y-313315000D03*
X174100000Y-314965000D03*
D34*
X172175000Y-319990000D03*
D55*
X178450000Y-304440000D03*
X178450000Y-306740000D03*
D56*
X184750000Y-306740000D03*
D55*
X178450000Y-309040000D03*
%LPD*%
M02*
