M48
; DRILL file {KiCad 8.0.4} date 2024-11-11T15:06:15+0100
; FORMAT={-:-/ absolute / metric / decimal}
; #@! TF.CreationDate,2024-11-11T15:06:15+01:00
; #@! TF.GenerationSoftware,Kicad,Pcbnew,8.0.4
; #@! TF.FileFunction,Plated,1,4,PTH
FMAT,2
METRIC
; #@! TA.AperFunction,Plated,PTH,ViaDrill
T1C0.300
; #@! TA.AperFunction,Plated,PTH,ComponentDrill
T2C0.700
; #@! TA.AperFunction,Plated,PTH,ComponentDrill
T3C0.800
; #@! TA.AperFunction,Plated,PTH,ComponentDrill
T4C1.000
%
G90
G05
T1
X100.55Y-312.969
X100.553Y-310.845
X100.553Y-345.941
X100.556Y-331.006
X100.57Y-343.481
X100.6Y-315.44
X100.6Y-317.99
X100.6Y-320.54
X100.6Y-322.34
X100.6Y-328.89
X100.6Y-333.34
X100.6Y-335.79
X100.6Y-338.44
X100.6Y-340.79
X101.363Y-325.632
X101.945Y-308.482
X102.05Y-347.84
X102.599Y-328.164
X102.624Y-323.049
X103.3Y-338.34
X103.3Y-340.24
X103.4Y-343.84
X103.4Y-345.44
X103.415Y-334.237
X103.9Y-320.44
X103.9Y-322.64
X103.9Y-325.94
X103.9Y-328.14
X103.9Y-330.94
X104.519Y-308.237
X105.0Y-315.54
X105.08Y-348.307
X106.9Y-310.04
X106.9Y-313.04
X106.939Y-306.596
X107.241Y-350.167
X107.25Y-345.44
X107.314Y-343.924
X107.6Y-323.04
X107.8Y-318.44
X108.05Y-304.04
X108.062Y-352.912
X108.107Y-301.663
X108.6Y-305.04
X108.613Y-355.462
X108.625Y-306.515
X109.45Y-300.59
X109.7Y-308.965
X109.7Y-314.54
X109.7Y-316.64
X109.7Y-318.34
X109.7Y-320.94
X109.7Y-322.74
X109.7Y-325.84
X109.7Y-327.84
X109.7Y-329.84
X109.7Y-333.34
X109.7Y-336.84
X109.7Y-338.54
X109.7Y-342.64
X110.343Y-348.108
X110.45Y-303.54
X110.45Y-347.29
X110.8Y-351.54
X110.9Y-355.74
X111.2Y-324.44
X111.2Y-328.34
X111.2Y-331.74
X111.2Y-335.34
X111.2Y-337.04
X111.25Y-343.64
X111.25Y-345.54
X111.25Y-347.14
X111.275Y-307.24
X111.275Y-344.69
X111.45Y-300.59
X111.6Y-325.84
X111.9Y-312.44
X111.9Y-314.44
X111.9Y-320.34
X112.175Y-307.79
X112.5Y-327.14
X112.8Y-342.24
X112.849Y-348.726
X112.975Y-301.615
X113.1Y-319.74
X113.1Y-321.44
X113.15Y-355.74
X113.3Y-343.79
X113.35Y-305.315
X113.35Y-310.94
X113.35Y-312.99
X113.644Y-325.888
X113.759Y-351.55
X114.7Y-323.09
X114.719Y-350.61
X115.35Y-355.74
X115.551Y-323.986
X115.6Y-322.19
X115.7Y-330.74
X115.8Y-332.44
X115.85Y-301.59
X115.891Y-317.055
X115.891Y-317.855
X115.9Y-302.74
X115.9Y-304.34
X115.9Y-307.94
X115.9Y-309.24
X115.9Y-312.94
X116.199Y-353.9
X116.2Y-333.565
X116.3Y-325.84
X116.55Y-323.04
X117.186Y-320.609
X117.297Y-324.742
X117.339Y-334.858
X117.35Y-317.89
X117.4Y-300.59
X117.566Y-352.48
X117.6Y-338.34
X117.8Y-342.24
X117.8Y-343.74
X117.826Y-350.614
X118.1Y-322.94
X118.4Y-325.44
X118.514Y-333.562
X118.9Y-327.14
X119.032Y-329.215
X119.2Y-307.94
X119.2Y-309.24
X119.202Y-353.576
X119.5Y-320.64
X119.9Y-328.34
X119.9Y-334.44
X119.9Y-346.54
X119.9Y-354.84
X120.1Y-324.34
X120.2Y-317.89
X120.45Y-307.89
X120.45Y-309.29
X120.45Y-310.69
X120.8Y-320.74
X121.425Y-326.49
X121.425Y-327.34
X121.498Y-349.995
X121.5Y-333.74
X121.85Y-307.89
X121.85Y-309.29
X121.85Y-310.69
X122.598Y-349.995
X123.0Y-300.59
X123.0Y-302.74
X123.0Y-304.34
X123.15Y-326.49
X123.15Y-327.34
X123.2Y-333.14
X123.25Y-307.89
X123.25Y-309.29
X123.25Y-310.69
X123.35Y-348.21
X123.35Y-349.41
X123.35Y-350.61
X123.35Y-351.81
X123.8Y-342.24
X123.8Y-343.74
X123.85Y-317.89
X123.998Y-349.995
X124.2Y-336.64
X124.6Y-307.94
X124.6Y-309.24
X124.9Y-326.49
X124.9Y-327.34
X124.9Y-332.54
X125.198Y-349.995
X125.4Y-335.44
X126.2Y-313.84
X126.5Y-341.04
X126.6Y-327.34
X126.625Y-326.49
X126.7Y-334.24
X126.8Y-346.44
X126.9Y-317.89
X127.1Y-339.54
X127.15Y-320.59
X127.508Y-353.57
X127.7Y-300.59
X127.8Y-307.94
X127.8Y-309.24
X127.8Y-337.74
X127.8Y-342.24
X127.8Y-343.74
X128.1Y-333.54
X128.5Y-327.94
X128.5Y-336.04
X128.6Y-322.74
X128.831Y-348.116
X128.836Y-350.589
X129.301Y-352.807
X129.65Y-320.64
X130.4Y-313.24
X130.5Y-333.54
X130.8Y-302.74
X130.8Y-304.34
X130.8Y-307.84
X130.8Y-309.24
X130.85Y-301.59
X130.9Y-334.44
X130.9Y-342.24
X130.9Y-343.74
X130.996Y-332.213
X131.05Y-322.09
X131.05Y-330.547
X131.2Y-336.04
X131.2Y-337.84
X131.2Y-339.54
X131.2Y-341.14
X131.2Y-346.84
X131.277Y-354.848
X131.85Y-334.04
X131.85Y-342.24
X132.0Y-322.99
X132.0Y-325.065
X132.1Y-319.265
X132.4Y-331.84
X132.5Y-346.84
X132.605Y-354.848
X132.8Y-334.04
X132.8Y-336.04
X132.8Y-337.84
X132.8Y-339.54
X132.8Y-341.14
X132.8Y-342.24
X132.8Y-343.74
X133.1Y-319.14
X133.15Y-321.54
X133.2Y-324.94
X133.2Y-328.84
X133.2Y-348.116
X133.226Y-349.375
X133.425Y-304.54
X133.504Y-301.575
X133.85Y-334.04
X133.85Y-342.24
X133.85Y-343.765
X133.85Y-348.84
X134.4Y-300.59
X134.461Y-318.203
X134.5Y-321.54
X134.5Y-328.94
X134.5Y-336.04
X134.5Y-337.84
X134.5Y-339.54
X134.5Y-341.14
X134.5Y-348.14
X134.6Y-323.34
X134.7Y-334.04
X134.7Y-346.84
X134.8Y-342.24
X134.8Y-343.74
X135.6Y-316.94
X136.1Y-351.84
X136.7Y-315.54
X136.9Y-320.94
X137.25Y-325.34
X137.4Y-300.59
X137.55Y-351.29
X137.7Y-307.94
X137.7Y-350.44
X137.728Y-348.116
X137.9Y-314.34
X138.0Y-312.44
X138.0Y-354.84
X138.1Y-319.74
X138.2Y-323.69
X138.4Y-334.54
X138.4Y-336.04
X138.4Y-337.74
X138.4Y-339.54
X138.4Y-341.24
X138.4Y-342.24
X138.4Y-343.74
X138.4Y-346.84
X138.975Y-348.11
X139.0Y-311.34
X139.0Y-313.24
X139.0Y-350.54
X139.3Y-318.34
X139.375Y-351.29
X139.45Y-309.74
X139.8Y-327.79
X140.225Y-353.24
X140.4Y-300.59
X140.4Y-316.94
X140.5Y-325.94
X140.7Y-331.24
X140.832Y-350.682
X141.842Y-348.119
X142.1Y-311.24
X143.05Y-323.34
X143.1Y-318.39
X143.1Y-320.94
X143.277Y-354.776
X143.4Y-300.59
X143.4Y-334.54
X143.4Y-336.04
X143.4Y-337.74
X143.4Y-339.54
X143.4Y-341.24
X143.4Y-342.24
X143.4Y-343.74
X143.4Y-346.84
X143.6Y-310.965
X144.45Y-325.94
X144.45Y-327.79
X145.4Y-312.54
X145.5Y-349.54
X146.4Y-300.59
X147.9Y-317.79
X147.9Y-321.24
X148.025Y-309.64
X148.2Y-325.94
X148.4Y-331.24
X148.4Y-334.54
X148.4Y-336.04
X148.4Y-337.74
X148.4Y-339.54
X148.4Y-341.24
X148.4Y-342.24
X148.4Y-343.74
X148.4Y-346.84
X148.8Y-307.94
X148.9Y-327.79
X148.9Y-348.14
X149.0Y-312.54
X149.112Y-355.779
X149.162Y-353.841
X149.4Y-300.59
X149.85Y-352.582
X150.1Y-308.64
X150.2Y-310.14
X150.2Y-312.54
X150.425Y-315.615
X150.65Y-323.49
X151.95Y-324.84
X152.1Y-355.74
X152.3Y-309.44
X152.35Y-310.74
X152.375Y-312.64
X152.4Y-300.59
X152.9Y-317.79
X152.95Y-350.19
X152.95Y-351.765
X152.95Y-353.39
X153.4Y-334.54
X153.4Y-336.04
X153.4Y-337.74
X153.4Y-339.54
X153.4Y-341.24
X153.4Y-342.24
X153.4Y-343.74
X153.4Y-346.84
X153.45Y-320.69
X153.9Y-315.04
X154.725Y-309.29
X154.75Y-321.99
X155.003Y-349.394
X155.1Y-355.74
X155.4Y-300.59
X156.0Y-331.24
X156.5Y-317.64
X157.171Y-348.114
X157.2Y-352.44
X157.375Y-310.39
X157.5Y-313.015
X157.7Y-319.04
X158.1Y-355.74
X158.2Y-313.54
X158.4Y-300.59
X158.4Y-334.54
X158.4Y-336.04
X158.4Y-337.74
X158.4Y-339.54
X158.4Y-341.24
X158.4Y-342.24
X158.4Y-343.74
X158.4Y-347.44
X158.441Y-305.763
X158.462Y-349.399
X158.624Y-315.502
X158.715Y-309.794
X158.75Y-316.99
X159.547Y-319.428
X159.7Y-326.84
X160.3Y-349.44
X160.303Y-347.712
X160.35Y-308.19
X160.4Y-304.04
X160.5Y-312.24
X160.5Y-320.69
X160.5Y-343.795
X161.0Y-331.24
X161.1Y-355.74
X161.15Y-311.54
X161.15Y-312.84
X161.4Y-300.59
X161.85Y-312.19
X161.944Y-306.578
X162.016Y-305.028
X162.393Y-348.189
X162.765Y-319.379
X162.93Y-345.009
X163.05Y-308.34
X163.2Y-323.39
X163.4Y-334.54
X163.4Y-336.04
X163.4Y-337.74
X163.4Y-339.54
X163.4Y-341.24
X163.4Y-342.24
X163.421Y-349.47
X163.525Y-304.872
X163.55Y-316.99
X163.6Y-314.59
X164.0Y-311.84
X164.04Y-355.784
X164.052Y-351.843
X164.4Y-300.59
X164.441Y-322.099
X165.0Y-315.04
X165.001Y-343.752
X165.009Y-342.232
X165.25Y-304.015
X165.75Y-317.24
X165.9Y-348.84
X166.1Y-331.24
X166.968Y-342.24
X166.993Y-343.748
X167.0Y-327.19
X167.4Y-300.59
X167.7Y-348.74
X168.3Y-325.94
X168.4Y-321.44
X168.4Y-334.54
X168.4Y-336.04
X168.4Y-337.74
X168.4Y-339.54
X168.4Y-341.24
X168.624Y-310.891
X168.626Y-309.282
X168.647Y-314.083
X168.77Y-307.29
X169.01Y-343.752
X169.028Y-348.24
X169.043Y-342.236
X169.06Y-315.945
X169.204Y-355.757
X169.355Y-304.767
X169.4Y-318.24
X169.65Y-329.69
X169.725Y-317.465
X169.999Y-313.09
X170.0Y-311.89
X170.038Y-303.356
X170.4Y-300.59
X170.652Y-306.062
X170.79Y-317.465
X170.864Y-342.136
X170.894Y-352.127
X170.895Y-349.09
X171.075Y-343.761
X171.5Y-311.89
X171.5Y-313.093
X172.1Y-307.564
X172.521Y-303.893
X172.675Y-305.929
X173.1Y-323.44
X173.1Y-344.64
X173.2Y-327.84
X173.2Y-329.69
X173.2Y-334.54
X173.2Y-336.04
X173.2Y-337.84
X173.2Y-339.64
X173.2Y-341.44
X173.25Y-307.59
X173.293Y-347.059
X173.4Y-300.59
X173.438Y-311.432
X173.535Y-309.342
X173.6Y-308.31
X173.908Y-302.724
X174.79Y-347.084
X174.8Y-334.54
X174.8Y-336.04
X174.8Y-337.84
X174.8Y-339.64
X174.8Y-341.54
X174.828Y-344.631
X174.922Y-343.077
X175.133Y-355.748
X175.15Y-327.84
X175.15Y-329.69
X175.999Y-302.735
X176.0Y-324.74
X176.4Y-300.59
X177.001Y-320.741
X177.5Y-325.44
X178.148Y-355.74
X178.2Y-348.34
X178.462Y-302.763
X178.718Y-322.04
X179.107Y-319.15
X179.3Y-334.54
X179.3Y-336.04
X179.3Y-337.84
X179.3Y-339.64
X179.3Y-341.34
X179.4Y-300.59
X179.85Y-323.09
X180.0Y-310.04
X180.0Y-327.84
X180.0Y-329.69
X180.108Y-344.59
X180.114Y-304.437
X180.24Y-322.13
X180.4Y-308.04
X180.4Y-320.79
X181.0Y-343.24
X181.147Y-317.864
X181.164Y-311.442
X181.2Y-325.74
X182.4Y-300.59
X182.4Y-302.64
X182.4Y-310.94
X182.8Y-323.14
X183.0Y-321.09
X183.0Y-349.84
X183.018Y-352.711
X183.1Y-347.54
X183.2Y-334.54
X183.2Y-336.04
X183.2Y-337.84
X183.2Y-339.54
X183.2Y-341.14
X183.2Y-343.04
X183.2Y-345.54
X184.0Y-349.94
X184.009Y-331.78
X184.479Y-355.556
X184.7Y-325.04
X184.7Y-327.84
X184.7Y-329.69
X184.8Y-334.54
X184.8Y-336.04
X184.8Y-337.84
X184.8Y-339.54
X184.8Y-341.14
X184.8Y-344.44
X184.8Y-346.54
X185.0Y-323.13
X185.394Y-348.109
X185.4Y-302.64
X185.4Y-310.94
X185.4Y-315.24
X185.401Y-300.597
X186.2Y-323.14
X186.3Y-325.44
X186.3Y-332.74
X187.2Y-351.94
X187.39Y-326.88
X187.788Y-333.564
X187.8Y-331.74
X188.4Y-302.74
X188.4Y-310.84
X188.404Y-300.584
X188.5Y-306.64
X188.7Y-336.04
X188.7Y-337.84
X188.7Y-339.54
X188.7Y-341.14
X188.7Y-344.44
X188.7Y-348.34
X188.729Y-355.744
X188.838Y-332.573
X188.9Y-329.04
X189.346Y-320.747
X189.9Y-302.105
X189.945Y-353.64
X190.0Y-304.24
X190.0Y-334.19
X190.2Y-351.34
X190.707Y-324.422
X190.9Y-332.34
X190.943Y-306.449
X190.95Y-330.04
X190.962Y-320.981
X191.2Y-349.54
X191.8Y-326.44
X191.8Y-330.39
X192.35Y-339.34
X192.55Y-337.54
X192.6Y-330.04
X192.7Y-326.34
X192.75Y-335.84
X192.8Y-315.24
X192.834Y-307.99
X192.884Y-348.319
X192.9Y-331.94
X192.945Y-324.422
X193.3Y-340.24
X193.3Y-344.44
X194.825Y-334.64
X195.111Y-347.84
X195.258Y-328.182
X195.604Y-308.486
X195.808Y-334.18
X197.141Y-347.31
X197.25Y-334.59
X197.4Y-318.74
X197.4Y-322.032
X197.4Y-324.84
X197.4Y-344.982
X197.416Y-316.102
X197.42Y-310.023
X197.43Y-338.963
X197.433Y-313.067
X197.441Y-336.063
X197.45Y-341.94
T2
X189.65Y-325.77
X189.65Y-330.57
X193.95Y-325.77
X193.95Y-330.57
T3
X164.03Y-345.83
X166.03Y-345.83
X168.03Y-345.83
X170.03Y-345.83
X172.03Y-345.83
X174.03Y-345.83
T4
X102.0Y-311.66
X102.0Y-314.2
X102.0Y-316.74
X102.0Y-319.28
X102.0Y-321.82
X102.0Y-324.36
X102.0Y-326.9
X102.0Y-329.44
X102.0Y-331.98
X102.0Y-334.52
X102.0Y-337.06
X102.0Y-339.6
X102.0Y-342.14
X102.0Y-344.68
X140.77Y-306.04
X141.775Y-314.605
X141.775Y-317.145
X141.775Y-319.685
X141.775Y-322.225
X141.775Y-324.765
X143.31Y-306.04
X145.85Y-306.04
X196.0Y-324.36
X196.0Y-326.9
X196.0Y-329.44
X196.0Y-331.98
M30
