G04 #@! TF.GenerationSoftware,KiCad,Pcbnew,8.0.4*
G04 #@! TF.CreationDate,2024-11-11T15:06:12+01:00*
G04 #@! TF.ProjectId,100008_hw-vern-aqm,31303030-3038-45f6-9877-2d7665726e2d,1.1*
G04 #@! TF.SameCoordinates,Original*
G04 #@! TF.FileFunction,Soldermask,Top*
G04 #@! TF.FilePolarity,Negative*
%FSLAX46Y46*%
G04 Gerber Fmt 4.6, Leading zero omitted, Abs format (unit mm)*
G04 Created by KiCad (PCBNEW 8.0.4) date 2024-11-11 15:06:12*
%MOMM*%
%LPD*%
G01*
G04 APERTURE LIST*
G04 Aperture macros list*
%AMRoundRect*
0 Rectangle with rounded corners*
0 $1 Rounding radius*
0 $2 $3 $4 $5 $6 $7 $8 $9 X,Y pos of 4 corners*
0 Add a 4 corners polygon primitive as box body*
4,1,4,$2,$3,$4,$5,$6,$7,$8,$9,$2,$3,0*
0 Add four circle primitives for the rounded corners*
1,1,$1+$1,$2,$3*
1,1,$1+$1,$4,$5*
1,1,$1+$1,$6,$7*
1,1,$1+$1,$8,$9*
0 Add four rect primitives between the rounded corners*
20,1,$1+$1,$2,$3,$4,$5,0*
20,1,$1+$1,$4,$5,$6,$7,0*
20,1,$1+$1,$6,$7,$8,$9,0*
20,1,$1+$1,$8,$9,$2,$3,0*%
G04 Aperture macros list end*
%ADD10C,0.150000*%
%ADD11C,0.125000*%
%ADD12RoundRect,0.150000X0.200000X-0.150000X0.200000X0.150000X-0.200000X0.150000X-0.200000X-0.150000X0*%
%ADD13RoundRect,0.200000X-0.200000X-0.275000X0.200000X-0.275000X0.200000X0.275000X-0.200000X0.275000X0*%
%ADD14RoundRect,0.200000X0.275000X-0.200000X0.275000X0.200000X-0.275000X0.200000X-0.275000X-0.200000X0*%
%ADD15RoundRect,0.250000X0.475000X-0.250000X0.475000X0.250000X-0.475000X0.250000X-0.475000X-0.250000X0*%
%ADD16R,1.700000X1.700000*%
%ADD17O,1.700000X1.700000*%
%ADD18RoundRect,0.218750X-0.218750X-0.256250X0.218750X-0.256250X0.218750X0.256250X-0.218750X0.256250X0*%
%ADD19RoundRect,0.250000X-0.250000X-0.475000X0.250000X-0.475000X0.250000X0.475000X-0.250000X0.475000X0*%
%ADD20RoundRect,0.225000X-0.225000X-0.250000X0.225000X-0.250000X0.225000X0.250000X-0.225000X0.250000X0*%
%ADD21RoundRect,0.150000X-0.150000X-0.625000X0.150000X-0.625000X0.150000X0.625000X-0.150000X0.625000X0*%
%ADD22RoundRect,0.250000X-0.350000X-0.650000X0.350000X-0.650000X0.350000X0.650000X-0.350000X0.650000X0*%
%ADD23RoundRect,0.225000X0.225000X0.250000X-0.225000X0.250000X-0.225000X-0.250000X0.225000X-0.250000X0*%
%ADD24RoundRect,0.150000X-0.150000X-0.200000X0.150000X-0.200000X0.150000X0.200000X-0.150000X0.200000X0*%
%ADD25C,0.700000*%
%ADD26O,0.700000X1.000000*%
%ADD27RoundRect,0.075000X0.350000X-0.075000X0.350000X0.075000X-0.350000X0.075000X-0.350000X-0.075000X0*%
%ADD28C,1.100000*%
%ADD29RoundRect,0.200000X-0.275000X0.200000X-0.275000X-0.200000X0.275000X-0.200000X0.275000X0.200000X0*%
%ADD30RoundRect,0.200000X0.200000X0.275000X-0.200000X0.275000X-0.200000X-0.275000X0.200000X-0.275000X0*%
%ADD31C,1.500000*%
%ADD32RoundRect,0.250000X0.625000X-0.375000X0.625000X0.375000X-0.625000X0.375000X-0.625000X-0.375000X0*%
%ADD33R,1.350000X1.350000*%
%ADD34O,1.350000X1.350000*%
%ADD35R,1.000000X1.250000*%
%ADD36RoundRect,0.225000X-0.250000X0.225000X-0.250000X-0.225000X0.250000X-0.225000X0.250000X0.225000X0*%
%ADD37RoundRect,0.112500X0.237500X-0.112500X0.237500X0.112500X-0.237500X0.112500X-0.237500X-0.112500X0*%
%ADD38RoundRect,0.150000X0.150000X0.700000X-0.150000X0.700000X-0.150000X-0.700000X0.150000X-0.700000X0*%
%ADD39RoundRect,0.250000X0.250000X1.150000X-0.250000X1.150000X-0.250000X-1.150000X0.250000X-1.150000X0*%
%ADD40RoundRect,0.101600X0.175000X-0.175000X0.175000X0.175000X-0.175000X0.175000X-0.175000X-0.175000X0*%
%ADD41R,1.500000X0.900000*%
%ADD42R,0.900000X1.500000*%
%ADD43R,0.900000X0.900000*%
%ADD44RoundRect,0.218750X0.256250X-0.218750X0.256250X0.218750X-0.256250X0.218750X-0.256250X-0.218750X0*%
%ADD45RoundRect,0.212500X0.212500X-0.737500X0.212500X0.737500X-0.212500X0.737500X-0.212500X-0.737500X0*%
%ADD46RoundRect,0.212500X0.737500X-0.212500X0.737500X0.212500X-0.737500X0.212500X-0.737500X-0.212500X0*%
%ADD47R,4.800000X4.800000*%
%ADD48RoundRect,0.250000X0.250000X0.475000X-0.250000X0.475000X-0.250000X-0.475000X0.250000X-0.475000X0*%
%ADD49RoundRect,0.062500X0.062500X-0.350000X0.062500X0.350000X-0.062500X0.350000X-0.062500X-0.350000X0*%
%ADD50RoundRect,0.062500X0.350000X-0.062500X0.350000X0.062500X-0.350000X0.062500X-0.350000X-0.062500X0*%
%ADD51R,2.600000X2.600000*%
%ADD52RoundRect,0.375000X-0.625000X-0.375000X0.625000X-0.375000X0.625000X0.375000X-0.625000X0.375000X0*%
%ADD53RoundRect,0.500000X-0.500000X-1.400000X0.500000X-1.400000X0.500000X1.400000X-0.500000X1.400000X0*%
G04 APERTURE END LIST*
D10*
X195459875Y-321253220D02*
X194459875Y-321253220D01*
X194459875Y-321253220D02*
X194459875Y-321015125D01*
X194459875Y-321015125D02*
X194507494Y-320872268D01*
X194507494Y-320872268D02*
X194602732Y-320777030D01*
X194602732Y-320777030D02*
X194697970Y-320729411D01*
X194697970Y-320729411D02*
X194888446Y-320681792D01*
X194888446Y-320681792D02*
X195031303Y-320681792D01*
X195031303Y-320681792D02*
X195221779Y-320729411D01*
X195221779Y-320729411D02*
X195317017Y-320777030D01*
X195317017Y-320777030D02*
X195412256Y-320872268D01*
X195412256Y-320872268D02*
X195459875Y-321015125D01*
X195459875Y-321015125D02*
X195459875Y-321253220D01*
X195412256Y-319872268D02*
X195459875Y-319967506D01*
X195459875Y-319967506D02*
X195459875Y-320157982D01*
X195459875Y-320157982D02*
X195412256Y-320253220D01*
X195412256Y-320253220D02*
X195317017Y-320300839D01*
X195317017Y-320300839D02*
X194936065Y-320300839D01*
X194936065Y-320300839D02*
X194840827Y-320253220D01*
X194840827Y-320253220D02*
X194793208Y-320157982D01*
X194793208Y-320157982D02*
X194793208Y-319967506D01*
X194793208Y-319967506D02*
X194840827Y-319872268D01*
X194840827Y-319872268D02*
X194936065Y-319824649D01*
X194936065Y-319824649D02*
X195031303Y-319824649D01*
X195031303Y-319824649D02*
X195126541Y-320300839D01*
X195412256Y-319443696D02*
X195459875Y-319348458D01*
X195459875Y-319348458D02*
X195459875Y-319157982D01*
X195459875Y-319157982D02*
X195412256Y-319062744D01*
X195412256Y-319062744D02*
X195317017Y-319015125D01*
X195317017Y-319015125D02*
X195269398Y-319015125D01*
X195269398Y-319015125D02*
X195174160Y-319062744D01*
X195174160Y-319062744D02*
X195126541Y-319157982D01*
X195126541Y-319157982D02*
X195126541Y-319300839D01*
X195126541Y-319300839D02*
X195078922Y-319396077D01*
X195078922Y-319396077D02*
X194983684Y-319443696D01*
X194983684Y-319443696D02*
X194936065Y-319443696D01*
X194936065Y-319443696D02*
X194840827Y-319396077D01*
X194840827Y-319396077D02*
X194793208Y-319300839D01*
X194793208Y-319300839D02*
X194793208Y-319157982D01*
X194793208Y-319157982D02*
X194840827Y-319062744D01*
X195459875Y-318586553D02*
X194793208Y-318586553D01*
X194459875Y-318586553D02*
X194507494Y-318634172D01*
X194507494Y-318634172D02*
X194555113Y-318586553D01*
X194555113Y-318586553D02*
X194507494Y-318538934D01*
X194507494Y-318538934D02*
X194459875Y-318586553D01*
X194459875Y-318586553D02*
X194555113Y-318586553D01*
X194793208Y-317681792D02*
X195602732Y-317681792D01*
X195602732Y-317681792D02*
X195697970Y-317729411D01*
X195697970Y-317729411D02*
X195745589Y-317777030D01*
X195745589Y-317777030D02*
X195793208Y-317872268D01*
X195793208Y-317872268D02*
X195793208Y-318015125D01*
X195793208Y-318015125D02*
X195745589Y-318110363D01*
X195412256Y-317681792D02*
X195459875Y-317777030D01*
X195459875Y-317777030D02*
X195459875Y-317967506D01*
X195459875Y-317967506D02*
X195412256Y-318062744D01*
X195412256Y-318062744D02*
X195364636Y-318110363D01*
X195364636Y-318110363D02*
X195269398Y-318157982D01*
X195269398Y-318157982D02*
X194983684Y-318157982D01*
X194983684Y-318157982D02*
X194888446Y-318110363D01*
X194888446Y-318110363D02*
X194840827Y-318062744D01*
X194840827Y-318062744D02*
X194793208Y-317967506D01*
X194793208Y-317967506D02*
X194793208Y-317777030D01*
X194793208Y-317777030D02*
X194840827Y-317681792D01*
X194793208Y-317205601D02*
X195459875Y-317205601D01*
X194888446Y-317205601D02*
X194840827Y-317157982D01*
X194840827Y-317157982D02*
X194793208Y-317062744D01*
X194793208Y-317062744D02*
X194793208Y-316919887D01*
X194793208Y-316919887D02*
X194840827Y-316824649D01*
X194840827Y-316824649D02*
X194936065Y-316777030D01*
X194936065Y-316777030D02*
X195459875Y-316777030D01*
X195412256Y-315919887D02*
X195459875Y-316015125D01*
X195459875Y-316015125D02*
X195459875Y-316205601D01*
X195459875Y-316205601D02*
X195412256Y-316300839D01*
X195412256Y-316300839D02*
X195317017Y-316348458D01*
X195317017Y-316348458D02*
X194936065Y-316348458D01*
X194936065Y-316348458D02*
X194840827Y-316300839D01*
X194840827Y-316300839D02*
X194793208Y-316205601D01*
X194793208Y-316205601D02*
X194793208Y-316015125D01*
X194793208Y-316015125D02*
X194840827Y-315919887D01*
X194840827Y-315919887D02*
X194936065Y-315872268D01*
X194936065Y-315872268D02*
X195031303Y-315872268D01*
X195031303Y-315872268D02*
X195126541Y-316348458D01*
X195459875Y-315015125D02*
X194459875Y-315015125D01*
X195412256Y-315015125D02*
X195459875Y-315110363D01*
X195459875Y-315110363D02*
X195459875Y-315300839D01*
X195459875Y-315300839D02*
X195412256Y-315396077D01*
X195412256Y-315396077D02*
X195364636Y-315443696D01*
X195364636Y-315443696D02*
X195269398Y-315491315D01*
X195269398Y-315491315D02*
X194983684Y-315491315D01*
X194983684Y-315491315D02*
X194888446Y-315443696D01*
X194888446Y-315443696D02*
X194840827Y-315396077D01*
X194840827Y-315396077D02*
X194793208Y-315300839D01*
X194793208Y-315300839D02*
X194793208Y-315110363D01*
X194793208Y-315110363D02*
X194840827Y-315015125D01*
X195459875Y-313777029D02*
X194459875Y-313777029D01*
X194840827Y-313777029D02*
X194793208Y-313681791D01*
X194793208Y-313681791D02*
X194793208Y-313491315D01*
X194793208Y-313491315D02*
X194840827Y-313396077D01*
X194840827Y-313396077D02*
X194888446Y-313348458D01*
X194888446Y-313348458D02*
X194983684Y-313300839D01*
X194983684Y-313300839D02*
X195269398Y-313300839D01*
X195269398Y-313300839D02*
X195364636Y-313348458D01*
X195364636Y-313348458D02*
X195412256Y-313396077D01*
X195412256Y-313396077D02*
X195459875Y-313491315D01*
X195459875Y-313491315D02*
X195459875Y-313681791D01*
X195459875Y-313681791D02*
X195412256Y-313777029D01*
X194793208Y-312967505D02*
X195459875Y-312729410D01*
X194793208Y-312491315D02*
X195459875Y-312729410D01*
X195459875Y-312729410D02*
X195697970Y-312824648D01*
X195697970Y-312824648D02*
X195745589Y-312872267D01*
X195745589Y-312872267D02*
X195793208Y-312967505D01*
X197022200Y-321300839D02*
X197069819Y-321157982D01*
X197069819Y-321157982D02*
X197069819Y-320919887D01*
X197069819Y-320919887D02*
X197022200Y-320824649D01*
X197022200Y-320824649D02*
X196974580Y-320777030D01*
X196974580Y-320777030D02*
X196879342Y-320729411D01*
X196879342Y-320729411D02*
X196784104Y-320729411D01*
X196784104Y-320729411D02*
X196688866Y-320777030D01*
X196688866Y-320777030D02*
X196641247Y-320824649D01*
X196641247Y-320824649D02*
X196593628Y-320919887D01*
X196593628Y-320919887D02*
X196546009Y-321110363D01*
X196546009Y-321110363D02*
X196498390Y-321205601D01*
X196498390Y-321205601D02*
X196450771Y-321253220D01*
X196450771Y-321253220D02*
X196355533Y-321300839D01*
X196355533Y-321300839D02*
X196260295Y-321300839D01*
X196260295Y-321300839D02*
X196165057Y-321253220D01*
X196165057Y-321253220D02*
X196117438Y-321205601D01*
X196117438Y-321205601D02*
X196069819Y-321110363D01*
X196069819Y-321110363D02*
X196069819Y-320872268D01*
X196069819Y-320872268D02*
X196117438Y-320729411D01*
X195688866Y-321205601D02*
X195831723Y-321015125D01*
X195831723Y-321015125D02*
X195688866Y-320824649D01*
X197069819Y-320300839D02*
X196403152Y-320300839D01*
X196069819Y-320300839D02*
X196117438Y-320348458D01*
X196117438Y-320348458D02*
X196165057Y-320300839D01*
X196165057Y-320300839D02*
X196117438Y-320253220D01*
X196117438Y-320253220D02*
X196069819Y-320300839D01*
X196069819Y-320300839D02*
X196165057Y-320300839D01*
X197069819Y-319824649D02*
X196403152Y-319824649D01*
X196498390Y-319824649D02*
X196450771Y-319777030D01*
X196450771Y-319777030D02*
X196403152Y-319681792D01*
X196403152Y-319681792D02*
X196403152Y-319538935D01*
X196403152Y-319538935D02*
X196450771Y-319443697D01*
X196450771Y-319443697D02*
X196546009Y-319396078D01*
X196546009Y-319396078D02*
X197069819Y-319396078D01*
X196546009Y-319396078D02*
X196450771Y-319348459D01*
X196450771Y-319348459D02*
X196403152Y-319253221D01*
X196403152Y-319253221D02*
X196403152Y-319110364D01*
X196403152Y-319110364D02*
X196450771Y-319015125D01*
X196450771Y-319015125D02*
X196546009Y-318967506D01*
X196546009Y-318967506D02*
X197069819Y-318967506D01*
X196403152Y-318062745D02*
X197069819Y-318062745D01*
X196403152Y-318491316D02*
X196926961Y-318491316D01*
X196926961Y-318491316D02*
X197022200Y-318443697D01*
X197022200Y-318443697D02*
X197069819Y-318348459D01*
X197069819Y-318348459D02*
X197069819Y-318205602D01*
X197069819Y-318205602D02*
X197022200Y-318110364D01*
X197022200Y-318110364D02*
X196974580Y-318062745D01*
X196403152Y-317586554D02*
X197069819Y-317586554D01*
X196498390Y-317586554D02*
X196450771Y-317538935D01*
X196450771Y-317538935D02*
X196403152Y-317443697D01*
X196403152Y-317443697D02*
X196403152Y-317300840D01*
X196403152Y-317300840D02*
X196450771Y-317205602D01*
X196450771Y-317205602D02*
X196546009Y-317157983D01*
X196546009Y-317157983D02*
X197069819Y-317157983D01*
X197022200Y-316253221D02*
X197069819Y-316348459D01*
X197069819Y-316348459D02*
X197069819Y-316538935D01*
X197069819Y-316538935D02*
X197022200Y-316634173D01*
X197022200Y-316634173D02*
X196974580Y-316681792D01*
X196974580Y-316681792D02*
X196879342Y-316729411D01*
X196879342Y-316729411D02*
X196593628Y-316729411D01*
X196593628Y-316729411D02*
X196498390Y-316681792D01*
X196498390Y-316681792D02*
X196450771Y-316634173D01*
X196450771Y-316634173D02*
X196403152Y-316538935D01*
X196403152Y-316538935D02*
X196403152Y-316348459D01*
X196403152Y-316348459D02*
X196450771Y-316253221D01*
X196022200Y-316634173D02*
X196165057Y-316443697D01*
X196165057Y-316443697D02*
X196022200Y-316253221D01*
X197069819Y-315824649D02*
X196403152Y-315824649D01*
X196069819Y-315824649D02*
X196117438Y-315872268D01*
X196117438Y-315872268D02*
X196165057Y-315824649D01*
X196165057Y-315824649D02*
X196117438Y-315777030D01*
X196117438Y-315777030D02*
X196069819Y-315824649D01*
X196069819Y-315824649D02*
X196165057Y-315824649D01*
X197022200Y-314919888D02*
X197069819Y-315015126D01*
X197069819Y-315015126D02*
X197069819Y-315205602D01*
X197069819Y-315205602D02*
X197022200Y-315300840D01*
X197022200Y-315300840D02*
X196974580Y-315348459D01*
X196974580Y-315348459D02*
X196879342Y-315396078D01*
X196879342Y-315396078D02*
X196593628Y-315396078D01*
X196593628Y-315396078D02*
X196498390Y-315348459D01*
X196498390Y-315348459D02*
X196450771Y-315300840D01*
X196450771Y-315300840D02*
X196403152Y-315205602D01*
X196403152Y-315205602D02*
X196403152Y-315015126D01*
X196403152Y-315015126D02*
X196450771Y-314919888D01*
X196022200Y-315015126D02*
X196165057Y-315157983D01*
X196784104Y-313777030D02*
X196784104Y-313300840D01*
X197069819Y-313872268D02*
X196069819Y-313538935D01*
X196069819Y-313538935D02*
X197069819Y-313205602D01*
X196974580Y-312872268D02*
X197022200Y-312824649D01*
X197022200Y-312824649D02*
X197069819Y-312872268D01*
X197069819Y-312872268D02*
X197022200Y-312919887D01*
X197022200Y-312919887D02*
X196974580Y-312872268D01*
X196974580Y-312872268D02*
X197069819Y-312872268D01*
D11*
X196270595Y-311831573D02*
X197070595Y-311564906D01*
X197070595Y-311564906D02*
X196270595Y-311298240D01*
X197070595Y-310612526D02*
X197070595Y-311069669D01*
X197070595Y-310841097D02*
X196270595Y-310841097D01*
X196270595Y-310841097D02*
X196384880Y-310917288D01*
X196384880Y-310917288D02*
X196461071Y-310993478D01*
X196461071Y-310993478D02*
X196499166Y-311069669D01*
X196994404Y-310269668D02*
X197032500Y-310231573D01*
X197032500Y-310231573D02*
X197070595Y-310269668D01*
X197070595Y-310269668D02*
X197032500Y-310307764D01*
X197032500Y-310307764D02*
X196994404Y-310269668D01*
X196994404Y-310269668D02*
X197070595Y-310269668D01*
X196270595Y-309736335D02*
X196270595Y-309660145D01*
X196270595Y-309660145D02*
X196308690Y-309583954D01*
X196308690Y-309583954D02*
X196346785Y-309545859D01*
X196346785Y-309545859D02*
X196422976Y-309507764D01*
X196422976Y-309507764D02*
X196575357Y-309469669D01*
X196575357Y-309469669D02*
X196765833Y-309469669D01*
X196765833Y-309469669D02*
X196918214Y-309507764D01*
X196918214Y-309507764D02*
X196994404Y-309545859D01*
X196994404Y-309545859D02*
X197032500Y-309583954D01*
X197032500Y-309583954D02*
X197070595Y-309660145D01*
X197070595Y-309660145D02*
X197070595Y-309736335D01*
X197070595Y-309736335D02*
X197032500Y-309812526D01*
X197032500Y-309812526D02*
X196994404Y-309850621D01*
X196994404Y-309850621D02*
X196918214Y-309888716D01*
X196918214Y-309888716D02*
X196765833Y-309926812D01*
X196765833Y-309926812D02*
X196575357Y-309926812D01*
X196575357Y-309926812D02*
X196422976Y-309888716D01*
X196422976Y-309888716D02*
X196346785Y-309850621D01*
X196346785Y-309850621D02*
X196308690Y-309812526D01*
X196308690Y-309812526D02*
X196270595Y-309736335D01*
D12*
X187790000Y-331180000D03*
X187790000Y-332580000D03*
D13*
X165925000Y-309290000D03*
X167575000Y-309290000D03*
D14*
X161150000Y-307415000D03*
X161150000Y-305765000D03*
D13*
X132000000Y-323990000D03*
X133650000Y-323990000D03*
X151300000Y-307765000D03*
X152950000Y-307765000D03*
D15*
X176000000Y-305790000D03*
X176000000Y-303890000D03*
D14*
X124900000Y-325665000D03*
X124900000Y-324015000D03*
D15*
X111450000Y-303540000D03*
X111450000Y-301640000D03*
D12*
X187790000Y-328430000D03*
X187790000Y-329830000D03*
D16*
X140770000Y-306040000D03*
D17*
X143310000Y-306040000D03*
X145850000Y-306040000D03*
D18*
X162762500Y-304040000D03*
X164337500Y-304040000D03*
D19*
X166000000Y-315940000D03*
X167900000Y-315940000D03*
D20*
X150566524Y-353381524D03*
X152116524Y-353381524D03*
D21*
X183000000Y-351240000D03*
X184000000Y-351240000D03*
X185000000Y-351240000D03*
X186000000Y-351240000D03*
D22*
X181700000Y-355115000D03*
X187300000Y-355115000D03*
D23*
X111225000Y-306515000D03*
X109675000Y-306515000D03*
D24*
X186390000Y-331780000D03*
X184990000Y-331780000D03*
D25*
X191800000Y-331920000D03*
D26*
X191800000Y-324420000D03*
D27*
X190965000Y-330920000D03*
X190965000Y-329420000D03*
X190965000Y-328920000D03*
X190965000Y-328420000D03*
X190965000Y-327920000D03*
X190965000Y-327420000D03*
X190965000Y-326920000D03*
X190975000Y-325420000D03*
X192635000Y-325420000D03*
X192635000Y-326920000D03*
X192635000Y-327420000D03*
X192635000Y-327920000D03*
X192635000Y-328420000D03*
X192635000Y-328920000D03*
X192635000Y-329420000D03*
X192635000Y-330920000D03*
D28*
X189650000Y-330570000D03*
X193950000Y-330570000D03*
X189650000Y-325770000D03*
X193950000Y-325770000D03*
D12*
X140600000Y-308640000D03*
X140600000Y-310040000D03*
D29*
X161950000Y-316965000D03*
X161950000Y-318615000D03*
D30*
X167575000Y-312490000D03*
X165925000Y-312490000D03*
D18*
X158012500Y-304040000D03*
X159587500Y-304040000D03*
D31*
X178100000Y-319990000D03*
D23*
X176175000Y-309340000D03*
X174625000Y-309340000D03*
D16*
X141775000Y-324765000D03*
D17*
X141775000Y-322225000D03*
X141775000Y-319685000D03*
X141775000Y-317145000D03*
X141775000Y-314605000D03*
D15*
X109450000Y-303540000D03*
X109450000Y-301640000D03*
D14*
X161800000Y-346665000D03*
X161800000Y-345015000D03*
D13*
X150516524Y-350181524D03*
X152166524Y-350181524D03*
X109625000Y-307990000D03*
X111275000Y-307990000D03*
D23*
X130125000Y-323990000D03*
X128575000Y-323990000D03*
D32*
X187390000Y-326880000D03*
X187390000Y-324080000D03*
D14*
X121425000Y-325665000D03*
X121425000Y-324015000D03*
D33*
X174030000Y-345830000D03*
D34*
X172030000Y-345830000D03*
X170030000Y-345830000D03*
X168030000Y-345830000D03*
X166030000Y-345830000D03*
X164030000Y-345830000D03*
D12*
X143600000Y-308640000D03*
X143600000Y-310040000D03*
D23*
X111225000Y-305040000D03*
X109675000Y-305040000D03*
D14*
X159550000Y-307415000D03*
X159550000Y-305765000D03*
D35*
X117350000Y-325815000D03*
X117350000Y-333565000D03*
D19*
X178100000Y-311440000D03*
X180000000Y-311440000D03*
D30*
X167575000Y-307690000D03*
X165925000Y-307690000D03*
D29*
X180000000Y-313277500D03*
X180000000Y-314927500D03*
D36*
X116200000Y-351265000D03*
X116200000Y-352815000D03*
D30*
X156375000Y-310890000D03*
X154725000Y-310890000D03*
X156375000Y-314090000D03*
X154725000Y-314090000D03*
D16*
X102000000Y-344680000D03*
D17*
X102000000Y-342140000D03*
X102000000Y-339600000D03*
X102000000Y-337060000D03*
X102000000Y-334520000D03*
X102000000Y-331980000D03*
X102000000Y-329440000D03*
X102000000Y-326900000D03*
X102000000Y-324360000D03*
X102000000Y-321820000D03*
X102000000Y-319280000D03*
X102000000Y-316740000D03*
X102000000Y-314200000D03*
X102000000Y-311660000D03*
D37*
X153125000Y-313940000D03*
X153125000Y-312640000D03*
X151125000Y-313290000D03*
D20*
X150566524Y-351781524D03*
X152116524Y-351781524D03*
D38*
X172145000Y-350580000D03*
X170895000Y-350580000D03*
X169645000Y-350580000D03*
X168395000Y-350580000D03*
X167145000Y-350580000D03*
X165895000Y-350580000D03*
D39*
X173995000Y-353930000D03*
X164045000Y-353930000D03*
D14*
X158750000Y-318615000D03*
X158750000Y-316965000D03*
D16*
X196000000Y-331980000D03*
D17*
X196000000Y-329440000D03*
X196000000Y-326900000D03*
X196000000Y-324360000D03*
D40*
X144291524Y-353231524D03*
X144291524Y-352581524D03*
X144291524Y-351931524D03*
X144291524Y-351281524D03*
X145741524Y-351281524D03*
X145741524Y-351931524D03*
X145741524Y-352581524D03*
X145741524Y-353231524D03*
D30*
X156375000Y-309290000D03*
X154725000Y-309290000D03*
D14*
X123150000Y-325665000D03*
X123150000Y-324015000D03*
D20*
X165975000Y-310890000D03*
X167525000Y-310890000D03*
D15*
X173900000Y-305790000D03*
X173900000Y-303890000D03*
D41*
X114600000Y-301580000D03*
X114600000Y-302850000D03*
X114600000Y-304120000D03*
X114600000Y-305390000D03*
X114600000Y-306660000D03*
X114600000Y-307930000D03*
X114600000Y-309200000D03*
X114600000Y-310470000D03*
X114600000Y-311740000D03*
X114600000Y-313010000D03*
X114600000Y-314280000D03*
X114600000Y-315550000D03*
X114600000Y-316820000D03*
X114600000Y-318090000D03*
D42*
X116365000Y-319340000D03*
X117635000Y-319340000D03*
X118905000Y-319340000D03*
X120175000Y-319340000D03*
X121445000Y-319340000D03*
X122715000Y-319340000D03*
X123985000Y-319340000D03*
X125255000Y-319340000D03*
X126525000Y-319340000D03*
X127795000Y-319340000D03*
X129065000Y-319340000D03*
X130335000Y-319340000D03*
D41*
X132100000Y-318090000D03*
X132100000Y-316820000D03*
X132100000Y-315550000D03*
X132100000Y-314280000D03*
X132100000Y-313010000D03*
X132100000Y-311740000D03*
X132100000Y-310470000D03*
X132100000Y-309200000D03*
X132100000Y-307930000D03*
X132100000Y-306660000D03*
X132100000Y-305390000D03*
X132100000Y-304120000D03*
X132100000Y-302850000D03*
X132100000Y-301580000D03*
D43*
X120450000Y-307900000D03*
X120450000Y-309300000D03*
X120450000Y-310700000D03*
X120450000Y-310700000D03*
X121850000Y-307900000D03*
X121850000Y-307900000D03*
X121850000Y-309300000D03*
X121850000Y-310700000D03*
X123250000Y-307900000D03*
X123250000Y-309300000D03*
X123250000Y-310700000D03*
D44*
X180000000Y-317865000D03*
X180000000Y-316290000D03*
D13*
X108050000Y-344690000D03*
X109700000Y-344690000D03*
D29*
X142100000Y-308515000D03*
X142100000Y-310165000D03*
D13*
X108050000Y-347290000D03*
X109700000Y-347290000D03*
D45*
X120850000Y-354140000D03*
X122100000Y-354140000D03*
X123350000Y-354140000D03*
X124600000Y-354140000D03*
X125850000Y-354140000D03*
D46*
X127500000Y-352490000D03*
X127500000Y-351240000D03*
X127500000Y-349990000D03*
X127500000Y-348740000D03*
X127500000Y-347490000D03*
D45*
X125850000Y-345840000D03*
X124600000Y-345840000D03*
X123350000Y-345840000D03*
X122100000Y-345840000D03*
X120850000Y-345840000D03*
D46*
X119200000Y-347490000D03*
X119200000Y-348740000D03*
X119200000Y-349990000D03*
X119200000Y-351240000D03*
X119200000Y-352490000D03*
D47*
X123350000Y-349990000D03*
D29*
X160350000Y-316965000D03*
X160350000Y-318615000D03*
D14*
X163550000Y-318615000D03*
X163550000Y-316965000D03*
D48*
X176500000Y-311440000D03*
X174600000Y-311440000D03*
D20*
X165975000Y-314090000D03*
X167525000Y-314090000D03*
D35*
X129350000Y-325815000D03*
X129350000Y-333565000D03*
D37*
X153125000Y-310740000D03*
X153125000Y-309440000D03*
X151125000Y-310090000D03*
D14*
X126625000Y-325665000D03*
X126625000Y-324015000D03*
D49*
X159900000Y-314127500D03*
X160400000Y-314127500D03*
X160900000Y-314127500D03*
X161400000Y-314127500D03*
X161900000Y-314127500D03*
X162400000Y-314127500D03*
D50*
X163087500Y-313440000D03*
X163087500Y-312940000D03*
X163087500Y-312440000D03*
X163087500Y-311940000D03*
X163087500Y-311440000D03*
X163087500Y-310940000D03*
D49*
X162400000Y-310252500D03*
X161900000Y-310252500D03*
X161400000Y-310252500D03*
X160900000Y-310252500D03*
X160400000Y-310252500D03*
X159900000Y-310252500D03*
D50*
X159212500Y-310940000D03*
X159212500Y-311440000D03*
X159212500Y-311940000D03*
X159212500Y-312440000D03*
X159212500Y-312940000D03*
X159212500Y-313440000D03*
D51*
X161150000Y-312190000D03*
D30*
X176225000Y-307540000D03*
X174575000Y-307540000D03*
D14*
X162750000Y-307415000D03*
X162750000Y-305765000D03*
D29*
X160300000Y-345015000D03*
X160300000Y-346665000D03*
D13*
X190965000Y-334180000D03*
X192615000Y-334180000D03*
D36*
X130500000Y-351265000D03*
X130500000Y-352815000D03*
D44*
X174100000Y-317902500D03*
X174100000Y-316327500D03*
D20*
X116575000Y-324090000D03*
X118125000Y-324090000D03*
D19*
X187440000Y-322130000D03*
X189340000Y-322130000D03*
D30*
X192615000Y-322130000D03*
X190965000Y-322130000D03*
D29*
X145100000Y-308515000D03*
X145100000Y-310165000D03*
D13*
X151300000Y-315615000D03*
X152950000Y-315615000D03*
D30*
X156375000Y-312490000D03*
X154725000Y-312490000D03*
D29*
X174100000Y-313315000D03*
X174100000Y-314965000D03*
D31*
X172175000Y-319990000D03*
D52*
X178450000Y-304440000D03*
X178450000Y-306740000D03*
D53*
X184750000Y-306740000D03*
D52*
X178450000Y-309040000D03*
M02*
