G04 #@! TF.GenerationSoftware,KiCad,Pcbnew,8.0.4*
G04 #@! TF.CreationDate,2024-11-11T15:06:12+01:00*
G04 #@! TF.ProjectId,100008_hw-vern-aqm,31303030-3038-45f6-9877-2d7665726e2d,1.1*
G04 #@! TF.SameCoordinates,Original*
G04 #@! TF.FileFunction,Copper,L3,Inr*
G04 #@! TF.FilePolarity,Positive*
%FSLAX46Y46*%
G04 Gerber Fmt 4.6, Leading zero omitted, Abs format (unit mm)*
G04 Created by KiCad (PCBNEW 8.0.4) date 2024-11-11 15:06:12*
%MOMM*%
%LPD*%
G01*
G04 APERTURE LIST*
G04 #@! TA.AperFunction,ComponentPad*
%ADD10R,1.700000X1.700000*%
G04 #@! TD*
G04 #@! TA.AperFunction,ComponentPad*
%ADD11O,1.700000X1.700000*%
G04 #@! TD*
G04 #@! TA.AperFunction,ComponentPad*
%ADD12C,1.100000*%
G04 #@! TD*
G04 #@! TA.AperFunction,ComponentPad*
%ADD13R,1.350000X1.350000*%
G04 #@! TD*
G04 #@! TA.AperFunction,ComponentPad*
%ADD14O,1.350000X1.350000*%
G04 #@! TD*
G04 #@! TA.AperFunction,ViaPad*
%ADD15C,0.600000*%
G04 #@! TD*
G04 APERTURE END LIST*
D10*
X140770000Y-306040000D03*
D11*
X143310000Y-306040000D03*
X145850000Y-306040000D03*
D12*
X189650000Y-330570000D03*
X193950000Y-330570000D03*
X189650000Y-325770000D03*
X193950000Y-325770000D03*
D10*
X141775000Y-324765000D03*
D11*
X141775000Y-322225000D03*
X141775000Y-319685000D03*
X141775000Y-317145000D03*
X141775000Y-314605000D03*
D13*
X174030000Y-345830000D03*
D14*
X172030000Y-345830000D03*
X170030000Y-345830000D03*
X168030000Y-345830000D03*
X166030000Y-345830000D03*
X164030000Y-345830000D03*
D10*
X102000000Y-344680000D03*
D11*
X102000000Y-342140000D03*
X102000000Y-339600000D03*
X102000000Y-337060000D03*
X102000000Y-334520000D03*
X102000000Y-331980000D03*
X102000000Y-329440000D03*
X102000000Y-326900000D03*
X102000000Y-324360000D03*
X102000000Y-321820000D03*
X102000000Y-319280000D03*
X102000000Y-316740000D03*
X102000000Y-314200000D03*
X102000000Y-311660000D03*
D10*
X196000000Y-331980000D03*
D11*
X196000000Y-329440000D03*
X196000000Y-326900000D03*
X196000000Y-324360000D03*
D15*
X161150000Y-312840000D03*
X160500000Y-312240000D03*
X161850000Y-312190000D03*
X161150000Y-311540000D03*
X111275000Y-344690000D03*
X180240000Y-322130000D03*
X123800000Y-342240000D03*
X169400000Y-318240000D03*
X123349888Y-350610211D03*
X189345768Y-320747182D03*
X123250000Y-307890000D03*
X138400000Y-341240000D03*
X127800000Y-307940000D03*
X109700000Y-336840000D03*
X174789894Y-347084097D03*
X113644097Y-325887550D03*
X111250000Y-347140000D03*
X173100000Y-323440000D03*
X112175000Y-307790000D03*
X108613028Y-355461937D03*
X138400000Y-346840000D03*
X109700000Y-325840000D03*
X163400000Y-334540000D03*
X126700000Y-334240000D03*
X109700000Y-329840000D03*
X190000000Y-304240000D03*
X170037713Y-303356184D03*
X158461636Y-349398602D03*
X117800000Y-343740000D03*
X138100000Y-319740000D03*
X163600000Y-314590000D03*
X195603897Y-308486325D03*
X111250000Y-345540000D03*
X117186080Y-320609153D03*
X130800000Y-302740000D03*
X157200000Y-352440000D03*
X181164216Y-311441855D03*
X135600000Y-316940000D03*
X111450000Y-300590000D03*
X190707126Y-324422015D03*
X124900000Y-327340000D03*
X180400000Y-320790000D03*
X125400000Y-335440000D03*
X126800000Y-346440000D03*
X127800000Y-337740000D03*
X123200000Y-333140000D03*
X195807646Y-334180311D03*
X197440979Y-336063496D03*
X197140590Y-347309710D03*
X127700000Y-300590000D03*
X163400000Y-339540000D03*
X119900000Y-334440000D03*
X190942538Y-306448685D03*
X186300000Y-332740000D03*
X179107234Y-319150277D03*
X111200000Y-335340000D03*
X103400000Y-343840000D03*
X100600000Y-335790000D03*
X134500000Y-337840000D03*
X147900000Y-317790000D03*
X111200000Y-324440000D03*
X134500000Y-328940000D03*
X197400000Y-324840000D03*
X187788251Y-333563608D03*
X169059966Y-315945345D03*
X119500000Y-320640000D03*
X160302561Y-347712160D03*
X126900000Y-317890000D03*
X132800000Y-342240000D03*
X180000000Y-310040000D03*
X134500000Y-336040000D03*
X149000000Y-312540000D03*
X143400000Y-346840000D03*
X127100000Y-339540000D03*
X155400000Y-300590000D03*
X150200000Y-310140000D03*
X169650000Y-329690000D03*
X197416035Y-316101915D03*
X115350000Y-355740000D03*
X138400000Y-334540000D03*
X106900000Y-313040000D03*
X158400000Y-342240000D03*
X143600000Y-310965000D03*
X113100000Y-319740000D03*
X119900000Y-346540000D03*
X193300000Y-344440000D03*
X100552895Y-310845011D03*
X145500000Y-349540000D03*
X188728507Y-355743786D03*
X168400000Y-334540000D03*
X163200000Y-323390000D03*
X163400000Y-342240000D03*
X127800000Y-309240000D03*
X143400000Y-339540000D03*
X130800000Y-307840000D03*
X167700000Y-348740000D03*
X185400000Y-315240000D03*
X128835857Y-350588552D03*
X103900000Y-325940000D03*
X100550111Y-312968953D03*
X138400000Y-339540000D03*
X184009020Y-331780478D03*
X168300000Y-325940000D03*
X151950000Y-324840000D03*
X100553452Y-345940779D03*
X102050000Y-347840000D03*
X181200000Y-325740000D03*
X123997958Y-349994602D03*
X136900000Y-320940000D03*
X148400000Y-334540000D03*
X143100000Y-320940000D03*
X138400000Y-337740000D03*
X128100000Y-333540000D03*
X113150000Y-355740000D03*
X143400000Y-343740000D03*
X138400000Y-343740000D03*
X181000000Y-343240000D03*
X130500000Y-333540000D03*
X195258017Y-328181759D03*
X114719376Y-350610100D03*
X143400000Y-300590000D03*
X150200000Y-312540000D03*
X183200000Y-337840000D03*
X174921965Y-343076692D03*
X184800000Y-339540000D03*
X162015924Y-305027750D03*
X109700000Y-338540000D03*
X123000000Y-304340000D03*
X115800000Y-332440000D03*
X183000000Y-349840000D03*
X115900000Y-304340000D03*
X173600000Y-308309933D03*
X174827783Y-344631286D03*
X148400000Y-336040000D03*
X123850000Y-317890000D03*
X100600000Y-340790000D03*
X105000000Y-315540000D03*
X159700000Y-326840000D03*
X138200000Y-323690000D03*
X173907795Y-302723630D03*
X192945434Y-324422015D03*
X119900000Y-354840000D03*
X169043040Y-342235824D03*
X123150000Y-327340000D03*
X123349888Y-349410211D03*
X186200000Y-323140000D03*
X132605345Y-354848017D03*
X132800000Y-334040000D03*
X119200000Y-307940000D03*
X170400000Y-300590000D03*
X190900000Y-332340000D03*
X131050000Y-322090000D03*
X105080178Y-348307149D03*
X130900000Y-342240000D03*
X103300000Y-340240000D03*
X166992650Y-343747516D03*
X175998552Y-302734766D03*
X100570155Y-343480979D03*
X131200000Y-339540000D03*
X148400000Y-343740000D03*
X109450000Y-300590000D03*
X158715367Y-309794342D03*
X148400000Y-341240000D03*
X188400000Y-302740000D03*
X103900000Y-328140000D03*
X100600000Y-320540000D03*
X178462360Y-302762605D03*
X144450000Y-327790000D03*
X179300000Y-334540000D03*
X184800000Y-341140000D03*
X119900000Y-328340000D03*
X172675000Y-305928750D03*
X152100000Y-355740000D03*
X121850000Y-309290000D03*
X179300000Y-336040000D03*
X161943541Y-306578418D03*
X188700000Y-336040000D03*
X143050000Y-323340000D03*
X193300000Y-340240000D03*
X158200000Y-313540000D03*
X168400000Y-341240000D03*
X166967594Y-342240000D03*
X112500000Y-327140000D03*
X134400000Y-300590000D03*
X117566258Y-352480311D03*
X131050167Y-330546792D03*
X149162138Y-353840779D03*
X163400000Y-337740000D03*
X168625538Y-309282242D03*
X121425000Y-327340000D03*
X185400890Y-300597312D03*
X142100000Y-311240000D03*
X128500000Y-336040000D03*
X158441433Y-305763286D03*
X159546937Y-319428460D03*
X183200000Y-345540000D03*
X162392761Y-348189443D03*
X131200000Y-336040000D03*
X168770081Y-307290000D03*
X183000000Y-321090000D03*
X115900000Y-302740000D03*
X128500000Y-327940000D03*
X108600000Y-305040000D03*
X100600000Y-333340000D03*
X173200000Y-337840000D03*
X100600000Y-328890000D03*
X158400000Y-343740000D03*
X113350000Y-310940000D03*
X148900000Y-348140000D03*
X191200000Y-349540000D03*
X173438381Y-311431685D03*
X170895000Y-349090000D03*
X143400000Y-341240000D03*
X123000000Y-302740000D03*
X165009075Y-342231648D03*
X188700000Y-337840000D03*
X117339309Y-334857650D03*
X174800000Y-334540000D03*
X132800000Y-339540000D03*
X153400000Y-341240000D03*
X130900000Y-334440000D03*
X113350000Y-305315000D03*
X177000824Y-320740824D03*
X109700000Y-318340000D03*
X109700000Y-342640000D03*
X137250000Y-325340000D03*
X197450000Y-341940000D03*
X161000000Y-331240000D03*
X130800000Y-309240000D03*
X126600000Y-327340000D03*
X174800000Y-337840000D03*
X102624164Y-323048574D03*
X160350000Y-308190000D03*
X192834242Y-307989610D03*
X133226107Y-349375214D03*
X183100000Y-347540000D03*
X184800000Y-334540000D03*
X139000000Y-350540000D03*
X112848552Y-348725579D03*
X188500000Y-306640000D03*
X148400000Y-342240000D03*
X109700000Y-308965000D03*
X188700000Y-348340000D03*
X111200000Y-337040000D03*
X123250000Y-310690000D03*
X107313864Y-343924354D03*
X123349888Y-351810211D03*
X174800000Y-339640000D03*
X128831069Y-348115612D03*
X117400000Y-300590000D03*
X134700000Y-334040000D03*
X153450000Y-320690000D03*
X152900000Y-317790000D03*
X171500000Y-311890000D03*
X153900000Y-315040000D03*
X177500000Y-325440000D03*
X180108268Y-344590000D03*
X165000723Y-343751692D03*
X113758908Y-351549688D03*
X133100000Y-319140000D03*
X180000000Y-329690000D03*
X153400000Y-342240000D03*
X170652264Y-306062271D03*
X111200000Y-331740000D03*
X117600000Y-338340000D03*
X116200445Y-333565055D03*
X131200000Y-341140000D03*
X169998663Y-313090000D03*
X173200000Y-334540000D03*
X109700000Y-316640000D03*
X123000000Y-300590000D03*
X100556236Y-331005924D03*
X140831848Y-350681524D03*
X132800000Y-341140000D03*
X104519487Y-308237410D03*
X119202171Y-353576247D03*
X140400000Y-300590000D03*
X152950000Y-353390000D03*
X143400000Y-334540000D03*
X165750000Y-317240000D03*
X163400000Y-341240000D03*
X111900000Y-312440000D03*
X137900000Y-314340000D03*
X130400000Y-313240000D03*
X101945016Y-308481703D03*
X185393875Y-348109320D03*
X192350000Y-339340000D03*
X115900000Y-307940000D03*
X175133351Y-355748352D03*
X140700000Y-331240000D03*
X162765445Y-319379229D03*
X124600000Y-309240000D03*
X188403860Y-300584320D03*
X156500000Y-317640000D03*
X130900000Y-343740000D03*
X170000000Y-311890000D03*
X160300000Y-349440000D03*
X164441361Y-322098638D03*
X120450000Y-307890000D03*
X167400000Y-300590000D03*
X136700000Y-315540000D03*
X148400000Y-339540000D03*
X134800000Y-343740000D03*
X168400000Y-336040000D03*
X121500000Y-333740000D03*
X100600000Y-317990000D03*
X121850000Y-307890000D03*
X144450000Y-325940000D03*
X137700000Y-307940000D03*
X114700000Y-323090000D03*
X138000000Y-312440000D03*
X161100000Y-355740000D03*
X170893736Y-352126553D03*
X190200000Y-351340000D03*
X132000000Y-322990000D03*
X126500000Y-341040000D03*
X163400000Y-336040000D03*
X131200000Y-346840000D03*
X160500000Y-343795261D03*
X103900000Y-322640000D03*
X153400000Y-336040000D03*
X184800000Y-336040000D03*
X138400000Y-336040000D03*
X183200000Y-334540000D03*
X170790089Y-317465055D03*
X182400000Y-302640000D03*
X134600000Y-323340000D03*
X172100000Y-307563682D03*
X174800000Y-336040000D03*
X127800000Y-343740000D03*
X147900000Y-321240000D03*
X168400000Y-337740000D03*
X184800000Y-337840000D03*
X138000000Y-354840000D03*
X158400000Y-300590000D03*
X183017761Y-352711436D03*
X168623682Y-310891224D03*
X169027728Y-348240000D03*
X133200000Y-328840000D03*
X184800000Y-344440000D03*
X103300000Y-338340000D03*
X164400000Y-300590000D03*
X119200000Y-309240000D03*
X172521380Y-303892895D03*
X153400000Y-346840000D03*
X140500000Y-325940000D03*
X155100000Y-355740000D03*
X189900000Y-302105478D03*
X158400000Y-337740000D03*
X123349888Y-348210211D03*
X117800000Y-342240000D03*
X108061804Y-352911826D03*
X120450000Y-309290000D03*
X133150000Y-321540000D03*
X116199331Y-353900133D03*
X101363028Y-325631648D03*
X133503637Y-301574818D03*
X192750000Y-335840000D03*
X137400000Y-300590000D03*
X107240534Y-350166837D03*
X134460746Y-318203474D03*
X103414810Y-334236770D03*
X148400000Y-346840000D03*
X184700000Y-325040000D03*
X168646547Y-314082873D03*
X140225000Y-353240000D03*
X124900000Y-332540000D03*
X171074721Y-343761325D03*
X158400000Y-339540000D03*
X130800000Y-304340000D03*
X100600000Y-338440000D03*
X173200000Y-329690000D03*
X131200000Y-337840000D03*
X197400000Y-318740000D03*
X155002672Y-349393841D03*
X109700000Y-314540000D03*
X118513919Y-333562271D03*
X137727728Y-348115612D03*
X115900000Y-309240000D03*
X184700000Y-327840000D03*
X174800000Y-341540000D03*
X185400000Y-302640000D03*
X158400000Y-334540000D03*
X149850000Y-352581524D03*
X136100000Y-351840000D03*
X197419747Y-310023147D03*
X143400000Y-336040000D03*
X100600000Y-315440000D03*
X162929955Y-345008708D03*
X184800000Y-346540000D03*
X116300000Y-325840000D03*
X179400000Y-300590000D03*
X169354714Y-304766726D03*
X180113919Y-304436547D03*
X164000000Y-311840000D03*
X197400000Y-344981536D03*
X182800000Y-323140000D03*
X180000000Y-327840000D03*
X112975000Y-301615000D03*
X132500000Y-346840000D03*
X170863752Y-342135601D03*
X173100000Y-344640000D03*
X188700000Y-344440000D03*
X158623847Y-315502249D03*
X110900000Y-355740000D03*
X103900000Y-330940000D03*
X139450000Y-309740000D03*
X141841536Y-348119398D03*
X175150000Y-329690000D03*
X132800000Y-343740000D03*
X188700000Y-339540000D03*
X150100000Y-308640000D03*
X110800000Y-351540000D03*
X107800000Y-318440000D03*
X148400000Y-331240000D03*
X173292817Y-347059042D03*
X133200000Y-324940000D03*
X106900000Y-310040000D03*
X108050000Y-304040000D03*
X129300779Y-352807371D03*
X138974944Y-348110044D03*
X148200000Y-325940000D03*
X179300000Y-339640000D03*
X133425000Y-304540000D03*
X171500000Y-313093173D03*
X184479120Y-355556258D03*
X176000000Y-324740000D03*
X152400000Y-300590000D03*
X185400000Y-310940000D03*
X109700000Y-327840000D03*
X173200000Y-327840000D03*
X157700000Y-319040000D03*
X192883630Y-348319398D03*
X138400000Y-342240000D03*
X115551336Y-323986325D03*
X165900000Y-348840000D03*
X152950000Y-351765000D03*
X111250000Y-343640000D03*
X175150000Y-327840000D03*
X164039643Y-355783986D03*
X143100000Y-318390000D03*
X121497958Y-349994602D03*
X173400000Y-300590000D03*
X197429844Y-338963162D03*
X189945434Y-353640445D03*
X133200000Y-348115612D03*
X173200000Y-339640000D03*
X109700000Y-333340000D03*
X111600000Y-325840000D03*
X148900000Y-327790000D03*
X106938752Y-306595567D03*
X179300000Y-341340000D03*
X109700000Y-320940000D03*
X127800000Y-342240000D03*
X118400000Y-325440000D03*
X169009632Y-343751692D03*
X182400000Y-310940000D03*
X143400000Y-337740000D03*
X173200000Y-341440000D03*
X154750000Y-321990000D03*
X158100000Y-355740000D03*
X156000000Y-331240000D03*
X121850000Y-310690000D03*
X115850000Y-301590000D03*
X145400000Y-312540000D03*
X111200000Y-328340000D03*
X163524832Y-304871848D03*
X109700000Y-322740000D03*
X179850000Y-323090000D03*
X122597958Y-349994602D03*
X192800000Y-315240000D03*
X132400000Y-331840000D03*
X131277394Y-354848017D03*
X120100000Y-324340000D03*
X134500000Y-348140000D03*
X150650000Y-323490000D03*
X117826280Y-350614276D03*
X166100000Y-331240000D03*
X115600000Y-322190000D03*
X153400000Y-343740000D03*
X126200000Y-313840000D03*
X129650000Y-320640000D03*
X120450000Y-310690000D03*
X192550000Y-337540000D03*
X139300000Y-318340000D03*
X176400000Y-300590000D03*
X117350000Y-317890000D03*
X169203507Y-355756704D03*
X173534892Y-309341855D03*
X164052171Y-351843340D03*
X143400000Y-342240000D03*
X118100000Y-322940000D03*
X183200000Y-339540000D03*
X134500000Y-341140000D03*
X118900000Y-327140000D03*
X139800000Y-327790000D03*
X127507906Y-353570178D03*
X168400000Y-321440000D03*
X132800000Y-336040000D03*
X112800000Y-342240000D03*
X103900000Y-320440000D03*
X148800000Y-307940000D03*
X153400000Y-337740000D03*
X137700000Y-350440000D03*
X113350000Y-312990000D03*
X186300000Y-325440000D03*
X120200000Y-317890000D03*
X139000000Y-313240000D03*
X149112026Y-355779198D03*
X123250000Y-309290000D03*
X148400000Y-337740000D03*
X165000000Y-315040000D03*
X167000000Y-327190000D03*
X140400000Y-316940000D03*
X124200000Y-336640000D03*
X168400000Y-339540000D03*
X130850000Y-301590000D03*
X149400000Y-300590000D03*
X153400000Y-334540000D03*
X134500000Y-321540000D03*
X163050000Y-308340000D03*
X110342984Y-348107538D03*
X134800000Y-342240000D03*
X108625000Y-306515000D03*
X111900000Y-320340000D03*
X190961859Y-320981035D03*
X188837861Y-332573184D03*
X182400000Y-300590000D03*
X107250000Y-345440000D03*
X195111080Y-347840000D03*
X187200000Y-351940000D03*
X102599109Y-328163830D03*
X163420851Y-349470233D03*
X107600000Y-323040000D03*
X119031514Y-329214721D03*
X132800000Y-337840000D03*
X130995879Y-332212995D03*
X158400000Y-341240000D03*
X100600000Y-322340000D03*
X153400000Y-339540000D03*
X127150000Y-320590000D03*
X188700000Y-341140000D03*
X111900000Y-314440000D03*
X183200000Y-341140000D03*
X108107126Y-301663496D03*
X103400000Y-345440000D03*
X173200000Y-336040000D03*
X134700000Y-346840000D03*
X158400000Y-336040000D03*
X181146547Y-317864109D03*
X124600000Y-307940000D03*
X125197958Y-349994602D03*
X123800000Y-343740000D03*
X134500000Y-339540000D03*
X143276837Y-354776191D03*
X178148385Y-355740000D03*
X197432739Y-313067171D03*
X152950000Y-350190000D03*
X183200000Y-336040000D03*
X139000000Y-311340000D03*
X160500000Y-320690000D03*
X157171269Y-348114498D03*
X120800000Y-320740000D03*
X146400000Y-300590000D03*
X179300000Y-337840000D03*
X115700000Y-330740000D03*
X113100000Y-321440000D03*
X183200000Y-343040000D03*
X188400000Y-310840000D03*
X113300000Y-343790000D03*
X197400000Y-322031870D03*
X158400000Y-347440000D03*
X161400000Y-300590000D03*
X184700000Y-329690000D03*
X116550000Y-323040000D03*
X128600000Y-322740000D03*
X180400000Y-308040000D03*
X178717512Y-322040000D03*
X178200000Y-348340000D03*
X185000000Y-323130000D03*
X115900000Y-312940000D03*
X192900000Y-331940000D03*
X173250000Y-307590000D03*
X184000000Y-349940000D03*
X123150000Y-326490000D03*
X126625000Y-326490000D03*
X110450000Y-303540000D03*
X121425000Y-326490000D03*
X169725000Y-317465000D03*
X165250000Y-304015000D03*
X110450000Y-347290000D03*
X132000000Y-325065000D03*
X160400000Y-304040000D03*
X124900000Y-326490000D03*
X132100000Y-319265000D03*
X148025000Y-309640000D03*
X150425000Y-315615000D03*
X111275000Y-307240000D03*
X117296880Y-324742334D03*
X187800000Y-331740000D03*
X192700000Y-326340000D03*
X190950000Y-330040000D03*
X187390000Y-326880000D03*
X192600000Y-330040000D03*
X190000000Y-334190000D03*
X191800000Y-330390000D03*
X131850000Y-334040000D03*
X131850000Y-342240000D03*
X133850000Y-348840000D03*
X139375000Y-351290000D03*
X133850000Y-334040000D03*
X137550000Y-351290000D03*
X133850000Y-342240000D03*
X133850000Y-343765000D03*
X194825000Y-334640000D03*
X197250000Y-334590000D03*
X152375000Y-312640000D03*
X157375000Y-310390000D03*
X157500000Y-313015000D03*
X152300000Y-309440000D03*
X154725000Y-309290000D03*
X152350000Y-310740000D03*
X188900000Y-329040000D03*
X191800000Y-326440000D03*
X115891455Y-317855000D03*
X158750000Y-316990000D03*
X115891455Y-317055000D03*
X163550000Y-316990000D03*
G04 #@! TA.AperFunction,Conductor*
G36*
X188504418Y-300250816D02*
G01*
X188740140Y-300267674D01*
X188757641Y-300270191D01*
X188984229Y-300319482D01*
X189001188Y-300324461D01*
X189138672Y-300375740D01*
X189218462Y-300405501D01*
X189234555Y-300412851D01*
X189438068Y-300523977D01*
X189452951Y-300533542D01*
X189638579Y-300672501D01*
X189651950Y-300684087D01*
X189815912Y-300848049D01*
X189827498Y-300861420D01*
X189966457Y-301047048D01*
X189976022Y-301061931D01*
X190087148Y-301265444D01*
X190094498Y-301281537D01*
X190175535Y-301498803D01*
X190180519Y-301515779D01*
X190229807Y-301742352D01*
X190232325Y-301759864D01*
X190249184Y-301995581D01*
X190249500Y-302004427D01*
X190249500Y-303627414D01*
X190285654Y-304040657D01*
X190285654Y-304040661D01*
X190357685Y-304449166D01*
X190357689Y-304449183D01*
X190465047Y-304849853D01*
X190465050Y-304849863D01*
X190465051Y-304849864D01*
X190521406Y-305004699D01*
X190606934Y-305239683D01*
X190782230Y-305615609D01*
X190782243Y-305615633D01*
X190908356Y-305834066D01*
X190989652Y-305974874D01*
X190989656Y-305974880D01*
X190989663Y-305974891D01*
X191227584Y-306314677D01*
X191386014Y-306503486D01*
X191494227Y-306632449D01*
X191787551Y-306925773D01*
X191838151Y-306968231D01*
X192105322Y-307192415D01*
X192445108Y-307430336D01*
X192445115Y-307430340D01*
X192445126Y-307430348D01*
X192721651Y-307590000D01*
X192804366Y-307637756D01*
X192804390Y-307637769D01*
X193180316Y-307813065D01*
X193180321Y-307813066D01*
X193180330Y-307813071D01*
X193570136Y-307954949D01*
X193570142Y-307954950D01*
X193570146Y-307954952D01*
X193679260Y-307984188D01*
X193970824Y-308062313D01*
X194379345Y-308134346D01*
X194792587Y-308170499D01*
X194792588Y-308170500D01*
X194792589Y-308170500D01*
X194950172Y-308170500D01*
X195955830Y-308170500D01*
X195995572Y-308170500D01*
X196004418Y-308170816D01*
X196240140Y-308187674D01*
X196257641Y-308190191D01*
X196484229Y-308239482D01*
X196501188Y-308244461D01*
X196638672Y-308295740D01*
X196718462Y-308325501D01*
X196734555Y-308332851D01*
X196938068Y-308443977D01*
X196952951Y-308453542D01*
X197138579Y-308592501D01*
X197151950Y-308604087D01*
X197315912Y-308768049D01*
X197327498Y-308781420D01*
X197466457Y-308967048D01*
X197476022Y-308981931D01*
X197587148Y-309185444D01*
X197594498Y-309201537D01*
X197675535Y-309418803D01*
X197680519Y-309435779D01*
X197729807Y-309662352D01*
X197732325Y-309679864D01*
X197749184Y-309915581D01*
X197749500Y-309924427D01*
X197749500Y-334088973D01*
X197729815Y-334156012D01*
X197677011Y-334201767D01*
X197607853Y-334211711D01*
X197558461Y-334193289D01*
X197460050Y-334130045D01*
X197321963Y-334089500D01*
X197321961Y-334089500D01*
X197178039Y-334089500D01*
X197178036Y-334089500D01*
X197039949Y-334130045D01*
X196918873Y-334207856D01*
X196824623Y-334316626D01*
X196824622Y-334316628D01*
X196764834Y-334447543D01*
X196744353Y-334590000D01*
X196764834Y-334732456D01*
X196787669Y-334782456D01*
X196824623Y-334863373D01*
X196918872Y-334972143D01*
X197039947Y-335049953D01*
X197039950Y-335049954D01*
X197039949Y-335049954D01*
X197178036Y-335090499D01*
X197178038Y-335090500D01*
X197178039Y-335090500D01*
X197321962Y-335090500D01*
X197321962Y-335090499D01*
X197460053Y-335049953D01*
X197558461Y-334986709D01*
X197625500Y-334967026D01*
X197692540Y-334986711D01*
X197738294Y-335039515D01*
X197749500Y-335091026D01*
X197749500Y-346415572D01*
X197749184Y-346424418D01*
X197732325Y-346660135D01*
X197729807Y-346677647D01*
X197680519Y-346904220D01*
X197675535Y-346921196D01*
X197594498Y-347138462D01*
X197587148Y-347154555D01*
X197476022Y-347358068D01*
X197466457Y-347372951D01*
X197327498Y-347558579D01*
X197315912Y-347571950D01*
X197151950Y-347735912D01*
X197138579Y-347747498D01*
X196952951Y-347886457D01*
X196938068Y-347896022D01*
X196734555Y-348007148D01*
X196718462Y-348014498D01*
X196501196Y-348095535D01*
X196484220Y-348100519D01*
X196257647Y-348149807D01*
X196240135Y-348152325D01*
X196004418Y-348169184D01*
X195995572Y-348169500D01*
X194792585Y-348169500D01*
X194379342Y-348205654D01*
X194379338Y-348205654D01*
X193970833Y-348277685D01*
X193970816Y-348277689D01*
X193570146Y-348385047D01*
X193180316Y-348526934D01*
X192804390Y-348702230D01*
X192804366Y-348702243D01*
X192445134Y-348909647D01*
X192445108Y-348909663D01*
X192105322Y-349147584D01*
X191787548Y-349414229D01*
X191494229Y-349707548D01*
X191227584Y-350025322D01*
X190989663Y-350365108D01*
X190989647Y-350365134D01*
X190782243Y-350724366D01*
X190782230Y-350724390D01*
X190606934Y-351100316D01*
X190465047Y-351490146D01*
X190357689Y-351890816D01*
X190357685Y-351890833D01*
X190285654Y-352299338D01*
X190285654Y-352299342D01*
X190249500Y-352712585D01*
X190249500Y-354335572D01*
X190249184Y-354344418D01*
X190232325Y-354580135D01*
X190229807Y-354597647D01*
X190180519Y-354824220D01*
X190175535Y-354841196D01*
X190094498Y-355058462D01*
X190087148Y-355074555D01*
X189976022Y-355278068D01*
X189966457Y-355292951D01*
X189827498Y-355478579D01*
X189815912Y-355491950D01*
X189651950Y-355655912D01*
X189638579Y-355667498D01*
X189452951Y-355806457D01*
X189438068Y-355816022D01*
X189234555Y-355927148D01*
X189218462Y-355934498D01*
X189001196Y-356015535D01*
X188984220Y-356020519D01*
X188757647Y-356069807D01*
X188740135Y-356072325D01*
X188504418Y-356089184D01*
X188495572Y-356089500D01*
X109504428Y-356089500D01*
X109495582Y-356089184D01*
X109259864Y-356072325D01*
X109242352Y-356069807D01*
X109015779Y-356020519D01*
X108998803Y-356015535D01*
X108781537Y-355934498D01*
X108765444Y-355927148D01*
X108561931Y-355816022D01*
X108547048Y-355806457D01*
X108361420Y-355667498D01*
X108348049Y-355655912D01*
X108184087Y-355491950D01*
X108172501Y-355478579D01*
X108033542Y-355292951D01*
X108023977Y-355278068D01*
X107912851Y-355074555D01*
X107905501Y-355058462D01*
X107875740Y-354978672D01*
X107824461Y-354841188D01*
X107819482Y-354824229D01*
X107770191Y-354597641D01*
X107767674Y-354580135D01*
X107750816Y-354344418D01*
X107750500Y-354335572D01*
X107750500Y-352712588D01*
X107750499Y-352712587D01*
X107714346Y-352299345D01*
X107642313Y-351890824D01*
X107534949Y-351490136D01*
X107462105Y-351290000D01*
X137044353Y-351290000D01*
X137064834Y-351432456D01*
X137091176Y-351490136D01*
X137124623Y-351563373D01*
X137218872Y-351672143D01*
X137339947Y-351749953D01*
X137339950Y-351749954D01*
X137339949Y-351749954D01*
X137478036Y-351790499D01*
X137478038Y-351790500D01*
X137478039Y-351790500D01*
X137621962Y-351790500D01*
X137621962Y-351790499D01*
X137760053Y-351749953D01*
X137881128Y-351672143D01*
X137975377Y-351563373D01*
X138035165Y-351432457D01*
X138055647Y-351290000D01*
X138869353Y-351290000D01*
X138889834Y-351432456D01*
X138916176Y-351490136D01*
X138949623Y-351563373D01*
X139043872Y-351672143D01*
X139164947Y-351749953D01*
X139164950Y-351749954D01*
X139164949Y-351749954D01*
X139303036Y-351790499D01*
X139303038Y-351790500D01*
X139303039Y-351790500D01*
X139446962Y-351790500D01*
X139446962Y-351790499D01*
X139585053Y-351749953D01*
X139706128Y-351672143D01*
X139800377Y-351563373D01*
X139860165Y-351432457D01*
X139880647Y-351290000D01*
X139860165Y-351147543D01*
X139800377Y-351016627D01*
X139706128Y-350907857D01*
X139585053Y-350830047D01*
X139585051Y-350830046D01*
X139585049Y-350830045D01*
X139585050Y-350830045D01*
X139446963Y-350789500D01*
X139446961Y-350789500D01*
X139303039Y-350789500D01*
X139303036Y-350789500D01*
X139164949Y-350830045D01*
X139043873Y-350907856D01*
X138949623Y-351016626D01*
X138949622Y-351016628D01*
X138889834Y-351147543D01*
X138869353Y-351290000D01*
X138055647Y-351290000D01*
X138035165Y-351147543D01*
X137975377Y-351016627D01*
X137881128Y-350907857D01*
X137760053Y-350830047D01*
X137760051Y-350830046D01*
X137760049Y-350830045D01*
X137760050Y-350830045D01*
X137621963Y-350789500D01*
X137621961Y-350789500D01*
X137478039Y-350789500D01*
X137478036Y-350789500D01*
X137339949Y-350830045D01*
X137218873Y-350907856D01*
X137124623Y-351016626D01*
X137124622Y-351016628D01*
X137064834Y-351147543D01*
X137044353Y-351290000D01*
X107462105Y-351290000D01*
X107393071Y-351100330D01*
X107393066Y-351100321D01*
X107393065Y-351100316D01*
X107217769Y-350724390D01*
X107217756Y-350724366D01*
X107053865Y-350440500D01*
X107010348Y-350365126D01*
X107010340Y-350365115D01*
X107010336Y-350365108D01*
X106772415Y-350025322D01*
X106700821Y-349940000D01*
X183494353Y-349940000D01*
X183514834Y-350082456D01*
X183574622Y-350213371D01*
X183574623Y-350213373D01*
X183668872Y-350322143D01*
X183789947Y-350399953D01*
X183789950Y-350399954D01*
X183789949Y-350399954D01*
X183928036Y-350440499D01*
X183928038Y-350440500D01*
X183928039Y-350440500D01*
X184071962Y-350440500D01*
X184071962Y-350440499D01*
X184210053Y-350399953D01*
X184331128Y-350322143D01*
X184425377Y-350213373D01*
X184485165Y-350082457D01*
X184505647Y-349940000D01*
X184485165Y-349797543D01*
X184425377Y-349666627D01*
X184331128Y-349557857D01*
X184210053Y-349480047D01*
X184210051Y-349480046D01*
X184210049Y-349480045D01*
X184210050Y-349480045D01*
X184071963Y-349439500D01*
X184071961Y-349439500D01*
X183928039Y-349439500D01*
X183928036Y-349439500D01*
X183789949Y-349480045D01*
X183668873Y-349557856D01*
X183574623Y-349666626D01*
X183574622Y-349666628D01*
X183514834Y-349797543D01*
X183494353Y-349940000D01*
X106700821Y-349940000D01*
X106505770Y-349707548D01*
X106212451Y-349414229D01*
X105894677Y-349147584D01*
X105554891Y-348909663D01*
X105554880Y-348909656D01*
X105554874Y-348909652D01*
X105434234Y-348840000D01*
X133344353Y-348840000D01*
X133364834Y-348982456D01*
X133424622Y-349113371D01*
X133424623Y-349113373D01*
X133518872Y-349222143D01*
X133639947Y-349299953D01*
X133639950Y-349299954D01*
X133639949Y-349299954D01*
X133778036Y-349340499D01*
X133778038Y-349340500D01*
X133778039Y-349340500D01*
X133921962Y-349340500D01*
X133921962Y-349340499D01*
X134060053Y-349299953D01*
X134181128Y-349222143D01*
X134275377Y-349113373D01*
X134335165Y-348982457D01*
X134355647Y-348840000D01*
X134335165Y-348697543D01*
X134275377Y-348566627D01*
X134181128Y-348457857D01*
X134060053Y-348380047D01*
X134060051Y-348380046D01*
X134060049Y-348380045D01*
X134060050Y-348380045D01*
X133921963Y-348339500D01*
X133921961Y-348339500D01*
X133778039Y-348339500D01*
X133778036Y-348339500D01*
X133639949Y-348380045D01*
X133518873Y-348457856D01*
X133424623Y-348566626D01*
X133424622Y-348566628D01*
X133364834Y-348697543D01*
X133344353Y-348840000D01*
X105434234Y-348840000D01*
X105265976Y-348742856D01*
X105195633Y-348702243D01*
X105195609Y-348702230D01*
X104819683Y-348526934D01*
X104819672Y-348526930D01*
X104819670Y-348526929D01*
X104429864Y-348385051D01*
X104429863Y-348385050D01*
X104429853Y-348385047D01*
X104029183Y-348277689D01*
X104029186Y-348277689D01*
X104029176Y-348277687D01*
X104029170Y-348277685D01*
X104029166Y-348277685D01*
X103620659Y-348205654D01*
X103207414Y-348169500D01*
X103207411Y-348169500D01*
X103049828Y-348169500D01*
X102004428Y-348169500D01*
X101995582Y-348169184D01*
X101759864Y-348152325D01*
X101742352Y-348149807D01*
X101515779Y-348100519D01*
X101498803Y-348095535D01*
X101281537Y-348014498D01*
X101265444Y-348007148D01*
X101061931Y-347896022D01*
X101047048Y-347886457D01*
X100861420Y-347747498D01*
X100848049Y-347735912D01*
X100684087Y-347571950D01*
X100672501Y-347558579D01*
X100533542Y-347372951D01*
X100523977Y-347358068D01*
X100486809Y-347290000D01*
X109944353Y-347290000D01*
X109964834Y-347432456D01*
X110022434Y-347558579D01*
X110024623Y-347563373D01*
X110118872Y-347672143D01*
X110239947Y-347749953D01*
X110239950Y-347749954D01*
X110239949Y-347749954D01*
X110378036Y-347790499D01*
X110378038Y-347790500D01*
X110378039Y-347790500D01*
X110521962Y-347790500D01*
X110521962Y-347790499D01*
X110660053Y-347749953D01*
X110781128Y-347672143D01*
X110875377Y-347563373D01*
X110935165Y-347432457D01*
X110955647Y-347290000D01*
X110935165Y-347147543D01*
X110875377Y-347016627D01*
X110781128Y-346907857D01*
X110660053Y-346830047D01*
X110660051Y-346830046D01*
X110660049Y-346830045D01*
X110660050Y-346830045D01*
X110521963Y-346789500D01*
X110521961Y-346789500D01*
X110378039Y-346789500D01*
X110378036Y-346789500D01*
X110239949Y-346830045D01*
X110118873Y-346907856D01*
X110024623Y-347016626D01*
X110024622Y-347016628D01*
X109964834Y-347147543D01*
X109944353Y-347290000D01*
X100486809Y-347290000D01*
X100412851Y-347154555D01*
X100405501Y-347138462D01*
X100360059Y-347016628D01*
X100324461Y-346921188D01*
X100319482Y-346904229D01*
X100270191Y-346677641D01*
X100267674Y-346660135D01*
X100266917Y-346649552D01*
X100250816Y-346424418D01*
X100250500Y-346415572D01*
X100250500Y-345830000D01*
X163149678Y-345830000D01*
X163168915Y-346013029D01*
X163168916Y-346013032D01*
X163225783Y-346188053D01*
X163225786Y-346188059D01*
X163317805Y-346347440D01*
X163379151Y-346415572D01*
X163440949Y-346484206D01*
X163440951Y-346484208D01*
X163589834Y-346592378D01*
X163589835Y-346592378D01*
X163589839Y-346592381D01*
X163718247Y-346649552D01*
X163757961Y-346667234D01*
X163757966Y-346667236D01*
X163937981Y-346705500D01*
X164122019Y-346705500D01*
X164302034Y-346667236D01*
X164470161Y-346592381D01*
X164619050Y-346484207D01*
X164742195Y-346347440D01*
X164834214Y-346188059D01*
X164891085Y-346013029D01*
X164906679Y-345864655D01*
X164920862Y-345830184D01*
X164920676Y-345829814D01*
X165139137Y-345829814D01*
X165151977Y-345855312D01*
X165153319Y-345864646D01*
X165168915Y-346013029D01*
X165168916Y-346013032D01*
X165225783Y-346188053D01*
X165225786Y-346188059D01*
X165317805Y-346347440D01*
X165379151Y-346415572D01*
X165440949Y-346484206D01*
X165440951Y-346484208D01*
X165589834Y-346592378D01*
X165589835Y-346592378D01*
X165589839Y-346592381D01*
X165718247Y-346649552D01*
X165757961Y-346667234D01*
X165757966Y-346667236D01*
X165937981Y-346705500D01*
X166122019Y-346705500D01*
X166302034Y-346667236D01*
X166470161Y-346592381D01*
X166619050Y-346484207D01*
X166742195Y-346347440D01*
X166834214Y-346188059D01*
X166891085Y-346013029D01*
X166906679Y-345864655D01*
X166920862Y-345830184D01*
X166920676Y-345829814D01*
X167139137Y-345829814D01*
X167151977Y-345855312D01*
X167153319Y-345864646D01*
X167168915Y-346013029D01*
X167168916Y-346013032D01*
X167225783Y-346188053D01*
X167225786Y-346188059D01*
X167317805Y-346347440D01*
X167379151Y-346415572D01*
X167440949Y-346484206D01*
X167440951Y-346484208D01*
X167589834Y-346592378D01*
X167589835Y-346592378D01*
X167589839Y-346592381D01*
X167718247Y-346649552D01*
X167757961Y-346667234D01*
X167757966Y-346667236D01*
X167937981Y-346705500D01*
X168122019Y-346705500D01*
X168302034Y-346667236D01*
X168470161Y-346592381D01*
X168619050Y-346484207D01*
X168742195Y-346347440D01*
X168834214Y-346188059D01*
X168891085Y-346013029D01*
X168906679Y-345864655D01*
X168920862Y-345830184D01*
X168920676Y-345829814D01*
X169139137Y-345829814D01*
X169151977Y-345855312D01*
X169153319Y-345864646D01*
X169168915Y-346013029D01*
X169168916Y-346013032D01*
X169225783Y-346188053D01*
X169225786Y-346188059D01*
X169317805Y-346347440D01*
X169379151Y-346415572D01*
X169440949Y-346484206D01*
X169440951Y-346484208D01*
X169589834Y-346592378D01*
X169589835Y-346592378D01*
X169589839Y-346592381D01*
X169718247Y-346649552D01*
X169757961Y-346667234D01*
X169757966Y-346667236D01*
X169937981Y-346705500D01*
X170122019Y-346705500D01*
X170302034Y-346667236D01*
X170470161Y-346592381D01*
X170619050Y-346484207D01*
X170742195Y-346347440D01*
X170751758Y-346330875D01*
X170802323Y-346282660D01*
X170870930Y-346269435D01*
X170935795Y-346295402D01*
X170970146Y-346337602D01*
X171026715Y-346451208D01*
X171157945Y-346624985D01*
X171318868Y-346771685D01*
X171504012Y-346886322D01*
X171504023Y-346886327D01*
X171707060Y-346964984D01*
X171780000Y-346978619D01*
X171780000Y-346145686D01*
X171784394Y-346150080D01*
X171875606Y-346202741D01*
X171977339Y-346230000D01*
X172082661Y-346230000D01*
X172184394Y-346202741D01*
X172275606Y-346150080D01*
X172280000Y-346145686D01*
X172280000Y-346978619D01*
X172352939Y-346964984D01*
X172555976Y-346886327D01*
X172555987Y-346886322D01*
X172741130Y-346771685D01*
X172741131Y-346771685D01*
X172902055Y-346624984D01*
X172902057Y-346624982D01*
X172953172Y-346557296D01*
X173009281Y-346515659D01*
X173078993Y-346510968D01*
X173140175Y-346544710D01*
X173159137Y-346573217D01*
X173159348Y-346573077D01*
X173210447Y-346649552D01*
X173276769Y-346693867D01*
X173276770Y-346693868D01*
X173335247Y-346705499D01*
X173335250Y-346705500D01*
X173335252Y-346705500D01*
X174724750Y-346705500D01*
X174724751Y-346705499D01*
X174739568Y-346702552D01*
X174783229Y-346693868D01*
X174783229Y-346693867D01*
X174783231Y-346693867D01*
X174849552Y-346649552D01*
X174893867Y-346583231D01*
X174893867Y-346583229D01*
X174893868Y-346583229D01*
X174905499Y-346524752D01*
X174905500Y-346524750D01*
X174905500Y-345135249D01*
X174905499Y-345135247D01*
X174893868Y-345076770D01*
X174893867Y-345076769D01*
X174849552Y-345010447D01*
X174783230Y-344966132D01*
X174783229Y-344966131D01*
X174724752Y-344954500D01*
X174724748Y-344954500D01*
X173335252Y-344954500D01*
X173335247Y-344954500D01*
X173276770Y-344966131D01*
X173276769Y-344966132D01*
X173210447Y-345010447D01*
X173159348Y-345086923D01*
X173158098Y-345086088D01*
X173122840Y-345129837D01*
X173056545Y-345151898D01*
X172988847Y-345134615D01*
X172953172Y-345102704D01*
X172902054Y-345035014D01*
X172741131Y-344888314D01*
X172555987Y-344773677D01*
X172555985Y-344773676D01*
X172352931Y-344695013D01*
X172352921Y-344695010D01*
X172280001Y-344681378D01*
X172280000Y-344681379D01*
X172280000Y-345514314D01*
X172275606Y-345509920D01*
X172184394Y-345457259D01*
X172082661Y-345430000D01*
X171977339Y-345430000D01*
X171875606Y-345457259D01*
X171784394Y-345509920D01*
X171780000Y-345514314D01*
X171780000Y-344681379D01*
X171779998Y-344681378D01*
X171707078Y-344695010D01*
X171707068Y-344695013D01*
X171504014Y-344773676D01*
X171504012Y-344773677D01*
X171318869Y-344888314D01*
X171318868Y-344888314D01*
X171157945Y-345035014D01*
X171026715Y-345208791D01*
X170970146Y-345322397D01*
X170922643Y-345373634D01*
X170854980Y-345391055D01*
X170788640Y-345369129D01*
X170751759Y-345329125D01*
X170742195Y-345312560D01*
X170619050Y-345175793D01*
X170619048Y-345175791D01*
X170470165Y-345067621D01*
X170470162Y-345067619D01*
X170470161Y-345067619D01*
X170396929Y-345035014D01*
X170302038Y-344992765D01*
X170302033Y-344992763D01*
X170122019Y-344954500D01*
X169937981Y-344954500D01*
X169757966Y-344992763D01*
X169757961Y-344992765D01*
X169589839Y-345067619D01*
X169589834Y-345067621D01*
X169440951Y-345175791D01*
X169440949Y-345175793D01*
X169317804Y-345312561D01*
X169225786Y-345471940D01*
X169225783Y-345471946D01*
X169181502Y-345608231D01*
X169168915Y-345646971D01*
X169160136Y-345730499D01*
X169153321Y-345795342D01*
X169139137Y-345829814D01*
X168920676Y-345829814D01*
X168908023Y-345804687D01*
X168906679Y-345795342D01*
X168904787Y-345777339D01*
X168891085Y-345646971D01*
X168834214Y-345471941D01*
X168742195Y-345312560D01*
X168619050Y-345175793D01*
X168619048Y-345175791D01*
X168470165Y-345067621D01*
X168470162Y-345067619D01*
X168470161Y-345067619D01*
X168396929Y-345035014D01*
X168302038Y-344992765D01*
X168302033Y-344992763D01*
X168122019Y-344954500D01*
X167937981Y-344954500D01*
X167757966Y-344992763D01*
X167757961Y-344992765D01*
X167589839Y-345067619D01*
X167589834Y-345067621D01*
X167440951Y-345175791D01*
X167440949Y-345175793D01*
X167317804Y-345312561D01*
X167225786Y-345471940D01*
X167225783Y-345471946D01*
X167181502Y-345608231D01*
X167168915Y-345646971D01*
X167160136Y-345730499D01*
X167153321Y-345795342D01*
X167139137Y-345829814D01*
X166920676Y-345829814D01*
X166908023Y-345804687D01*
X166906679Y-345795342D01*
X166904787Y-345777339D01*
X166891085Y-345646971D01*
X166834214Y-345471941D01*
X166742195Y-345312560D01*
X166619050Y-345175793D01*
X166619048Y-345175791D01*
X166470165Y-345067621D01*
X166470162Y-345067619D01*
X166470161Y-345067619D01*
X166396929Y-345035014D01*
X166302038Y-344992765D01*
X166302033Y-344992763D01*
X166122019Y-344954500D01*
X165937981Y-344954500D01*
X165757966Y-344992763D01*
X165757961Y-344992765D01*
X165589839Y-345067619D01*
X165589834Y-345067621D01*
X165440951Y-345175791D01*
X165440949Y-345175793D01*
X165317804Y-345312561D01*
X165225786Y-345471940D01*
X165225783Y-345471946D01*
X165181502Y-345608231D01*
X165168915Y-345646971D01*
X165160136Y-345730499D01*
X165153321Y-345795342D01*
X165139137Y-345829814D01*
X164920676Y-345829814D01*
X164908023Y-345804687D01*
X164906679Y-345795342D01*
X164904787Y-345777339D01*
X164891085Y-345646971D01*
X164834214Y-345471941D01*
X164742195Y-345312560D01*
X164619050Y-345175793D01*
X164619048Y-345175791D01*
X164470165Y-345067621D01*
X164470162Y-345067619D01*
X164470161Y-345067619D01*
X164396929Y-345035014D01*
X164302038Y-344992765D01*
X164302033Y-344992763D01*
X164122019Y-344954500D01*
X163937981Y-344954500D01*
X163757966Y-344992763D01*
X163757961Y-344992765D01*
X163589839Y-345067619D01*
X163589834Y-345067621D01*
X163440951Y-345175791D01*
X163440949Y-345175793D01*
X163317804Y-345312561D01*
X163225786Y-345471940D01*
X163225783Y-345471946D01*
X163181502Y-345608231D01*
X163168915Y-345646971D01*
X163149678Y-345830000D01*
X100250500Y-345830000D01*
X100250500Y-341889999D01*
X100669364Y-341889999D01*
X100669364Y-341890000D01*
X101566988Y-341890000D01*
X101534075Y-341947007D01*
X101500000Y-342074174D01*
X101500000Y-342205826D01*
X101534075Y-342332993D01*
X101566988Y-342390000D01*
X100669364Y-342390000D01*
X100726567Y-342603486D01*
X100726570Y-342603492D01*
X100826399Y-342817578D01*
X100961894Y-343011082D01*
X101128917Y-343178105D01*
X101322421Y-343313600D01*
X101492948Y-343393118D01*
X101545387Y-343439290D01*
X101564539Y-343506484D01*
X101544323Y-343573365D01*
X101491158Y-343618700D01*
X101440543Y-343629500D01*
X101130247Y-343629500D01*
X101071770Y-343641131D01*
X101071769Y-343641132D01*
X101005447Y-343685447D01*
X100961132Y-343751769D01*
X100961131Y-343751770D01*
X100949500Y-343810247D01*
X100949500Y-345549752D01*
X100961131Y-345608229D01*
X100961132Y-345608230D01*
X101005447Y-345674552D01*
X101071769Y-345718867D01*
X101071770Y-345718868D01*
X101130247Y-345730499D01*
X101130250Y-345730500D01*
X101130252Y-345730500D01*
X102869750Y-345730500D01*
X102869751Y-345730499D01*
X102884568Y-345727552D01*
X102928229Y-345718868D01*
X102928229Y-345718867D01*
X102928231Y-345718867D01*
X102994552Y-345674552D01*
X103038867Y-345608231D01*
X103038867Y-345608229D01*
X103038868Y-345608229D01*
X103050499Y-345549752D01*
X103050500Y-345549750D01*
X103050500Y-344690000D01*
X110769353Y-344690000D01*
X110789834Y-344832456D01*
X110815344Y-344888314D01*
X110849623Y-344963373D01*
X110943872Y-345072143D01*
X111064947Y-345149953D01*
X111064950Y-345149954D01*
X111064949Y-345149954D01*
X111203036Y-345190499D01*
X111203038Y-345190500D01*
X111203039Y-345190500D01*
X111346962Y-345190500D01*
X111346962Y-345190499D01*
X111485053Y-345149953D01*
X111606128Y-345072143D01*
X111700377Y-344963373D01*
X111760165Y-344832457D01*
X111780647Y-344690000D01*
X111760165Y-344547543D01*
X111700377Y-344416627D01*
X111606128Y-344307857D01*
X111485053Y-344230047D01*
X111485051Y-344230046D01*
X111485049Y-344230045D01*
X111485050Y-344230045D01*
X111346963Y-344189500D01*
X111346961Y-344189500D01*
X111203039Y-344189500D01*
X111203036Y-344189500D01*
X111064949Y-344230045D01*
X110943873Y-344307856D01*
X110849623Y-344416626D01*
X110849622Y-344416628D01*
X110789834Y-344547543D01*
X110769353Y-344690000D01*
X103050500Y-344690000D01*
X103050500Y-343810249D01*
X103050499Y-343810247D01*
X103041499Y-343765000D01*
X133344353Y-343765000D01*
X133364834Y-343907456D01*
X133424622Y-344038371D01*
X133424623Y-344038373D01*
X133518872Y-344147143D01*
X133639947Y-344224953D01*
X133639950Y-344224954D01*
X133639949Y-344224954D01*
X133778036Y-344265499D01*
X133778038Y-344265500D01*
X133778039Y-344265500D01*
X133921962Y-344265500D01*
X133921962Y-344265499D01*
X134060053Y-344224953D01*
X134181128Y-344147143D01*
X134275377Y-344038373D01*
X134335165Y-343907457D01*
X134355647Y-343765000D01*
X134335165Y-343622543D01*
X134275377Y-343491627D01*
X134181128Y-343382857D01*
X134060053Y-343305047D01*
X134060051Y-343305046D01*
X134060049Y-343305045D01*
X134060050Y-343305045D01*
X133921963Y-343264500D01*
X133921961Y-343264500D01*
X133778039Y-343264500D01*
X133778036Y-343264500D01*
X133639949Y-343305045D01*
X133518873Y-343382856D01*
X133424623Y-343491626D01*
X133424622Y-343491628D01*
X133364834Y-343622543D01*
X133344353Y-343765000D01*
X103041499Y-343765000D01*
X103038868Y-343751770D01*
X103038867Y-343751769D01*
X102994552Y-343685447D01*
X102928230Y-343641132D01*
X102928229Y-343641131D01*
X102869752Y-343629500D01*
X102869748Y-343629500D01*
X102559457Y-343629500D01*
X102492418Y-343609815D01*
X102446663Y-343557011D01*
X102436719Y-343487853D01*
X102465744Y-343424297D01*
X102507052Y-343393118D01*
X102677578Y-343313600D01*
X102871082Y-343178105D01*
X103038105Y-343011082D01*
X103173600Y-342817578D01*
X103273429Y-342603492D01*
X103273432Y-342603486D01*
X103330636Y-342390000D01*
X102433012Y-342390000D01*
X102465925Y-342332993D01*
X102490843Y-342240000D01*
X131344353Y-342240000D01*
X131364834Y-342382456D01*
X131394314Y-342447007D01*
X131424623Y-342513373D01*
X131518872Y-342622143D01*
X131639947Y-342699953D01*
X131639950Y-342699954D01*
X131639949Y-342699954D01*
X131778036Y-342740499D01*
X131778038Y-342740500D01*
X131778039Y-342740500D01*
X131921962Y-342740500D01*
X131921962Y-342740499D01*
X132060053Y-342699953D01*
X132181128Y-342622143D01*
X132275377Y-342513373D01*
X132335165Y-342382457D01*
X132355647Y-342240000D01*
X133344353Y-342240000D01*
X133364834Y-342382456D01*
X133394314Y-342447007D01*
X133424623Y-342513373D01*
X133518872Y-342622143D01*
X133639947Y-342699953D01*
X133639950Y-342699954D01*
X133639949Y-342699954D01*
X133778036Y-342740499D01*
X133778038Y-342740500D01*
X133778039Y-342740500D01*
X133921962Y-342740500D01*
X133921962Y-342740499D01*
X134060053Y-342699953D01*
X134181128Y-342622143D01*
X134275377Y-342513373D01*
X134335165Y-342382457D01*
X134355647Y-342240000D01*
X134335165Y-342097543D01*
X134275377Y-341966627D01*
X134181128Y-341857857D01*
X134060053Y-341780047D01*
X134060051Y-341780046D01*
X134060049Y-341780045D01*
X134060050Y-341780045D01*
X133921963Y-341739500D01*
X133921961Y-341739500D01*
X133778039Y-341739500D01*
X133778036Y-341739500D01*
X133639949Y-341780045D01*
X133518873Y-341857856D01*
X133424623Y-341966626D01*
X133424622Y-341966628D01*
X133364834Y-342097543D01*
X133344353Y-342240000D01*
X132355647Y-342240000D01*
X132335165Y-342097543D01*
X132275377Y-341966627D01*
X132181128Y-341857857D01*
X132060053Y-341780047D01*
X132060051Y-341780046D01*
X132060049Y-341780045D01*
X132060050Y-341780045D01*
X131921963Y-341739500D01*
X131921961Y-341739500D01*
X131778039Y-341739500D01*
X131778036Y-341739500D01*
X131639949Y-341780045D01*
X131518873Y-341857856D01*
X131424623Y-341966626D01*
X131424622Y-341966628D01*
X131364834Y-342097543D01*
X131344353Y-342240000D01*
X102490843Y-342240000D01*
X102500000Y-342205826D01*
X102500000Y-342074174D01*
X102465925Y-341947007D01*
X102433012Y-341890000D01*
X103330636Y-341890000D01*
X103330635Y-341889999D01*
X103273432Y-341676513D01*
X103273429Y-341676507D01*
X103173600Y-341462422D01*
X103173599Y-341462420D01*
X103038113Y-341268926D01*
X103038108Y-341268920D01*
X102871082Y-341101894D01*
X102677578Y-340966399D01*
X102463492Y-340866570D01*
X102463486Y-340866567D01*
X102341349Y-340833841D01*
X102281689Y-340797476D01*
X102251160Y-340734629D01*
X102259455Y-340665253D01*
X102303940Y-340611375D01*
X102337444Y-340595407D01*
X102403954Y-340575232D01*
X102586450Y-340477685D01*
X102746410Y-340346410D01*
X102877685Y-340186450D01*
X102975232Y-340003954D01*
X103035300Y-339805934D01*
X103055583Y-339600000D01*
X103035300Y-339394066D01*
X102975232Y-339196046D01*
X102877685Y-339013550D01*
X102825702Y-338950209D01*
X102746410Y-338853589D01*
X102586452Y-338722317D01*
X102586453Y-338722317D01*
X102586450Y-338722315D01*
X102403954Y-338624768D01*
X102205934Y-338564700D01*
X102205932Y-338564699D01*
X102205934Y-338564699D01*
X102000000Y-338544417D01*
X101794067Y-338564699D01*
X101596043Y-338624769D01*
X101485898Y-338683643D01*
X101413550Y-338722315D01*
X101413548Y-338722316D01*
X101413547Y-338722317D01*
X101253589Y-338853589D01*
X101122317Y-339013547D01*
X101024769Y-339196043D01*
X100964699Y-339394067D01*
X100944417Y-339600000D01*
X100964699Y-339805932D01*
X100964700Y-339805934D01*
X101024768Y-340003954D01*
X101122315Y-340186450D01*
X101122317Y-340186452D01*
X101253589Y-340346410D01*
X101350209Y-340425702D01*
X101413550Y-340477685D01*
X101596046Y-340575232D01*
X101662551Y-340595405D01*
X101720989Y-340633702D01*
X101749446Y-340697514D01*
X101738887Y-340766581D01*
X101692663Y-340818975D01*
X101658650Y-340833841D01*
X101536514Y-340866567D01*
X101536507Y-340866570D01*
X101322422Y-340966399D01*
X101322420Y-340966400D01*
X101128926Y-341101886D01*
X101128920Y-341101891D01*
X100961891Y-341268920D01*
X100961886Y-341268926D01*
X100826400Y-341462420D01*
X100826399Y-341462422D01*
X100726570Y-341676507D01*
X100726567Y-341676513D01*
X100669364Y-341889999D01*
X100250500Y-341889999D01*
X100250500Y-337060000D01*
X100944417Y-337060000D01*
X100964699Y-337265932D01*
X100964700Y-337265934D01*
X101024768Y-337463954D01*
X101122315Y-337646450D01*
X101122317Y-337646452D01*
X101253589Y-337806410D01*
X101350209Y-337885702D01*
X101413550Y-337937685D01*
X101596046Y-338035232D01*
X101794066Y-338095300D01*
X101794065Y-338095300D01*
X101812529Y-338097118D01*
X102000000Y-338115583D01*
X102205934Y-338095300D01*
X102403954Y-338035232D01*
X102586450Y-337937685D01*
X102746410Y-337806410D01*
X102877685Y-337646450D01*
X102975232Y-337463954D01*
X103035300Y-337265934D01*
X103055583Y-337060000D01*
X103035300Y-336854066D01*
X102975232Y-336656046D01*
X102877685Y-336473550D01*
X102825702Y-336410209D01*
X102746410Y-336313589D01*
X102586452Y-336182317D01*
X102586453Y-336182317D01*
X102586450Y-336182315D01*
X102403954Y-336084768D01*
X102205934Y-336024700D01*
X102205932Y-336024699D01*
X102205934Y-336024699D01*
X102000000Y-336004417D01*
X101794067Y-336024699D01*
X101596043Y-336084769D01*
X101485898Y-336143643D01*
X101413550Y-336182315D01*
X101413548Y-336182316D01*
X101413547Y-336182317D01*
X101253589Y-336313589D01*
X101122317Y-336473547D01*
X101024769Y-336656043D01*
X100964699Y-336854067D01*
X100944417Y-337060000D01*
X100250500Y-337060000D01*
X100250500Y-334520000D01*
X100944417Y-334520000D01*
X100964699Y-334725932D01*
X100981846Y-334782457D01*
X101024768Y-334923954D01*
X101122315Y-335106450D01*
X101122317Y-335106452D01*
X101253589Y-335266410D01*
X101350209Y-335345702D01*
X101413550Y-335397685D01*
X101596046Y-335495232D01*
X101794066Y-335555300D01*
X101794065Y-335555300D01*
X101812529Y-335557118D01*
X102000000Y-335575583D01*
X102205934Y-335555300D01*
X102403954Y-335495232D01*
X102586450Y-335397685D01*
X102746410Y-335266410D01*
X102877685Y-335106450D01*
X102975232Y-334923954D01*
X103035300Y-334725934D01*
X103055583Y-334520000D01*
X103035300Y-334314066D01*
X102975232Y-334116046D01*
X102934584Y-334040000D01*
X131344353Y-334040000D01*
X131364834Y-334182456D01*
X131378195Y-334211711D01*
X131424623Y-334313373D01*
X131518872Y-334422143D01*
X131639947Y-334499953D01*
X131639950Y-334499954D01*
X131639949Y-334499954D01*
X131778036Y-334540499D01*
X131778038Y-334540500D01*
X131778039Y-334540500D01*
X131921962Y-334540500D01*
X131921962Y-334540499D01*
X132060053Y-334499953D01*
X132181128Y-334422143D01*
X132275377Y-334313373D01*
X132335165Y-334182457D01*
X132355647Y-334040000D01*
X133344353Y-334040000D01*
X133364834Y-334182456D01*
X133378195Y-334211711D01*
X133424623Y-334313373D01*
X133518872Y-334422143D01*
X133639947Y-334499953D01*
X133639950Y-334499954D01*
X133639949Y-334499954D01*
X133778036Y-334540499D01*
X133778038Y-334540500D01*
X133778039Y-334540500D01*
X133921962Y-334540500D01*
X133921962Y-334540499D01*
X134060053Y-334499953D01*
X134181128Y-334422143D01*
X134275377Y-334313373D01*
X134331720Y-334190000D01*
X189494353Y-334190000D01*
X189514834Y-334332456D01*
X189574622Y-334463371D01*
X189574623Y-334463373D01*
X189668872Y-334572143D01*
X189789947Y-334649953D01*
X189789950Y-334649954D01*
X189789949Y-334649954D01*
X189928036Y-334690499D01*
X189928038Y-334690500D01*
X189928039Y-334690500D01*
X190071962Y-334690500D01*
X190071962Y-334690499D01*
X190210053Y-334649953D01*
X190225540Y-334640000D01*
X194319353Y-334640000D01*
X194339834Y-334782456D01*
X194399622Y-334913371D01*
X194399623Y-334913373D01*
X194493872Y-335022143D01*
X194614947Y-335099953D01*
X194614950Y-335099954D01*
X194614949Y-335099954D01*
X194753036Y-335140499D01*
X194753038Y-335140500D01*
X194753039Y-335140500D01*
X194896962Y-335140500D01*
X194896962Y-335140499D01*
X195035053Y-335099953D01*
X195156128Y-335022143D01*
X195250377Y-334913373D01*
X195310165Y-334782457D01*
X195330647Y-334640000D01*
X195310165Y-334497543D01*
X195250377Y-334366627D01*
X195156128Y-334257857D01*
X195035053Y-334180047D01*
X195035051Y-334180046D01*
X195035049Y-334180045D01*
X195035050Y-334180045D01*
X194896963Y-334139500D01*
X194896961Y-334139500D01*
X194753039Y-334139500D01*
X194753036Y-334139500D01*
X194614949Y-334180045D01*
X194493873Y-334257856D01*
X194399623Y-334366626D01*
X194399622Y-334366628D01*
X194339834Y-334497543D01*
X194319353Y-334640000D01*
X190225540Y-334640000D01*
X190331128Y-334572143D01*
X190425377Y-334463373D01*
X190485165Y-334332457D01*
X190505647Y-334190000D01*
X190485165Y-334047543D01*
X190425377Y-333916627D01*
X190331128Y-333807857D01*
X190210053Y-333730047D01*
X190210051Y-333730046D01*
X190210049Y-333730045D01*
X190210050Y-333730045D01*
X190071963Y-333689500D01*
X190071961Y-333689500D01*
X189928039Y-333689500D01*
X189928036Y-333689500D01*
X189789949Y-333730045D01*
X189668873Y-333807856D01*
X189574623Y-333916626D01*
X189574622Y-333916628D01*
X189514834Y-334047543D01*
X189494353Y-334190000D01*
X134331720Y-334190000D01*
X134335165Y-334182457D01*
X134355647Y-334040000D01*
X134335165Y-333897543D01*
X134275377Y-333766627D01*
X134181128Y-333657857D01*
X134060053Y-333580047D01*
X134060051Y-333580046D01*
X134060049Y-333580045D01*
X134060050Y-333580045D01*
X133921963Y-333539500D01*
X133921961Y-333539500D01*
X133778039Y-333539500D01*
X133778036Y-333539500D01*
X133639949Y-333580045D01*
X133518873Y-333657856D01*
X133424623Y-333766626D01*
X133424622Y-333766628D01*
X133364834Y-333897543D01*
X133344353Y-334040000D01*
X132355647Y-334040000D01*
X132335165Y-333897543D01*
X132275377Y-333766627D01*
X132181128Y-333657857D01*
X132060053Y-333580047D01*
X132060051Y-333580046D01*
X132060049Y-333580045D01*
X132060050Y-333580045D01*
X131921963Y-333539500D01*
X131921961Y-333539500D01*
X131778039Y-333539500D01*
X131778036Y-333539500D01*
X131639949Y-333580045D01*
X131518873Y-333657856D01*
X131424623Y-333766626D01*
X131424622Y-333766628D01*
X131364834Y-333897543D01*
X131344353Y-334040000D01*
X102934584Y-334040000D01*
X102877685Y-333933550D01*
X102825702Y-333870209D01*
X102746410Y-333773589D01*
X102586452Y-333642317D01*
X102586453Y-333642317D01*
X102586450Y-333642315D01*
X102403954Y-333544768D01*
X102205934Y-333484700D01*
X102205932Y-333484699D01*
X102205934Y-333484699D01*
X102000000Y-333464417D01*
X101794067Y-333484699D01*
X101618692Y-333537898D01*
X101613413Y-333539500D01*
X101596043Y-333544769D01*
X101530048Y-333580045D01*
X101413550Y-333642315D01*
X101413548Y-333642316D01*
X101413547Y-333642317D01*
X101253589Y-333773589D01*
X101122317Y-333933547D01*
X101024769Y-334116043D01*
X101024768Y-334116045D01*
X101024768Y-334116046D01*
X101020521Y-334130047D01*
X100964699Y-334314067D01*
X100944417Y-334520000D01*
X100250500Y-334520000D01*
X100250500Y-331980000D01*
X100944417Y-331980000D01*
X100964699Y-332185932D01*
X100968953Y-332199954D01*
X101024768Y-332383954D01*
X101122315Y-332566450D01*
X101122317Y-332566452D01*
X101253589Y-332726410D01*
X101350209Y-332805702D01*
X101413550Y-332857685D01*
X101596046Y-332955232D01*
X101794066Y-333015300D01*
X101794065Y-333015300D01*
X101812529Y-333017118D01*
X102000000Y-333035583D01*
X102205934Y-333015300D01*
X102403954Y-332955232D01*
X102586450Y-332857685D01*
X102746410Y-332726410D01*
X102877685Y-332566450D01*
X102975232Y-332383954D01*
X103035300Y-332185934D01*
X103055583Y-331980000D01*
X103035300Y-331774066D01*
X103024966Y-331740000D01*
X187294353Y-331740000D01*
X187314834Y-331882456D01*
X187359382Y-331980000D01*
X187374623Y-332013373D01*
X187468872Y-332122143D01*
X187589947Y-332199953D01*
X187589950Y-332199954D01*
X187589949Y-332199954D01*
X187728036Y-332240499D01*
X187728038Y-332240500D01*
X187728039Y-332240500D01*
X187871962Y-332240500D01*
X187871962Y-332240499D01*
X188010053Y-332199953D01*
X188131128Y-332122143D01*
X188225377Y-332013373D01*
X188285165Y-331882457D01*
X188291210Y-331840416D01*
X191195500Y-331840416D01*
X191195500Y-331999584D01*
X191199195Y-332013373D01*
X191236696Y-332153329D01*
X191236697Y-332153330D01*
X191316277Y-332291168D01*
X191316279Y-332291171D01*
X191316280Y-332291172D01*
X191428828Y-332403720D01*
X191566672Y-332483304D01*
X191720416Y-332524500D01*
X191720419Y-332524500D01*
X191879581Y-332524500D01*
X191879584Y-332524500D01*
X192033328Y-332483304D01*
X192171172Y-332403720D01*
X192283720Y-332291172D01*
X192363304Y-332153328D01*
X192404500Y-331999584D01*
X192404500Y-331840416D01*
X192363304Y-331686672D01*
X192283720Y-331548828D01*
X192203915Y-331469023D01*
X193404528Y-331469023D01*
X193546233Y-331544766D01*
X193744165Y-331604808D01*
X193950000Y-331625080D01*
X194155834Y-331604808D01*
X194353764Y-331544766D01*
X194495470Y-331469022D01*
X193950001Y-330923553D01*
X193950000Y-330923553D01*
X193404528Y-331469023D01*
X192203915Y-331469023D01*
X192171172Y-331436280D01*
X192171171Y-331436279D01*
X192171168Y-331436277D01*
X192033330Y-331356697D01*
X192033329Y-331356696D01*
X191994892Y-331346397D01*
X191879584Y-331315500D01*
X191720416Y-331315500D01*
X191628169Y-331340217D01*
X191566670Y-331356696D01*
X191566669Y-331356697D01*
X191428831Y-331436277D01*
X191428826Y-331436281D01*
X191316281Y-331548826D01*
X191316277Y-331548831D01*
X191236697Y-331686669D01*
X191236696Y-331686670D01*
X191216098Y-331763544D01*
X191195500Y-331840416D01*
X188291210Y-331840416D01*
X188305647Y-331740000D01*
X188285165Y-331597543D01*
X188226471Y-331469023D01*
X189104528Y-331469023D01*
X189246233Y-331544766D01*
X189444165Y-331604808D01*
X189650000Y-331625080D01*
X189855834Y-331604808D01*
X190053764Y-331544766D01*
X190195470Y-331469022D01*
X189650001Y-330923553D01*
X189650000Y-330923553D01*
X189104528Y-331469023D01*
X188226471Y-331469023D01*
X188225377Y-331466627D01*
X188131128Y-331357857D01*
X188010053Y-331280047D01*
X188010051Y-331280046D01*
X188010049Y-331280045D01*
X188010050Y-331280045D01*
X187871963Y-331239500D01*
X187871961Y-331239500D01*
X187728039Y-331239500D01*
X187728036Y-331239500D01*
X187589949Y-331280045D01*
X187468873Y-331357856D01*
X187374623Y-331466626D01*
X187374622Y-331466628D01*
X187314834Y-331597543D01*
X187294353Y-331740000D01*
X103024966Y-331740000D01*
X102975232Y-331576046D01*
X102877685Y-331393550D01*
X102825702Y-331330209D01*
X102746410Y-331233589D01*
X102596121Y-331110252D01*
X102586450Y-331102315D01*
X102403954Y-331004768D01*
X102205934Y-330944700D01*
X102205932Y-330944699D01*
X102205934Y-330944699D01*
X102000000Y-330924417D01*
X101794067Y-330944699D01*
X101596043Y-331004769D01*
X101508114Y-331051769D01*
X101413550Y-331102315D01*
X101413548Y-331102316D01*
X101413547Y-331102317D01*
X101253589Y-331233589D01*
X101122317Y-331393547D01*
X101024769Y-331576043D01*
X100964699Y-331774067D01*
X100944417Y-331980000D01*
X100250500Y-331980000D01*
X100250500Y-330570000D01*
X188594919Y-330570000D01*
X188615191Y-330775834D01*
X188675233Y-330973766D01*
X188750975Y-331115469D01*
X188750976Y-331115469D01*
X189296447Y-330570000D01*
X189296447Y-330569999D01*
X189250370Y-330523922D01*
X189300000Y-330523922D01*
X189300000Y-330616078D01*
X189323852Y-330705095D01*
X189369930Y-330784905D01*
X189435095Y-330850070D01*
X189514905Y-330896148D01*
X189603922Y-330920000D01*
X189696078Y-330920000D01*
X189785095Y-330896148D01*
X189864905Y-330850070D01*
X189930070Y-330784905D01*
X189976148Y-330705095D01*
X190000000Y-330616078D01*
X190000000Y-330569999D01*
X190003553Y-330569999D01*
X190003553Y-330570000D01*
X190549022Y-331115469D01*
X190624766Y-330973764D01*
X190684808Y-330775834D01*
X190698090Y-330640977D01*
X190724251Y-330576190D01*
X190781285Y-330535831D01*
X190851085Y-330532714D01*
X190856430Y-330534155D01*
X190878036Y-330540499D01*
X190878038Y-330540500D01*
X190878039Y-330540500D01*
X191021962Y-330540500D01*
X191021962Y-330540499D01*
X191160053Y-330499953D01*
X191160061Y-330499947D01*
X191163038Y-330498589D01*
X191166298Y-330498119D01*
X191168563Y-330497455D01*
X191168658Y-330497780D01*
X191232195Y-330488640D01*
X191295754Y-330517659D01*
X191327352Y-330559866D01*
X191374623Y-330663373D01*
X191468872Y-330772143D01*
X191589947Y-330849953D01*
X191589950Y-330849954D01*
X191589949Y-330849954D01*
X191728036Y-330890499D01*
X191728038Y-330890500D01*
X191728039Y-330890500D01*
X191871962Y-330890500D01*
X191871962Y-330890499D01*
X192010053Y-330849953D01*
X192131128Y-330772143D01*
X192225377Y-330663373D01*
X192266009Y-330574400D01*
X192311762Y-330521600D01*
X192378802Y-330501915D01*
X192413735Y-330506937D01*
X192463671Y-330521600D01*
X192528038Y-330540500D01*
X192528039Y-330540500D01*
X192671961Y-330540500D01*
X192742167Y-330519886D01*
X192812036Y-330519886D01*
X192870814Y-330557660D01*
X192899839Y-330621216D01*
X192900504Y-330626709D01*
X192915191Y-330775834D01*
X192975233Y-330973766D01*
X193050975Y-331115469D01*
X193050976Y-331115469D01*
X193596447Y-330570000D01*
X193550369Y-330523922D01*
X193600000Y-330523922D01*
X193600000Y-330616078D01*
X193623852Y-330705095D01*
X193669930Y-330784905D01*
X193735095Y-330850070D01*
X193814905Y-330896148D01*
X193903922Y-330920000D01*
X193996078Y-330920000D01*
X194085095Y-330896148D01*
X194164905Y-330850070D01*
X194230070Y-330784905D01*
X194276148Y-330705095D01*
X194300000Y-330616078D01*
X194300000Y-330569999D01*
X194303553Y-330569999D01*
X194303553Y-330570000D01*
X194862957Y-331129404D01*
X194876503Y-331131290D01*
X194929512Y-331176806D01*
X194949499Y-331243756D01*
X194949500Y-331244315D01*
X194949500Y-332849752D01*
X194961131Y-332908229D01*
X194961132Y-332908230D01*
X195005447Y-332974552D01*
X195071769Y-333018867D01*
X195071770Y-333018868D01*
X195130247Y-333030499D01*
X195130250Y-333030500D01*
X195130252Y-333030500D01*
X196869750Y-333030500D01*
X196869751Y-333030499D01*
X196884568Y-333027552D01*
X196928229Y-333018868D01*
X196928229Y-333018867D01*
X196928231Y-333018867D01*
X196994552Y-332974552D01*
X197038867Y-332908231D01*
X197038867Y-332908229D01*
X197038868Y-332908229D01*
X197050499Y-332849752D01*
X197050500Y-332849750D01*
X197050500Y-331110249D01*
X197050499Y-331110247D01*
X197038868Y-331051770D01*
X197038867Y-331051769D01*
X196994552Y-330985447D01*
X196928230Y-330941132D01*
X196928229Y-330941131D01*
X196869752Y-330929500D01*
X196869748Y-330929500D01*
X195130252Y-330929500D01*
X195130250Y-330929500D01*
X195128761Y-330929796D01*
X195127966Y-330929724D01*
X195124187Y-330930097D01*
X195124116Y-330929380D01*
X195059169Y-330923564D01*
X195003995Y-330880697D01*
X194980754Y-330814806D01*
X194984725Y-330782030D01*
X194983620Y-330781811D01*
X194984807Y-330775840D01*
X195005080Y-330570000D01*
X194984808Y-330364165D01*
X194922999Y-330160408D01*
X194925307Y-330159707D01*
X194918981Y-330100815D01*
X194950261Y-330038338D01*
X195010352Y-330002690D01*
X195080177Y-330005190D01*
X195136863Y-330044177D01*
X195253589Y-330186410D01*
X195350209Y-330265702D01*
X195413550Y-330317685D01*
X195596046Y-330415232D01*
X195794066Y-330475300D01*
X195794065Y-330475300D01*
X195812529Y-330477118D01*
X196000000Y-330495583D01*
X196205934Y-330475300D01*
X196403954Y-330415232D01*
X196586450Y-330317685D01*
X196746410Y-330186410D01*
X196877685Y-330026450D01*
X196975232Y-329843954D01*
X197035300Y-329645934D01*
X197055583Y-329440000D01*
X197035300Y-329234066D01*
X196975232Y-329036046D01*
X196877685Y-328853550D01*
X196825702Y-328790209D01*
X196746410Y-328693589D01*
X196628677Y-328596969D01*
X196586450Y-328562315D01*
X196403954Y-328464768D01*
X196205934Y-328404700D01*
X196205932Y-328404699D01*
X196205934Y-328404699D01*
X196000000Y-328384417D01*
X195794067Y-328404699D01*
X195596043Y-328464769D01*
X195485898Y-328523643D01*
X195413550Y-328562315D01*
X195413548Y-328562316D01*
X195413547Y-328562317D01*
X195253589Y-328693589D01*
X195122317Y-328853547D01*
X195024769Y-329036043D01*
X194964699Y-329234067D01*
X194944417Y-329440000D01*
X194964699Y-329645932D01*
X195024769Y-329843957D01*
X195028605Y-329851133D01*
X195042848Y-329919535D01*
X195017849Y-329984780D01*
X194961545Y-330026151D01*
X194901055Y-330032246D01*
X194849023Y-330024528D01*
X194303553Y-330569999D01*
X194300000Y-330569999D01*
X194300000Y-330523922D01*
X194276148Y-330434905D01*
X194230070Y-330355095D01*
X194164905Y-330289930D01*
X194085095Y-330243852D01*
X193996078Y-330220000D01*
X193903922Y-330220000D01*
X193814905Y-330243852D01*
X193735095Y-330289930D01*
X193669930Y-330355095D01*
X193623852Y-330434905D01*
X193600000Y-330523922D01*
X193550369Y-330523922D01*
X193141412Y-330114965D01*
X193107927Y-330053642D01*
X193106355Y-330044930D01*
X193105646Y-330040002D01*
X193105647Y-330040000D01*
X193085165Y-329897543D01*
X193025377Y-329766627D01*
X192942495Y-329670975D01*
X193404529Y-329670975D01*
X193404529Y-329670976D01*
X193950000Y-330216447D01*
X193950001Y-330216447D01*
X194495469Y-329670976D01*
X194495469Y-329670975D01*
X194353766Y-329595233D01*
X194155834Y-329535191D01*
X193950000Y-329514919D01*
X193744166Y-329535191D01*
X193546234Y-329595234D01*
X193404529Y-329670975D01*
X192942495Y-329670975D01*
X192931128Y-329657857D01*
X192810053Y-329580047D01*
X192810051Y-329580046D01*
X192810049Y-329580045D01*
X192810050Y-329580045D01*
X192671963Y-329539500D01*
X192671961Y-329539500D01*
X192528039Y-329539500D01*
X192528036Y-329539500D01*
X192389949Y-329580045D01*
X192268873Y-329657856D01*
X192174623Y-329766626D01*
X192133991Y-329855597D01*
X192088235Y-329908400D01*
X192021196Y-329928084D01*
X191986263Y-329923061D01*
X191871963Y-329889500D01*
X191871961Y-329889500D01*
X191728039Y-329889500D01*
X191728036Y-329889500D01*
X191589951Y-329930045D01*
X191586949Y-329931416D01*
X191583683Y-329931885D01*
X191581437Y-329932545D01*
X191581342Y-329932221D01*
X191517790Y-329941357D01*
X191454235Y-329912331D01*
X191422646Y-329870131D01*
X191375379Y-329766630D01*
X191375376Y-329766626D01*
X191281128Y-329657857D01*
X191160053Y-329580047D01*
X191160051Y-329580046D01*
X191160049Y-329580045D01*
X191160050Y-329580045D01*
X191021963Y-329539500D01*
X191021961Y-329539500D01*
X190878039Y-329539500D01*
X190878036Y-329539500D01*
X190739949Y-329580045D01*
X190618873Y-329657856D01*
X190524623Y-329766626D01*
X190524622Y-329766628D01*
X190464834Y-329897543D01*
X190444353Y-330040000D01*
X190444353Y-330040001D01*
X190446732Y-330056550D01*
X190436787Y-330125709D01*
X190411675Y-330161876D01*
X190003553Y-330569999D01*
X190000000Y-330569999D01*
X190000000Y-330523922D01*
X189976148Y-330434905D01*
X189930070Y-330355095D01*
X189864905Y-330289930D01*
X189785095Y-330243852D01*
X189696078Y-330220000D01*
X189603922Y-330220000D01*
X189514905Y-330243852D01*
X189435095Y-330289930D01*
X189369930Y-330355095D01*
X189323852Y-330434905D01*
X189300000Y-330523922D01*
X189250370Y-330523922D01*
X188750976Y-330024529D01*
X188750975Y-330024529D01*
X188675234Y-330166234D01*
X188615191Y-330364166D01*
X188594919Y-330570000D01*
X100250500Y-330570000D01*
X100250500Y-329440000D01*
X100944417Y-329440000D01*
X100964699Y-329645932D01*
X100972296Y-329670975D01*
X101024768Y-329843954D01*
X101122315Y-330026450D01*
X101122317Y-330026452D01*
X101253589Y-330186410D01*
X101350209Y-330265702D01*
X101413550Y-330317685D01*
X101596046Y-330415232D01*
X101794066Y-330475300D01*
X101794065Y-330475300D01*
X101812529Y-330477118D01*
X102000000Y-330495583D01*
X102205934Y-330475300D01*
X102403954Y-330415232D01*
X102586450Y-330317685D01*
X102746410Y-330186410D01*
X102877685Y-330026450D01*
X102975232Y-329843954D01*
X103035300Y-329645934D01*
X103055583Y-329440000D01*
X103035300Y-329234066D01*
X102976431Y-329040000D01*
X188394353Y-329040000D01*
X188414834Y-329182456D01*
X188474622Y-329313371D01*
X188474623Y-329313373D01*
X188568872Y-329422143D01*
X188689947Y-329499953D01*
X188689950Y-329499954D01*
X188689949Y-329499954D01*
X188797107Y-329531417D01*
X188824633Y-329539500D01*
X188828036Y-329540499D01*
X188828038Y-329540500D01*
X188980133Y-329540500D01*
X189047172Y-329560185D01*
X189092927Y-329612989D01*
X189100716Y-329667163D01*
X189650000Y-330216447D01*
X189650001Y-330216447D01*
X190195469Y-329670976D01*
X190195469Y-329670975D01*
X190053766Y-329595233D01*
X189855834Y-329535191D01*
X189650000Y-329514919D01*
X189444159Y-329535192D01*
X189433165Y-329538527D01*
X189363299Y-329539148D01*
X189304187Y-329501896D01*
X189274600Y-329438601D01*
X189283929Y-329369357D01*
X189303461Y-329338665D01*
X189325377Y-329313373D01*
X189385165Y-329182457D01*
X189405647Y-329040000D01*
X189385165Y-328897543D01*
X189325377Y-328766627D01*
X189231128Y-328657857D01*
X189110053Y-328580047D01*
X189110051Y-328580046D01*
X189110049Y-328580045D01*
X189110050Y-328580045D01*
X188971963Y-328539500D01*
X188971961Y-328539500D01*
X188828039Y-328539500D01*
X188828036Y-328539500D01*
X188689949Y-328580045D01*
X188568873Y-328657856D01*
X188474623Y-328766626D01*
X188474622Y-328766628D01*
X188414834Y-328897543D01*
X188394353Y-329040000D01*
X102976431Y-329040000D01*
X102975232Y-329036046D01*
X102877685Y-328853550D01*
X102825702Y-328790209D01*
X102746410Y-328693589D01*
X102628677Y-328596969D01*
X102586450Y-328562315D01*
X102403954Y-328464768D01*
X102205934Y-328404700D01*
X102205932Y-328404699D01*
X102205934Y-328404699D01*
X102000000Y-328384417D01*
X101794067Y-328404699D01*
X101596043Y-328464769D01*
X101485898Y-328523643D01*
X101413550Y-328562315D01*
X101413548Y-328562316D01*
X101413547Y-328562317D01*
X101253589Y-328693589D01*
X101122317Y-328853547D01*
X101024769Y-329036043D01*
X100964699Y-329234067D01*
X100944417Y-329440000D01*
X100250500Y-329440000D01*
X100250500Y-326900000D01*
X100944417Y-326900000D01*
X100964699Y-327105932D01*
X100979090Y-327153373D01*
X101024768Y-327303954D01*
X101122315Y-327486450D01*
X101122317Y-327486452D01*
X101253589Y-327646410D01*
X101350209Y-327725702D01*
X101413550Y-327777685D01*
X101596046Y-327875232D01*
X101794066Y-327935300D01*
X101794065Y-327935300D01*
X101812529Y-327937118D01*
X102000000Y-327955583D01*
X102205934Y-327935300D01*
X102403954Y-327875232D01*
X102586450Y-327777685D01*
X102746410Y-327646410D01*
X102877685Y-327486450D01*
X102975232Y-327303954D01*
X103035300Y-327105934D01*
X103055583Y-326900000D01*
X103035300Y-326694066D01*
X102975232Y-326496046D01*
X102972000Y-326490000D01*
X120919353Y-326490000D01*
X120939834Y-326632456D01*
X120991125Y-326744766D01*
X120999623Y-326763373D01*
X121093872Y-326872143D01*
X121214947Y-326949953D01*
X121214950Y-326949954D01*
X121214949Y-326949954D01*
X121353036Y-326990499D01*
X121353038Y-326990500D01*
X121353039Y-326990500D01*
X121496962Y-326990500D01*
X121496962Y-326990499D01*
X121635053Y-326949953D01*
X121756128Y-326872143D01*
X121850377Y-326763373D01*
X121910165Y-326632457D01*
X121930647Y-326490000D01*
X122644353Y-326490000D01*
X122664834Y-326632456D01*
X122716125Y-326744766D01*
X122724623Y-326763373D01*
X122818872Y-326872143D01*
X122939947Y-326949953D01*
X122939950Y-326949954D01*
X122939949Y-326949954D01*
X123078036Y-326990499D01*
X123078038Y-326990500D01*
X123078039Y-326990500D01*
X123221962Y-326990500D01*
X123221962Y-326990499D01*
X123360053Y-326949953D01*
X123481128Y-326872143D01*
X123575377Y-326763373D01*
X123635165Y-326632457D01*
X123655647Y-326490000D01*
X124394353Y-326490000D01*
X124414834Y-326632456D01*
X124466125Y-326744766D01*
X124474623Y-326763373D01*
X124568872Y-326872143D01*
X124689947Y-326949953D01*
X124689950Y-326949954D01*
X124689949Y-326949954D01*
X124828036Y-326990499D01*
X124828038Y-326990500D01*
X124828039Y-326990500D01*
X124971962Y-326990500D01*
X124971962Y-326990499D01*
X125110053Y-326949953D01*
X125231128Y-326872143D01*
X125325377Y-326763373D01*
X125385165Y-326632457D01*
X125405647Y-326490000D01*
X126119353Y-326490000D01*
X126139834Y-326632456D01*
X126191125Y-326744766D01*
X126199623Y-326763373D01*
X126293872Y-326872143D01*
X126414947Y-326949953D01*
X126414950Y-326949954D01*
X126414949Y-326949954D01*
X126553036Y-326990499D01*
X126553038Y-326990500D01*
X126553039Y-326990500D01*
X126696962Y-326990500D01*
X126696962Y-326990499D01*
X126835053Y-326949953D01*
X126943902Y-326880000D01*
X186884353Y-326880000D01*
X186904834Y-327022456D01*
X186942957Y-327105932D01*
X186964623Y-327153373D01*
X187058872Y-327262143D01*
X187179947Y-327339953D01*
X187179950Y-327339954D01*
X187179949Y-327339954D01*
X187318036Y-327380499D01*
X187318038Y-327380500D01*
X187318039Y-327380500D01*
X187461962Y-327380500D01*
X187461962Y-327380499D01*
X187600053Y-327339953D01*
X187721128Y-327262143D01*
X187815377Y-327153373D01*
X187875165Y-327022457D01*
X187895647Y-326880000D01*
X187875165Y-326737543D01*
X187843873Y-326669023D01*
X189104528Y-326669023D01*
X189246233Y-326744766D01*
X189444165Y-326804808D01*
X189650000Y-326825080D01*
X189855834Y-326804808D01*
X190053764Y-326744766D01*
X190195470Y-326669022D01*
X189966448Y-326440000D01*
X191294353Y-326440000D01*
X191314834Y-326582456D01*
X191374622Y-326713371D01*
X191374623Y-326713373D01*
X191468872Y-326822143D01*
X191589947Y-326899953D01*
X191589950Y-326899954D01*
X191589949Y-326899954D01*
X191728036Y-326940499D01*
X191728038Y-326940500D01*
X191728039Y-326940500D01*
X191871962Y-326940500D01*
X191871962Y-326940499D01*
X192010053Y-326899953D01*
X192131128Y-326822143D01*
X192201459Y-326740975D01*
X192260237Y-326703201D01*
X192330106Y-326703201D01*
X192362211Y-326717862D01*
X192368871Y-326722142D01*
X192368872Y-326722143D01*
X192489947Y-326799953D01*
X192489950Y-326799954D01*
X192489949Y-326799954D01*
X192628036Y-326840499D01*
X192628038Y-326840500D01*
X192628039Y-326840500D01*
X192771962Y-326840500D01*
X192771962Y-326840499D01*
X192910053Y-326799953D01*
X193031128Y-326722143D01*
X193125377Y-326613373D01*
X193125376Y-326613373D01*
X193128253Y-326610054D01*
X193187031Y-326572279D01*
X193256900Y-326572279D01*
X193300632Y-326595403D01*
X193363832Y-326647270D01*
X193363833Y-326647271D01*
X193546233Y-326744766D01*
X193744165Y-326804808D01*
X193950000Y-326825080D01*
X194155834Y-326804808D01*
X194353764Y-326744766D01*
X194495469Y-326669022D01*
X193946447Y-326120000D01*
X193996078Y-326120000D01*
X194085095Y-326096148D01*
X194164905Y-326050070D01*
X194230070Y-325984905D01*
X194276148Y-325905095D01*
X194300000Y-325816078D01*
X194300000Y-325769999D01*
X194303553Y-325769999D01*
X194303553Y-325770000D01*
X194849022Y-326315469D01*
X194901054Y-326307752D01*
X194970256Y-326317387D01*
X195023263Y-326362906D01*
X195043247Y-326429857D01*
X195028609Y-326488858D01*
X195024769Y-326496041D01*
X194964699Y-326694067D01*
X194944417Y-326900000D01*
X194964699Y-327105932D01*
X194979090Y-327153373D01*
X195024768Y-327303954D01*
X195122315Y-327486450D01*
X195122317Y-327486452D01*
X195253589Y-327646410D01*
X195350209Y-327725702D01*
X195413550Y-327777685D01*
X195596046Y-327875232D01*
X195794066Y-327935300D01*
X195794065Y-327935300D01*
X195812529Y-327937118D01*
X196000000Y-327955583D01*
X196205934Y-327935300D01*
X196403954Y-327875232D01*
X196586450Y-327777685D01*
X196746410Y-327646410D01*
X196877685Y-327486450D01*
X196975232Y-327303954D01*
X197035300Y-327105934D01*
X197055583Y-326900000D01*
X197035300Y-326694066D01*
X196975232Y-326496046D01*
X196877685Y-326313550D01*
X196798142Y-326216626D01*
X196746410Y-326153589D01*
X196606810Y-326039024D01*
X196586450Y-326022315D01*
X196403954Y-325924768D01*
X196205934Y-325864700D01*
X196205932Y-325864699D01*
X196205934Y-325864699D01*
X196000000Y-325844417D01*
X195794067Y-325864699D01*
X195596043Y-325924769D01*
X195500509Y-325975834D01*
X195413550Y-326022315D01*
X195413548Y-326022316D01*
X195413547Y-326022317D01*
X195253589Y-326153590D01*
X195136862Y-326295823D01*
X195079117Y-326335157D01*
X195009272Y-326337028D01*
X194949504Y-326300841D01*
X194918788Y-326238085D01*
X194925267Y-326180280D01*
X194922999Y-326179592D01*
X194984808Y-325975834D01*
X195005080Y-325770000D01*
X194984808Y-325564165D01*
X194924766Y-325366233D01*
X194849023Y-325224528D01*
X194303553Y-325769999D01*
X194300000Y-325769999D01*
X194300000Y-325723922D01*
X194276148Y-325634905D01*
X194230070Y-325555095D01*
X194164905Y-325489930D01*
X194085095Y-325443852D01*
X193996078Y-325420000D01*
X193903922Y-325420000D01*
X193814905Y-325443852D01*
X193735095Y-325489930D01*
X193669930Y-325555095D01*
X193623852Y-325634905D01*
X193600000Y-325723922D01*
X193600000Y-325773553D01*
X193050976Y-325224529D01*
X193050975Y-325224529D01*
X192975234Y-325366234D01*
X192915191Y-325564166D01*
X192899090Y-325727654D01*
X192872929Y-325792441D01*
X192815895Y-325832800D01*
X192775687Y-325839500D01*
X192628036Y-325839500D01*
X192489949Y-325880045D01*
X192368872Y-325957857D01*
X192368869Y-325957859D01*
X192298539Y-326039024D01*
X192239761Y-326076798D01*
X192169891Y-326076798D01*
X192137788Y-326062137D01*
X192101823Y-326039024D01*
X192010053Y-325980047D01*
X192010051Y-325980046D01*
X192010049Y-325980045D01*
X192010050Y-325980045D01*
X191871963Y-325939500D01*
X191871961Y-325939500D01*
X191728039Y-325939500D01*
X191728036Y-325939500D01*
X191589949Y-325980045D01*
X191468873Y-326057856D01*
X191374623Y-326166626D01*
X191374622Y-326166628D01*
X191314834Y-326297543D01*
X191294353Y-326440000D01*
X189966448Y-326440000D01*
X189650001Y-326123553D01*
X189650000Y-326123553D01*
X189104528Y-326669023D01*
X187843873Y-326669023D01*
X187815377Y-326606627D01*
X187721128Y-326497857D01*
X187600053Y-326420047D01*
X187600051Y-326420046D01*
X187600049Y-326420045D01*
X187600050Y-326420045D01*
X187461963Y-326379500D01*
X187461961Y-326379500D01*
X187318039Y-326379500D01*
X187318036Y-326379500D01*
X187179949Y-326420045D01*
X187058873Y-326497856D01*
X186964623Y-326606626D01*
X186964622Y-326606628D01*
X186904834Y-326737543D01*
X186884353Y-326880000D01*
X126943902Y-326880000D01*
X126956128Y-326872143D01*
X127050377Y-326763373D01*
X127110165Y-326632457D01*
X127130647Y-326490000D01*
X127110165Y-326347543D01*
X127050377Y-326216627D01*
X126956128Y-326107857D01*
X126835053Y-326030047D01*
X126835051Y-326030046D01*
X126835049Y-326030045D01*
X126835050Y-326030045D01*
X126696963Y-325989500D01*
X126696961Y-325989500D01*
X126553039Y-325989500D01*
X126553036Y-325989500D01*
X126414949Y-326030045D01*
X126293873Y-326107856D01*
X126199623Y-326216626D01*
X126199622Y-326216628D01*
X126139834Y-326347543D01*
X126119353Y-326490000D01*
X125405647Y-326490000D01*
X125385165Y-326347543D01*
X125325377Y-326216627D01*
X125231128Y-326107857D01*
X125110053Y-326030047D01*
X125110051Y-326030046D01*
X125110049Y-326030045D01*
X125110050Y-326030045D01*
X124971963Y-325989500D01*
X124971961Y-325989500D01*
X124828039Y-325989500D01*
X124828036Y-325989500D01*
X124689949Y-326030045D01*
X124568873Y-326107856D01*
X124474623Y-326216626D01*
X124474622Y-326216628D01*
X124414834Y-326347543D01*
X124394353Y-326490000D01*
X123655647Y-326490000D01*
X123635165Y-326347543D01*
X123575377Y-326216627D01*
X123481128Y-326107857D01*
X123360053Y-326030047D01*
X123360051Y-326030046D01*
X123360049Y-326030045D01*
X123360050Y-326030045D01*
X123221963Y-325989500D01*
X123221961Y-325989500D01*
X123078039Y-325989500D01*
X123078036Y-325989500D01*
X122939949Y-326030045D01*
X122818873Y-326107856D01*
X122724623Y-326216626D01*
X122724622Y-326216628D01*
X122664834Y-326347543D01*
X122644353Y-326490000D01*
X121930647Y-326490000D01*
X121910165Y-326347543D01*
X121850377Y-326216627D01*
X121756128Y-326107857D01*
X121635053Y-326030047D01*
X121635051Y-326030046D01*
X121635049Y-326030045D01*
X121635050Y-326030045D01*
X121496963Y-325989500D01*
X121496961Y-325989500D01*
X121353039Y-325989500D01*
X121353036Y-325989500D01*
X121214949Y-326030045D01*
X121093873Y-326107856D01*
X120999623Y-326216626D01*
X120999622Y-326216628D01*
X120939834Y-326347543D01*
X120919353Y-326490000D01*
X102972000Y-326490000D01*
X102877685Y-326313550D01*
X102798142Y-326216626D01*
X102746410Y-326153589D01*
X102606810Y-326039024D01*
X102586450Y-326022315D01*
X102403954Y-325924768D01*
X102205934Y-325864700D01*
X102205932Y-325864699D01*
X102205934Y-325864699D01*
X102000000Y-325844417D01*
X101794067Y-325864699D01*
X101596043Y-325924769D01*
X101500509Y-325975834D01*
X101413550Y-326022315D01*
X101413548Y-326022316D01*
X101413547Y-326022317D01*
X101253589Y-326153589D01*
X101127073Y-326307752D01*
X101122315Y-326313550D01*
X101087064Y-326379500D01*
X101024769Y-326496043D01*
X100964699Y-326694067D01*
X100944417Y-326900000D01*
X100250500Y-326900000D01*
X100250500Y-324360000D01*
X100944417Y-324360000D01*
X100964699Y-324565932D01*
X100990074Y-324649581D01*
X101024768Y-324763954D01*
X101122315Y-324946450D01*
X101122317Y-324946452D01*
X101253589Y-325106410D01*
X101336558Y-325174500D01*
X101413550Y-325237685D01*
X101596046Y-325335232D01*
X101794066Y-325395300D01*
X101794065Y-325395300D01*
X101812529Y-325397118D01*
X102000000Y-325415583D01*
X102205934Y-325395300D01*
X102403954Y-325335232D01*
X102586450Y-325237685D01*
X102746410Y-325106410D01*
X102877685Y-324946450D01*
X102975232Y-324763954D01*
X102981790Y-324742334D01*
X116791233Y-324742334D01*
X116811714Y-324884790D01*
X116837464Y-324941173D01*
X116871503Y-325015707D01*
X116965752Y-325124477D01*
X117086827Y-325202287D01*
X117086830Y-325202288D01*
X117086829Y-325202288D01*
X117224916Y-325242833D01*
X117224918Y-325242834D01*
X117224919Y-325242834D01*
X117368842Y-325242834D01*
X117368842Y-325242833D01*
X117476001Y-325211369D01*
X117506930Y-325202288D01*
X117506930Y-325202287D01*
X117506933Y-325202287D01*
X117628008Y-325124477D01*
X117679545Y-325065000D01*
X131494353Y-325065000D01*
X131514834Y-325207456D01*
X131574622Y-325338371D01*
X131574623Y-325338373D01*
X131668872Y-325447143D01*
X131789947Y-325524953D01*
X131789950Y-325524954D01*
X131789949Y-325524954D01*
X131892602Y-325555095D01*
X131923492Y-325564165D01*
X131928036Y-325565499D01*
X131928038Y-325565500D01*
X131928039Y-325565500D01*
X132071962Y-325565500D01*
X132071962Y-325565499D01*
X132210053Y-325524953D01*
X132331128Y-325447143D01*
X132425377Y-325338373D01*
X132485165Y-325207457D01*
X132505647Y-325065000D01*
X132485165Y-324922543D01*
X132425377Y-324791627D01*
X132331128Y-324682857D01*
X132210053Y-324605047D01*
X132210051Y-324605046D01*
X132210049Y-324605045D01*
X132210050Y-324605045D01*
X132071963Y-324564500D01*
X132071961Y-324564500D01*
X131928039Y-324564500D01*
X131928036Y-324564500D01*
X131789949Y-324605045D01*
X131668873Y-324682856D01*
X131574623Y-324791626D01*
X131574622Y-324791628D01*
X131514834Y-324922543D01*
X131494353Y-325065000D01*
X117679545Y-325065000D01*
X117722257Y-325015707D01*
X117782045Y-324884791D01*
X117802527Y-324742334D01*
X117782045Y-324599877D01*
X117722257Y-324468961D01*
X117628008Y-324360191D01*
X117506933Y-324282381D01*
X117506931Y-324282380D01*
X117506929Y-324282379D01*
X117506930Y-324282379D01*
X117368843Y-324241834D01*
X117368841Y-324241834D01*
X117224919Y-324241834D01*
X117224916Y-324241834D01*
X117086829Y-324282379D01*
X116965753Y-324360190D01*
X116871503Y-324468960D01*
X116871502Y-324468962D01*
X116811714Y-324599877D01*
X116791233Y-324742334D01*
X102981790Y-324742334D01*
X103035300Y-324565934D01*
X103055583Y-324360000D01*
X103035300Y-324154066D01*
X102975232Y-323956046D01*
X102942734Y-323895247D01*
X140724500Y-323895247D01*
X140724500Y-325634752D01*
X140736131Y-325693229D01*
X140736132Y-325693230D01*
X140780447Y-325759552D01*
X140846769Y-325803867D01*
X140846770Y-325803868D01*
X140905247Y-325815499D01*
X140905250Y-325815500D01*
X140905252Y-325815500D01*
X142644750Y-325815500D01*
X142644751Y-325815499D01*
X142659568Y-325812552D01*
X142703229Y-325803868D01*
X142703229Y-325803867D01*
X142703231Y-325803867D01*
X142753916Y-325770000D01*
X188594919Y-325770000D01*
X188615191Y-325975834D01*
X188675233Y-326173766D01*
X188750975Y-326315469D01*
X188750976Y-326315469D01*
X189296447Y-325770000D01*
X189296447Y-325769999D01*
X189250370Y-325723922D01*
X189300000Y-325723922D01*
X189300000Y-325816078D01*
X189323852Y-325905095D01*
X189369930Y-325984905D01*
X189435095Y-326050070D01*
X189514905Y-326096148D01*
X189603922Y-326120000D01*
X189696078Y-326120000D01*
X189785095Y-326096148D01*
X189864905Y-326050070D01*
X189930070Y-325984905D01*
X189976148Y-325905095D01*
X190000000Y-325816078D01*
X190000000Y-325769999D01*
X190003553Y-325769999D01*
X190003553Y-325770000D01*
X190549022Y-326315469D01*
X190624766Y-326173764D01*
X190684808Y-325975834D01*
X190705080Y-325770000D01*
X190684808Y-325564165D01*
X190624766Y-325366233D01*
X190549023Y-325224528D01*
X190003553Y-325769999D01*
X190000000Y-325769999D01*
X190000000Y-325723922D01*
X189976148Y-325634905D01*
X189930070Y-325555095D01*
X189864905Y-325489930D01*
X189785095Y-325443852D01*
X189696078Y-325420000D01*
X189603922Y-325420000D01*
X189514905Y-325443852D01*
X189435095Y-325489930D01*
X189369930Y-325555095D01*
X189323852Y-325634905D01*
X189300000Y-325723922D01*
X189250370Y-325723922D01*
X188750976Y-325224529D01*
X188750975Y-325224529D01*
X188675234Y-325366234D01*
X188615191Y-325564166D01*
X188594919Y-325770000D01*
X142753916Y-325770000D01*
X142769552Y-325759552D01*
X142813867Y-325693231D01*
X142813867Y-325693229D01*
X142813868Y-325693229D01*
X142825499Y-325634752D01*
X142825500Y-325634750D01*
X142825500Y-324870975D01*
X189104529Y-324870975D01*
X189104529Y-324870976D01*
X189650000Y-325416447D01*
X189650001Y-325416447D01*
X190195469Y-324870976D01*
X190195469Y-324870975D01*
X190053766Y-324795233D01*
X189855834Y-324735191D01*
X189650000Y-324714919D01*
X189444166Y-324735191D01*
X189246234Y-324795234D01*
X189104529Y-324870975D01*
X142825500Y-324870975D01*
X142825500Y-324190416D01*
X191195500Y-324190416D01*
X191195500Y-324649584D01*
X191204416Y-324682857D01*
X191236696Y-324803329D01*
X191236697Y-324803330D01*
X191316277Y-324941168D01*
X191316279Y-324941171D01*
X191316280Y-324941172D01*
X191428828Y-325053720D01*
X191428829Y-325053721D01*
X191428831Y-325053722D01*
X191497750Y-325093512D01*
X191566672Y-325133304D01*
X191720416Y-325174500D01*
X191720419Y-325174500D01*
X191879581Y-325174500D01*
X191879584Y-325174500D01*
X192033328Y-325133304D01*
X192171172Y-325053720D01*
X192283720Y-324941172D01*
X192324248Y-324870975D01*
X193404529Y-324870975D01*
X193404529Y-324870976D01*
X193950000Y-325416447D01*
X193950001Y-325416447D01*
X194495469Y-324870976D01*
X194495469Y-324870975D01*
X194353766Y-324795233D01*
X194155834Y-324735191D01*
X193950000Y-324714919D01*
X193744166Y-324735191D01*
X193546234Y-324795234D01*
X193404529Y-324870975D01*
X192324248Y-324870975D01*
X192363304Y-324803328D01*
X192404500Y-324649584D01*
X192404500Y-324360000D01*
X194944417Y-324360000D01*
X194964699Y-324565932D01*
X194990074Y-324649581D01*
X195024768Y-324763954D01*
X195122315Y-324946450D01*
X195122317Y-324946452D01*
X195253589Y-325106410D01*
X195336558Y-325174500D01*
X195413550Y-325237685D01*
X195596046Y-325335232D01*
X195794066Y-325395300D01*
X195794065Y-325395300D01*
X195812529Y-325397118D01*
X196000000Y-325415583D01*
X196205934Y-325395300D01*
X196403954Y-325335232D01*
X196586450Y-325237685D01*
X196746410Y-325106410D01*
X196877685Y-324946450D01*
X196975232Y-324763954D01*
X197035300Y-324565934D01*
X197055583Y-324360000D01*
X197035300Y-324154066D01*
X196975232Y-323956046D01*
X196877685Y-323773550D01*
X196825702Y-323710209D01*
X196746410Y-323613589D01*
X196586452Y-323482317D01*
X196586453Y-323482317D01*
X196586450Y-323482315D01*
X196403954Y-323384768D01*
X196205934Y-323324700D01*
X196205932Y-323324699D01*
X196205934Y-323324699D01*
X196000000Y-323304417D01*
X195794067Y-323324699D01*
X195596043Y-323384769D01*
X195485898Y-323443643D01*
X195413550Y-323482315D01*
X195413548Y-323482316D01*
X195413547Y-323482317D01*
X195253589Y-323613589D01*
X195122317Y-323773547D01*
X195122315Y-323773550D01*
X195115511Y-323786280D01*
X195024769Y-323956043D01*
X194964699Y-324154067D01*
X194944417Y-324360000D01*
X192404500Y-324360000D01*
X192404500Y-324190416D01*
X192363304Y-324036672D01*
X192283720Y-323898828D01*
X192171172Y-323786280D01*
X192171171Y-323786279D01*
X192171168Y-323786277D01*
X192033330Y-323706697D01*
X192033329Y-323706696D01*
X191994892Y-323696397D01*
X191879584Y-323665500D01*
X191720416Y-323665500D01*
X191628169Y-323690217D01*
X191566670Y-323706696D01*
X191566669Y-323706697D01*
X191428831Y-323786277D01*
X191428826Y-323786281D01*
X191316281Y-323898826D01*
X191316277Y-323898831D01*
X191236697Y-324036669D01*
X191236696Y-324036670D01*
X191216098Y-324113544D01*
X191195500Y-324190416D01*
X142825500Y-324190416D01*
X142825500Y-323895249D01*
X142825499Y-323895247D01*
X142813868Y-323836770D01*
X142813867Y-323836769D01*
X142769552Y-323770447D01*
X142703230Y-323726132D01*
X142703229Y-323726131D01*
X142644752Y-323714500D01*
X142644748Y-323714500D01*
X140905252Y-323714500D01*
X140905247Y-323714500D01*
X140846770Y-323726131D01*
X140846769Y-323726132D01*
X140780447Y-323770447D01*
X140736132Y-323836769D01*
X140736131Y-323836770D01*
X140724500Y-323895247D01*
X102942734Y-323895247D01*
X102877685Y-323773550D01*
X102825702Y-323710209D01*
X102746410Y-323613589D01*
X102586452Y-323482317D01*
X102586453Y-323482317D01*
X102586450Y-323482315D01*
X102403954Y-323384768D01*
X102205934Y-323324700D01*
X102205932Y-323324699D01*
X102205934Y-323324699D01*
X102000000Y-323304417D01*
X101794067Y-323324699D01*
X101596043Y-323384769D01*
X101485898Y-323443643D01*
X101413550Y-323482315D01*
X101413548Y-323482316D01*
X101413547Y-323482317D01*
X101253589Y-323613589D01*
X101122317Y-323773547D01*
X101122315Y-323773550D01*
X101115511Y-323786280D01*
X101024769Y-323956043D01*
X100964699Y-324154067D01*
X100944417Y-324360000D01*
X100250500Y-324360000D01*
X100250500Y-321820000D01*
X100944417Y-321820000D01*
X100964699Y-322025932D01*
X100964700Y-322025934D01*
X101024768Y-322223954D01*
X101122315Y-322406450D01*
X101156969Y-322448677D01*
X101253589Y-322566410D01*
X101329803Y-322628956D01*
X101413550Y-322697685D01*
X101596046Y-322795232D01*
X101794066Y-322855300D01*
X101794065Y-322855300D01*
X101812529Y-322857118D01*
X102000000Y-322875583D01*
X102205934Y-322855300D01*
X102403954Y-322795232D01*
X102586450Y-322697685D01*
X102746410Y-322566410D01*
X102877685Y-322406450D01*
X102974673Y-322225000D01*
X140719417Y-322225000D01*
X140739699Y-322430932D01*
X140739700Y-322430934D01*
X140799768Y-322628954D01*
X140897315Y-322811450D01*
X140897317Y-322811452D01*
X141028589Y-322971410D01*
X141125209Y-323050702D01*
X141188550Y-323102685D01*
X141371046Y-323200232D01*
X141569066Y-323260300D01*
X141569065Y-323260300D01*
X141587529Y-323262118D01*
X141775000Y-323280583D01*
X141980934Y-323260300D01*
X142178954Y-323200232D01*
X142361450Y-323102685D01*
X142521410Y-322971410D01*
X142652685Y-322811450D01*
X142750232Y-322628954D01*
X142810300Y-322430934D01*
X142830583Y-322225000D01*
X142821226Y-322130000D01*
X179734353Y-322130000D01*
X179754834Y-322272456D01*
X179814622Y-322403371D01*
X179814623Y-322403373D01*
X179908872Y-322512143D01*
X180029947Y-322589953D01*
X180029950Y-322589954D01*
X180029949Y-322589954D01*
X180168036Y-322630499D01*
X180168038Y-322630500D01*
X180168039Y-322630500D01*
X180311962Y-322630500D01*
X180311962Y-322630499D01*
X180450053Y-322589953D01*
X180571128Y-322512143D01*
X180665377Y-322403373D01*
X180725165Y-322272457D01*
X180745647Y-322130000D01*
X180725165Y-321987543D01*
X180665377Y-321856627D01*
X180571128Y-321747857D01*
X180450053Y-321670047D01*
X180450051Y-321670046D01*
X180450049Y-321670045D01*
X180450050Y-321670045D01*
X180311963Y-321629500D01*
X180311961Y-321629500D01*
X180168039Y-321629500D01*
X180168036Y-321629500D01*
X180029949Y-321670045D01*
X179908873Y-321747856D01*
X179814623Y-321856626D01*
X179814622Y-321856628D01*
X179754834Y-321987543D01*
X179734353Y-322130000D01*
X142821226Y-322130000D01*
X142810300Y-322019066D01*
X142750232Y-321821046D01*
X142652685Y-321638550D01*
X142600702Y-321575209D01*
X142521410Y-321478589D01*
X142361452Y-321347317D01*
X142361453Y-321347317D01*
X142361450Y-321347315D01*
X142178954Y-321249768D01*
X141980934Y-321189700D01*
X141980932Y-321189699D01*
X141980934Y-321189699D01*
X141775000Y-321169417D01*
X141569067Y-321189699D01*
X141371043Y-321249769D01*
X141260898Y-321308643D01*
X141188550Y-321347315D01*
X141188548Y-321347316D01*
X141188547Y-321347317D01*
X141028589Y-321478589D01*
X140904742Y-321629500D01*
X140897315Y-321638550D01*
X140858643Y-321710898D01*
X140799769Y-321821043D01*
X140739699Y-322019067D01*
X140719417Y-322225000D01*
X102974673Y-322225000D01*
X102975232Y-322223954D01*
X103035300Y-322025934D01*
X103055583Y-321820000D01*
X103035300Y-321614066D01*
X102975232Y-321416046D01*
X102877685Y-321233550D01*
X102825053Y-321169417D01*
X102746410Y-321073589D01*
X102586452Y-320942317D01*
X102586453Y-320942317D01*
X102586450Y-320942315D01*
X102403954Y-320844768D01*
X102205934Y-320784700D01*
X102205932Y-320784699D01*
X102205934Y-320784699D01*
X102000000Y-320764417D01*
X101794067Y-320784699D01*
X101596043Y-320844769D01*
X101485898Y-320903643D01*
X101413550Y-320942315D01*
X101413548Y-320942316D01*
X101413547Y-320942317D01*
X101253589Y-321073589D01*
X101122317Y-321233547D01*
X101122315Y-321233550D01*
X101113646Y-321249769D01*
X101024769Y-321416043D01*
X100964699Y-321614067D01*
X100944417Y-321820000D01*
X100250500Y-321820000D01*
X100250500Y-319280000D01*
X100944417Y-319280000D01*
X100964699Y-319485932D01*
X100964700Y-319485934D01*
X101024768Y-319683954D01*
X101122315Y-319866450D01*
X101156969Y-319908677D01*
X101253589Y-320026410D01*
X101329803Y-320088956D01*
X101413550Y-320157685D01*
X101596046Y-320255232D01*
X101794066Y-320315300D01*
X101794065Y-320315300D01*
X101812529Y-320317118D01*
X102000000Y-320335583D01*
X102205934Y-320315300D01*
X102403954Y-320255232D01*
X102586450Y-320157685D01*
X102746410Y-320026410D01*
X102877685Y-319866450D01*
X102975232Y-319683954D01*
X103035300Y-319485934D01*
X103055583Y-319280000D01*
X103054106Y-319265000D01*
X131594353Y-319265000D01*
X131614834Y-319407456D01*
X131674622Y-319538371D01*
X131674623Y-319538373D01*
X131768872Y-319647143D01*
X131889947Y-319724953D01*
X131889950Y-319724954D01*
X131889949Y-319724954D01*
X132028036Y-319765499D01*
X132028038Y-319765500D01*
X132028039Y-319765500D01*
X132171962Y-319765500D01*
X132171962Y-319765499D01*
X132310053Y-319724953D01*
X132372221Y-319685000D01*
X140719417Y-319685000D01*
X140739699Y-319890932D01*
X140739700Y-319890934D01*
X140799768Y-320088954D01*
X140897315Y-320271450D01*
X140897317Y-320271452D01*
X141028589Y-320431410D01*
X141125209Y-320510702D01*
X141188550Y-320562685D01*
X141371046Y-320660232D01*
X141569066Y-320720300D01*
X141569065Y-320720300D01*
X141587529Y-320722118D01*
X141775000Y-320740583D01*
X141980934Y-320720300D01*
X142178954Y-320660232D01*
X142361450Y-320562685D01*
X142521410Y-320431410D01*
X142652685Y-320271450D01*
X142750232Y-320088954D01*
X142810300Y-319890934D01*
X142830583Y-319685000D01*
X142810300Y-319479066D01*
X142750232Y-319281046D01*
X142652685Y-319098550D01*
X142564936Y-318991627D01*
X142521410Y-318938589D01*
X142361452Y-318807317D01*
X142361453Y-318807317D01*
X142361450Y-318807315D01*
X142178954Y-318709768D01*
X141980934Y-318649700D01*
X141980932Y-318649699D01*
X141980934Y-318649699D01*
X141775000Y-318629417D01*
X141569067Y-318649699D01*
X141371043Y-318709769D01*
X141260898Y-318768643D01*
X141188550Y-318807315D01*
X141188548Y-318807316D01*
X141188547Y-318807317D01*
X141028589Y-318938589D01*
X140897317Y-319098547D01*
X140897315Y-319098550D01*
X140858643Y-319170898D01*
X140799769Y-319281043D01*
X140739699Y-319479067D01*
X140719417Y-319685000D01*
X132372221Y-319685000D01*
X132431128Y-319647143D01*
X132525377Y-319538373D01*
X132585165Y-319407457D01*
X132605647Y-319265000D01*
X132585165Y-319122543D01*
X132525377Y-318991627D01*
X132431128Y-318882857D01*
X132310053Y-318805047D01*
X132310051Y-318805046D01*
X132310049Y-318805045D01*
X132310050Y-318805045D01*
X132171963Y-318764500D01*
X132171961Y-318764500D01*
X132028039Y-318764500D01*
X132028036Y-318764500D01*
X131889949Y-318805045D01*
X131768873Y-318882856D01*
X131674623Y-318991626D01*
X131674622Y-318991628D01*
X131614834Y-319122543D01*
X131594353Y-319265000D01*
X103054106Y-319265000D01*
X103035300Y-319074066D01*
X102975232Y-318876046D01*
X102877685Y-318693550D01*
X102825053Y-318629417D01*
X102746410Y-318533589D01*
X102586452Y-318402317D01*
X102586453Y-318402317D01*
X102586450Y-318402315D01*
X102403954Y-318304768D01*
X102205934Y-318244700D01*
X102205932Y-318244699D01*
X102205934Y-318244699D01*
X102000000Y-318224417D01*
X101794067Y-318244699D01*
X101596043Y-318304769D01*
X101501136Y-318355499D01*
X101413550Y-318402315D01*
X101413548Y-318402316D01*
X101413547Y-318402317D01*
X101253589Y-318533589D01*
X101122317Y-318693547D01*
X101122315Y-318693550D01*
X101113646Y-318709769D01*
X101024769Y-318876043D01*
X100964699Y-319074067D01*
X100944417Y-319280000D01*
X100250500Y-319280000D01*
X100250500Y-316740000D01*
X100944417Y-316740000D01*
X100964699Y-316945932D01*
X100994734Y-317044944D01*
X101024768Y-317143954D01*
X101122315Y-317326450D01*
X101156969Y-317368677D01*
X101253589Y-317486410D01*
X101329803Y-317548956D01*
X101413550Y-317617685D01*
X101596046Y-317715232D01*
X101794066Y-317775300D01*
X101794065Y-317775300D01*
X101812529Y-317777118D01*
X102000000Y-317795583D01*
X102205934Y-317775300D01*
X102403954Y-317715232D01*
X102586450Y-317617685D01*
X102746410Y-317486410D01*
X102877685Y-317326450D01*
X102975232Y-317143954D01*
X103002216Y-317055000D01*
X115385808Y-317055000D01*
X115406289Y-317197456D01*
X115466077Y-317328371D01*
X115466080Y-317328377D01*
X115505438Y-317373798D01*
X115534463Y-317437353D01*
X115524519Y-317506512D01*
X115505438Y-317536202D01*
X115466080Y-317581622D01*
X115466077Y-317581628D01*
X115406289Y-317712543D01*
X115385808Y-317855000D01*
X115406289Y-317997456D01*
X115417810Y-318022682D01*
X115466078Y-318128373D01*
X115560327Y-318237143D01*
X115681402Y-318314953D01*
X115681405Y-318314954D01*
X115681404Y-318314954D01*
X115819491Y-318355499D01*
X115819493Y-318355500D01*
X115819494Y-318355500D01*
X115963417Y-318355500D01*
X115963417Y-318355499D01*
X116101508Y-318314953D01*
X116222583Y-318237143D01*
X116316832Y-318128373D01*
X116376620Y-317997457D01*
X116397102Y-317855000D01*
X116376620Y-317712543D01*
X116316832Y-317581627D01*
X116316830Y-317581625D01*
X116316829Y-317581622D01*
X116277472Y-317536203D01*
X116248446Y-317472648D01*
X116258389Y-317403489D01*
X116277472Y-317373797D01*
X116316829Y-317328377D01*
X116316829Y-317328375D01*
X116316832Y-317328373D01*
X116376620Y-317197457D01*
X116397102Y-317055000D01*
X116376620Y-316912543D01*
X116316832Y-316781627D01*
X116222583Y-316672857D01*
X116101508Y-316595047D01*
X116101506Y-316595046D01*
X116101504Y-316595045D01*
X116101505Y-316595045D01*
X115963418Y-316554500D01*
X115963416Y-316554500D01*
X115819494Y-316554500D01*
X115819491Y-316554500D01*
X115681404Y-316595045D01*
X115560328Y-316672856D01*
X115466078Y-316781626D01*
X115466077Y-316781628D01*
X115406289Y-316912543D01*
X115385808Y-317055000D01*
X103002216Y-317055000D01*
X103035300Y-316945934D01*
X103055583Y-316740000D01*
X103035300Y-316534066D01*
X102975232Y-316336046D01*
X102877685Y-316153550D01*
X102813183Y-316074954D01*
X102746410Y-315993589D01*
X102618202Y-315888373D01*
X102586450Y-315862315D01*
X102403954Y-315764768D01*
X102205934Y-315704700D01*
X102205932Y-315704699D01*
X102205934Y-315704699D01*
X102000000Y-315684417D01*
X101794067Y-315704699D01*
X101596043Y-315764769D01*
X101570168Y-315778600D01*
X101413550Y-315862315D01*
X101413548Y-315862316D01*
X101413547Y-315862317D01*
X101253589Y-315993589D01*
X101122317Y-316153547D01*
X101122315Y-316153550D01*
X101113646Y-316169769D01*
X101024769Y-316336043D01*
X100964699Y-316534067D01*
X100944417Y-316740000D01*
X100250500Y-316740000D01*
X100250500Y-314200000D01*
X100944417Y-314200000D01*
X100964699Y-314405932D01*
X100964700Y-314405934D01*
X101024768Y-314603954D01*
X101122315Y-314786450D01*
X101122317Y-314786452D01*
X101253589Y-314946410D01*
X101325103Y-315005099D01*
X101413550Y-315077685D01*
X101596046Y-315175232D01*
X101794066Y-315235300D01*
X101794065Y-315235300D01*
X101812529Y-315237118D01*
X102000000Y-315255583D01*
X102205934Y-315235300D01*
X102403954Y-315175232D01*
X102586450Y-315077685D01*
X102746410Y-314946410D01*
X102877685Y-314786450D01*
X102975232Y-314603954D01*
X103035300Y-314405934D01*
X103040317Y-314354999D01*
X140444364Y-314354999D01*
X140444364Y-314355000D01*
X141341988Y-314355000D01*
X141309075Y-314412007D01*
X141275000Y-314539174D01*
X141275000Y-314670826D01*
X141309075Y-314797993D01*
X141341988Y-314855000D01*
X140444364Y-314855000D01*
X140501567Y-315068486D01*
X140501570Y-315068492D01*
X140601399Y-315282578D01*
X140736894Y-315476082D01*
X140903917Y-315643105D01*
X141097421Y-315778600D01*
X141311507Y-315878429D01*
X141311516Y-315878433D01*
X141433649Y-315911158D01*
X141493310Y-315947523D01*
X141523839Y-316010369D01*
X141515545Y-316079745D01*
X141471059Y-316133623D01*
X141437552Y-316149593D01*
X141371046Y-316169767D01*
X141240358Y-316239622D01*
X141188550Y-316267315D01*
X141188548Y-316267316D01*
X141188547Y-316267317D01*
X141028589Y-316398589D01*
X140897317Y-316558547D01*
X140799769Y-316741043D01*
X140739699Y-316939067D01*
X140719417Y-317145000D01*
X140739699Y-317350932D01*
X140755642Y-317403489D01*
X140799768Y-317548954D01*
X140897315Y-317731450D01*
X140897317Y-317731452D01*
X141028589Y-317891410D01*
X141118868Y-317965499D01*
X141188550Y-318022685D01*
X141371046Y-318120232D01*
X141569066Y-318180300D01*
X141569065Y-318180300D01*
X141587529Y-318182118D01*
X141775000Y-318200583D01*
X141980934Y-318180300D01*
X142178954Y-318120232D01*
X142361450Y-318022685D01*
X142521410Y-317891410D01*
X142652685Y-317731450D01*
X142750232Y-317548954D01*
X142810300Y-317350934D01*
X142830583Y-317145000D01*
X142815317Y-316990000D01*
X158244353Y-316990000D01*
X158264834Y-317132456D01*
X158294519Y-317197456D01*
X158324623Y-317263373D01*
X158418872Y-317372143D01*
X158539947Y-317449953D01*
X158539950Y-317449954D01*
X158539949Y-317449954D01*
X158678036Y-317490499D01*
X158678038Y-317490500D01*
X158678039Y-317490500D01*
X158821962Y-317490500D01*
X158821962Y-317490499D01*
X158960053Y-317449953D01*
X159081128Y-317372143D01*
X159175377Y-317263373D01*
X159235165Y-317132457D01*
X159255647Y-316990000D01*
X163044353Y-316990000D01*
X163064834Y-317132456D01*
X163094519Y-317197456D01*
X163124623Y-317263373D01*
X163218872Y-317372143D01*
X163339947Y-317449953D01*
X163339950Y-317449954D01*
X163339949Y-317449954D01*
X163478036Y-317490499D01*
X163478038Y-317490500D01*
X163478039Y-317490500D01*
X163621962Y-317490500D01*
X163621962Y-317490499D01*
X163708806Y-317465000D01*
X169219353Y-317465000D01*
X169239834Y-317607456D01*
X169244506Y-317617685D01*
X169299623Y-317738373D01*
X169393872Y-317847143D01*
X169514947Y-317924953D01*
X169514950Y-317924954D01*
X169514949Y-317924954D01*
X169653036Y-317965499D01*
X169653038Y-317965500D01*
X169653039Y-317965500D01*
X169796962Y-317965500D01*
X169796962Y-317965499D01*
X169935053Y-317924953D01*
X170056128Y-317847143D01*
X170150377Y-317738373D01*
X170210165Y-317607457D01*
X170230647Y-317465000D01*
X170210165Y-317322543D01*
X170150377Y-317191627D01*
X170056128Y-317082857D01*
X169935053Y-317005047D01*
X169935051Y-317005046D01*
X169935049Y-317005045D01*
X169935050Y-317005045D01*
X169796963Y-316964500D01*
X169796961Y-316964500D01*
X169653039Y-316964500D01*
X169653036Y-316964500D01*
X169514949Y-317005045D01*
X169393873Y-317082856D01*
X169299623Y-317191626D01*
X169299622Y-317191628D01*
X169239834Y-317322543D01*
X169219353Y-317465000D01*
X163708806Y-317465000D01*
X163760053Y-317449953D01*
X163881128Y-317372143D01*
X163975377Y-317263373D01*
X164035165Y-317132457D01*
X164055647Y-316990000D01*
X164035165Y-316847543D01*
X163975377Y-316716627D01*
X163881128Y-316607857D01*
X163760053Y-316530047D01*
X163760051Y-316530046D01*
X163760049Y-316530045D01*
X163760050Y-316530045D01*
X163621963Y-316489500D01*
X163621961Y-316489500D01*
X163478039Y-316489500D01*
X163478036Y-316489500D01*
X163339949Y-316530045D01*
X163218873Y-316607856D01*
X163124623Y-316716626D01*
X163124622Y-316716628D01*
X163064834Y-316847543D01*
X163044353Y-316990000D01*
X159255647Y-316990000D01*
X159235165Y-316847543D01*
X159175377Y-316716627D01*
X159081128Y-316607857D01*
X158960053Y-316530047D01*
X158960051Y-316530046D01*
X158960049Y-316530045D01*
X158960050Y-316530045D01*
X158821963Y-316489500D01*
X158821961Y-316489500D01*
X158678039Y-316489500D01*
X158678036Y-316489500D01*
X158539949Y-316530045D01*
X158418873Y-316607856D01*
X158324623Y-316716626D01*
X158324622Y-316716628D01*
X158264834Y-316847543D01*
X158244353Y-316990000D01*
X142815317Y-316990000D01*
X142810300Y-316939066D01*
X142750232Y-316741046D01*
X142652685Y-316558550D01*
X142600702Y-316495209D01*
X142521410Y-316398589D01*
X142361452Y-316267317D01*
X142361453Y-316267317D01*
X142361450Y-316267315D01*
X142178954Y-316169768D01*
X142112447Y-316149593D01*
X142054009Y-316111296D01*
X142025553Y-316047484D01*
X142036113Y-315978417D01*
X142082337Y-315926023D01*
X142116350Y-315911158D01*
X142238483Y-315878433D01*
X142238492Y-315878429D01*
X142452578Y-315778600D01*
X142646082Y-315643105D01*
X142674187Y-315615000D01*
X149919353Y-315615000D01*
X149939834Y-315757456D01*
X149999622Y-315888371D01*
X149999623Y-315888373D01*
X150093872Y-315997143D01*
X150214947Y-316074953D01*
X150214950Y-316074954D01*
X150214949Y-316074954D01*
X150264207Y-316089417D01*
X150338721Y-316111296D01*
X150353036Y-316115499D01*
X150353038Y-316115500D01*
X150353039Y-316115500D01*
X150496962Y-316115500D01*
X150496962Y-316115499D01*
X150635053Y-316074953D01*
X150756128Y-315997143D01*
X150850377Y-315888373D01*
X150910165Y-315757457D01*
X150930647Y-315615000D01*
X150910165Y-315472543D01*
X150850377Y-315341627D01*
X150756128Y-315232857D01*
X150635053Y-315155047D01*
X150635051Y-315155046D01*
X150635049Y-315155045D01*
X150635050Y-315155045D01*
X150496963Y-315114500D01*
X150496961Y-315114500D01*
X150353039Y-315114500D01*
X150353036Y-315114500D01*
X150214949Y-315155045D01*
X150093873Y-315232856D01*
X149999623Y-315341626D01*
X149999622Y-315341628D01*
X149939834Y-315472543D01*
X149919353Y-315615000D01*
X142674187Y-315615000D01*
X142813105Y-315476082D01*
X142948600Y-315282578D01*
X143048429Y-315068492D01*
X143048432Y-315068486D01*
X143105636Y-314855000D01*
X142208012Y-314855000D01*
X142240925Y-314797993D01*
X142275000Y-314670826D01*
X142275000Y-314539174D01*
X142240925Y-314412007D01*
X142208012Y-314355000D01*
X143105636Y-314355000D01*
X143105635Y-314354999D01*
X143048432Y-314141513D01*
X143048429Y-314141507D01*
X142948600Y-313927422D01*
X142948599Y-313927420D01*
X142813113Y-313733926D01*
X142813108Y-313733920D01*
X142646082Y-313566894D01*
X142452578Y-313431399D01*
X142238492Y-313331570D01*
X142238486Y-313331567D01*
X142025000Y-313274364D01*
X142025000Y-314171988D01*
X141967993Y-314139075D01*
X141840826Y-314105000D01*
X141709174Y-314105000D01*
X141582007Y-314139075D01*
X141525000Y-314171988D01*
X141525000Y-313274364D01*
X141524999Y-313274364D01*
X141311513Y-313331567D01*
X141311507Y-313331570D01*
X141097422Y-313431399D01*
X141097420Y-313431400D01*
X140903926Y-313566886D01*
X140903920Y-313566891D01*
X140736891Y-313733920D01*
X140736886Y-313733926D01*
X140601400Y-313927420D01*
X140601399Y-313927422D01*
X140501570Y-314141507D01*
X140501567Y-314141513D01*
X140444364Y-314354999D01*
X103040317Y-314354999D01*
X103055583Y-314200000D01*
X103035300Y-313994066D01*
X102975232Y-313796046D01*
X102877685Y-313613550D01*
X102797217Y-313515499D01*
X102746410Y-313453589D01*
X102597727Y-313331570D01*
X102586450Y-313322315D01*
X102403954Y-313224768D01*
X102205934Y-313164700D01*
X102205932Y-313164699D01*
X102205934Y-313164699D01*
X102000000Y-313144417D01*
X101794067Y-313164699D01*
X101596043Y-313224769D01*
X101503259Y-313274364D01*
X101413550Y-313322315D01*
X101413548Y-313322316D01*
X101413547Y-313322317D01*
X101253589Y-313453589D01*
X101122317Y-313613547D01*
X101024769Y-313796043D01*
X100964699Y-313994067D01*
X100944417Y-314200000D01*
X100250500Y-314200000D01*
X100250500Y-311660000D01*
X100944417Y-311660000D01*
X100964699Y-311865932D01*
X100964700Y-311865934D01*
X101024768Y-312063954D01*
X101122315Y-312246450D01*
X101156969Y-312288677D01*
X101253589Y-312406410D01*
X101350209Y-312485702D01*
X101413550Y-312537685D01*
X101596046Y-312635232D01*
X101794066Y-312695300D01*
X101794065Y-312695300D01*
X101812529Y-312697118D01*
X102000000Y-312715583D01*
X102205934Y-312695300D01*
X102388236Y-312640000D01*
X151869353Y-312640000D01*
X151889834Y-312782456D01*
X151930976Y-312872543D01*
X151949623Y-312913373D01*
X152043872Y-313022143D01*
X152164947Y-313099953D01*
X152164950Y-313099954D01*
X152164949Y-313099954D01*
X152303036Y-313140499D01*
X152303038Y-313140500D01*
X152303039Y-313140500D01*
X152446962Y-313140500D01*
X152446962Y-313140499D01*
X152585053Y-313099953D01*
X152706128Y-313022143D01*
X152712317Y-313015000D01*
X156994353Y-313015000D01*
X157014834Y-313157456D01*
X157068225Y-313274364D01*
X157074623Y-313288373D01*
X157168872Y-313397143D01*
X157289947Y-313474953D01*
X157289950Y-313474954D01*
X157289949Y-313474954D01*
X157428036Y-313515499D01*
X157428038Y-313515500D01*
X157428039Y-313515500D01*
X157571962Y-313515500D01*
X157571962Y-313515499D01*
X157710053Y-313474953D01*
X157831128Y-313397143D01*
X157925377Y-313288373D01*
X157985165Y-313157457D01*
X158005647Y-313015000D01*
X157985165Y-312872543D01*
X157925377Y-312741627D01*
X157831128Y-312632857D01*
X157710053Y-312555047D01*
X157710051Y-312555046D01*
X157710049Y-312555045D01*
X157710050Y-312555045D01*
X157571963Y-312514500D01*
X157571961Y-312514500D01*
X157428039Y-312514500D01*
X157428036Y-312514500D01*
X157289949Y-312555045D01*
X157168873Y-312632856D01*
X157074623Y-312741626D01*
X157074622Y-312741628D01*
X157014834Y-312872543D01*
X156994353Y-313015000D01*
X152712317Y-313015000D01*
X152800377Y-312913373D01*
X152860165Y-312782457D01*
X152880647Y-312640000D01*
X152860165Y-312497543D01*
X152800377Y-312366627D01*
X152706128Y-312257857D01*
X152585053Y-312180047D01*
X152585051Y-312180046D01*
X152585049Y-312180045D01*
X152585050Y-312180045D01*
X152446963Y-312139500D01*
X152446961Y-312139500D01*
X152303039Y-312139500D01*
X152303036Y-312139500D01*
X152164949Y-312180045D01*
X152043873Y-312257856D01*
X151949623Y-312366626D01*
X151949622Y-312366628D01*
X151889834Y-312497543D01*
X151869353Y-312640000D01*
X102388236Y-312640000D01*
X102403954Y-312635232D01*
X102586450Y-312537685D01*
X102746410Y-312406410D01*
X102877685Y-312246450D01*
X102975232Y-312063954D01*
X103035300Y-311865934D01*
X103055583Y-311660000D01*
X103035300Y-311454066D01*
X102975232Y-311256046D01*
X102877685Y-311073550D01*
X102825702Y-311010209D01*
X102746410Y-310913589D01*
X102586452Y-310782317D01*
X102586453Y-310782317D01*
X102586450Y-310782315D01*
X102507285Y-310740000D01*
X151844353Y-310740000D01*
X151864834Y-310882456D01*
X151879053Y-310913590D01*
X151924623Y-311013373D01*
X152018872Y-311122143D01*
X152139947Y-311199953D01*
X152139950Y-311199954D01*
X152139949Y-311199954D01*
X152278036Y-311240499D01*
X152278038Y-311240500D01*
X152278039Y-311240500D01*
X152421962Y-311240500D01*
X152421962Y-311240499D01*
X152560053Y-311199953D01*
X152681128Y-311122143D01*
X152775377Y-311013373D01*
X152835165Y-310882457D01*
X152855647Y-310740000D01*
X152835165Y-310597543D01*
X152775377Y-310466627D01*
X152708980Y-310390000D01*
X156869353Y-310390000D01*
X156889834Y-310532456D01*
X156919559Y-310597543D01*
X156949623Y-310663373D01*
X157043872Y-310772143D01*
X157164947Y-310849953D01*
X157164950Y-310849954D01*
X157164949Y-310849954D01*
X157303036Y-310890499D01*
X157303038Y-310890500D01*
X157303039Y-310890500D01*
X157446962Y-310890500D01*
X157446962Y-310890499D01*
X157585053Y-310849953D01*
X157706128Y-310772143D01*
X157800377Y-310663373D01*
X157860165Y-310532457D01*
X157880647Y-310390000D01*
X157860165Y-310247543D01*
X157800377Y-310116627D01*
X157706128Y-310007857D01*
X157585053Y-309930047D01*
X157585051Y-309930046D01*
X157585049Y-309930045D01*
X157585050Y-309930045D01*
X157446963Y-309889500D01*
X157446961Y-309889500D01*
X157303039Y-309889500D01*
X157303036Y-309889500D01*
X157164949Y-309930045D01*
X157043873Y-310007856D01*
X156949623Y-310116626D01*
X156949622Y-310116628D01*
X156889834Y-310247543D01*
X156869353Y-310390000D01*
X152708980Y-310390000D01*
X152681128Y-310357857D01*
X152560053Y-310280047D01*
X152560051Y-310280046D01*
X152560049Y-310280045D01*
X152560050Y-310280045D01*
X152421963Y-310239500D01*
X152421961Y-310239500D01*
X152278039Y-310239500D01*
X152278036Y-310239500D01*
X152139949Y-310280045D01*
X152018873Y-310357856D01*
X151924623Y-310466626D01*
X151924622Y-310466628D01*
X151864834Y-310597543D01*
X151844353Y-310740000D01*
X102507285Y-310740000D01*
X102403954Y-310684768D01*
X102205934Y-310624700D01*
X102205932Y-310624699D01*
X102205934Y-310624699D01*
X102000000Y-310604417D01*
X101794067Y-310624699D01*
X101596043Y-310684769D01*
X101492715Y-310740000D01*
X101413550Y-310782315D01*
X101413548Y-310782316D01*
X101413547Y-310782317D01*
X101253589Y-310913589D01*
X101122317Y-311073547D01*
X101024769Y-311256043D01*
X100964699Y-311454067D01*
X100944417Y-311660000D01*
X100250500Y-311660000D01*
X100250500Y-309924427D01*
X100250816Y-309915581D01*
X100254064Y-309870172D01*
X100267674Y-309679857D01*
X100270190Y-309662360D01*
X100275054Y-309640000D01*
X147519353Y-309640000D01*
X147539834Y-309782456D01*
X147588720Y-309889500D01*
X147599623Y-309913373D01*
X147693872Y-310022143D01*
X147814947Y-310099953D01*
X147814950Y-310099954D01*
X147814949Y-310099954D01*
X147953036Y-310140499D01*
X147953038Y-310140500D01*
X147953039Y-310140500D01*
X148096962Y-310140500D01*
X148096962Y-310140499D01*
X148235053Y-310099953D01*
X148356128Y-310022143D01*
X148450377Y-309913373D01*
X148510165Y-309782457D01*
X148530647Y-309640000D01*
X148510165Y-309497543D01*
X148483886Y-309440000D01*
X151794353Y-309440000D01*
X151814834Y-309582456D01*
X151859320Y-309679864D01*
X151874623Y-309713373D01*
X151968872Y-309822143D01*
X152089947Y-309899953D01*
X152089950Y-309899954D01*
X152089949Y-309899954D01*
X152228036Y-309940499D01*
X152228038Y-309940500D01*
X152228039Y-309940500D01*
X152371962Y-309940500D01*
X152371962Y-309940499D01*
X152510053Y-309899953D01*
X152631128Y-309822143D01*
X152725377Y-309713373D01*
X152785165Y-309582457D01*
X152805647Y-309440000D01*
X152785165Y-309297543D01*
X152781720Y-309290000D01*
X154219353Y-309290000D01*
X154239834Y-309432456D01*
X154269559Y-309497543D01*
X154299623Y-309563373D01*
X154393872Y-309672143D01*
X154514947Y-309749953D01*
X154514950Y-309749954D01*
X154514949Y-309749954D01*
X154653036Y-309790499D01*
X154653038Y-309790500D01*
X154653039Y-309790500D01*
X154796962Y-309790500D01*
X154796962Y-309790499D01*
X154935053Y-309749953D01*
X155056128Y-309672143D01*
X155150377Y-309563373D01*
X155210165Y-309432457D01*
X155230647Y-309290000D01*
X155210165Y-309147543D01*
X155150377Y-309016627D01*
X155056128Y-308907857D01*
X154935053Y-308830047D01*
X154935051Y-308830046D01*
X154935049Y-308830045D01*
X154935050Y-308830045D01*
X154796963Y-308789500D01*
X154796961Y-308789500D01*
X154653039Y-308789500D01*
X154653036Y-308789500D01*
X154514949Y-308830045D01*
X154393873Y-308907856D01*
X154299623Y-309016626D01*
X154299622Y-309016628D01*
X154239834Y-309147543D01*
X154219353Y-309290000D01*
X152781720Y-309290000D01*
X152725377Y-309166627D01*
X152631128Y-309057857D01*
X152510053Y-308980047D01*
X152510051Y-308980046D01*
X152510049Y-308980045D01*
X152510050Y-308980045D01*
X152371963Y-308939500D01*
X152371961Y-308939500D01*
X152228039Y-308939500D01*
X152228036Y-308939500D01*
X152089949Y-308980045D01*
X151968873Y-309057856D01*
X151874623Y-309166626D01*
X151874622Y-309166628D01*
X151814834Y-309297543D01*
X151794353Y-309440000D01*
X148483886Y-309440000D01*
X148450377Y-309366627D01*
X148356128Y-309257857D01*
X148235053Y-309180047D01*
X148235051Y-309180046D01*
X148235049Y-309180045D01*
X148235050Y-309180045D01*
X148096963Y-309139500D01*
X148096961Y-309139500D01*
X147953039Y-309139500D01*
X147953036Y-309139500D01*
X147814949Y-309180045D01*
X147693873Y-309257856D01*
X147599623Y-309366626D01*
X147599622Y-309366628D01*
X147539834Y-309497543D01*
X147519353Y-309640000D01*
X100275054Y-309640000D01*
X100319483Y-309435766D01*
X100324460Y-309418815D01*
X100405501Y-309201536D01*
X100412851Y-309185444D01*
X100423126Y-309166626D01*
X100523981Y-308981923D01*
X100533537Y-308967054D01*
X100672506Y-308781413D01*
X100684080Y-308768056D01*
X100848056Y-308604080D01*
X100861413Y-308592506D01*
X101047054Y-308453537D01*
X101061923Y-308443981D01*
X101265444Y-308332850D01*
X101281537Y-308325501D01*
X101498815Y-308244460D01*
X101515766Y-308239483D01*
X101742360Y-308190190D01*
X101759857Y-308187674D01*
X101995582Y-308170816D01*
X102004428Y-308170500D01*
X103207412Y-308170500D01*
X103207412Y-308170499D01*
X103620655Y-308134346D01*
X104029176Y-308062313D01*
X104429864Y-307954949D01*
X104819670Y-307813071D01*
X104819683Y-307813065D01*
X105195609Y-307637769D01*
X105195617Y-307637764D01*
X105195627Y-307637760D01*
X105554874Y-307430348D01*
X105826719Y-307240000D01*
X110769353Y-307240000D01*
X110789834Y-307382456D01*
X110811706Y-307430348D01*
X110849623Y-307513373D01*
X110943872Y-307622143D01*
X111064947Y-307699953D01*
X111064950Y-307699954D01*
X111064949Y-307699954D01*
X111203036Y-307740499D01*
X111203038Y-307740500D01*
X111203039Y-307740500D01*
X111346962Y-307740500D01*
X111346962Y-307740499D01*
X111454121Y-307709035D01*
X111485050Y-307699954D01*
X111485050Y-307699953D01*
X111485053Y-307699953D01*
X111606128Y-307622143D01*
X111633980Y-307590000D01*
X172744353Y-307590000D01*
X172764834Y-307732456D01*
X172824622Y-307863371D01*
X172824623Y-307863373D01*
X172918872Y-307972143D01*
X173039947Y-308049953D01*
X173039950Y-308049954D01*
X173039949Y-308049954D01*
X173178036Y-308090499D01*
X173178038Y-308090500D01*
X173178039Y-308090500D01*
X173321962Y-308090500D01*
X173321962Y-308090499D01*
X173460053Y-308049953D01*
X173581128Y-307972143D01*
X173675377Y-307863373D01*
X173735165Y-307732457D01*
X173755647Y-307590000D01*
X173735165Y-307447543D01*
X173675377Y-307316627D01*
X173581128Y-307207857D01*
X173460053Y-307130047D01*
X173460051Y-307130046D01*
X173460049Y-307130045D01*
X173460050Y-307130045D01*
X173321963Y-307089500D01*
X173321961Y-307089500D01*
X173178039Y-307089500D01*
X173178036Y-307089500D01*
X173039949Y-307130045D01*
X172918873Y-307207856D01*
X172824623Y-307316626D01*
X172824622Y-307316628D01*
X172764834Y-307447543D01*
X172744353Y-307590000D01*
X111633980Y-307590000D01*
X111700377Y-307513373D01*
X111760165Y-307382457D01*
X111780647Y-307240000D01*
X111760165Y-307097543D01*
X111700377Y-306966627D01*
X111606128Y-306857857D01*
X111485053Y-306780047D01*
X111485051Y-306780046D01*
X111485049Y-306780045D01*
X111485050Y-306780045D01*
X111346963Y-306739500D01*
X111346961Y-306739500D01*
X111203039Y-306739500D01*
X111203036Y-306739500D01*
X111064949Y-306780045D01*
X110943873Y-306857856D01*
X110849623Y-306966626D01*
X110849622Y-306966628D01*
X110789834Y-307097543D01*
X110769353Y-307240000D01*
X105826719Y-307240000D01*
X105894676Y-307192416D01*
X106212449Y-306925773D01*
X106505773Y-306632449D01*
X106772416Y-306314676D01*
X107010348Y-305974874D01*
X107217760Y-305615627D01*
X107217764Y-305615617D01*
X107217769Y-305615609D01*
X107393065Y-305239683D01*
X107393065Y-305239682D01*
X107393071Y-305239670D01*
X107418339Y-305170247D01*
X139719500Y-305170247D01*
X139719500Y-306909752D01*
X139731131Y-306968229D01*
X139731132Y-306968230D01*
X139775447Y-307034552D01*
X139841769Y-307078867D01*
X139841770Y-307078868D01*
X139900247Y-307090499D01*
X139900250Y-307090500D01*
X139900252Y-307090500D01*
X141639750Y-307090500D01*
X141639751Y-307090499D01*
X141654568Y-307087552D01*
X141698229Y-307078868D01*
X141698229Y-307078867D01*
X141698231Y-307078867D01*
X141764552Y-307034552D01*
X141808867Y-306968231D01*
X141808867Y-306968229D01*
X141808868Y-306968229D01*
X141818922Y-306917682D01*
X141820500Y-306909748D01*
X141820500Y-306040000D01*
X142254417Y-306040000D01*
X142274699Y-306245932D01*
X142274700Y-306245934D01*
X142334768Y-306443954D01*
X142432315Y-306626450D01*
X142437240Y-306632451D01*
X142563589Y-306786410D01*
X142593765Y-306811174D01*
X142723550Y-306917685D01*
X142906046Y-307015232D01*
X143104066Y-307075300D01*
X143104065Y-307075300D01*
X143122529Y-307077118D01*
X143310000Y-307095583D01*
X143515934Y-307075300D01*
X143713954Y-307015232D01*
X143896450Y-306917685D01*
X144056410Y-306786410D01*
X144187685Y-306626450D01*
X144285232Y-306443954D01*
X144305406Y-306377446D01*
X144343702Y-306319010D01*
X144407514Y-306290553D01*
X144476581Y-306301112D01*
X144528975Y-306347336D01*
X144543841Y-306381349D01*
X144576567Y-306503486D01*
X144576570Y-306503492D01*
X144676399Y-306717578D01*
X144811894Y-306911082D01*
X144978917Y-307078105D01*
X145172421Y-307213600D01*
X145386507Y-307313429D01*
X145386516Y-307313433D01*
X145600000Y-307370634D01*
X145600000Y-306473012D01*
X145657007Y-306505925D01*
X145784174Y-306540000D01*
X145915826Y-306540000D01*
X146042993Y-306505925D01*
X146100000Y-306473012D01*
X146100000Y-307370633D01*
X146313483Y-307313433D01*
X146313492Y-307313429D01*
X146527578Y-307213600D01*
X146721082Y-307078105D01*
X146888105Y-306911082D01*
X147023600Y-306717578D01*
X147123429Y-306503492D01*
X147123432Y-306503486D01*
X147180636Y-306290000D01*
X146283012Y-306290000D01*
X146315925Y-306232993D01*
X146350000Y-306105826D01*
X146350000Y-305974174D01*
X146315925Y-305847007D01*
X146283012Y-305790000D01*
X147180636Y-305790000D01*
X147180635Y-305789999D01*
X147123432Y-305576513D01*
X147123429Y-305576507D01*
X147023600Y-305362422D01*
X147023599Y-305362420D01*
X146888113Y-305168926D01*
X146888108Y-305168920D01*
X146721082Y-305001894D01*
X146527578Y-304866399D01*
X146313492Y-304766570D01*
X146313486Y-304766567D01*
X146100000Y-304709364D01*
X146100000Y-305606988D01*
X146042993Y-305574075D01*
X145915826Y-305540000D01*
X145784174Y-305540000D01*
X145657007Y-305574075D01*
X145600000Y-305606988D01*
X145600000Y-304709364D01*
X145599999Y-304709364D01*
X145386513Y-304766567D01*
X145386507Y-304766570D01*
X145172422Y-304866399D01*
X145172420Y-304866400D01*
X144978926Y-305001886D01*
X144978920Y-305001891D01*
X144811891Y-305168920D01*
X144811886Y-305168926D01*
X144676400Y-305362420D01*
X144676399Y-305362422D01*
X144576570Y-305576507D01*
X144576567Y-305576514D01*
X144543841Y-305698650D01*
X144507476Y-305758310D01*
X144444629Y-305788839D01*
X144375253Y-305780544D01*
X144321375Y-305736059D01*
X144305406Y-305702553D01*
X144285232Y-305636046D01*
X144187685Y-305453550D01*
X144112897Y-305362420D01*
X144056410Y-305293589D01*
X143906121Y-305170252D01*
X143896450Y-305162315D01*
X143713954Y-305064768D01*
X143515934Y-305004700D01*
X143515932Y-305004699D01*
X143515934Y-305004699D01*
X143310000Y-304984417D01*
X143104067Y-305004699D01*
X142906043Y-305064769D01*
X142818114Y-305111769D01*
X142723550Y-305162315D01*
X142723548Y-305162316D01*
X142723547Y-305162317D01*
X142563589Y-305293589D01*
X142432317Y-305453547D01*
X142334769Y-305636043D01*
X142274699Y-305834067D01*
X142254417Y-306040000D01*
X141820500Y-306040000D01*
X141820500Y-305170252D01*
X141820500Y-305170249D01*
X141820499Y-305170247D01*
X141808868Y-305111770D01*
X141808867Y-305111769D01*
X141764552Y-305045447D01*
X141698230Y-305001132D01*
X141698229Y-305001131D01*
X141639752Y-304989500D01*
X141639748Y-304989500D01*
X139900252Y-304989500D01*
X139900247Y-304989500D01*
X139841770Y-305001131D01*
X139841769Y-305001132D01*
X139775447Y-305045447D01*
X139731132Y-305111769D01*
X139731131Y-305111770D01*
X139719500Y-305170247D01*
X107418339Y-305170247D01*
X107534949Y-304849864D01*
X107642313Y-304449176D01*
X107714346Y-304040655D01*
X107750500Y-303627411D01*
X107750500Y-303540000D01*
X109944353Y-303540000D01*
X109964834Y-303682456D01*
X110003275Y-303766628D01*
X110024623Y-303813373D01*
X110118872Y-303922143D01*
X110239947Y-303999953D01*
X110239950Y-303999954D01*
X110239949Y-303999954D01*
X110347107Y-304031417D01*
X110376336Y-304040000D01*
X110378036Y-304040499D01*
X110378038Y-304040500D01*
X110378039Y-304040500D01*
X110521962Y-304040500D01*
X110521962Y-304040499D01*
X110523661Y-304040000D01*
X159894353Y-304040000D01*
X159914834Y-304182456D01*
X159923232Y-304200844D01*
X159974623Y-304313373D01*
X160068872Y-304422143D01*
X160189947Y-304499953D01*
X160189950Y-304499954D01*
X160189949Y-304499954D01*
X160328036Y-304540499D01*
X160328038Y-304540500D01*
X160328039Y-304540500D01*
X160471962Y-304540500D01*
X160471962Y-304540499D01*
X160610053Y-304499953D01*
X160731128Y-304422143D01*
X160825377Y-304313373D01*
X160885165Y-304182457D01*
X160905647Y-304040000D01*
X160902053Y-304015000D01*
X164744353Y-304015000D01*
X164764834Y-304157456D01*
X164776252Y-304182457D01*
X164824623Y-304288373D01*
X164918872Y-304397143D01*
X165039947Y-304474953D01*
X165039950Y-304474954D01*
X165039949Y-304474954D01*
X165178036Y-304515499D01*
X165178038Y-304515500D01*
X165178039Y-304515500D01*
X165321962Y-304515500D01*
X165321962Y-304515499D01*
X165460053Y-304474953D01*
X165581128Y-304397143D01*
X165675377Y-304288373D01*
X165735165Y-304157457D01*
X165755647Y-304015000D01*
X165735165Y-303872543D01*
X165675377Y-303741627D01*
X165581128Y-303632857D01*
X165460053Y-303555047D01*
X165460051Y-303555046D01*
X165460049Y-303555045D01*
X165460050Y-303555045D01*
X165321963Y-303514500D01*
X165321961Y-303514500D01*
X165178039Y-303514500D01*
X165178036Y-303514500D01*
X165039949Y-303555045D01*
X164918873Y-303632856D01*
X164824623Y-303741626D01*
X164824622Y-303741628D01*
X164764834Y-303872543D01*
X164744353Y-304015000D01*
X160902053Y-304015000D01*
X160885165Y-303897543D01*
X160825377Y-303766627D01*
X160731128Y-303657857D01*
X160610053Y-303580047D01*
X160610051Y-303580046D01*
X160610049Y-303580045D01*
X160610050Y-303580045D01*
X160471963Y-303539500D01*
X160471961Y-303539500D01*
X160328039Y-303539500D01*
X160328036Y-303539500D01*
X160189949Y-303580045D01*
X160068873Y-303657856D01*
X159974623Y-303766626D01*
X159974622Y-303766628D01*
X159914834Y-303897543D01*
X159894353Y-304040000D01*
X110523661Y-304040000D01*
X110660053Y-303999953D01*
X110781128Y-303922143D01*
X110875377Y-303813373D01*
X110935165Y-303682457D01*
X110955647Y-303540000D01*
X110935165Y-303397543D01*
X110875377Y-303266627D01*
X110781128Y-303157857D01*
X110660053Y-303080047D01*
X110660051Y-303080046D01*
X110660049Y-303080045D01*
X110660050Y-303080045D01*
X110521963Y-303039500D01*
X110521961Y-303039500D01*
X110378039Y-303039500D01*
X110378036Y-303039500D01*
X110239949Y-303080045D01*
X110118873Y-303157856D01*
X110024623Y-303266626D01*
X110024622Y-303266628D01*
X109964834Y-303397543D01*
X109944353Y-303540000D01*
X107750500Y-303540000D01*
X107750500Y-303420000D01*
X107750500Y-303375830D01*
X107750500Y-302004427D01*
X107750816Y-301995581D01*
X107767674Y-301759864D01*
X107770190Y-301742360D01*
X107819483Y-301515766D01*
X107824460Y-301498815D01*
X107905501Y-301281536D01*
X107912851Y-301265444D01*
X108017017Y-301074678D01*
X108023981Y-301061923D01*
X108033537Y-301047054D01*
X108172506Y-300861413D01*
X108184080Y-300848056D01*
X108348056Y-300684080D01*
X108361413Y-300672506D01*
X108547054Y-300533537D01*
X108561923Y-300523981D01*
X108765444Y-300412850D01*
X108781537Y-300405501D01*
X108998815Y-300324460D01*
X109015766Y-300319483D01*
X109242360Y-300270190D01*
X109259857Y-300267674D01*
X109495582Y-300250816D01*
X109504428Y-300250500D01*
X109544170Y-300250500D01*
X188455830Y-300250500D01*
X188495572Y-300250500D01*
X188504418Y-300250816D01*
G37*
G04 #@! TD.AperFunction*
M02*
