%TF.GenerationSoftware,KiCad,Pcbnew,8.0.4*%
%TF.CreationDate,2024-11-11T15:06:16+01:00*%
%TF.ProjectId,100008_hw-vern-aqm,31303030-3038-45f6-9877-2d7665726e2d,1.1*%
%TF.SameCoordinates,Original*%
%TF.FileFunction,Drillmap*%
%TF.FilePolarity,Positive*%
%FSLAX45Y45*%
G04 Gerber Fmt 4.5, Leading zero omitted, Abs format (unit mm)*
G04 Created by KiCad (PCBNEW 8.0.4) date 2024-11-11 15:06:16*
%MOMM*%
%LPD*%
G01*
G04 APERTURE LIST*
%ADD10C,0.100000*%
%ADD11C,0.200000*%
G04 APERTURE END LIST*
D10*
X10300000Y-30792000D02*
X10200000Y-30792000D01*
X10300000Y-34842000D02*
X10200000Y-34842000D01*
X19500000Y-30792000D02*
G75*
G02*
X19050000Y-30342000I0J450000D01*
G01*
X19800000Y-34642000D02*
G75*
G02*
X19600000Y-34842000I-200000J0D01*
G01*
X10750000Y-30342000D02*
G75*
G02*
X10300000Y-30792000I-450000J0D01*
G01*
X10950000Y-35634000D02*
X18850000Y-35634000D01*
X10200000Y-34842000D02*
G75*
G02*
X10000000Y-34642000I0J200000D01*
G01*
X18850000Y-30000000D02*
G75*
G02*
X19050000Y-30200000I0J-200000D01*
G01*
X10750000Y-30342000D02*
X10750000Y-30200000D01*
X18850000Y-30000000D02*
X10950000Y-30000000D01*
X19500000Y-30792000D02*
X19600000Y-30792000D01*
X10750000Y-30200000D02*
G75*
G02*
X10950000Y-30000000I200000J0D01*
G01*
X10000000Y-30992000D02*
G75*
G02*
X10200000Y-30792000I200000J0D01*
G01*
X19500000Y-34842000D02*
X19600000Y-34842000D01*
X10950000Y-35634000D02*
G75*
G02*
X10750000Y-35434000I0J200000D01*
G01*
X19050000Y-35434000D02*
G75*
G02*
X18850000Y-35634000I-200000J0D01*
G01*
X10000000Y-30992000D02*
X10000000Y-34642000D01*
X10750000Y-35292000D02*
X10750000Y-35434000D01*
X19050000Y-35292000D02*
G75*
G02*
X19500000Y-34842000I450000J0D01*
G01*
X19050000Y-30342000D02*
X19050000Y-30200000D01*
X19600000Y-30792000D02*
G75*
G02*
X19800000Y-30992000I0J-200000D01*
G01*
X10300000Y-34842000D02*
G75*
G02*
X10750000Y-35292000I0J-450000D01*
G01*
X19800000Y-34642000D02*
X19800000Y-30992000D01*
X19050000Y-35292000D02*
X19050000Y-35434000D01*
D11*
D10*
X10040011Y-31281895D02*
X10070011Y-31311895D01*
X10070011Y-31281895D02*
X10040011Y-31311895D01*
X10040290Y-31069501D02*
X10070290Y-31099501D01*
X10070290Y-31069501D02*
X10040290Y-31099501D01*
X10040345Y-34579078D02*
X10070345Y-34609078D01*
X10070345Y-34579078D02*
X10040345Y-34609078D01*
X10040624Y-33085592D02*
X10070624Y-33115592D01*
X10070624Y-33085592D02*
X10040624Y-33115592D01*
X10042016Y-34333098D02*
X10072016Y-34363098D01*
X10072016Y-34333098D02*
X10042016Y-34363098D01*
X10045000Y-31529000D02*
X10075000Y-31559000D01*
X10075000Y-31529000D02*
X10045000Y-31559000D01*
X10045000Y-31784000D02*
X10075000Y-31814000D01*
X10075000Y-31784000D02*
X10045000Y-31814000D01*
X10045000Y-32039000D02*
X10075000Y-32069000D01*
X10075000Y-32039000D02*
X10045000Y-32069000D01*
X10045000Y-32219000D02*
X10075000Y-32249000D01*
X10075000Y-32219000D02*
X10045000Y-32249000D01*
X10045000Y-32874000D02*
X10075000Y-32904000D01*
X10075000Y-32874000D02*
X10045000Y-32904000D01*
X10045000Y-33319000D02*
X10075000Y-33349000D01*
X10075000Y-33319000D02*
X10045000Y-33349000D01*
X10045000Y-33564000D02*
X10075000Y-33594000D01*
X10075000Y-33564000D02*
X10045000Y-33594000D01*
X10045000Y-33829000D02*
X10075000Y-33859000D01*
X10075000Y-33829000D02*
X10045000Y-33859000D01*
X10045000Y-34064000D02*
X10075000Y-34094000D01*
X10075000Y-34064000D02*
X10045000Y-34094000D01*
X10121303Y-32548165D02*
X10151303Y-32578165D01*
X10151303Y-32548165D02*
X10121303Y-32578165D01*
X10179502Y-30833170D02*
X10209502Y-30863170D01*
X10209502Y-30833170D02*
X10179502Y-30863170D01*
X10190000Y-34769000D02*
X10220000Y-34799000D01*
X10220000Y-34769000D02*
X10190000Y-34799000D01*
X10244911Y-32801383D02*
X10274911Y-32831383D01*
X10274911Y-32801383D02*
X10244911Y-32831383D01*
X10247416Y-32289857D02*
X10277416Y-32319857D01*
X10277416Y-32289857D02*
X10247416Y-32319857D01*
X10315000Y-33819000D02*
X10345000Y-33849000D01*
X10345000Y-33819000D02*
X10315000Y-33849000D01*
X10315000Y-34009000D02*
X10345000Y-34039000D01*
X10345000Y-34009000D02*
X10315000Y-34039000D01*
X10325000Y-34369000D02*
X10355000Y-34399000D01*
X10355000Y-34369000D02*
X10325000Y-34399000D01*
X10325000Y-34529000D02*
X10355000Y-34559000D01*
X10355000Y-34529000D02*
X10325000Y-34559000D01*
X10326481Y-33408677D02*
X10356481Y-33438677D01*
X10356481Y-33408677D02*
X10326481Y-33438677D01*
X10375000Y-32029000D02*
X10405000Y-32059000D01*
X10405000Y-32029000D02*
X10375000Y-32059000D01*
X10375000Y-32249000D02*
X10405000Y-32279000D01*
X10405000Y-32249000D02*
X10375000Y-32279000D01*
X10375000Y-32579000D02*
X10405000Y-32609000D01*
X10405000Y-32579000D02*
X10375000Y-32609000D01*
X10375000Y-32799000D02*
X10405000Y-32829000D01*
X10405000Y-32799000D02*
X10375000Y-32829000D01*
X10375000Y-33079000D02*
X10405000Y-33109000D01*
X10405000Y-33079000D02*
X10375000Y-33109000D01*
X10436949Y-30808741D02*
X10466949Y-30838741D01*
X10466949Y-30808741D02*
X10436949Y-30838741D01*
X10485000Y-31539000D02*
X10515000Y-31569000D01*
X10515000Y-31539000D02*
X10485000Y-31569000D01*
X10493018Y-34815715D02*
X10523018Y-34845715D01*
X10523018Y-34815715D02*
X10493018Y-34845715D01*
X10675000Y-30989000D02*
X10705000Y-31019000D01*
X10705000Y-30989000D02*
X10675000Y-31019000D01*
X10675000Y-31289000D02*
X10705000Y-31319000D01*
X10705000Y-31289000D02*
X10675000Y-31319000D01*
X10678875Y-30644557D02*
X10708875Y-30674557D01*
X10708875Y-30644557D02*
X10678875Y-30674557D01*
X10709053Y-35001684D02*
X10739053Y-35031684D01*
X10739053Y-35001684D02*
X10709053Y-35031684D01*
X10710000Y-34529000D02*
X10740000Y-34559000D01*
X10740000Y-34529000D02*
X10710000Y-34559000D01*
X10716386Y-34377435D02*
X10746386Y-34407435D01*
X10746386Y-34377435D02*
X10716386Y-34407435D01*
X10745000Y-32289000D02*
X10775000Y-32319000D01*
X10775000Y-32289000D02*
X10745000Y-32319000D01*
X10765000Y-31829000D02*
X10795000Y-31859000D01*
X10795000Y-31829000D02*
X10765000Y-31859000D01*
X10790000Y-30389000D02*
X10820000Y-30419000D01*
X10820000Y-30389000D02*
X10790000Y-30419000D01*
X10791180Y-35276183D02*
X10821180Y-35306183D01*
X10821180Y-35276183D02*
X10791180Y-35306183D01*
X10795713Y-30151350D02*
X10825713Y-30181350D01*
X10825713Y-30151350D02*
X10795713Y-30181350D01*
X10845000Y-30489000D02*
X10875000Y-30519000D01*
X10875000Y-30489000D02*
X10845000Y-30519000D01*
X10846303Y-35531194D02*
X10876303Y-35561194D01*
X10876303Y-35531194D02*
X10846303Y-35561194D01*
X10847500Y-30636500D02*
X10877500Y-30666500D01*
X10877500Y-30636500D02*
X10847500Y-30666500D01*
X10930000Y-30044000D02*
X10960000Y-30074000D01*
X10960000Y-30044000D02*
X10930000Y-30074000D01*
X10955000Y-30881500D02*
X10985000Y-30911500D01*
X10985000Y-30881500D02*
X10955000Y-30911500D01*
X10955000Y-31439000D02*
X10985000Y-31469000D01*
X10985000Y-31439000D02*
X10955000Y-31469000D01*
X10955000Y-31649000D02*
X10985000Y-31679000D01*
X10985000Y-31649000D02*
X10955000Y-31679000D01*
X10955000Y-31819000D02*
X10985000Y-31849000D01*
X10985000Y-31819000D02*
X10955000Y-31849000D01*
X10955000Y-32079000D02*
X10985000Y-32109000D01*
X10985000Y-32079000D02*
X10955000Y-32109000D01*
X10955000Y-32259000D02*
X10985000Y-32289000D01*
X10985000Y-32259000D02*
X10955000Y-32289000D01*
X10955000Y-32569000D02*
X10985000Y-32599000D01*
X10985000Y-32569000D02*
X10955000Y-32599000D01*
X10955000Y-32769000D02*
X10985000Y-32799000D01*
X10985000Y-32769000D02*
X10955000Y-32799000D01*
X10955000Y-32969000D02*
X10985000Y-32999000D01*
X10985000Y-32969000D02*
X10955000Y-32999000D01*
X10955000Y-33319000D02*
X10985000Y-33349000D01*
X10985000Y-33319000D02*
X10955000Y-33349000D01*
X10955000Y-33669000D02*
X10985000Y-33699000D01*
X10985000Y-33669000D02*
X10955000Y-33699000D01*
X10955000Y-33839000D02*
X10985000Y-33869000D01*
X10985000Y-33839000D02*
X10955000Y-33869000D01*
X10955000Y-34249000D02*
X10985000Y-34279000D01*
X10985000Y-34249000D02*
X10955000Y-34279000D01*
X11019298Y-34795754D02*
X11049298Y-34825754D01*
X11049298Y-34795754D02*
X11019298Y-34825754D01*
X11030000Y-30339000D02*
X11060000Y-30369000D01*
X11060000Y-30339000D02*
X11030000Y-30369000D01*
X11030000Y-34714000D02*
X11060000Y-34744000D01*
X11060000Y-34714000D02*
X11030000Y-34744000D01*
X11065000Y-35139000D02*
X11095000Y-35169000D01*
X11095000Y-35139000D02*
X11065000Y-35169000D01*
X11075000Y-35559000D02*
X11105000Y-35589000D01*
X11105000Y-35559000D02*
X11075000Y-35589000D01*
X11105000Y-32429000D02*
X11135000Y-32459000D01*
X11135000Y-32429000D02*
X11105000Y-32459000D01*
X11105000Y-32819000D02*
X11135000Y-32849000D01*
X11135000Y-32819000D02*
X11105000Y-32849000D01*
X11105000Y-33159000D02*
X11135000Y-33189000D01*
X11135000Y-33159000D02*
X11105000Y-33189000D01*
X11105000Y-33519000D02*
X11135000Y-33549000D01*
X11135000Y-33519000D02*
X11105000Y-33549000D01*
X11105000Y-33689000D02*
X11135000Y-33719000D01*
X11135000Y-33689000D02*
X11105000Y-33719000D01*
X11110000Y-34349000D02*
X11140000Y-34379000D01*
X11140000Y-34349000D02*
X11110000Y-34379000D01*
X11110000Y-34539000D02*
X11140000Y-34569000D01*
X11140000Y-34539000D02*
X11110000Y-34569000D01*
X11110000Y-34699000D02*
X11140000Y-34729000D01*
X11140000Y-34699000D02*
X11110000Y-34729000D01*
X11112500Y-30709000D02*
X11142500Y-30739000D01*
X11142500Y-30709000D02*
X11112500Y-30739000D01*
X11112500Y-34454000D02*
X11142500Y-34484000D01*
X11142500Y-34454000D02*
X11112500Y-34484000D01*
X11130000Y-30044000D02*
X11160000Y-30074000D01*
X11160000Y-30044000D02*
X11130000Y-30074000D01*
X11145000Y-32569000D02*
X11175000Y-32599000D01*
X11175000Y-32569000D02*
X11145000Y-32599000D01*
X11175000Y-31229000D02*
X11205000Y-31259000D01*
X11205000Y-31229000D02*
X11175000Y-31259000D01*
X11175000Y-31429000D02*
X11205000Y-31459000D01*
X11205000Y-31429000D02*
X11175000Y-31459000D01*
X11175000Y-32019000D02*
X11205000Y-32049000D01*
X11205000Y-32019000D02*
X11175000Y-32049000D01*
X11202500Y-30764000D02*
X11232500Y-30794000D01*
X11232500Y-30764000D02*
X11202500Y-30794000D01*
X11235000Y-32699000D02*
X11265000Y-32729000D01*
X11265000Y-32699000D02*
X11235000Y-32729000D01*
X11265000Y-34209000D02*
X11295000Y-34239000D01*
X11295000Y-34209000D02*
X11265000Y-34239000D01*
X11269855Y-34857558D02*
X11299855Y-34887558D01*
X11299855Y-34857558D02*
X11269855Y-34887558D01*
X11282500Y-30146500D02*
X11312500Y-30176500D01*
X11312500Y-30146500D02*
X11282500Y-30176500D01*
X11295000Y-31959000D02*
X11325000Y-31989000D01*
X11325000Y-31959000D02*
X11295000Y-31989000D01*
X11295000Y-32129000D02*
X11325000Y-32159000D01*
X11325000Y-32129000D02*
X11295000Y-32159000D01*
X11300000Y-35559000D02*
X11330000Y-35589000D01*
X11330000Y-35559000D02*
X11300000Y-35589000D01*
X11315000Y-34364000D02*
X11345000Y-34394000D01*
X11345000Y-34364000D02*
X11315000Y-34394000D01*
X11320000Y-30516500D02*
X11350000Y-30546500D01*
X11350000Y-30516500D02*
X11320000Y-30546500D01*
X11320000Y-31079000D02*
X11350000Y-31109000D01*
X11350000Y-31079000D02*
X11320000Y-31109000D01*
X11320000Y-31284000D02*
X11350000Y-31314000D01*
X11350000Y-31284000D02*
X11320000Y-31314000D01*
X11349410Y-32573755D02*
X11379410Y-32603755D01*
X11379410Y-32573755D02*
X11349410Y-32603755D01*
X11360891Y-35139969D02*
X11390891Y-35169969D01*
X11390891Y-35139969D02*
X11360891Y-35169969D01*
X11455000Y-32294000D02*
X11485000Y-32324000D01*
X11485000Y-32294000D02*
X11455000Y-32324000D01*
X11456938Y-35046010D02*
X11486938Y-35076010D01*
X11486938Y-35046010D02*
X11456938Y-35076010D01*
X11520000Y-35559000D02*
X11550000Y-35589000D01*
X11550000Y-35559000D02*
X11520000Y-35589000D01*
X11540134Y-32383632D02*
X11570134Y-32413632D01*
X11570134Y-32383632D02*
X11540134Y-32413632D01*
X11545000Y-32204000D02*
X11575000Y-32234000D01*
X11575000Y-32204000D02*
X11545000Y-32234000D01*
X11555000Y-33059000D02*
X11585000Y-33089000D01*
X11585000Y-33059000D02*
X11555000Y-33089000D01*
X11565000Y-33229000D02*
X11595000Y-33259000D01*
X11595000Y-33229000D02*
X11565000Y-33259000D01*
X11570000Y-30144000D02*
X11600000Y-30174000D01*
X11600000Y-30144000D02*
X11570000Y-30174000D01*
X11574145Y-31690500D02*
X11604145Y-31720500D01*
X11604145Y-31690500D02*
X11574145Y-31720500D01*
X11574145Y-31770500D02*
X11604145Y-31800500D01*
X11604145Y-31770500D02*
X11574145Y-31800500D01*
X11575000Y-30259000D02*
X11605000Y-30289000D01*
X11605000Y-30259000D02*
X11575000Y-30289000D01*
X11575000Y-30419000D02*
X11605000Y-30449000D01*
X11605000Y-30419000D02*
X11575000Y-30449000D01*
X11575000Y-30779000D02*
X11605000Y-30809000D01*
X11605000Y-30779000D02*
X11575000Y-30809000D01*
X11575000Y-30909000D02*
X11605000Y-30939000D01*
X11605000Y-30909000D02*
X11575000Y-30939000D01*
X11575000Y-31279000D02*
X11605000Y-31309000D01*
X11605000Y-31279000D02*
X11575000Y-31309000D01*
X11604933Y-35375013D02*
X11634933Y-35405013D01*
X11634933Y-35375013D02*
X11604933Y-35405013D01*
X11605044Y-33341505D02*
X11635044Y-33371505D01*
X11635044Y-33341505D02*
X11605044Y-33371505D01*
X11615000Y-32569000D02*
X11645000Y-32599000D01*
X11645000Y-32569000D02*
X11615000Y-32599000D01*
X11640000Y-32289000D02*
X11670000Y-32319000D01*
X11670000Y-32289000D02*
X11640000Y-32319000D01*
X11703608Y-32045915D02*
X11733608Y-32075915D01*
X11733608Y-32045915D02*
X11703608Y-32075915D01*
X11714688Y-32459233D02*
X11744688Y-32489233D01*
X11744688Y-32459233D02*
X11714688Y-32489233D01*
X11718931Y-33470765D02*
X11748931Y-33500765D01*
X11748931Y-33470765D02*
X11718931Y-33500765D01*
X11720000Y-31774000D02*
X11750000Y-31804000D01*
X11750000Y-31774000D02*
X11720000Y-31804000D01*
X11725000Y-30044000D02*
X11755000Y-30074000D01*
X11755000Y-30044000D02*
X11725000Y-30074000D01*
X11741626Y-35233031D02*
X11771626Y-35263031D01*
X11771626Y-35233031D02*
X11741626Y-35263031D01*
X11745000Y-33819000D02*
X11775000Y-33849000D01*
X11775000Y-33819000D02*
X11745000Y-33849000D01*
X11765000Y-34209000D02*
X11795000Y-34239000D01*
X11795000Y-34209000D02*
X11765000Y-34239000D01*
X11765000Y-34359000D02*
X11795000Y-34389000D01*
X11795000Y-34359000D02*
X11765000Y-34389000D01*
X11767628Y-35046428D02*
X11797628Y-35076428D01*
X11797628Y-35046428D02*
X11767628Y-35076428D01*
X11795000Y-32279000D02*
X11825000Y-32309000D01*
X11825000Y-32279000D02*
X11795000Y-32309000D01*
X11825000Y-32529000D02*
X11855000Y-32559000D01*
X11855000Y-32529000D02*
X11825000Y-32559000D01*
X11836392Y-33341227D02*
X11866392Y-33371227D01*
X11866392Y-33341227D02*
X11836392Y-33371227D01*
X11875000Y-32699000D02*
X11905000Y-32729000D01*
X11905000Y-32699000D02*
X11875000Y-32729000D01*
X11888151Y-32906472D02*
X11918151Y-32936472D01*
X11918151Y-32906472D02*
X11888151Y-32936472D01*
X11905000Y-30779000D02*
X11935000Y-30809000D01*
X11935000Y-30779000D02*
X11905000Y-30809000D01*
X11905000Y-30909000D02*
X11935000Y-30939000D01*
X11935000Y-30909000D02*
X11905000Y-30939000D01*
X11905217Y-35342625D02*
X11935217Y-35372625D01*
X11935217Y-35342625D02*
X11905217Y-35372625D01*
X11935000Y-32049000D02*
X11965000Y-32079000D01*
X11965000Y-32049000D02*
X11935000Y-32079000D01*
X11975000Y-32819000D02*
X12005000Y-32849000D01*
X12005000Y-32819000D02*
X11975000Y-32849000D01*
X11975000Y-33429000D02*
X12005000Y-33459000D01*
X12005000Y-33429000D02*
X11975000Y-33459000D01*
X11975000Y-34639000D02*
X12005000Y-34669000D01*
X12005000Y-34639000D02*
X11975000Y-34669000D01*
X11975000Y-35469000D02*
X12005000Y-35499000D01*
X12005000Y-35469000D02*
X11975000Y-35499000D01*
X11995000Y-32419000D02*
X12025000Y-32449000D01*
X12025000Y-32419000D02*
X11995000Y-32449000D01*
X12005000Y-31774000D02*
X12035000Y-31804000D01*
X12035000Y-31774000D02*
X12005000Y-31804000D01*
X12030000Y-30774000D02*
X12060000Y-30804000D01*
X12060000Y-30774000D02*
X12030000Y-30804000D01*
X12030000Y-30914000D02*
X12060000Y-30944000D01*
X12060000Y-30914000D02*
X12030000Y-30944000D01*
X12030000Y-31054000D02*
X12060000Y-31084000D01*
X12060000Y-31054000D02*
X12030000Y-31084000D01*
X12065000Y-32059000D02*
X12095000Y-32089000D01*
X12095000Y-32059000D02*
X12065000Y-32089000D01*
X12127500Y-32634000D02*
X12157500Y-32664000D01*
X12157500Y-32634000D02*
X12127500Y-32664000D01*
X12127500Y-32719000D02*
X12157500Y-32749000D01*
X12157500Y-32719000D02*
X12127500Y-32749000D01*
X12134796Y-34984460D02*
X12164796Y-35014460D01*
X12164796Y-34984460D02*
X12134796Y-35014460D01*
X12135000Y-33359000D02*
X12165000Y-33389000D01*
X12165000Y-33359000D02*
X12135000Y-33389000D01*
X12170000Y-30774000D02*
X12200000Y-30804000D01*
X12200000Y-30774000D02*
X12170000Y-30804000D01*
X12170000Y-30914000D02*
X12200000Y-30944000D01*
X12200000Y-30914000D02*
X12170000Y-30944000D01*
X12170000Y-31054000D02*
X12200000Y-31084000D01*
X12200000Y-31054000D02*
X12170000Y-31084000D01*
X12244796Y-34984460D02*
X12274796Y-35014460D01*
X12274796Y-34984460D02*
X12244796Y-35014460D01*
X12285000Y-30044000D02*
X12315000Y-30074000D01*
X12315000Y-30044000D02*
X12285000Y-30074000D01*
X12285000Y-30259000D02*
X12315000Y-30289000D01*
X12315000Y-30259000D02*
X12285000Y-30289000D01*
X12285000Y-30419000D02*
X12315000Y-30449000D01*
X12315000Y-30419000D02*
X12285000Y-30449000D01*
X12300000Y-32634000D02*
X12330000Y-32664000D01*
X12330000Y-32634000D02*
X12300000Y-32664000D01*
X12300000Y-32719000D02*
X12330000Y-32749000D01*
X12330000Y-32719000D02*
X12300000Y-32749000D01*
X12305000Y-33299000D02*
X12335000Y-33329000D01*
X12335000Y-33299000D02*
X12305000Y-33329000D01*
X12310000Y-30774000D02*
X12340000Y-30804000D01*
X12340000Y-30774000D02*
X12310000Y-30804000D01*
X12310000Y-30914000D02*
X12340000Y-30944000D01*
X12340000Y-30914000D02*
X12310000Y-30944000D01*
X12310000Y-31054000D02*
X12340000Y-31084000D01*
X12340000Y-31054000D02*
X12310000Y-31084000D01*
X12319989Y-34806021D02*
X12349989Y-34836021D01*
X12349989Y-34806021D02*
X12319989Y-34836021D01*
X12319989Y-34926021D02*
X12349989Y-34956021D01*
X12349989Y-34926021D02*
X12319989Y-34956021D01*
X12319989Y-35046021D02*
X12349989Y-35076021D01*
X12349989Y-35046021D02*
X12319989Y-35076021D01*
X12319989Y-35166021D02*
X12349989Y-35196021D01*
X12349989Y-35166021D02*
X12319989Y-35196021D01*
X12365000Y-34209000D02*
X12395000Y-34239000D01*
X12395000Y-34209000D02*
X12365000Y-34239000D01*
X12365000Y-34359000D02*
X12395000Y-34389000D01*
X12395000Y-34359000D02*
X12365000Y-34389000D01*
X12370000Y-31774000D02*
X12400000Y-31804000D01*
X12400000Y-31774000D02*
X12370000Y-31804000D01*
X12384796Y-34984460D02*
X12414796Y-35014460D01*
X12414796Y-34984460D02*
X12384796Y-35014460D01*
X12405000Y-33649000D02*
X12435000Y-33679000D01*
X12435000Y-33649000D02*
X12405000Y-33679000D01*
X12445000Y-30779000D02*
X12475000Y-30809000D01*
X12475000Y-30779000D02*
X12445000Y-30809000D01*
X12445000Y-30909000D02*
X12475000Y-30939000D01*
X12475000Y-30909000D02*
X12445000Y-30939000D01*
X12475000Y-32634000D02*
X12505000Y-32664000D01*
X12505000Y-32634000D02*
X12475000Y-32664000D01*
X12475000Y-32719000D02*
X12505000Y-32749000D01*
X12505000Y-32719000D02*
X12475000Y-32749000D01*
X12475000Y-33239000D02*
X12505000Y-33269000D01*
X12505000Y-33239000D02*
X12475000Y-33269000D01*
X12504796Y-34984460D02*
X12534796Y-35014460D01*
X12534796Y-34984460D02*
X12504796Y-35014460D01*
X12525000Y-33529000D02*
X12555000Y-33559000D01*
X12555000Y-33529000D02*
X12525000Y-33559000D01*
X12605000Y-31369000D02*
X12635000Y-31399000D01*
X12635000Y-31369000D02*
X12605000Y-31399000D01*
X12635000Y-34089000D02*
X12665000Y-34119000D01*
X12665000Y-34089000D02*
X12635000Y-34119000D01*
X12645000Y-32719000D02*
X12675000Y-32749000D01*
X12675000Y-32719000D02*
X12645000Y-32749000D01*
X12647500Y-32634000D02*
X12677500Y-32664000D01*
X12677500Y-32634000D02*
X12647500Y-32664000D01*
X12655000Y-33409000D02*
X12685000Y-33439000D01*
X12685000Y-33409000D02*
X12655000Y-33439000D01*
X12665000Y-34629000D02*
X12695000Y-34659000D01*
X12695000Y-34629000D02*
X12665000Y-34659000D01*
X12675000Y-31774000D02*
X12705000Y-31804000D01*
X12705000Y-31774000D02*
X12675000Y-31804000D01*
X12695000Y-33939000D02*
X12725000Y-33969000D01*
X12725000Y-33939000D02*
X12695000Y-33969000D01*
X12700000Y-32044000D02*
X12730000Y-32074000D01*
X12730000Y-32044000D02*
X12700000Y-32074000D01*
X12735791Y-35342018D02*
X12765791Y-35372018D01*
X12765791Y-35342018D02*
X12735791Y-35372018D01*
X12755000Y-30044000D02*
X12785000Y-30074000D01*
X12785000Y-30044000D02*
X12755000Y-30074000D01*
X12765000Y-30779000D02*
X12795000Y-30809000D01*
X12795000Y-30779000D02*
X12765000Y-30809000D01*
X12765000Y-30909000D02*
X12795000Y-30939000D01*
X12795000Y-30909000D02*
X12765000Y-30939000D01*
X12765000Y-33759000D02*
X12795000Y-33789000D01*
X12795000Y-33759000D02*
X12765000Y-33789000D01*
X12765000Y-34209000D02*
X12795000Y-34239000D01*
X12795000Y-34209000D02*
X12765000Y-34239000D01*
X12765000Y-34359000D02*
X12795000Y-34389000D01*
X12795000Y-34359000D02*
X12765000Y-34389000D01*
X12795000Y-33339000D02*
X12825000Y-33369000D01*
X12825000Y-33339000D02*
X12795000Y-33369000D01*
X12835000Y-32779000D02*
X12865000Y-32809000D01*
X12865000Y-32779000D02*
X12835000Y-32809000D01*
X12835000Y-33589000D02*
X12865000Y-33619000D01*
X12865000Y-33589000D02*
X12835000Y-33619000D01*
X12845000Y-32259000D02*
X12875000Y-32289000D01*
X12875000Y-32259000D02*
X12845000Y-32289000D01*
X12868107Y-34796561D02*
X12898107Y-34826561D01*
X12898107Y-34796561D02*
X12868107Y-34826561D01*
X12868586Y-35043855D02*
X12898586Y-35073855D01*
X12898586Y-35043855D02*
X12868586Y-35073855D01*
X12915078Y-35265737D02*
X12945078Y-35295737D01*
X12945078Y-35265737D02*
X12915078Y-35295737D01*
X12950000Y-32049000D02*
X12980000Y-32079000D01*
X12980000Y-32049000D02*
X12950000Y-32079000D01*
X13025000Y-31309000D02*
X13055000Y-31339000D01*
X13055000Y-31309000D02*
X13025000Y-31339000D01*
X13035000Y-33339000D02*
X13065000Y-33369000D01*
X13065000Y-33339000D02*
X13035000Y-33369000D01*
X13065000Y-30259000D02*
X13095000Y-30289000D01*
X13095000Y-30259000D02*
X13065000Y-30289000D01*
X13065000Y-30419000D02*
X13095000Y-30449000D01*
X13095000Y-30419000D02*
X13065000Y-30449000D01*
X13065000Y-30769000D02*
X13095000Y-30799000D01*
X13095000Y-30769000D02*
X13065000Y-30799000D01*
X13065000Y-30909000D02*
X13095000Y-30939000D01*
X13095000Y-30909000D02*
X13065000Y-30939000D01*
X13070000Y-30144000D02*
X13100000Y-30174000D01*
X13100000Y-30144000D02*
X13070000Y-30174000D01*
X13075000Y-33429000D02*
X13105000Y-33459000D01*
X13105000Y-33429000D02*
X13075000Y-33459000D01*
X13075000Y-34209000D02*
X13105000Y-34239000D01*
X13105000Y-34209000D02*
X13075000Y-34239000D01*
X13075000Y-34359000D02*
X13105000Y-34389000D01*
X13105000Y-34359000D02*
X13075000Y-34389000D01*
X13084588Y-33206299D02*
X13114588Y-33236299D01*
X13114588Y-33206299D02*
X13084588Y-33236299D01*
X13090000Y-32194000D02*
X13120000Y-32224000D01*
X13120000Y-32194000D02*
X13090000Y-32224000D01*
X13090017Y-33039679D02*
X13120017Y-33069679D01*
X13120017Y-33039679D02*
X13090017Y-33069679D01*
X13105000Y-33589000D02*
X13135000Y-33619000D01*
X13135000Y-33589000D02*
X13105000Y-33619000D01*
X13105000Y-33769000D02*
X13135000Y-33799000D01*
X13135000Y-33769000D02*
X13105000Y-33799000D01*
X13105000Y-33939000D02*
X13135000Y-33969000D01*
X13135000Y-33939000D02*
X13105000Y-33969000D01*
X13105000Y-34099000D02*
X13135000Y-34129000D01*
X13135000Y-34099000D02*
X13105000Y-34129000D01*
X13105000Y-34669000D02*
X13135000Y-34699000D01*
X13135000Y-34669000D02*
X13105000Y-34699000D01*
X13112739Y-35469802D02*
X13142739Y-35499802D01*
X13142739Y-35469802D02*
X13112739Y-35499802D01*
X13170000Y-33389000D02*
X13200000Y-33419000D01*
X13200000Y-33389000D02*
X13170000Y-33419000D01*
X13170000Y-34209000D02*
X13200000Y-34239000D01*
X13200000Y-34209000D02*
X13170000Y-34239000D01*
X13185000Y-32284000D02*
X13215000Y-32314000D01*
X13215000Y-32284000D02*
X13185000Y-32314000D01*
X13185000Y-32491500D02*
X13215000Y-32521500D01*
X13215000Y-32491500D02*
X13185000Y-32521500D01*
X13195000Y-31911500D02*
X13225000Y-31941500D01*
X13225000Y-31911500D02*
X13195000Y-31941500D01*
X13225000Y-33169000D02*
X13255000Y-33199000D01*
X13255000Y-33169000D02*
X13225000Y-33199000D01*
X13235000Y-34669000D02*
X13265000Y-34699000D01*
X13265000Y-34669000D02*
X13235000Y-34699000D01*
X13245534Y-35469802D02*
X13275534Y-35499802D01*
X13275534Y-35469802D02*
X13245534Y-35499802D01*
X13265000Y-33389000D02*
X13295000Y-33419000D01*
X13295000Y-33389000D02*
X13265000Y-33419000D01*
X13265000Y-33589000D02*
X13295000Y-33619000D01*
X13295000Y-33589000D02*
X13265000Y-33619000D01*
X13265000Y-33769000D02*
X13295000Y-33799000D01*
X13295000Y-33769000D02*
X13265000Y-33799000D01*
X13265000Y-33939000D02*
X13295000Y-33969000D01*
X13295000Y-33939000D02*
X13265000Y-33969000D01*
X13265000Y-34099000D02*
X13295000Y-34129000D01*
X13295000Y-34099000D02*
X13265000Y-34129000D01*
X13265000Y-34209000D02*
X13295000Y-34239000D01*
X13295000Y-34209000D02*
X13265000Y-34239000D01*
X13265000Y-34359000D02*
X13295000Y-34389000D01*
X13295000Y-34359000D02*
X13265000Y-34389000D01*
X13295000Y-31899000D02*
X13325000Y-31929000D01*
X13325000Y-31899000D02*
X13295000Y-31929000D01*
X13300000Y-32139000D02*
X13330000Y-32169000D01*
X13330000Y-32139000D02*
X13300000Y-32169000D01*
X13305000Y-32479000D02*
X13335000Y-32509000D01*
X13335000Y-32479000D02*
X13305000Y-32509000D01*
X13305000Y-32869000D02*
X13335000Y-32899000D01*
X13335000Y-32869000D02*
X13305000Y-32899000D01*
X13305000Y-34796561D02*
X13335000Y-34826561D01*
X13335000Y-34796561D02*
X13305000Y-34826561D01*
X13307611Y-34922521D02*
X13337611Y-34952521D01*
X13337611Y-34922521D02*
X13307611Y-34952521D01*
X13327500Y-30439000D02*
X13357500Y-30469000D01*
X13357500Y-30439000D02*
X13327500Y-30469000D01*
X13335364Y-30142482D02*
X13365364Y-30172482D01*
X13365364Y-30142482D02*
X13335364Y-30172482D01*
X13370000Y-33389000D02*
X13400000Y-33419000D01*
X13400000Y-33389000D02*
X13370000Y-33419000D01*
X13370000Y-34209000D02*
X13400000Y-34239000D01*
X13400000Y-34209000D02*
X13370000Y-34239000D01*
X13370000Y-34361500D02*
X13400000Y-34391500D01*
X13400000Y-34361500D02*
X13370000Y-34391500D01*
X13370000Y-34869000D02*
X13400000Y-34899000D01*
X13400000Y-34869000D02*
X13370000Y-34899000D01*
X13425000Y-30044000D02*
X13455000Y-30074000D01*
X13455000Y-30044000D02*
X13425000Y-30074000D01*
X13431075Y-31805347D02*
X13461075Y-31835347D01*
X13461075Y-31805347D02*
X13431075Y-31835347D01*
X13435000Y-32139000D02*
X13465000Y-32169000D01*
X13465000Y-32139000D02*
X13435000Y-32169000D01*
X13435000Y-32879000D02*
X13465000Y-32909000D01*
X13465000Y-32879000D02*
X13435000Y-32909000D01*
X13435000Y-33589000D02*
X13465000Y-33619000D01*
X13465000Y-33589000D02*
X13435000Y-33619000D01*
X13435000Y-33769000D02*
X13465000Y-33799000D01*
X13465000Y-33769000D02*
X13435000Y-33799000D01*
X13435000Y-33939000D02*
X13465000Y-33969000D01*
X13465000Y-33939000D02*
X13435000Y-33969000D01*
X13435000Y-34099000D02*
X13465000Y-34129000D01*
X13465000Y-34099000D02*
X13435000Y-34129000D01*
X13435000Y-34799000D02*
X13465000Y-34829000D01*
X13465000Y-34799000D02*
X13435000Y-34829000D01*
X13445000Y-32319000D02*
X13475000Y-32349000D01*
X13475000Y-32319000D02*
X13445000Y-32349000D01*
X13455000Y-33389000D02*
X13485000Y-33419000D01*
X13485000Y-33389000D02*
X13455000Y-33419000D01*
X13455000Y-34669000D02*
X13485000Y-34699000D01*
X13485000Y-34669000D02*
X13455000Y-34699000D01*
X13465000Y-34209000D02*
X13495000Y-34239000D01*
X13495000Y-34209000D02*
X13465000Y-34239000D01*
X13465000Y-34359000D02*
X13495000Y-34389000D01*
X13495000Y-34359000D02*
X13465000Y-34389000D01*
X13545000Y-31679000D02*
X13575000Y-31709000D01*
X13575000Y-31679000D02*
X13545000Y-31709000D01*
X13595000Y-35169000D02*
X13625000Y-35199000D01*
X13625000Y-35169000D02*
X13595000Y-35199000D01*
X13655000Y-31539000D02*
X13685000Y-31569000D01*
X13685000Y-31539000D02*
X13655000Y-31569000D01*
X13675000Y-32079000D02*
X13705000Y-32109000D01*
X13705000Y-32079000D02*
X13675000Y-32109000D01*
X13710000Y-32519000D02*
X13740000Y-32549000D01*
X13740000Y-32519000D02*
X13710000Y-32549000D01*
X13725000Y-30044000D02*
X13755000Y-30074000D01*
X13755000Y-30044000D02*
X13725000Y-30074000D01*
X13740000Y-35114000D02*
X13770000Y-35144000D01*
X13770000Y-35114000D02*
X13740000Y-35144000D01*
X13755000Y-30779000D02*
X13785000Y-30809000D01*
X13785000Y-30779000D02*
X13755000Y-30809000D01*
X13755000Y-35029000D02*
X13785000Y-35059000D01*
X13785000Y-35029000D02*
X13755000Y-35059000D01*
X13757773Y-34796561D02*
X13787773Y-34826561D01*
X13787773Y-34796561D02*
X13757773Y-34826561D01*
X13775000Y-31419000D02*
X13805000Y-31449000D01*
X13805000Y-31419000D02*
X13775000Y-31449000D01*
X13785000Y-31229000D02*
X13815000Y-31259000D01*
X13815000Y-31229000D02*
X13785000Y-31259000D01*
X13785000Y-35469000D02*
X13815000Y-35499000D01*
X13815000Y-35469000D02*
X13785000Y-35499000D01*
X13795000Y-31959000D02*
X13825000Y-31989000D01*
X13825000Y-31959000D02*
X13795000Y-31989000D01*
X13805000Y-32354000D02*
X13835000Y-32384000D01*
X13835000Y-32354000D02*
X13805000Y-32384000D01*
X13825000Y-33439000D02*
X13855000Y-33469000D01*
X13855000Y-33439000D02*
X13825000Y-33469000D01*
X13825000Y-33589000D02*
X13855000Y-33619000D01*
X13855000Y-33589000D02*
X13825000Y-33619000D01*
X13825000Y-33759000D02*
X13855000Y-33789000D01*
X13855000Y-33759000D02*
X13825000Y-33789000D01*
X13825000Y-33939000D02*
X13855000Y-33969000D01*
X13855000Y-33939000D02*
X13825000Y-33969000D01*
X13825000Y-34109000D02*
X13855000Y-34139000D01*
X13855000Y-34109000D02*
X13825000Y-34139000D01*
X13825000Y-34209000D02*
X13855000Y-34239000D01*
X13855000Y-34209000D02*
X13825000Y-34239000D01*
X13825000Y-34359000D02*
X13855000Y-34389000D01*
X13855000Y-34359000D02*
X13825000Y-34389000D01*
X13825000Y-34669000D02*
X13855000Y-34699000D01*
X13855000Y-34669000D02*
X13825000Y-34699000D01*
X13882494Y-34796004D02*
X13912494Y-34826004D01*
X13912494Y-34796004D02*
X13882494Y-34826004D01*
X13885000Y-31119000D02*
X13915000Y-31149000D01*
X13915000Y-31119000D02*
X13885000Y-31149000D01*
X13885000Y-31309000D02*
X13915000Y-31339000D01*
X13915000Y-31309000D02*
X13885000Y-31339000D01*
X13885000Y-35039000D02*
X13915000Y-35069000D01*
X13915000Y-35039000D02*
X13885000Y-35069000D01*
X13915000Y-31819000D02*
X13945000Y-31849000D01*
X13945000Y-31819000D02*
X13915000Y-31849000D01*
X13922500Y-35114000D02*
X13952500Y-35144000D01*
X13952500Y-35114000D02*
X13922500Y-35144000D01*
X13930000Y-30959000D02*
X13960000Y-30989000D01*
X13960000Y-30959000D02*
X13930000Y-30989000D01*
X13965000Y-32764000D02*
X13995000Y-32794000D01*
X13995000Y-32764000D02*
X13965000Y-32794000D01*
X14007500Y-35309000D02*
X14037500Y-35339000D01*
X14037500Y-35309000D02*
X14007500Y-35339000D01*
X14025000Y-30044000D02*
X14055000Y-30074000D01*
X14055000Y-30044000D02*
X14025000Y-30074000D01*
X14025000Y-31679000D02*
X14055000Y-31709000D01*
X14055000Y-31679000D02*
X14025000Y-31709000D01*
X14035000Y-32579000D02*
X14065000Y-32609000D01*
X14065000Y-32579000D02*
X14035000Y-32609000D01*
X14055000Y-33109000D02*
X14085000Y-33139000D01*
X14085000Y-33109000D02*
X14055000Y-33139000D01*
X14068185Y-35053152D02*
X14098185Y-35083152D01*
X14098185Y-35053152D02*
X14068185Y-35083152D01*
X14169154Y-34796940D02*
X14199154Y-34826940D01*
X14199154Y-34796940D02*
X14169154Y-34826940D01*
X14195000Y-31109000D02*
X14225000Y-31139000D01*
X14225000Y-31109000D02*
X14195000Y-31139000D01*
X14290000Y-32319000D02*
X14320000Y-32349000D01*
X14320000Y-32319000D02*
X14290000Y-32349000D01*
X14295000Y-31824000D02*
X14325000Y-31854000D01*
X14325000Y-31824000D02*
X14295000Y-31854000D01*
X14295000Y-32079000D02*
X14325000Y-32109000D01*
X14325000Y-32079000D02*
X14295000Y-32109000D01*
X14312684Y-35462619D02*
X14342684Y-35492619D01*
X14342684Y-35462619D02*
X14312684Y-35492619D01*
X14325000Y-30044000D02*
X14355000Y-30074000D01*
X14355000Y-30044000D02*
X14325000Y-30074000D01*
X14325000Y-33439000D02*
X14355000Y-33469000D01*
X14355000Y-33439000D02*
X14325000Y-33469000D01*
X14325000Y-33589000D02*
X14355000Y-33619000D01*
X14355000Y-33589000D02*
X14325000Y-33619000D01*
X14325000Y-33759000D02*
X14355000Y-33789000D01*
X14355000Y-33759000D02*
X14325000Y-33789000D01*
X14325000Y-33939000D02*
X14355000Y-33969000D01*
X14355000Y-33939000D02*
X14325000Y-33969000D01*
X14325000Y-34109000D02*
X14355000Y-34139000D01*
X14355000Y-34109000D02*
X14325000Y-34139000D01*
X14325000Y-34209000D02*
X14355000Y-34239000D01*
X14355000Y-34209000D02*
X14325000Y-34239000D01*
X14325000Y-34359000D02*
X14355000Y-34389000D01*
X14355000Y-34359000D02*
X14325000Y-34389000D01*
X14325000Y-34669000D02*
X14355000Y-34699000D01*
X14355000Y-34669000D02*
X14325000Y-34699000D01*
X14345000Y-31081500D02*
X14375000Y-31111500D01*
X14375000Y-31081500D02*
X14345000Y-31111500D01*
X14430000Y-32579000D02*
X14460000Y-32609000D01*
X14460000Y-32579000D02*
X14430000Y-32609000D01*
X14430000Y-32764000D02*
X14460000Y-32794000D01*
X14460000Y-32764000D02*
X14430000Y-32794000D01*
X14525000Y-31239000D02*
X14555000Y-31269000D01*
X14555000Y-31239000D02*
X14525000Y-31269000D01*
X14535000Y-34939000D02*
X14565000Y-34969000D01*
X14565000Y-34939000D02*
X14535000Y-34969000D01*
X14625000Y-30044000D02*
X14655000Y-30074000D01*
X14655000Y-30044000D02*
X14625000Y-30074000D01*
X14775000Y-31764000D02*
X14805000Y-31794000D01*
X14805000Y-31764000D02*
X14775000Y-31794000D01*
X14775000Y-32109000D02*
X14805000Y-32139000D01*
X14805000Y-32109000D02*
X14775000Y-32139000D01*
X14787500Y-30949000D02*
X14817500Y-30979000D01*
X14817500Y-30949000D02*
X14787500Y-30979000D01*
X14805000Y-32579000D02*
X14835000Y-32609000D01*
X14835000Y-32579000D02*
X14805000Y-32609000D01*
X14825000Y-33109000D02*
X14855000Y-33139000D01*
X14855000Y-33109000D02*
X14825000Y-33139000D01*
X14825000Y-33439000D02*
X14855000Y-33469000D01*
X14855000Y-33439000D02*
X14825000Y-33469000D01*
X14825000Y-33589000D02*
X14855000Y-33619000D01*
X14855000Y-33589000D02*
X14825000Y-33619000D01*
X14825000Y-33759000D02*
X14855000Y-33789000D01*
X14855000Y-33759000D02*
X14825000Y-33789000D01*
X14825000Y-33939000D02*
X14855000Y-33969000D01*
X14855000Y-33939000D02*
X14825000Y-33969000D01*
X14825000Y-34109000D02*
X14855000Y-34139000D01*
X14855000Y-34109000D02*
X14825000Y-34139000D01*
X14825000Y-34209000D02*
X14855000Y-34239000D01*
X14855000Y-34209000D02*
X14825000Y-34239000D01*
X14825000Y-34359000D02*
X14855000Y-34389000D01*
X14855000Y-34359000D02*
X14825000Y-34389000D01*
X14825000Y-34669000D02*
X14855000Y-34699000D01*
X14855000Y-34669000D02*
X14825000Y-34699000D01*
X14865000Y-30779000D02*
X14895000Y-30809000D01*
X14895000Y-30779000D02*
X14865000Y-30809000D01*
X14875000Y-32764000D02*
X14905000Y-32794000D01*
X14905000Y-32764000D02*
X14875000Y-32794000D01*
X14875000Y-34799000D02*
X14905000Y-34829000D01*
X14905000Y-34799000D02*
X14875000Y-34829000D01*
X14885000Y-31239000D02*
X14915000Y-31269000D01*
X14915000Y-31239000D02*
X14885000Y-31269000D01*
X14896203Y-35562920D02*
X14926203Y-35592920D01*
X14926203Y-35562920D02*
X14896203Y-35592920D01*
X14901214Y-35369078D02*
X14931214Y-35399078D01*
X14931214Y-35369078D02*
X14901214Y-35399078D01*
X14925000Y-30044000D02*
X14955000Y-30074000D01*
X14955000Y-30044000D02*
X14925000Y-30074000D01*
X14970000Y-35243152D02*
X15000000Y-35273152D01*
X15000000Y-35243152D02*
X14970000Y-35273152D01*
X14995000Y-30849000D02*
X15025000Y-30879000D01*
X15025000Y-30849000D02*
X14995000Y-30879000D01*
X15005000Y-30999000D02*
X15035000Y-31029000D01*
X15035000Y-30999000D02*
X15005000Y-31029000D01*
X15005000Y-31239000D02*
X15035000Y-31269000D01*
X15035000Y-31239000D02*
X15005000Y-31269000D01*
X15027500Y-31546500D02*
X15057500Y-31576500D01*
X15057500Y-31546500D02*
X15027500Y-31576500D01*
X15050000Y-32334000D02*
X15080000Y-32364000D01*
X15080000Y-32334000D02*
X15050000Y-32364000D01*
X15180000Y-32469000D02*
X15210000Y-32499000D01*
X15210000Y-32469000D02*
X15180000Y-32499000D01*
X15195000Y-35559000D02*
X15225000Y-35589000D01*
X15225000Y-35559000D02*
X15195000Y-35589000D01*
X15215000Y-30929000D02*
X15245000Y-30959000D01*
X15245000Y-30929000D02*
X15215000Y-30959000D01*
X15220000Y-31059000D02*
X15250000Y-31089000D01*
X15250000Y-31059000D02*
X15220000Y-31089000D01*
X15222500Y-31249000D02*
X15252500Y-31279000D01*
X15252500Y-31249000D02*
X15222500Y-31279000D01*
X15225000Y-30044000D02*
X15255000Y-30074000D01*
X15255000Y-30044000D02*
X15225000Y-30074000D01*
X15275000Y-31764000D02*
X15305000Y-31794000D01*
X15305000Y-31764000D02*
X15275000Y-31794000D01*
X15280000Y-35004000D02*
X15310000Y-35034000D01*
X15310000Y-35004000D02*
X15280000Y-35034000D01*
X15280000Y-35161500D02*
X15310000Y-35191500D01*
X15310000Y-35161500D02*
X15280000Y-35191500D01*
X15280000Y-35324000D02*
X15310000Y-35354000D01*
X15310000Y-35324000D02*
X15280000Y-35354000D01*
X15325000Y-33439000D02*
X15355000Y-33469000D01*
X15355000Y-33439000D02*
X15325000Y-33469000D01*
X15325000Y-33589000D02*
X15355000Y-33619000D01*
X15355000Y-33589000D02*
X15325000Y-33619000D01*
X15325000Y-33759000D02*
X15355000Y-33789000D01*
X15355000Y-33759000D02*
X15325000Y-33789000D01*
X15325000Y-33939000D02*
X15355000Y-33969000D01*
X15355000Y-33939000D02*
X15325000Y-33969000D01*
X15325000Y-34109000D02*
X15355000Y-34139000D01*
X15355000Y-34109000D02*
X15325000Y-34139000D01*
X15325000Y-34209000D02*
X15355000Y-34239000D01*
X15355000Y-34209000D02*
X15325000Y-34239000D01*
X15325000Y-34359000D02*
X15355000Y-34389000D01*
X15355000Y-34359000D02*
X15325000Y-34389000D01*
X15325000Y-34669000D02*
X15355000Y-34699000D01*
X15355000Y-34669000D02*
X15325000Y-34699000D01*
X15330000Y-32054000D02*
X15360000Y-32084000D01*
X15360000Y-32054000D02*
X15330000Y-32084000D01*
X15375000Y-31489000D02*
X15405000Y-31519000D01*
X15405000Y-31489000D02*
X15375000Y-31519000D01*
X15457500Y-30914000D02*
X15487500Y-30944000D01*
X15487500Y-30914000D02*
X15457500Y-30944000D01*
X15460000Y-32184000D02*
X15490000Y-32214000D01*
X15490000Y-32184000D02*
X15460000Y-32214000D01*
X15485267Y-34924384D02*
X15515267Y-34954384D01*
X15515267Y-34924384D02*
X15485267Y-34954384D01*
X15495000Y-35559000D02*
X15525000Y-35589000D01*
X15525000Y-35559000D02*
X15495000Y-35589000D01*
X15525000Y-30044000D02*
X15555000Y-30074000D01*
X15555000Y-30044000D02*
X15525000Y-30074000D01*
X15585000Y-33109000D02*
X15615000Y-33139000D01*
X15615000Y-33109000D02*
X15585000Y-33139000D01*
X15635000Y-31749000D02*
X15665000Y-31779000D01*
X15665000Y-31749000D02*
X15635000Y-31779000D01*
X15702127Y-34796450D02*
X15732127Y-34826450D01*
X15732127Y-34796450D02*
X15702127Y-34826450D01*
X15705000Y-35229000D02*
X15735000Y-35259000D01*
X15735000Y-35229000D02*
X15705000Y-35259000D01*
X15722500Y-31024000D02*
X15752500Y-31054000D01*
X15752500Y-31024000D02*
X15722500Y-31054000D01*
X15735000Y-31286500D02*
X15765000Y-31316500D01*
X15765000Y-31286500D02*
X15735000Y-31316500D01*
X15755000Y-31889000D02*
X15785000Y-31919000D01*
X15785000Y-31889000D02*
X15755000Y-31919000D01*
X15795000Y-35559000D02*
X15825000Y-35589000D01*
X15825000Y-35559000D02*
X15795000Y-35589000D01*
X15805000Y-31339000D02*
X15835000Y-31369000D01*
X15835000Y-31339000D02*
X15805000Y-31369000D01*
X15825000Y-30044000D02*
X15855000Y-30074000D01*
X15855000Y-30044000D02*
X15825000Y-30074000D01*
X15825000Y-33439000D02*
X15855000Y-33469000D01*
X15855000Y-33439000D02*
X15825000Y-33469000D01*
X15825000Y-33589000D02*
X15855000Y-33619000D01*
X15855000Y-33589000D02*
X15825000Y-33619000D01*
X15825000Y-33759000D02*
X15855000Y-33789000D01*
X15855000Y-33759000D02*
X15825000Y-33789000D01*
X15825000Y-33939000D02*
X15855000Y-33969000D01*
X15855000Y-33939000D02*
X15825000Y-33969000D01*
X15825000Y-34109000D02*
X15855000Y-34139000D01*
X15855000Y-34109000D02*
X15825000Y-34139000D01*
X15825000Y-34209000D02*
X15855000Y-34239000D01*
X15855000Y-34209000D02*
X15825000Y-34239000D01*
X15825000Y-34359000D02*
X15855000Y-34389000D01*
X15855000Y-34359000D02*
X15825000Y-34389000D01*
X15825000Y-34729000D02*
X15855000Y-34759000D01*
X15855000Y-34729000D02*
X15825000Y-34759000D01*
X15829143Y-30561329D02*
X15859143Y-30591329D01*
X15859143Y-30561329D02*
X15829143Y-30591329D01*
X15831164Y-34924860D02*
X15861164Y-34954860D01*
X15861164Y-34924860D02*
X15831164Y-34954860D01*
X15847385Y-31535225D02*
X15877385Y-31565225D01*
X15877385Y-31535225D02*
X15847385Y-31565225D01*
X15856537Y-30964434D02*
X15886537Y-30994434D01*
X15886537Y-30964434D02*
X15856537Y-30994434D01*
X15860000Y-31684000D02*
X15890000Y-31714000D01*
X15890000Y-31684000D02*
X15860000Y-31714000D01*
X15939694Y-31927846D02*
X15969694Y-31957846D01*
X15969694Y-31927846D02*
X15939694Y-31957846D01*
X15955000Y-32669000D02*
X15985000Y-32699000D01*
X15985000Y-32669000D02*
X15955000Y-32699000D01*
X16015000Y-34929000D02*
X16045000Y-34959000D01*
X16045000Y-34929000D02*
X16015000Y-34959000D01*
X16015256Y-34756216D02*
X16045256Y-34786216D01*
X16045256Y-34756216D02*
X16015256Y-34786216D01*
X16020000Y-30804000D02*
X16050000Y-30834000D01*
X16050000Y-30804000D02*
X16020000Y-30834000D01*
X16025000Y-30389000D02*
X16055000Y-30419000D01*
X16055000Y-30389000D02*
X16025000Y-30419000D01*
X16035000Y-31209000D02*
X16065000Y-31239000D01*
X16065000Y-31209000D02*
X16035000Y-31239000D01*
X16035000Y-32054000D02*
X16065000Y-32084000D01*
X16065000Y-32054000D02*
X16035000Y-32084000D01*
X16035000Y-34364526D02*
X16065000Y-34394526D01*
X16065000Y-34364526D02*
X16035000Y-34394526D01*
X16085000Y-33109000D02*
X16115000Y-33139000D01*
X16115000Y-33109000D02*
X16085000Y-33139000D01*
X16095000Y-35559000D02*
X16125000Y-35589000D01*
X16125000Y-35559000D02*
X16095000Y-35589000D01*
X16100000Y-31139000D02*
X16130000Y-31169000D01*
X16130000Y-31139000D02*
X16100000Y-31169000D01*
X16100000Y-31269000D02*
X16130000Y-31299000D01*
X16130000Y-31269000D02*
X16100000Y-31299000D01*
X16125000Y-30044000D02*
X16155000Y-30074000D01*
X16155000Y-30044000D02*
X16125000Y-30074000D01*
X16170000Y-31204000D02*
X16200000Y-31234000D01*
X16200000Y-31204000D02*
X16170000Y-31234000D01*
X16179354Y-30642842D02*
X16209354Y-30672842D01*
X16209354Y-30642842D02*
X16179354Y-30672842D01*
X16186592Y-30487775D02*
X16216592Y-30517775D01*
X16216592Y-30487775D02*
X16186592Y-30517775D01*
X16224276Y-34803944D02*
X16254276Y-34833944D01*
X16254276Y-34803944D02*
X16224276Y-34833944D01*
X16261544Y-31922923D02*
X16291544Y-31952923D01*
X16291544Y-31922923D02*
X16261544Y-31952923D01*
X16277995Y-34485871D02*
X16307995Y-34515871D01*
X16307995Y-34485871D02*
X16277995Y-34515871D01*
X16290000Y-30819000D02*
X16320000Y-30849000D01*
X16320000Y-30819000D02*
X16290000Y-30849000D01*
X16305000Y-32324000D02*
X16335000Y-32354000D01*
X16335000Y-32324000D02*
X16305000Y-32354000D01*
X16325000Y-33439000D02*
X16355000Y-33469000D01*
X16355000Y-33439000D02*
X16325000Y-33469000D01*
X16325000Y-33589000D02*
X16355000Y-33619000D01*
X16355000Y-33589000D02*
X16325000Y-33619000D01*
X16325000Y-33759000D02*
X16355000Y-33789000D01*
X16355000Y-33759000D02*
X16325000Y-33789000D01*
X16325000Y-33939000D02*
X16355000Y-33969000D01*
X16355000Y-33939000D02*
X16325000Y-33969000D01*
X16325000Y-34109000D02*
X16355000Y-34139000D01*
X16355000Y-34109000D02*
X16325000Y-34139000D01*
X16325000Y-34209000D02*
X16355000Y-34239000D01*
X16355000Y-34209000D02*
X16325000Y-34239000D01*
X16327085Y-34932023D02*
X16357085Y-34962023D01*
X16357085Y-34932023D02*
X16327085Y-34962023D01*
X16337483Y-30472185D02*
X16367483Y-30502185D01*
X16367483Y-30472185D02*
X16337483Y-30502185D01*
X16340000Y-31684000D02*
X16370000Y-31714000D01*
X16370000Y-31684000D02*
X16340000Y-31714000D01*
X16345000Y-31444000D02*
X16375000Y-31474000D01*
X16375000Y-31444000D02*
X16345000Y-31474000D01*
X16385000Y-31169000D02*
X16415000Y-31199000D01*
X16415000Y-31169000D02*
X16385000Y-31199000D01*
X16388964Y-35563399D02*
X16418964Y-35593399D01*
X16418964Y-35563399D02*
X16388964Y-35593399D01*
X16390217Y-35169334D02*
X16420217Y-35199334D01*
X16420217Y-35169334D02*
X16390217Y-35199334D01*
X16425000Y-30044000D02*
X16455000Y-30074000D01*
X16455000Y-30044000D02*
X16425000Y-30074000D01*
X16429136Y-32194864D02*
X16459136Y-32224864D01*
X16459136Y-32194864D02*
X16429136Y-32224864D01*
X16485000Y-31489000D02*
X16515000Y-31519000D01*
X16515000Y-31489000D02*
X16485000Y-31519000D01*
X16485072Y-34360169D02*
X16515072Y-34390169D01*
X16515072Y-34360169D02*
X16485072Y-34390169D01*
X16485907Y-34208165D02*
X16515907Y-34238165D01*
X16515907Y-34208165D02*
X16485907Y-34238165D01*
X16510000Y-30386500D02*
X16540000Y-30416500D01*
X16540000Y-30386500D02*
X16510000Y-30416500D01*
X16560000Y-31709000D02*
X16590000Y-31739000D01*
X16590000Y-31709000D02*
X16560000Y-31739000D01*
X16575000Y-34869000D02*
X16605000Y-34899000D01*
X16605000Y-34869000D02*
X16575000Y-34899000D01*
X16595000Y-33109000D02*
X16625000Y-33139000D01*
X16625000Y-33109000D02*
X16595000Y-33139000D01*
X16681759Y-34209000D02*
X16711759Y-34239000D01*
X16711759Y-34209000D02*
X16681759Y-34239000D01*
X16684265Y-34359752D02*
X16714265Y-34389752D01*
X16714265Y-34359752D02*
X16684265Y-34389752D01*
X16685000Y-32704000D02*
X16715000Y-32734000D01*
X16715000Y-32704000D02*
X16685000Y-32734000D01*
X16725000Y-30044000D02*
X16755000Y-30074000D01*
X16755000Y-30044000D02*
X16725000Y-30074000D01*
X16755000Y-34859000D02*
X16785000Y-34889000D01*
X16785000Y-34859000D02*
X16755000Y-34889000D01*
X16815000Y-32579000D02*
X16845000Y-32609000D01*
X16845000Y-32579000D02*
X16815000Y-32609000D01*
X16825000Y-32129000D02*
X16855000Y-32159000D01*
X16855000Y-32129000D02*
X16825000Y-32159000D01*
X16825000Y-33439000D02*
X16855000Y-33469000D01*
X16855000Y-33439000D02*
X16825000Y-33469000D01*
X16825000Y-33589000D02*
X16855000Y-33619000D01*
X16855000Y-33589000D02*
X16825000Y-33619000D01*
X16825000Y-33759000D02*
X16855000Y-33789000D01*
X16855000Y-33759000D02*
X16825000Y-33789000D01*
X16825000Y-33939000D02*
X16855000Y-33969000D01*
X16855000Y-33939000D02*
X16825000Y-33969000D01*
X16825000Y-34109000D02*
X16855000Y-34139000D01*
X16855000Y-34109000D02*
X16825000Y-34139000D01*
X16847368Y-31074122D02*
X16877368Y-31104122D01*
X16877368Y-31074122D02*
X16847368Y-31104122D01*
X16847554Y-30913224D02*
X16877554Y-30943224D01*
X16877554Y-30913224D02*
X16847554Y-30943224D01*
X16849655Y-31393287D02*
X16879655Y-31423287D01*
X16879655Y-31393287D02*
X16849655Y-31423287D01*
X16862008Y-30714000D02*
X16892008Y-30744000D01*
X16892008Y-30714000D02*
X16862008Y-30744000D01*
X16885963Y-34360169D02*
X16915963Y-34390169D01*
X16915963Y-34360169D02*
X16885963Y-34390169D01*
X16887773Y-34809000D02*
X16917773Y-34839000D01*
X16917773Y-34809000D02*
X16887773Y-34839000D01*
X16889304Y-34208582D02*
X16919304Y-34238582D01*
X16919304Y-34208582D02*
X16889304Y-34238582D01*
X16890997Y-31579534D02*
X16920997Y-31609534D01*
X16920997Y-31579534D02*
X16890997Y-31609534D01*
X16905351Y-35560670D02*
X16935351Y-35590670D01*
X16935351Y-35560670D02*
X16905351Y-35590670D01*
X16920471Y-30461673D02*
X16950471Y-30491673D01*
X16950471Y-30461673D02*
X16920471Y-30491673D01*
X16925000Y-31809000D02*
X16955000Y-31839000D01*
X16955000Y-31809000D02*
X16925000Y-31839000D01*
X16950000Y-32954000D02*
X16980000Y-32984000D01*
X16980000Y-32954000D02*
X16950000Y-32984000D01*
X16957500Y-31731500D02*
X16987500Y-31761500D01*
X16987500Y-31731500D02*
X16957500Y-31761500D01*
X16984866Y-31294000D02*
X17014866Y-31324000D01*
X17014866Y-31294000D02*
X16984866Y-31324000D01*
X16985000Y-31174000D02*
X17015000Y-31204000D01*
X17015000Y-31174000D02*
X16985000Y-31204000D01*
X16988771Y-30320618D02*
X17018771Y-30350618D01*
X17018771Y-30320618D02*
X16988771Y-30350618D01*
X17025000Y-30044000D02*
X17055000Y-30074000D01*
X17055000Y-30044000D02*
X17025000Y-30074000D01*
X17050226Y-30591227D02*
X17080226Y-30621227D01*
X17080226Y-30591227D02*
X17050226Y-30621227D01*
X17064009Y-31731505D02*
X17094009Y-31761505D01*
X17094009Y-31731505D02*
X17064009Y-31761505D01*
X17071375Y-34198560D02*
X17101375Y-34228560D01*
X17101375Y-34198560D02*
X17071375Y-34228560D01*
X17074374Y-35197655D02*
X17104374Y-35227655D01*
X17104374Y-35197655D02*
X17074374Y-35227655D01*
X17074500Y-34894000D02*
X17104500Y-34924000D01*
X17104500Y-34894000D02*
X17074500Y-34924000D01*
X17092472Y-34361133D02*
X17122472Y-34391133D01*
X17122472Y-34361133D02*
X17092472Y-34391133D01*
X17135000Y-31174000D02*
X17165000Y-31204000D01*
X17165000Y-31174000D02*
X17135000Y-31204000D01*
X17135000Y-31294317D02*
X17165000Y-31324317D01*
X17165000Y-31294317D02*
X17135000Y-31324317D01*
X17195000Y-30741368D02*
X17225000Y-30771368D01*
X17225000Y-30741368D02*
X17195000Y-30771368D01*
X17237138Y-30374289D02*
X17267138Y-30404289D01*
X17267138Y-30374289D02*
X17237138Y-30404289D01*
X17252500Y-30577875D02*
X17282500Y-30607875D01*
X17282500Y-30577875D02*
X17252500Y-30607875D01*
X17295000Y-32329000D02*
X17325000Y-32359000D01*
X17325000Y-32329000D02*
X17295000Y-32359000D01*
X17295000Y-34449000D02*
X17325000Y-34479000D01*
X17325000Y-34449000D02*
X17295000Y-34479000D01*
X17305000Y-32769000D02*
X17335000Y-32799000D01*
X17335000Y-32769000D02*
X17305000Y-32799000D01*
X17305000Y-32954000D02*
X17335000Y-32984000D01*
X17335000Y-32954000D02*
X17305000Y-32984000D01*
X17305000Y-33439000D02*
X17335000Y-33469000D01*
X17335000Y-33439000D02*
X17305000Y-33469000D01*
X17305000Y-33589000D02*
X17335000Y-33619000D01*
X17335000Y-33589000D02*
X17305000Y-33619000D01*
X17305000Y-33769000D02*
X17335000Y-33799000D01*
X17335000Y-33769000D02*
X17305000Y-33799000D01*
X17305000Y-33949000D02*
X17335000Y-33979000D01*
X17335000Y-33949000D02*
X17305000Y-33979000D01*
X17305000Y-34129000D02*
X17335000Y-34159000D01*
X17335000Y-34129000D02*
X17305000Y-34159000D01*
X17310000Y-30744000D02*
X17340000Y-30774000D01*
X17340000Y-30744000D02*
X17310000Y-30774000D01*
X17314282Y-34690904D02*
X17344282Y-34720904D01*
X17344282Y-34690904D02*
X17314282Y-34720904D01*
X17325000Y-30044000D02*
X17355000Y-30074000D01*
X17355000Y-30044000D02*
X17325000Y-30074000D01*
X17328838Y-31128168D02*
X17358838Y-31158168D01*
X17358838Y-31128168D02*
X17328838Y-31158168D01*
X17338489Y-30919185D02*
X17368489Y-30949185D01*
X17368489Y-30919185D02*
X17338489Y-30949185D01*
X17345000Y-30815993D02*
X17375000Y-30845993D01*
X17375000Y-30815993D02*
X17345000Y-30845993D01*
X17375780Y-30257363D02*
X17405780Y-30287363D01*
X17405780Y-30257363D02*
X17375780Y-30287363D01*
X17463989Y-34693410D02*
X17493989Y-34723410D01*
X17493989Y-34693410D02*
X17463989Y-34723410D01*
X17465000Y-33439000D02*
X17495000Y-33469000D01*
X17495000Y-33439000D02*
X17465000Y-33469000D01*
X17465000Y-33589000D02*
X17495000Y-33619000D01*
X17495000Y-33589000D02*
X17465000Y-33619000D01*
X17465000Y-33769000D02*
X17495000Y-33799000D01*
X17495000Y-33769000D02*
X17465000Y-33799000D01*
X17465000Y-33949000D02*
X17495000Y-33979000D01*
X17495000Y-33949000D02*
X17465000Y-33979000D01*
X17465000Y-34139000D02*
X17495000Y-34169000D01*
X17495000Y-34139000D02*
X17465000Y-34169000D01*
X17467778Y-34448129D02*
X17497778Y-34478129D01*
X17497778Y-34448129D02*
X17467778Y-34478129D01*
X17477197Y-34292669D02*
X17507197Y-34322669D01*
X17507197Y-34292669D02*
X17477197Y-34322669D01*
X17498335Y-35559835D02*
X17528335Y-35589835D01*
X17528335Y-35559835D02*
X17498335Y-35589835D01*
X17500000Y-32769000D02*
X17530000Y-32799000D01*
X17530000Y-32769000D02*
X17500000Y-32799000D01*
X17500000Y-32954000D02*
X17530000Y-32984000D01*
X17530000Y-32954000D02*
X17500000Y-32984000D01*
X17584855Y-30258477D02*
X17614855Y-30288477D01*
X17614855Y-30258477D02*
X17584855Y-30288477D01*
X17585000Y-32459000D02*
X17615000Y-32489000D01*
X17615000Y-32459000D02*
X17585000Y-32489000D01*
X17625000Y-30044000D02*
X17655000Y-30074000D01*
X17655000Y-30044000D02*
X17625000Y-30074000D01*
X17685082Y-32059082D02*
X17715082Y-32089082D01*
X17715082Y-32059082D02*
X17685082Y-32089082D01*
X17735000Y-32529000D02*
X17765000Y-32559000D01*
X17765000Y-32529000D02*
X17735000Y-32559000D01*
X17799839Y-35559000D02*
X17829839Y-35589000D01*
X17829839Y-35559000D02*
X17799839Y-35589000D01*
X17805000Y-34819000D02*
X17835000Y-34849000D01*
X17835000Y-34819000D02*
X17805000Y-34849000D01*
X17831236Y-30261260D02*
X17861236Y-30291260D01*
X17861236Y-30261260D02*
X17831236Y-30291260D01*
X17856751Y-32189000D02*
X17886751Y-32219000D01*
X17886751Y-32189000D02*
X17856751Y-32219000D01*
X17895723Y-31900028D02*
X17925723Y-31930028D01*
X17925723Y-31900028D02*
X17895723Y-31930028D01*
X17915000Y-33439000D02*
X17945000Y-33469000D01*
X17945000Y-33439000D02*
X17915000Y-33469000D01*
X17915000Y-33589000D02*
X17945000Y-33619000D01*
X17945000Y-33589000D02*
X17915000Y-33619000D01*
X17915000Y-33769000D02*
X17945000Y-33799000D01*
X17945000Y-33769000D02*
X17915000Y-33799000D01*
X17915000Y-33949000D02*
X17945000Y-33979000D01*
X17945000Y-33949000D02*
X17915000Y-33979000D01*
X17915000Y-34119000D02*
X17945000Y-34149000D01*
X17945000Y-34119000D02*
X17915000Y-34149000D01*
X17925000Y-30044000D02*
X17955000Y-30074000D01*
X17955000Y-30044000D02*
X17925000Y-30074000D01*
X17970000Y-32294000D02*
X18000000Y-32324000D01*
X18000000Y-32294000D02*
X17970000Y-32324000D01*
X17985000Y-30989000D02*
X18015000Y-31019000D01*
X18015000Y-30989000D02*
X17985000Y-31019000D01*
X17985000Y-32769000D02*
X18015000Y-32799000D01*
X18015000Y-32769000D02*
X17985000Y-32799000D01*
X17985000Y-32954000D02*
X18015000Y-32984000D01*
X18015000Y-32954000D02*
X17985000Y-32984000D01*
X17995827Y-34444000D02*
X18025827Y-34474000D01*
X18025827Y-34444000D02*
X17995827Y-34474000D01*
X17996392Y-30428655D02*
X18026392Y-30458655D01*
X18026392Y-30428655D02*
X17996392Y-30458655D01*
X18009000Y-32198000D02*
X18039000Y-32228000D01*
X18039000Y-32198000D02*
X18009000Y-32228000D01*
X18025000Y-30789000D02*
X18055000Y-30819000D01*
X18055000Y-30789000D02*
X18025000Y-30819000D01*
X18025000Y-32064000D02*
X18055000Y-32094000D01*
X18055000Y-32064000D02*
X18025000Y-32094000D01*
X18085000Y-34309000D02*
X18115000Y-34339000D01*
X18115000Y-34309000D02*
X18085000Y-34339000D01*
X18099655Y-31771411D02*
X18129655Y-31801411D01*
X18129655Y-31771411D02*
X18099655Y-31801411D01*
X18101422Y-31129185D02*
X18131422Y-31159185D01*
X18131422Y-31129185D02*
X18101422Y-31159185D01*
X18105000Y-32559000D02*
X18135000Y-32589000D01*
X18135000Y-32559000D02*
X18105000Y-32589000D01*
X18225000Y-30044000D02*
X18255000Y-30074000D01*
X18255000Y-30044000D02*
X18225000Y-30074000D01*
X18225000Y-30249000D02*
X18255000Y-30279000D01*
X18255000Y-30249000D02*
X18225000Y-30279000D01*
X18225000Y-31079000D02*
X18255000Y-31109000D01*
X18255000Y-31079000D02*
X18225000Y-31109000D01*
X18265000Y-32299000D02*
X18295000Y-32329000D01*
X18295000Y-32299000D02*
X18265000Y-32329000D01*
X18285000Y-32094000D02*
X18315000Y-32124000D01*
X18315000Y-32094000D02*
X18285000Y-32124000D01*
X18285000Y-34969000D02*
X18315000Y-34999000D01*
X18315000Y-34969000D02*
X18285000Y-34999000D01*
X18286776Y-35256144D02*
X18316776Y-35286144D01*
X18316776Y-35256144D02*
X18286776Y-35286144D01*
X18295000Y-34739000D02*
X18325000Y-34769000D01*
X18325000Y-34739000D02*
X18295000Y-34769000D01*
X18305000Y-33439000D02*
X18335000Y-33469000D01*
X18335000Y-33439000D02*
X18305000Y-33469000D01*
X18305000Y-33589000D02*
X18335000Y-33619000D01*
X18335000Y-33589000D02*
X18305000Y-33619000D01*
X18305000Y-33769000D02*
X18335000Y-33799000D01*
X18335000Y-33769000D02*
X18305000Y-33799000D01*
X18305000Y-33939000D02*
X18335000Y-33969000D01*
X18335000Y-33939000D02*
X18305000Y-33969000D01*
X18305000Y-34099000D02*
X18335000Y-34129000D01*
X18335000Y-34099000D02*
X18305000Y-34129000D01*
X18305000Y-34289000D02*
X18335000Y-34319000D01*
X18335000Y-34289000D02*
X18305000Y-34319000D01*
X18305000Y-34539000D02*
X18335000Y-34569000D01*
X18335000Y-34539000D02*
X18305000Y-34569000D01*
X18385000Y-34979000D02*
X18415000Y-35009000D01*
X18415000Y-34979000D02*
X18385000Y-35009000D01*
X18385902Y-33163048D02*
X18415902Y-33193048D01*
X18415902Y-33163048D02*
X18385902Y-33193048D01*
X18432912Y-35540626D02*
X18462912Y-35570626D01*
X18462912Y-35540626D02*
X18432912Y-35570626D01*
X18455000Y-32489000D02*
X18485000Y-32519000D01*
X18485000Y-32489000D02*
X18455000Y-32519000D01*
X18455000Y-32769000D02*
X18485000Y-32799000D01*
X18485000Y-32769000D02*
X18455000Y-32799000D01*
X18455000Y-32954000D02*
X18485000Y-32984000D01*
X18485000Y-32954000D02*
X18455000Y-32984000D01*
X18465000Y-33439000D02*
X18495000Y-33469000D01*
X18495000Y-33439000D02*
X18465000Y-33469000D01*
X18465000Y-33589000D02*
X18495000Y-33619000D01*
X18495000Y-33589000D02*
X18465000Y-33619000D01*
X18465000Y-33769000D02*
X18495000Y-33799000D01*
X18495000Y-33769000D02*
X18465000Y-33799000D01*
X18465000Y-33939000D02*
X18495000Y-33969000D01*
X18495000Y-33939000D02*
X18465000Y-33969000D01*
X18465000Y-34099000D02*
X18495000Y-34129000D01*
X18495000Y-34099000D02*
X18465000Y-34129000D01*
X18465000Y-34429000D02*
X18495000Y-34459000D01*
X18495000Y-34429000D02*
X18465000Y-34459000D01*
X18465000Y-34639000D02*
X18495000Y-34669000D01*
X18495000Y-34639000D02*
X18465000Y-34669000D01*
X18485000Y-32298000D02*
X18515000Y-32328000D01*
X18515000Y-32298000D02*
X18485000Y-32328000D01*
X18524388Y-34795932D02*
X18554388Y-34825932D01*
X18554388Y-34795932D02*
X18524388Y-34825932D01*
X18525000Y-30249000D02*
X18555000Y-30279000D01*
X18555000Y-30249000D02*
X18525000Y-30279000D01*
X18525000Y-31079000D02*
X18555000Y-31109000D01*
X18555000Y-31079000D02*
X18525000Y-31109000D01*
X18525000Y-31509000D02*
X18555000Y-31539000D01*
X18555000Y-31509000D02*
X18525000Y-31539000D01*
X18525089Y-30044731D02*
X18555089Y-30074731D01*
X18555089Y-30044731D02*
X18525089Y-30074731D01*
X18605000Y-32299000D02*
X18635000Y-32329000D01*
X18635000Y-32299000D02*
X18605000Y-32329000D01*
X18615000Y-32529000D02*
X18645000Y-32559000D01*
X18645000Y-32529000D02*
X18615000Y-32559000D01*
X18615000Y-33259000D02*
X18645000Y-33289000D01*
X18645000Y-33259000D02*
X18615000Y-33289000D01*
X18705000Y-35179000D02*
X18735000Y-35209000D01*
X18735000Y-35179000D02*
X18705000Y-35209000D01*
X18724000Y-32673000D02*
X18754000Y-32703000D01*
X18754000Y-32673000D02*
X18724000Y-32703000D01*
X18763825Y-33341361D02*
X18793825Y-33371361D01*
X18793825Y-33341361D02*
X18763825Y-33371361D01*
X18765000Y-33159000D02*
X18795000Y-33189000D01*
X18795000Y-33159000D02*
X18765000Y-33189000D01*
X18825000Y-30259000D02*
X18855000Y-30289000D01*
X18855000Y-30259000D02*
X18825000Y-30289000D01*
X18825000Y-31069000D02*
X18855000Y-31099000D01*
X18855000Y-31069000D02*
X18825000Y-31099000D01*
X18825386Y-30043432D02*
X18855386Y-30073432D01*
X18855386Y-30043432D02*
X18825386Y-30073432D01*
X18835000Y-30649000D02*
X18865000Y-30679000D01*
X18865000Y-30649000D02*
X18835000Y-30679000D01*
X18855000Y-33589000D02*
X18885000Y-33619000D01*
X18885000Y-33589000D02*
X18855000Y-33619000D01*
X18855000Y-33769000D02*
X18885000Y-33799000D01*
X18885000Y-33769000D02*
X18855000Y-33799000D01*
X18855000Y-33939000D02*
X18885000Y-33969000D01*
X18885000Y-33939000D02*
X18855000Y-33969000D01*
X18855000Y-34099000D02*
X18885000Y-34129000D01*
X18885000Y-34099000D02*
X18855000Y-34129000D01*
X18855000Y-34429000D02*
X18885000Y-34459000D01*
X18885000Y-34429000D02*
X18855000Y-34459000D01*
X18855000Y-34819000D02*
X18885000Y-34849000D01*
X18885000Y-34819000D02*
X18855000Y-34849000D01*
X18857851Y-35559379D02*
X18887851Y-35589379D01*
X18887851Y-35559379D02*
X18857851Y-35589379D01*
X18868786Y-33242318D02*
X18898786Y-33272318D01*
X18898786Y-33242318D02*
X18868786Y-33272318D01*
X18875000Y-32889000D02*
X18905000Y-32919000D01*
X18905000Y-32889000D02*
X18875000Y-32919000D01*
X18919577Y-32059718D02*
X18949577Y-32089718D01*
X18949577Y-32059718D02*
X18919577Y-32089718D01*
X18975000Y-30195548D02*
X19005000Y-30225548D01*
X19005000Y-30195548D02*
X18975000Y-30225548D01*
X18979543Y-35349045D02*
X19009543Y-35379045D01*
X19009543Y-35349045D02*
X18979543Y-35379045D01*
X18985000Y-30409000D02*
X19015000Y-30439000D01*
X19015000Y-30409000D02*
X18985000Y-30439000D01*
X18985000Y-33404000D02*
X19015000Y-33434000D01*
X19015000Y-33404000D02*
X18985000Y-33434000D01*
X19005000Y-35119000D02*
X19035000Y-35149000D01*
X19035000Y-35119000D02*
X19005000Y-35149000D01*
X19055713Y-32427201D02*
X19085713Y-32457201D01*
X19085713Y-32427201D02*
X19055713Y-32457201D01*
X19075000Y-33219000D02*
X19105000Y-33249000D01*
X19105000Y-33219000D02*
X19075000Y-33249000D01*
X19079254Y-30629868D02*
X19109254Y-30659868D01*
X19109254Y-30629868D02*
X19079254Y-30659868D01*
X19080000Y-32989000D02*
X19110000Y-33019000D01*
X19110000Y-32989000D02*
X19080000Y-33019000D01*
X19081186Y-32083103D02*
X19111186Y-32113103D01*
X19111186Y-32083103D02*
X19081186Y-32113103D01*
X19105000Y-34939000D02*
X19135000Y-34969000D01*
X19135000Y-34939000D02*
X19105000Y-34969000D01*
X19165000Y-32629000D02*
X19195000Y-32659000D01*
X19195000Y-32629000D02*
X19165000Y-32659000D01*
X19165000Y-33024000D02*
X19195000Y-33054000D01*
X19195000Y-33024000D02*
X19165000Y-33054000D01*
X19220000Y-33919000D02*
X19250000Y-33949000D01*
X19250000Y-33919000D02*
X19220000Y-33949000D01*
X19240000Y-33739000D02*
X19270000Y-33769000D01*
X19270000Y-33739000D02*
X19240000Y-33769000D01*
X19245000Y-32989000D02*
X19275000Y-33019000D01*
X19275000Y-32989000D02*
X19245000Y-33019000D01*
X19255000Y-32619000D02*
X19285000Y-32649000D01*
X19285000Y-32619000D02*
X19255000Y-32649000D01*
X19260000Y-33569000D02*
X19290000Y-33599000D01*
X19290000Y-33569000D02*
X19260000Y-33599000D01*
X19265000Y-31509000D02*
X19295000Y-31539000D01*
X19295000Y-31509000D02*
X19265000Y-31539000D01*
X19268424Y-30783961D02*
X19298424Y-30813961D01*
X19298424Y-30783961D02*
X19268424Y-30813961D01*
X19273363Y-34816940D02*
X19303363Y-34846940D01*
X19303363Y-34816940D02*
X19273363Y-34846940D01*
X19275000Y-33179000D02*
X19305000Y-33209000D01*
X19305000Y-33179000D02*
X19275000Y-33209000D01*
X19279543Y-32427201D02*
X19309543Y-32457201D01*
X19309543Y-32427201D02*
X19279543Y-32457201D01*
X19315000Y-34009000D02*
X19345000Y-34039000D01*
X19345000Y-34009000D02*
X19315000Y-34039000D01*
X19315000Y-34429000D02*
X19345000Y-34459000D01*
X19345000Y-34429000D02*
X19315000Y-34459000D01*
X19467500Y-33449000D02*
X19497500Y-33479000D01*
X19497500Y-33449000D02*
X19467500Y-33479000D01*
X19496108Y-34769000D02*
X19526108Y-34799000D01*
X19526108Y-34769000D02*
X19496108Y-34799000D01*
X19510802Y-32803176D02*
X19540802Y-32833176D01*
X19540802Y-32803176D02*
X19510802Y-32833176D01*
X19545390Y-30833632D02*
X19575390Y-30863632D01*
X19575390Y-30833632D02*
X19545390Y-30863632D01*
X19565765Y-33403031D02*
X19595765Y-33433031D01*
X19595765Y-33403031D02*
X19565765Y-33433031D01*
X19699059Y-34715971D02*
X19729059Y-34745971D01*
X19729059Y-34715971D02*
X19699059Y-34745971D01*
X19710000Y-33444000D02*
X19740000Y-33474000D01*
X19740000Y-33444000D02*
X19710000Y-33474000D01*
X19725000Y-31859000D02*
X19755000Y-31889000D01*
X19755000Y-31859000D02*
X19725000Y-31889000D01*
X19725000Y-32188187D02*
X19755000Y-32218187D01*
X19755000Y-32188187D02*
X19725000Y-32218187D01*
X19725000Y-32469000D02*
X19755000Y-32499000D01*
X19755000Y-32469000D02*
X19725000Y-32499000D01*
X19725000Y-34483154D02*
X19755000Y-34513154D01*
X19755000Y-34483154D02*
X19725000Y-34513154D01*
X19726604Y-31595191D02*
X19756604Y-31625191D01*
X19756604Y-31595191D02*
X19726604Y-31625191D01*
X19726975Y-30987315D02*
X19756975Y-31017315D01*
X19756975Y-30987315D02*
X19726975Y-31017315D01*
X19727984Y-33881316D02*
X19757984Y-33911316D01*
X19757984Y-33881316D02*
X19727984Y-33911316D01*
X19728274Y-31291717D02*
X19758274Y-31321717D01*
X19758274Y-31291717D02*
X19728274Y-31321717D01*
X19729098Y-33591350D02*
X19759098Y-33621350D01*
X19759098Y-33591350D02*
X19729098Y-33621350D01*
X19730000Y-34179000D02*
X19760000Y-34209000D01*
X19760000Y-34179000D02*
X19730000Y-34209000D01*
X19000000Y-32577000D02*
G75*
G02*
X18930000Y-32577000I-35000J0D01*
G01*
X18930000Y-32577000D02*
G75*
G02*
X19000000Y-32577000I35000J0D01*
G01*
X19000000Y-33057000D02*
G75*
G02*
X18930000Y-33057000I-35000J0D01*
G01*
X18930000Y-33057000D02*
G75*
G02*
X19000000Y-33057000I35000J0D01*
G01*
X19430000Y-32577000D02*
G75*
G02*
X19360000Y-32577000I-35000J0D01*
G01*
X19360000Y-32577000D02*
G75*
G02*
X19430000Y-32577000I35000J0D01*
G01*
X19430000Y-33057000D02*
G75*
G02*
X19360000Y-33057000I-35000J0D01*
G01*
X19360000Y-33057000D02*
G75*
G02*
X19430000Y-33057000I35000J0D01*
G01*
X16403000Y-34543000D02*
X16403000Y-34623000D01*
X16363000Y-34583000D02*
X16443000Y-34583000D01*
X16603000Y-34543000D02*
X16603000Y-34623000D01*
X16563000Y-34583000D02*
X16643000Y-34583000D01*
X16803000Y-34543000D02*
X16803000Y-34623000D01*
X16763000Y-34583000D02*
X16843000Y-34583000D01*
X17003000Y-34543000D02*
X17003000Y-34623000D01*
X16963000Y-34583000D02*
X17043000Y-34583000D01*
X17203000Y-34543000D02*
X17203000Y-34623000D01*
X17163000Y-34583000D02*
X17243000Y-34583000D01*
X17403000Y-34543000D02*
X17403000Y-34623000D01*
X17363000Y-34583000D02*
X17443000Y-34583000D01*
X10235356Y-31201356D02*
X10235356Y-31130644D01*
X10164644Y-31130644D01*
X10164644Y-31201356D01*
X10235356Y-31201356D01*
X10235356Y-31455356D02*
X10235356Y-31384644D01*
X10164644Y-31384644D01*
X10164644Y-31455356D01*
X10235356Y-31455356D01*
X10235356Y-31709356D02*
X10235356Y-31638644D01*
X10164644Y-31638644D01*
X10164644Y-31709356D01*
X10235356Y-31709356D01*
X10235356Y-31963356D02*
X10235356Y-31892644D01*
X10164644Y-31892644D01*
X10164644Y-31963356D01*
X10235356Y-31963356D01*
X10235356Y-32217356D02*
X10235356Y-32146644D01*
X10164644Y-32146644D01*
X10164644Y-32217356D01*
X10235356Y-32217356D01*
X10235356Y-32471356D02*
X10235356Y-32400644D01*
X10164644Y-32400644D01*
X10164644Y-32471356D01*
X10235356Y-32471356D01*
X10235356Y-32725356D02*
X10235356Y-32654644D01*
X10164644Y-32654644D01*
X10164644Y-32725356D01*
X10235356Y-32725356D01*
X10235356Y-32979356D02*
X10235356Y-32908644D01*
X10164644Y-32908644D01*
X10164644Y-32979356D01*
X10235356Y-32979356D01*
X10235356Y-33233356D02*
X10235356Y-33162644D01*
X10164644Y-33162644D01*
X10164644Y-33233356D01*
X10235356Y-33233356D01*
X10235356Y-33487356D02*
X10235356Y-33416644D01*
X10164644Y-33416644D01*
X10164644Y-33487356D01*
X10235356Y-33487356D01*
X10235356Y-33741356D02*
X10235356Y-33670644D01*
X10164644Y-33670644D01*
X10164644Y-33741356D01*
X10235356Y-33741356D01*
X10235356Y-33995356D02*
X10235356Y-33924644D01*
X10164644Y-33924644D01*
X10164644Y-33995356D01*
X10235356Y-33995356D01*
X10235356Y-34249356D02*
X10235356Y-34178644D01*
X10164644Y-34178644D01*
X10164644Y-34249356D01*
X10235356Y-34249356D01*
X10235356Y-34503356D02*
X10235356Y-34432644D01*
X10164644Y-34432644D01*
X10164644Y-34503356D01*
X10235356Y-34503356D01*
X14112356Y-30639356D02*
X14112356Y-30568644D01*
X14041644Y-30568644D01*
X14041644Y-30639356D01*
X14112356Y-30639356D01*
X14212856Y-31495856D02*
X14212856Y-31425144D01*
X14142144Y-31425144D01*
X14142144Y-31495856D01*
X14212856Y-31495856D01*
X14212856Y-31749856D02*
X14212856Y-31679144D01*
X14142144Y-31679144D01*
X14142144Y-31749856D01*
X14212856Y-31749856D01*
X14212856Y-32003856D02*
X14212856Y-31933144D01*
X14142144Y-31933144D01*
X14142144Y-32003856D01*
X14212856Y-32003856D01*
X14212856Y-32257856D02*
X14212856Y-32187144D01*
X14142144Y-32187144D01*
X14142144Y-32257856D01*
X14212856Y-32257856D01*
X14212856Y-32511856D02*
X14212856Y-32441144D01*
X14142144Y-32441144D01*
X14142144Y-32511856D01*
X14212856Y-32511856D01*
X14366356Y-30639356D02*
X14366356Y-30568644D01*
X14295644Y-30568644D01*
X14295644Y-30639356D01*
X14366356Y-30639356D01*
X14620356Y-30639356D02*
X14620356Y-30568644D01*
X14549644Y-30568644D01*
X14549644Y-30639356D01*
X14620356Y-30639356D01*
X19635356Y-32471356D02*
X19635356Y-32400644D01*
X19564644Y-32400644D01*
X19564644Y-32471356D01*
X19635356Y-32471356D01*
X19635356Y-32725356D02*
X19635356Y-32654644D01*
X19564644Y-32654644D01*
X19564644Y-32725356D01*
X19635356Y-32725356D01*
X19635356Y-32979356D02*
X19635356Y-32908644D01*
X19564644Y-32908644D01*
X19564644Y-32979356D01*
X19635356Y-32979356D01*
X19635356Y-33233356D02*
X19635356Y-33162644D01*
X19564644Y-33162644D01*
X19564644Y-33233356D01*
X19635356Y-33233356D01*
D11*
X10255777Y-35950484D02*
X10255777Y-35750484D01*
X10255777Y-35750484D02*
X10303396Y-35750484D01*
X10303396Y-35750484D02*
X10331967Y-35760008D01*
X10331967Y-35760008D02*
X10351015Y-35779055D01*
X10351015Y-35779055D02*
X10360539Y-35798103D01*
X10360539Y-35798103D02*
X10370063Y-35836198D01*
X10370063Y-35836198D02*
X10370063Y-35864770D01*
X10370063Y-35864770D02*
X10360539Y-35902865D01*
X10360539Y-35902865D02*
X10351015Y-35921912D01*
X10351015Y-35921912D02*
X10331967Y-35940960D01*
X10331967Y-35940960D02*
X10303396Y-35950484D01*
X10303396Y-35950484D02*
X10255777Y-35950484D01*
X10455777Y-35950484D02*
X10455777Y-35817150D01*
X10455777Y-35855246D02*
X10465301Y-35836198D01*
X10465301Y-35836198D02*
X10474824Y-35826674D01*
X10474824Y-35826674D02*
X10493872Y-35817150D01*
X10493872Y-35817150D02*
X10512920Y-35817150D01*
X10579586Y-35950484D02*
X10579586Y-35817150D01*
X10579586Y-35750484D02*
X10570063Y-35760008D01*
X10570063Y-35760008D02*
X10579586Y-35769531D01*
X10579586Y-35769531D02*
X10589110Y-35760008D01*
X10589110Y-35760008D02*
X10579586Y-35750484D01*
X10579586Y-35750484D02*
X10579586Y-35769531D01*
X10703396Y-35950484D02*
X10684348Y-35940960D01*
X10684348Y-35940960D02*
X10674824Y-35921912D01*
X10674824Y-35921912D02*
X10674824Y-35750484D01*
X10808158Y-35950484D02*
X10789110Y-35940960D01*
X10789110Y-35940960D02*
X10779586Y-35921912D01*
X10779586Y-35921912D02*
X10779586Y-35750484D01*
X11036729Y-35950484D02*
X11036729Y-35750484D01*
X11036729Y-35750484D02*
X11103396Y-35893341D01*
X11103396Y-35893341D02*
X11170063Y-35750484D01*
X11170063Y-35750484D02*
X11170063Y-35950484D01*
X11351015Y-35950484D02*
X11351015Y-35845722D01*
X11351015Y-35845722D02*
X11341491Y-35826674D01*
X11341491Y-35826674D02*
X11322443Y-35817150D01*
X11322443Y-35817150D02*
X11284348Y-35817150D01*
X11284348Y-35817150D02*
X11265301Y-35826674D01*
X11351015Y-35940960D02*
X11331967Y-35950484D01*
X11331967Y-35950484D02*
X11284348Y-35950484D01*
X11284348Y-35950484D02*
X11265301Y-35940960D01*
X11265301Y-35940960D02*
X11255777Y-35921912D01*
X11255777Y-35921912D02*
X11255777Y-35902865D01*
X11255777Y-35902865D02*
X11265301Y-35883817D01*
X11265301Y-35883817D02*
X11284348Y-35874293D01*
X11284348Y-35874293D02*
X11331967Y-35874293D01*
X11331967Y-35874293D02*
X11351015Y-35864770D01*
X11446253Y-35817150D02*
X11446253Y-36017150D01*
X11446253Y-35826674D02*
X11465301Y-35817150D01*
X11465301Y-35817150D02*
X11503396Y-35817150D01*
X11503396Y-35817150D02*
X11522443Y-35826674D01*
X11522443Y-35826674D02*
X11531967Y-35836198D01*
X11531967Y-35836198D02*
X11541491Y-35855246D01*
X11541491Y-35855246D02*
X11541491Y-35912389D01*
X11541491Y-35912389D02*
X11531967Y-35931436D01*
X11531967Y-35931436D02*
X11522443Y-35940960D01*
X11522443Y-35940960D02*
X11503396Y-35950484D01*
X11503396Y-35950484D02*
X11465301Y-35950484D01*
X11465301Y-35950484D02*
X11446253Y-35940960D01*
X11627205Y-35931436D02*
X11636729Y-35940960D01*
X11636729Y-35940960D02*
X11627205Y-35950484D01*
X11627205Y-35950484D02*
X11617682Y-35940960D01*
X11617682Y-35940960D02*
X11627205Y-35931436D01*
X11627205Y-35931436D02*
X11627205Y-35950484D01*
X11627205Y-35826674D02*
X11636729Y-35836198D01*
X11636729Y-35836198D02*
X11627205Y-35845722D01*
X11627205Y-35845722D02*
X11617682Y-35836198D01*
X11617682Y-35836198D02*
X11627205Y-35826674D01*
X11627205Y-35826674D02*
X11627205Y-35845722D01*
D10*
X9965000Y-36264000D02*
X9995000Y-36294000D01*
X9995000Y-36264000D02*
X9965000Y-36294000D01*
D11*
X10293872Y-36170484D02*
X10312920Y-36170484D01*
X10312920Y-36170484D02*
X10331967Y-36180008D01*
X10331967Y-36180008D02*
X10341491Y-36189531D01*
X10341491Y-36189531D02*
X10351015Y-36208579D01*
X10351015Y-36208579D02*
X10360539Y-36246674D01*
X10360539Y-36246674D02*
X10360539Y-36294293D01*
X10360539Y-36294293D02*
X10351015Y-36332389D01*
X10351015Y-36332389D02*
X10341491Y-36351436D01*
X10341491Y-36351436D02*
X10331967Y-36360960D01*
X10331967Y-36360960D02*
X10312920Y-36370484D01*
X10312920Y-36370484D02*
X10293872Y-36370484D01*
X10293872Y-36370484D02*
X10274824Y-36360960D01*
X10274824Y-36360960D02*
X10265301Y-36351436D01*
X10265301Y-36351436D02*
X10255777Y-36332389D01*
X10255777Y-36332389D02*
X10246253Y-36294293D01*
X10246253Y-36294293D02*
X10246253Y-36246674D01*
X10246253Y-36246674D02*
X10255777Y-36208579D01*
X10255777Y-36208579D02*
X10265301Y-36189531D01*
X10265301Y-36189531D02*
X10274824Y-36180008D01*
X10274824Y-36180008D02*
X10293872Y-36170484D01*
X10446253Y-36351436D02*
X10455777Y-36360960D01*
X10455777Y-36360960D02*
X10446253Y-36370484D01*
X10446253Y-36370484D02*
X10436729Y-36360960D01*
X10436729Y-36360960D02*
X10446253Y-36351436D01*
X10446253Y-36351436D02*
X10446253Y-36370484D01*
X10522444Y-36170484D02*
X10646253Y-36170484D01*
X10646253Y-36170484D02*
X10579586Y-36246674D01*
X10579586Y-36246674D02*
X10608158Y-36246674D01*
X10608158Y-36246674D02*
X10627205Y-36256198D01*
X10627205Y-36256198D02*
X10636729Y-36265722D01*
X10636729Y-36265722D02*
X10646253Y-36284770D01*
X10646253Y-36284770D02*
X10646253Y-36332389D01*
X10646253Y-36332389D02*
X10636729Y-36351436D01*
X10636729Y-36351436D02*
X10627205Y-36360960D01*
X10627205Y-36360960D02*
X10608158Y-36370484D01*
X10608158Y-36370484D02*
X10551015Y-36370484D01*
X10551015Y-36370484D02*
X10531967Y-36360960D01*
X10531967Y-36360960D02*
X10522444Y-36351436D01*
X10770063Y-36170484D02*
X10789110Y-36170484D01*
X10789110Y-36170484D02*
X10808158Y-36180008D01*
X10808158Y-36180008D02*
X10817682Y-36189531D01*
X10817682Y-36189531D02*
X10827205Y-36208579D01*
X10827205Y-36208579D02*
X10836729Y-36246674D01*
X10836729Y-36246674D02*
X10836729Y-36294293D01*
X10836729Y-36294293D02*
X10827205Y-36332389D01*
X10827205Y-36332389D02*
X10817682Y-36351436D01*
X10817682Y-36351436D02*
X10808158Y-36360960D01*
X10808158Y-36360960D02*
X10789110Y-36370484D01*
X10789110Y-36370484D02*
X10770063Y-36370484D01*
X10770063Y-36370484D02*
X10751015Y-36360960D01*
X10751015Y-36360960D02*
X10741491Y-36351436D01*
X10741491Y-36351436D02*
X10731967Y-36332389D01*
X10731967Y-36332389D02*
X10722444Y-36294293D01*
X10722444Y-36294293D02*
X10722444Y-36246674D01*
X10722444Y-36246674D02*
X10731967Y-36208579D01*
X10731967Y-36208579D02*
X10741491Y-36189531D01*
X10741491Y-36189531D02*
X10751015Y-36180008D01*
X10751015Y-36180008D02*
X10770063Y-36170484D01*
X10960539Y-36170484D02*
X10979586Y-36170484D01*
X10979586Y-36170484D02*
X10998634Y-36180008D01*
X10998634Y-36180008D02*
X11008158Y-36189531D01*
X11008158Y-36189531D02*
X11017682Y-36208579D01*
X11017682Y-36208579D02*
X11027205Y-36246674D01*
X11027205Y-36246674D02*
X11027205Y-36294293D01*
X11027205Y-36294293D02*
X11017682Y-36332389D01*
X11017682Y-36332389D02*
X11008158Y-36351436D01*
X11008158Y-36351436D02*
X10998634Y-36360960D01*
X10998634Y-36360960D02*
X10979586Y-36370484D01*
X10979586Y-36370484D02*
X10960539Y-36370484D01*
X10960539Y-36370484D02*
X10941491Y-36360960D01*
X10941491Y-36360960D02*
X10931967Y-36351436D01*
X10931967Y-36351436D02*
X10922444Y-36332389D01*
X10922444Y-36332389D02*
X10912920Y-36294293D01*
X10912920Y-36294293D02*
X10912920Y-36246674D01*
X10912920Y-36246674D02*
X10922444Y-36208579D01*
X10922444Y-36208579D02*
X10931967Y-36189531D01*
X10931967Y-36189531D02*
X10941491Y-36180008D01*
X10941491Y-36180008D02*
X10960539Y-36170484D01*
X11112920Y-36370484D02*
X11112920Y-36237150D01*
X11112920Y-36256198D02*
X11122444Y-36246674D01*
X11122444Y-36246674D02*
X11141491Y-36237150D01*
X11141491Y-36237150D02*
X11170063Y-36237150D01*
X11170063Y-36237150D02*
X11189110Y-36246674D01*
X11189110Y-36246674D02*
X11198634Y-36265722D01*
X11198634Y-36265722D02*
X11198634Y-36370484D01*
X11198634Y-36265722D02*
X11208158Y-36246674D01*
X11208158Y-36246674D02*
X11227205Y-36237150D01*
X11227205Y-36237150D02*
X11255777Y-36237150D01*
X11255777Y-36237150D02*
X11274824Y-36246674D01*
X11274824Y-36246674D02*
X11284348Y-36265722D01*
X11284348Y-36265722D02*
X11284348Y-36370484D01*
X11379586Y-36370484D02*
X11379586Y-36237150D01*
X11379586Y-36256198D02*
X11389110Y-36246674D01*
X11389110Y-36246674D02*
X11408158Y-36237150D01*
X11408158Y-36237150D02*
X11436729Y-36237150D01*
X11436729Y-36237150D02*
X11455777Y-36246674D01*
X11455777Y-36246674D02*
X11465301Y-36265722D01*
X11465301Y-36265722D02*
X11465301Y-36370484D01*
X11465301Y-36265722D02*
X11474824Y-36246674D01*
X11474824Y-36246674D02*
X11493872Y-36237150D01*
X11493872Y-36237150D02*
X11522443Y-36237150D01*
X11522443Y-36237150D02*
X11541491Y-36246674D01*
X11541491Y-36246674D02*
X11551015Y-36265722D01*
X11551015Y-36265722D02*
X11551015Y-36370484D01*
X11941491Y-36160960D02*
X11770063Y-36418103D01*
X12198634Y-36170484D02*
X12217682Y-36170484D01*
X12217682Y-36170484D02*
X12236729Y-36180008D01*
X12236729Y-36180008D02*
X12246253Y-36189531D01*
X12246253Y-36189531D02*
X12255777Y-36208579D01*
X12255777Y-36208579D02*
X12265301Y-36246674D01*
X12265301Y-36246674D02*
X12265301Y-36294293D01*
X12265301Y-36294293D02*
X12255777Y-36332389D01*
X12255777Y-36332389D02*
X12246253Y-36351436D01*
X12246253Y-36351436D02*
X12236729Y-36360960D01*
X12236729Y-36360960D02*
X12217682Y-36370484D01*
X12217682Y-36370484D02*
X12198634Y-36370484D01*
X12198634Y-36370484D02*
X12179586Y-36360960D01*
X12179586Y-36360960D02*
X12170063Y-36351436D01*
X12170063Y-36351436D02*
X12160539Y-36332389D01*
X12160539Y-36332389D02*
X12151015Y-36294293D01*
X12151015Y-36294293D02*
X12151015Y-36246674D01*
X12151015Y-36246674D02*
X12160539Y-36208579D01*
X12160539Y-36208579D02*
X12170063Y-36189531D01*
X12170063Y-36189531D02*
X12179586Y-36180008D01*
X12179586Y-36180008D02*
X12198634Y-36170484D01*
X12351015Y-36351436D02*
X12360539Y-36360960D01*
X12360539Y-36360960D02*
X12351015Y-36370484D01*
X12351015Y-36370484D02*
X12341491Y-36360960D01*
X12341491Y-36360960D02*
X12351015Y-36351436D01*
X12351015Y-36351436D02*
X12351015Y-36370484D01*
X12484348Y-36170484D02*
X12503396Y-36170484D01*
X12503396Y-36170484D02*
X12522444Y-36180008D01*
X12522444Y-36180008D02*
X12531967Y-36189531D01*
X12531967Y-36189531D02*
X12541491Y-36208579D01*
X12541491Y-36208579D02*
X12551015Y-36246674D01*
X12551015Y-36246674D02*
X12551015Y-36294293D01*
X12551015Y-36294293D02*
X12541491Y-36332389D01*
X12541491Y-36332389D02*
X12531967Y-36351436D01*
X12531967Y-36351436D02*
X12522444Y-36360960D01*
X12522444Y-36360960D02*
X12503396Y-36370484D01*
X12503396Y-36370484D02*
X12484348Y-36370484D01*
X12484348Y-36370484D02*
X12465301Y-36360960D01*
X12465301Y-36360960D02*
X12455777Y-36351436D01*
X12455777Y-36351436D02*
X12446253Y-36332389D01*
X12446253Y-36332389D02*
X12436729Y-36294293D01*
X12436729Y-36294293D02*
X12436729Y-36246674D01*
X12436729Y-36246674D02*
X12446253Y-36208579D01*
X12446253Y-36208579D02*
X12455777Y-36189531D01*
X12455777Y-36189531D02*
X12465301Y-36180008D01*
X12465301Y-36180008D02*
X12484348Y-36170484D01*
X12741491Y-36370484D02*
X12627206Y-36370484D01*
X12684348Y-36370484D02*
X12684348Y-36170484D01*
X12684348Y-36170484D02*
X12665301Y-36199055D01*
X12665301Y-36199055D02*
X12646253Y-36218103D01*
X12646253Y-36218103D02*
X12627206Y-36227627D01*
X12931967Y-36370484D02*
X12817682Y-36370484D01*
X12874825Y-36370484D02*
X12874825Y-36170484D01*
X12874825Y-36170484D02*
X12855777Y-36199055D01*
X12855777Y-36199055D02*
X12836729Y-36218103D01*
X12836729Y-36218103D02*
X12817682Y-36227627D01*
X13046253Y-36256198D02*
X13027206Y-36246674D01*
X13027206Y-36246674D02*
X13017682Y-36237150D01*
X13017682Y-36237150D02*
X13008158Y-36218103D01*
X13008158Y-36218103D02*
X13008158Y-36208579D01*
X13008158Y-36208579D02*
X13017682Y-36189531D01*
X13017682Y-36189531D02*
X13027206Y-36180008D01*
X13027206Y-36180008D02*
X13046253Y-36170484D01*
X13046253Y-36170484D02*
X13084348Y-36170484D01*
X13084348Y-36170484D02*
X13103396Y-36180008D01*
X13103396Y-36180008D02*
X13112920Y-36189531D01*
X13112920Y-36189531D02*
X13122444Y-36208579D01*
X13122444Y-36208579D02*
X13122444Y-36218103D01*
X13122444Y-36218103D02*
X13112920Y-36237150D01*
X13112920Y-36237150D02*
X13103396Y-36246674D01*
X13103396Y-36246674D02*
X13084348Y-36256198D01*
X13084348Y-36256198D02*
X13046253Y-36256198D01*
X13046253Y-36256198D02*
X13027206Y-36265722D01*
X13027206Y-36265722D02*
X13017682Y-36275246D01*
X13017682Y-36275246D02*
X13008158Y-36294293D01*
X13008158Y-36294293D02*
X13008158Y-36332389D01*
X13008158Y-36332389D02*
X13017682Y-36351436D01*
X13017682Y-36351436D02*
X13027206Y-36360960D01*
X13027206Y-36360960D02*
X13046253Y-36370484D01*
X13046253Y-36370484D02*
X13084348Y-36370484D01*
X13084348Y-36370484D02*
X13103396Y-36360960D01*
X13103396Y-36360960D02*
X13112920Y-36351436D01*
X13112920Y-36351436D02*
X13122444Y-36332389D01*
X13122444Y-36332389D02*
X13122444Y-36294293D01*
X13122444Y-36294293D02*
X13112920Y-36275246D01*
X13112920Y-36275246D02*
X13103396Y-36265722D01*
X13103396Y-36265722D02*
X13084348Y-36256198D01*
X13198634Y-36170484D02*
X13198634Y-36208579D01*
X13274825Y-36170484D02*
X13274825Y-36208579D01*
X13570063Y-36446674D02*
X13560539Y-36437150D01*
X13560539Y-36437150D02*
X13541491Y-36408579D01*
X13541491Y-36408579D02*
X13531968Y-36389531D01*
X13531968Y-36389531D02*
X13522444Y-36360960D01*
X13522444Y-36360960D02*
X13512920Y-36313341D01*
X13512920Y-36313341D02*
X13512920Y-36275246D01*
X13512920Y-36275246D02*
X13522444Y-36227627D01*
X13522444Y-36227627D02*
X13531968Y-36199055D01*
X13531968Y-36199055D02*
X13541491Y-36180008D01*
X13541491Y-36180008D02*
X13560539Y-36151436D01*
X13560539Y-36151436D02*
X13570063Y-36141912D01*
X13731968Y-36170484D02*
X13693872Y-36170484D01*
X13693872Y-36170484D02*
X13674825Y-36180008D01*
X13674825Y-36180008D02*
X13665301Y-36189531D01*
X13665301Y-36189531D02*
X13646253Y-36218103D01*
X13646253Y-36218103D02*
X13636729Y-36256198D01*
X13636729Y-36256198D02*
X13636729Y-36332389D01*
X13636729Y-36332389D02*
X13646253Y-36351436D01*
X13646253Y-36351436D02*
X13655777Y-36360960D01*
X13655777Y-36360960D02*
X13674825Y-36370484D01*
X13674825Y-36370484D02*
X13712920Y-36370484D01*
X13712920Y-36370484D02*
X13731968Y-36360960D01*
X13731968Y-36360960D02*
X13741491Y-36351436D01*
X13741491Y-36351436D02*
X13751015Y-36332389D01*
X13751015Y-36332389D02*
X13751015Y-36284770D01*
X13751015Y-36284770D02*
X13741491Y-36265722D01*
X13741491Y-36265722D02*
X13731968Y-36256198D01*
X13731968Y-36256198D02*
X13712920Y-36246674D01*
X13712920Y-36246674D02*
X13674825Y-36246674D01*
X13674825Y-36246674D02*
X13655777Y-36256198D01*
X13655777Y-36256198D02*
X13646253Y-36265722D01*
X13646253Y-36265722D02*
X13636729Y-36284770D01*
X13827206Y-36189531D02*
X13836729Y-36180008D01*
X13836729Y-36180008D02*
X13855777Y-36170484D01*
X13855777Y-36170484D02*
X13903396Y-36170484D01*
X13903396Y-36170484D02*
X13922444Y-36180008D01*
X13922444Y-36180008D02*
X13931968Y-36189531D01*
X13931968Y-36189531D02*
X13941491Y-36208579D01*
X13941491Y-36208579D02*
X13941491Y-36227627D01*
X13941491Y-36227627D02*
X13931968Y-36256198D01*
X13931968Y-36256198D02*
X13817682Y-36370484D01*
X13817682Y-36370484D02*
X13941491Y-36370484D01*
X14055777Y-36256198D02*
X14036729Y-36246674D01*
X14036729Y-36246674D02*
X14027206Y-36237150D01*
X14027206Y-36237150D02*
X14017682Y-36218103D01*
X14017682Y-36218103D02*
X14017682Y-36208579D01*
X14017682Y-36208579D02*
X14027206Y-36189531D01*
X14027206Y-36189531D02*
X14036729Y-36180008D01*
X14036729Y-36180008D02*
X14055777Y-36170484D01*
X14055777Y-36170484D02*
X14093872Y-36170484D01*
X14093872Y-36170484D02*
X14112920Y-36180008D01*
X14112920Y-36180008D02*
X14122444Y-36189531D01*
X14122444Y-36189531D02*
X14131968Y-36208579D01*
X14131968Y-36208579D02*
X14131968Y-36218103D01*
X14131968Y-36218103D02*
X14122444Y-36237150D01*
X14122444Y-36237150D02*
X14112920Y-36246674D01*
X14112920Y-36246674D02*
X14093872Y-36256198D01*
X14093872Y-36256198D02*
X14055777Y-36256198D01*
X14055777Y-36256198D02*
X14036729Y-36265722D01*
X14036729Y-36265722D02*
X14027206Y-36275246D01*
X14027206Y-36275246D02*
X14017682Y-36294293D01*
X14017682Y-36294293D02*
X14017682Y-36332389D01*
X14017682Y-36332389D02*
X14027206Y-36351436D01*
X14027206Y-36351436D02*
X14036729Y-36360960D01*
X14036729Y-36360960D02*
X14055777Y-36370484D01*
X14055777Y-36370484D02*
X14093872Y-36370484D01*
X14093872Y-36370484D02*
X14112920Y-36360960D01*
X14112920Y-36360960D02*
X14122444Y-36351436D01*
X14122444Y-36351436D02*
X14131968Y-36332389D01*
X14131968Y-36332389D02*
X14131968Y-36294293D01*
X14131968Y-36294293D02*
X14122444Y-36275246D01*
X14122444Y-36275246D02*
X14112920Y-36265722D01*
X14112920Y-36265722D02*
X14093872Y-36256198D01*
X14370063Y-36370484D02*
X14370063Y-36170484D01*
X14455777Y-36370484D02*
X14455777Y-36265722D01*
X14455777Y-36265722D02*
X14446253Y-36246674D01*
X14446253Y-36246674D02*
X14427206Y-36237150D01*
X14427206Y-36237150D02*
X14398634Y-36237150D01*
X14398634Y-36237150D02*
X14379587Y-36246674D01*
X14379587Y-36246674D02*
X14370063Y-36256198D01*
X14579587Y-36370484D02*
X14560539Y-36360960D01*
X14560539Y-36360960D02*
X14551015Y-36351436D01*
X14551015Y-36351436D02*
X14541491Y-36332389D01*
X14541491Y-36332389D02*
X14541491Y-36275246D01*
X14541491Y-36275246D02*
X14551015Y-36256198D01*
X14551015Y-36256198D02*
X14560539Y-36246674D01*
X14560539Y-36246674D02*
X14579587Y-36237150D01*
X14579587Y-36237150D02*
X14608158Y-36237150D01*
X14608158Y-36237150D02*
X14627206Y-36246674D01*
X14627206Y-36246674D02*
X14636730Y-36256198D01*
X14636730Y-36256198D02*
X14646253Y-36275246D01*
X14646253Y-36275246D02*
X14646253Y-36332389D01*
X14646253Y-36332389D02*
X14636730Y-36351436D01*
X14636730Y-36351436D02*
X14627206Y-36360960D01*
X14627206Y-36360960D02*
X14608158Y-36370484D01*
X14608158Y-36370484D02*
X14579587Y-36370484D01*
X14760539Y-36370484D02*
X14741491Y-36360960D01*
X14741491Y-36360960D02*
X14731968Y-36341912D01*
X14731968Y-36341912D02*
X14731968Y-36170484D01*
X14912920Y-36360960D02*
X14893872Y-36370484D01*
X14893872Y-36370484D02*
X14855777Y-36370484D01*
X14855777Y-36370484D02*
X14836730Y-36360960D01*
X14836730Y-36360960D02*
X14827206Y-36341912D01*
X14827206Y-36341912D02*
X14827206Y-36265722D01*
X14827206Y-36265722D02*
X14836730Y-36246674D01*
X14836730Y-36246674D02*
X14855777Y-36237150D01*
X14855777Y-36237150D02*
X14893872Y-36237150D01*
X14893872Y-36237150D02*
X14912920Y-36246674D01*
X14912920Y-36246674D02*
X14922444Y-36265722D01*
X14922444Y-36265722D02*
X14922444Y-36284770D01*
X14922444Y-36284770D02*
X14827206Y-36303817D01*
X14998634Y-36360960D02*
X15017682Y-36370484D01*
X15017682Y-36370484D02*
X15055777Y-36370484D01*
X15055777Y-36370484D02*
X15074825Y-36360960D01*
X15074825Y-36360960D02*
X15084349Y-36341912D01*
X15084349Y-36341912D02*
X15084349Y-36332389D01*
X15084349Y-36332389D02*
X15074825Y-36313341D01*
X15074825Y-36313341D02*
X15055777Y-36303817D01*
X15055777Y-36303817D02*
X15027206Y-36303817D01*
X15027206Y-36303817D02*
X15008158Y-36294293D01*
X15008158Y-36294293D02*
X14998634Y-36275246D01*
X14998634Y-36275246D02*
X14998634Y-36265722D01*
X14998634Y-36265722D02*
X15008158Y-36246674D01*
X15008158Y-36246674D02*
X15027206Y-36237150D01*
X15027206Y-36237150D02*
X15055777Y-36237150D01*
X15055777Y-36237150D02*
X15074825Y-36246674D01*
X15151015Y-36446674D02*
X15160539Y-36437150D01*
X15160539Y-36437150D02*
X15179587Y-36408579D01*
X15179587Y-36408579D02*
X15189111Y-36389531D01*
X15189111Y-36389531D02*
X15198634Y-36360960D01*
X15198634Y-36360960D02*
X15208158Y-36313341D01*
X15208158Y-36313341D02*
X15208158Y-36275246D01*
X15208158Y-36275246D02*
X15198634Y-36227627D01*
X15198634Y-36227627D02*
X15189111Y-36199055D01*
X15189111Y-36199055D02*
X15179587Y-36180008D01*
X15179587Y-36180008D02*
X15160539Y-36151436D01*
X15160539Y-36151436D02*
X15151015Y-36141912D01*
D10*
X9995000Y-36543000D02*
G75*
G02*
X9925000Y-36543000I-35000J0D01*
G01*
X9925000Y-36543000D02*
G75*
G02*
X9995000Y-36543000I35000J0D01*
G01*
D11*
X10293872Y-36434484D02*
X10312920Y-36434484D01*
X10312920Y-36434484D02*
X10331967Y-36444008D01*
X10331967Y-36444008D02*
X10341491Y-36453531D01*
X10341491Y-36453531D02*
X10351015Y-36472579D01*
X10351015Y-36472579D02*
X10360539Y-36510674D01*
X10360539Y-36510674D02*
X10360539Y-36558293D01*
X10360539Y-36558293D02*
X10351015Y-36596389D01*
X10351015Y-36596389D02*
X10341491Y-36615436D01*
X10341491Y-36615436D02*
X10331967Y-36624960D01*
X10331967Y-36624960D02*
X10312920Y-36634484D01*
X10312920Y-36634484D02*
X10293872Y-36634484D01*
X10293872Y-36634484D02*
X10274824Y-36624960D01*
X10274824Y-36624960D02*
X10265301Y-36615436D01*
X10265301Y-36615436D02*
X10255777Y-36596389D01*
X10255777Y-36596389D02*
X10246253Y-36558293D01*
X10246253Y-36558293D02*
X10246253Y-36510674D01*
X10246253Y-36510674D02*
X10255777Y-36472579D01*
X10255777Y-36472579D02*
X10265301Y-36453531D01*
X10265301Y-36453531D02*
X10274824Y-36444008D01*
X10274824Y-36444008D02*
X10293872Y-36434484D01*
X10446253Y-36615436D02*
X10455777Y-36624960D01*
X10455777Y-36624960D02*
X10446253Y-36634484D01*
X10446253Y-36634484D02*
X10436729Y-36624960D01*
X10436729Y-36624960D02*
X10446253Y-36615436D01*
X10446253Y-36615436D02*
X10446253Y-36634484D01*
X10522444Y-36434484D02*
X10655777Y-36434484D01*
X10655777Y-36434484D02*
X10570063Y-36634484D01*
X10770063Y-36434484D02*
X10789110Y-36434484D01*
X10789110Y-36434484D02*
X10808158Y-36444008D01*
X10808158Y-36444008D02*
X10817682Y-36453531D01*
X10817682Y-36453531D02*
X10827205Y-36472579D01*
X10827205Y-36472579D02*
X10836729Y-36510674D01*
X10836729Y-36510674D02*
X10836729Y-36558293D01*
X10836729Y-36558293D02*
X10827205Y-36596389D01*
X10827205Y-36596389D02*
X10817682Y-36615436D01*
X10817682Y-36615436D02*
X10808158Y-36624960D01*
X10808158Y-36624960D02*
X10789110Y-36634484D01*
X10789110Y-36634484D02*
X10770063Y-36634484D01*
X10770063Y-36634484D02*
X10751015Y-36624960D01*
X10751015Y-36624960D02*
X10741491Y-36615436D01*
X10741491Y-36615436D02*
X10731967Y-36596389D01*
X10731967Y-36596389D02*
X10722444Y-36558293D01*
X10722444Y-36558293D02*
X10722444Y-36510674D01*
X10722444Y-36510674D02*
X10731967Y-36472579D01*
X10731967Y-36472579D02*
X10741491Y-36453531D01*
X10741491Y-36453531D02*
X10751015Y-36444008D01*
X10751015Y-36444008D02*
X10770063Y-36434484D01*
X10960539Y-36434484D02*
X10979586Y-36434484D01*
X10979586Y-36434484D02*
X10998634Y-36444008D01*
X10998634Y-36444008D02*
X11008158Y-36453531D01*
X11008158Y-36453531D02*
X11017682Y-36472579D01*
X11017682Y-36472579D02*
X11027205Y-36510674D01*
X11027205Y-36510674D02*
X11027205Y-36558293D01*
X11027205Y-36558293D02*
X11017682Y-36596389D01*
X11017682Y-36596389D02*
X11008158Y-36615436D01*
X11008158Y-36615436D02*
X10998634Y-36624960D01*
X10998634Y-36624960D02*
X10979586Y-36634484D01*
X10979586Y-36634484D02*
X10960539Y-36634484D01*
X10960539Y-36634484D02*
X10941491Y-36624960D01*
X10941491Y-36624960D02*
X10931967Y-36615436D01*
X10931967Y-36615436D02*
X10922444Y-36596389D01*
X10922444Y-36596389D02*
X10912920Y-36558293D01*
X10912920Y-36558293D02*
X10912920Y-36510674D01*
X10912920Y-36510674D02*
X10922444Y-36472579D01*
X10922444Y-36472579D02*
X10931967Y-36453531D01*
X10931967Y-36453531D02*
X10941491Y-36444008D01*
X10941491Y-36444008D02*
X10960539Y-36434484D01*
X11112920Y-36634484D02*
X11112920Y-36501150D01*
X11112920Y-36520198D02*
X11122444Y-36510674D01*
X11122444Y-36510674D02*
X11141491Y-36501150D01*
X11141491Y-36501150D02*
X11170063Y-36501150D01*
X11170063Y-36501150D02*
X11189110Y-36510674D01*
X11189110Y-36510674D02*
X11198634Y-36529722D01*
X11198634Y-36529722D02*
X11198634Y-36634484D01*
X11198634Y-36529722D02*
X11208158Y-36510674D01*
X11208158Y-36510674D02*
X11227205Y-36501150D01*
X11227205Y-36501150D02*
X11255777Y-36501150D01*
X11255777Y-36501150D02*
X11274824Y-36510674D01*
X11274824Y-36510674D02*
X11284348Y-36529722D01*
X11284348Y-36529722D02*
X11284348Y-36634484D01*
X11379586Y-36634484D02*
X11379586Y-36501150D01*
X11379586Y-36520198D02*
X11389110Y-36510674D01*
X11389110Y-36510674D02*
X11408158Y-36501150D01*
X11408158Y-36501150D02*
X11436729Y-36501150D01*
X11436729Y-36501150D02*
X11455777Y-36510674D01*
X11455777Y-36510674D02*
X11465301Y-36529722D01*
X11465301Y-36529722D02*
X11465301Y-36634484D01*
X11465301Y-36529722D02*
X11474824Y-36510674D01*
X11474824Y-36510674D02*
X11493872Y-36501150D01*
X11493872Y-36501150D02*
X11522443Y-36501150D01*
X11522443Y-36501150D02*
X11541491Y-36510674D01*
X11541491Y-36510674D02*
X11551015Y-36529722D01*
X11551015Y-36529722D02*
X11551015Y-36634484D01*
X11941491Y-36424960D02*
X11770063Y-36682103D01*
X12198634Y-36434484D02*
X12217682Y-36434484D01*
X12217682Y-36434484D02*
X12236729Y-36444008D01*
X12236729Y-36444008D02*
X12246253Y-36453531D01*
X12246253Y-36453531D02*
X12255777Y-36472579D01*
X12255777Y-36472579D02*
X12265301Y-36510674D01*
X12265301Y-36510674D02*
X12265301Y-36558293D01*
X12265301Y-36558293D02*
X12255777Y-36596389D01*
X12255777Y-36596389D02*
X12246253Y-36615436D01*
X12246253Y-36615436D02*
X12236729Y-36624960D01*
X12236729Y-36624960D02*
X12217682Y-36634484D01*
X12217682Y-36634484D02*
X12198634Y-36634484D01*
X12198634Y-36634484D02*
X12179586Y-36624960D01*
X12179586Y-36624960D02*
X12170063Y-36615436D01*
X12170063Y-36615436D02*
X12160539Y-36596389D01*
X12160539Y-36596389D02*
X12151015Y-36558293D01*
X12151015Y-36558293D02*
X12151015Y-36510674D01*
X12151015Y-36510674D02*
X12160539Y-36472579D01*
X12160539Y-36472579D02*
X12170063Y-36453531D01*
X12170063Y-36453531D02*
X12179586Y-36444008D01*
X12179586Y-36444008D02*
X12198634Y-36434484D01*
X12351015Y-36615436D02*
X12360539Y-36624960D01*
X12360539Y-36624960D02*
X12351015Y-36634484D01*
X12351015Y-36634484D02*
X12341491Y-36624960D01*
X12341491Y-36624960D02*
X12351015Y-36615436D01*
X12351015Y-36615436D02*
X12351015Y-36634484D01*
X12484348Y-36434484D02*
X12503396Y-36434484D01*
X12503396Y-36434484D02*
X12522444Y-36444008D01*
X12522444Y-36444008D02*
X12531967Y-36453531D01*
X12531967Y-36453531D02*
X12541491Y-36472579D01*
X12541491Y-36472579D02*
X12551015Y-36510674D01*
X12551015Y-36510674D02*
X12551015Y-36558293D01*
X12551015Y-36558293D02*
X12541491Y-36596389D01*
X12541491Y-36596389D02*
X12531967Y-36615436D01*
X12531967Y-36615436D02*
X12522444Y-36624960D01*
X12522444Y-36624960D02*
X12503396Y-36634484D01*
X12503396Y-36634484D02*
X12484348Y-36634484D01*
X12484348Y-36634484D02*
X12465301Y-36624960D01*
X12465301Y-36624960D02*
X12455777Y-36615436D01*
X12455777Y-36615436D02*
X12446253Y-36596389D01*
X12446253Y-36596389D02*
X12436729Y-36558293D01*
X12436729Y-36558293D02*
X12436729Y-36510674D01*
X12436729Y-36510674D02*
X12446253Y-36472579D01*
X12446253Y-36472579D02*
X12455777Y-36453531D01*
X12455777Y-36453531D02*
X12465301Y-36444008D01*
X12465301Y-36444008D02*
X12484348Y-36434484D01*
X12627206Y-36453531D02*
X12636729Y-36444008D01*
X12636729Y-36444008D02*
X12655777Y-36434484D01*
X12655777Y-36434484D02*
X12703396Y-36434484D01*
X12703396Y-36434484D02*
X12722444Y-36444008D01*
X12722444Y-36444008D02*
X12731967Y-36453531D01*
X12731967Y-36453531D02*
X12741491Y-36472579D01*
X12741491Y-36472579D02*
X12741491Y-36491627D01*
X12741491Y-36491627D02*
X12731967Y-36520198D01*
X12731967Y-36520198D02*
X12617682Y-36634484D01*
X12617682Y-36634484D02*
X12741491Y-36634484D01*
X12808158Y-36434484D02*
X12941491Y-36434484D01*
X12941491Y-36434484D02*
X12855777Y-36634484D01*
X13103396Y-36434484D02*
X13065301Y-36434484D01*
X13065301Y-36434484D02*
X13046253Y-36444008D01*
X13046253Y-36444008D02*
X13036729Y-36453531D01*
X13036729Y-36453531D02*
X13017682Y-36482103D01*
X13017682Y-36482103D02*
X13008158Y-36520198D01*
X13008158Y-36520198D02*
X13008158Y-36596389D01*
X13008158Y-36596389D02*
X13017682Y-36615436D01*
X13017682Y-36615436D02*
X13027206Y-36624960D01*
X13027206Y-36624960D02*
X13046253Y-36634484D01*
X13046253Y-36634484D02*
X13084348Y-36634484D01*
X13084348Y-36634484D02*
X13103396Y-36624960D01*
X13103396Y-36624960D02*
X13112920Y-36615436D01*
X13112920Y-36615436D02*
X13122444Y-36596389D01*
X13122444Y-36596389D02*
X13122444Y-36548770D01*
X13122444Y-36548770D02*
X13112920Y-36529722D01*
X13112920Y-36529722D02*
X13103396Y-36520198D01*
X13103396Y-36520198D02*
X13084348Y-36510674D01*
X13084348Y-36510674D02*
X13046253Y-36510674D01*
X13046253Y-36510674D02*
X13027206Y-36520198D01*
X13027206Y-36520198D02*
X13017682Y-36529722D01*
X13017682Y-36529722D02*
X13008158Y-36548770D01*
X13198634Y-36434484D02*
X13198634Y-36472579D01*
X13274825Y-36434484D02*
X13274825Y-36472579D01*
X13570063Y-36710674D02*
X13560539Y-36701150D01*
X13560539Y-36701150D02*
X13541491Y-36672579D01*
X13541491Y-36672579D02*
X13531968Y-36653531D01*
X13531968Y-36653531D02*
X13522444Y-36624960D01*
X13522444Y-36624960D02*
X13512920Y-36577341D01*
X13512920Y-36577341D02*
X13512920Y-36539246D01*
X13512920Y-36539246D02*
X13522444Y-36491627D01*
X13522444Y-36491627D02*
X13531968Y-36463055D01*
X13531968Y-36463055D02*
X13541491Y-36444008D01*
X13541491Y-36444008D02*
X13560539Y-36415436D01*
X13560539Y-36415436D02*
X13570063Y-36405912D01*
X13731968Y-36501150D02*
X13731968Y-36634484D01*
X13684348Y-36424960D02*
X13636729Y-36567817D01*
X13636729Y-36567817D02*
X13760539Y-36567817D01*
X13989110Y-36634484D02*
X13989110Y-36434484D01*
X14074825Y-36634484D02*
X14074825Y-36529722D01*
X14074825Y-36529722D02*
X14065301Y-36510674D01*
X14065301Y-36510674D02*
X14046253Y-36501150D01*
X14046253Y-36501150D02*
X14017682Y-36501150D01*
X14017682Y-36501150D02*
X13998634Y-36510674D01*
X13998634Y-36510674D02*
X13989110Y-36520198D01*
X14198634Y-36634484D02*
X14179587Y-36624960D01*
X14179587Y-36624960D02*
X14170063Y-36615436D01*
X14170063Y-36615436D02*
X14160539Y-36596389D01*
X14160539Y-36596389D02*
X14160539Y-36539246D01*
X14160539Y-36539246D02*
X14170063Y-36520198D01*
X14170063Y-36520198D02*
X14179587Y-36510674D01*
X14179587Y-36510674D02*
X14198634Y-36501150D01*
X14198634Y-36501150D02*
X14227206Y-36501150D01*
X14227206Y-36501150D02*
X14246253Y-36510674D01*
X14246253Y-36510674D02*
X14255777Y-36520198D01*
X14255777Y-36520198D02*
X14265301Y-36539246D01*
X14265301Y-36539246D02*
X14265301Y-36596389D01*
X14265301Y-36596389D02*
X14255777Y-36615436D01*
X14255777Y-36615436D02*
X14246253Y-36624960D01*
X14246253Y-36624960D02*
X14227206Y-36634484D01*
X14227206Y-36634484D02*
X14198634Y-36634484D01*
X14379587Y-36634484D02*
X14360539Y-36624960D01*
X14360539Y-36624960D02*
X14351015Y-36605912D01*
X14351015Y-36605912D02*
X14351015Y-36434484D01*
X14531968Y-36624960D02*
X14512920Y-36634484D01*
X14512920Y-36634484D02*
X14474825Y-36634484D01*
X14474825Y-36634484D02*
X14455777Y-36624960D01*
X14455777Y-36624960D02*
X14446253Y-36605912D01*
X14446253Y-36605912D02*
X14446253Y-36529722D01*
X14446253Y-36529722D02*
X14455777Y-36510674D01*
X14455777Y-36510674D02*
X14474825Y-36501150D01*
X14474825Y-36501150D02*
X14512920Y-36501150D01*
X14512920Y-36501150D02*
X14531968Y-36510674D01*
X14531968Y-36510674D02*
X14541491Y-36529722D01*
X14541491Y-36529722D02*
X14541491Y-36548770D01*
X14541491Y-36548770D02*
X14446253Y-36567817D01*
X14617682Y-36624960D02*
X14636730Y-36634484D01*
X14636730Y-36634484D02*
X14674825Y-36634484D01*
X14674825Y-36634484D02*
X14693872Y-36624960D01*
X14693872Y-36624960D02*
X14703396Y-36605912D01*
X14703396Y-36605912D02*
X14703396Y-36596389D01*
X14703396Y-36596389D02*
X14693872Y-36577341D01*
X14693872Y-36577341D02*
X14674825Y-36567817D01*
X14674825Y-36567817D02*
X14646253Y-36567817D01*
X14646253Y-36567817D02*
X14627206Y-36558293D01*
X14627206Y-36558293D02*
X14617682Y-36539246D01*
X14617682Y-36539246D02*
X14617682Y-36529722D01*
X14617682Y-36529722D02*
X14627206Y-36510674D01*
X14627206Y-36510674D02*
X14646253Y-36501150D01*
X14646253Y-36501150D02*
X14674825Y-36501150D01*
X14674825Y-36501150D02*
X14693872Y-36510674D01*
X14770063Y-36710674D02*
X14779587Y-36701150D01*
X14779587Y-36701150D02*
X14798634Y-36672579D01*
X14798634Y-36672579D02*
X14808158Y-36653531D01*
X14808158Y-36653531D02*
X14817682Y-36624960D01*
X14817682Y-36624960D02*
X14827206Y-36577341D01*
X14827206Y-36577341D02*
X14827206Y-36539246D01*
X14827206Y-36539246D02*
X14817682Y-36491627D01*
X14817682Y-36491627D02*
X14808158Y-36463055D01*
X14808158Y-36463055D02*
X14798634Y-36444008D01*
X14798634Y-36444008D02*
X14779587Y-36415436D01*
X14779587Y-36415436D02*
X14770063Y-36405912D01*
D10*
X9955000Y-36767000D02*
X9955000Y-36847000D01*
X9915000Y-36807000D02*
X9995000Y-36807000D01*
D11*
X10293872Y-36698484D02*
X10312920Y-36698484D01*
X10312920Y-36698484D02*
X10331967Y-36708008D01*
X10331967Y-36708008D02*
X10341491Y-36717531D01*
X10341491Y-36717531D02*
X10351015Y-36736579D01*
X10351015Y-36736579D02*
X10360539Y-36774674D01*
X10360539Y-36774674D02*
X10360539Y-36822293D01*
X10360539Y-36822293D02*
X10351015Y-36860389D01*
X10351015Y-36860389D02*
X10341491Y-36879436D01*
X10341491Y-36879436D02*
X10331967Y-36888960D01*
X10331967Y-36888960D02*
X10312920Y-36898484D01*
X10312920Y-36898484D02*
X10293872Y-36898484D01*
X10293872Y-36898484D02*
X10274824Y-36888960D01*
X10274824Y-36888960D02*
X10265301Y-36879436D01*
X10265301Y-36879436D02*
X10255777Y-36860389D01*
X10255777Y-36860389D02*
X10246253Y-36822293D01*
X10246253Y-36822293D02*
X10246253Y-36774674D01*
X10246253Y-36774674D02*
X10255777Y-36736579D01*
X10255777Y-36736579D02*
X10265301Y-36717531D01*
X10265301Y-36717531D02*
X10274824Y-36708008D01*
X10274824Y-36708008D02*
X10293872Y-36698484D01*
X10446253Y-36879436D02*
X10455777Y-36888960D01*
X10455777Y-36888960D02*
X10446253Y-36898484D01*
X10446253Y-36898484D02*
X10436729Y-36888960D01*
X10436729Y-36888960D02*
X10446253Y-36879436D01*
X10446253Y-36879436D02*
X10446253Y-36898484D01*
X10570063Y-36784198D02*
X10551015Y-36774674D01*
X10551015Y-36774674D02*
X10541491Y-36765150D01*
X10541491Y-36765150D02*
X10531967Y-36746103D01*
X10531967Y-36746103D02*
X10531967Y-36736579D01*
X10531967Y-36736579D02*
X10541491Y-36717531D01*
X10541491Y-36717531D02*
X10551015Y-36708008D01*
X10551015Y-36708008D02*
X10570063Y-36698484D01*
X10570063Y-36698484D02*
X10608158Y-36698484D01*
X10608158Y-36698484D02*
X10627205Y-36708008D01*
X10627205Y-36708008D02*
X10636729Y-36717531D01*
X10636729Y-36717531D02*
X10646253Y-36736579D01*
X10646253Y-36736579D02*
X10646253Y-36746103D01*
X10646253Y-36746103D02*
X10636729Y-36765150D01*
X10636729Y-36765150D02*
X10627205Y-36774674D01*
X10627205Y-36774674D02*
X10608158Y-36784198D01*
X10608158Y-36784198D02*
X10570063Y-36784198D01*
X10570063Y-36784198D02*
X10551015Y-36793722D01*
X10551015Y-36793722D02*
X10541491Y-36803246D01*
X10541491Y-36803246D02*
X10531967Y-36822293D01*
X10531967Y-36822293D02*
X10531967Y-36860389D01*
X10531967Y-36860389D02*
X10541491Y-36879436D01*
X10541491Y-36879436D02*
X10551015Y-36888960D01*
X10551015Y-36888960D02*
X10570063Y-36898484D01*
X10570063Y-36898484D02*
X10608158Y-36898484D01*
X10608158Y-36898484D02*
X10627205Y-36888960D01*
X10627205Y-36888960D02*
X10636729Y-36879436D01*
X10636729Y-36879436D02*
X10646253Y-36860389D01*
X10646253Y-36860389D02*
X10646253Y-36822293D01*
X10646253Y-36822293D02*
X10636729Y-36803246D01*
X10636729Y-36803246D02*
X10627205Y-36793722D01*
X10627205Y-36793722D02*
X10608158Y-36784198D01*
X10770063Y-36698484D02*
X10789110Y-36698484D01*
X10789110Y-36698484D02*
X10808158Y-36708008D01*
X10808158Y-36708008D02*
X10817682Y-36717531D01*
X10817682Y-36717531D02*
X10827205Y-36736579D01*
X10827205Y-36736579D02*
X10836729Y-36774674D01*
X10836729Y-36774674D02*
X10836729Y-36822293D01*
X10836729Y-36822293D02*
X10827205Y-36860389D01*
X10827205Y-36860389D02*
X10817682Y-36879436D01*
X10817682Y-36879436D02*
X10808158Y-36888960D01*
X10808158Y-36888960D02*
X10789110Y-36898484D01*
X10789110Y-36898484D02*
X10770063Y-36898484D01*
X10770063Y-36898484D02*
X10751015Y-36888960D01*
X10751015Y-36888960D02*
X10741491Y-36879436D01*
X10741491Y-36879436D02*
X10731967Y-36860389D01*
X10731967Y-36860389D02*
X10722444Y-36822293D01*
X10722444Y-36822293D02*
X10722444Y-36774674D01*
X10722444Y-36774674D02*
X10731967Y-36736579D01*
X10731967Y-36736579D02*
X10741491Y-36717531D01*
X10741491Y-36717531D02*
X10751015Y-36708008D01*
X10751015Y-36708008D02*
X10770063Y-36698484D01*
X10960539Y-36698484D02*
X10979586Y-36698484D01*
X10979586Y-36698484D02*
X10998634Y-36708008D01*
X10998634Y-36708008D02*
X11008158Y-36717531D01*
X11008158Y-36717531D02*
X11017682Y-36736579D01*
X11017682Y-36736579D02*
X11027205Y-36774674D01*
X11027205Y-36774674D02*
X11027205Y-36822293D01*
X11027205Y-36822293D02*
X11017682Y-36860389D01*
X11017682Y-36860389D02*
X11008158Y-36879436D01*
X11008158Y-36879436D02*
X10998634Y-36888960D01*
X10998634Y-36888960D02*
X10979586Y-36898484D01*
X10979586Y-36898484D02*
X10960539Y-36898484D01*
X10960539Y-36898484D02*
X10941491Y-36888960D01*
X10941491Y-36888960D02*
X10931967Y-36879436D01*
X10931967Y-36879436D02*
X10922444Y-36860389D01*
X10922444Y-36860389D02*
X10912920Y-36822293D01*
X10912920Y-36822293D02*
X10912920Y-36774674D01*
X10912920Y-36774674D02*
X10922444Y-36736579D01*
X10922444Y-36736579D02*
X10931967Y-36717531D01*
X10931967Y-36717531D02*
X10941491Y-36708008D01*
X10941491Y-36708008D02*
X10960539Y-36698484D01*
X11112920Y-36898484D02*
X11112920Y-36765150D01*
X11112920Y-36784198D02*
X11122444Y-36774674D01*
X11122444Y-36774674D02*
X11141491Y-36765150D01*
X11141491Y-36765150D02*
X11170063Y-36765150D01*
X11170063Y-36765150D02*
X11189110Y-36774674D01*
X11189110Y-36774674D02*
X11198634Y-36793722D01*
X11198634Y-36793722D02*
X11198634Y-36898484D01*
X11198634Y-36793722D02*
X11208158Y-36774674D01*
X11208158Y-36774674D02*
X11227205Y-36765150D01*
X11227205Y-36765150D02*
X11255777Y-36765150D01*
X11255777Y-36765150D02*
X11274824Y-36774674D01*
X11274824Y-36774674D02*
X11284348Y-36793722D01*
X11284348Y-36793722D02*
X11284348Y-36898484D01*
X11379586Y-36898484D02*
X11379586Y-36765150D01*
X11379586Y-36784198D02*
X11389110Y-36774674D01*
X11389110Y-36774674D02*
X11408158Y-36765150D01*
X11408158Y-36765150D02*
X11436729Y-36765150D01*
X11436729Y-36765150D02*
X11455777Y-36774674D01*
X11455777Y-36774674D02*
X11465301Y-36793722D01*
X11465301Y-36793722D02*
X11465301Y-36898484D01*
X11465301Y-36793722D02*
X11474824Y-36774674D01*
X11474824Y-36774674D02*
X11493872Y-36765150D01*
X11493872Y-36765150D02*
X11522443Y-36765150D01*
X11522443Y-36765150D02*
X11541491Y-36774674D01*
X11541491Y-36774674D02*
X11551015Y-36793722D01*
X11551015Y-36793722D02*
X11551015Y-36898484D01*
X11941491Y-36688960D02*
X11770063Y-36946103D01*
X12198634Y-36698484D02*
X12217682Y-36698484D01*
X12217682Y-36698484D02*
X12236729Y-36708008D01*
X12236729Y-36708008D02*
X12246253Y-36717531D01*
X12246253Y-36717531D02*
X12255777Y-36736579D01*
X12255777Y-36736579D02*
X12265301Y-36774674D01*
X12265301Y-36774674D02*
X12265301Y-36822293D01*
X12265301Y-36822293D02*
X12255777Y-36860389D01*
X12255777Y-36860389D02*
X12246253Y-36879436D01*
X12246253Y-36879436D02*
X12236729Y-36888960D01*
X12236729Y-36888960D02*
X12217682Y-36898484D01*
X12217682Y-36898484D02*
X12198634Y-36898484D01*
X12198634Y-36898484D02*
X12179586Y-36888960D01*
X12179586Y-36888960D02*
X12170063Y-36879436D01*
X12170063Y-36879436D02*
X12160539Y-36860389D01*
X12160539Y-36860389D02*
X12151015Y-36822293D01*
X12151015Y-36822293D02*
X12151015Y-36774674D01*
X12151015Y-36774674D02*
X12160539Y-36736579D01*
X12160539Y-36736579D02*
X12170063Y-36717531D01*
X12170063Y-36717531D02*
X12179586Y-36708008D01*
X12179586Y-36708008D02*
X12198634Y-36698484D01*
X12351015Y-36879436D02*
X12360539Y-36888960D01*
X12360539Y-36888960D02*
X12351015Y-36898484D01*
X12351015Y-36898484D02*
X12341491Y-36888960D01*
X12341491Y-36888960D02*
X12351015Y-36879436D01*
X12351015Y-36879436D02*
X12351015Y-36898484D01*
X12484348Y-36698484D02*
X12503396Y-36698484D01*
X12503396Y-36698484D02*
X12522444Y-36708008D01*
X12522444Y-36708008D02*
X12531967Y-36717531D01*
X12531967Y-36717531D02*
X12541491Y-36736579D01*
X12541491Y-36736579D02*
X12551015Y-36774674D01*
X12551015Y-36774674D02*
X12551015Y-36822293D01*
X12551015Y-36822293D02*
X12541491Y-36860389D01*
X12541491Y-36860389D02*
X12531967Y-36879436D01*
X12531967Y-36879436D02*
X12522444Y-36888960D01*
X12522444Y-36888960D02*
X12503396Y-36898484D01*
X12503396Y-36898484D02*
X12484348Y-36898484D01*
X12484348Y-36898484D02*
X12465301Y-36888960D01*
X12465301Y-36888960D02*
X12455777Y-36879436D01*
X12455777Y-36879436D02*
X12446253Y-36860389D01*
X12446253Y-36860389D02*
X12436729Y-36822293D01*
X12436729Y-36822293D02*
X12436729Y-36774674D01*
X12436729Y-36774674D02*
X12446253Y-36736579D01*
X12446253Y-36736579D02*
X12455777Y-36717531D01*
X12455777Y-36717531D02*
X12465301Y-36708008D01*
X12465301Y-36708008D02*
X12484348Y-36698484D01*
X12617682Y-36698484D02*
X12741491Y-36698484D01*
X12741491Y-36698484D02*
X12674825Y-36774674D01*
X12674825Y-36774674D02*
X12703396Y-36774674D01*
X12703396Y-36774674D02*
X12722444Y-36784198D01*
X12722444Y-36784198D02*
X12731967Y-36793722D01*
X12731967Y-36793722D02*
X12741491Y-36812770D01*
X12741491Y-36812770D02*
X12741491Y-36860389D01*
X12741491Y-36860389D02*
X12731967Y-36879436D01*
X12731967Y-36879436D02*
X12722444Y-36888960D01*
X12722444Y-36888960D02*
X12703396Y-36898484D01*
X12703396Y-36898484D02*
X12646253Y-36898484D01*
X12646253Y-36898484D02*
X12627206Y-36888960D01*
X12627206Y-36888960D02*
X12617682Y-36879436D01*
X12931967Y-36898484D02*
X12817682Y-36898484D01*
X12874825Y-36898484D02*
X12874825Y-36698484D01*
X12874825Y-36698484D02*
X12855777Y-36727055D01*
X12855777Y-36727055D02*
X12836729Y-36746103D01*
X12836729Y-36746103D02*
X12817682Y-36755627D01*
X13112920Y-36698484D02*
X13017682Y-36698484D01*
X13017682Y-36698484D02*
X13008158Y-36793722D01*
X13008158Y-36793722D02*
X13017682Y-36784198D01*
X13017682Y-36784198D02*
X13036729Y-36774674D01*
X13036729Y-36774674D02*
X13084348Y-36774674D01*
X13084348Y-36774674D02*
X13103396Y-36784198D01*
X13103396Y-36784198D02*
X13112920Y-36793722D01*
X13112920Y-36793722D02*
X13122444Y-36812770D01*
X13122444Y-36812770D02*
X13122444Y-36860389D01*
X13122444Y-36860389D02*
X13112920Y-36879436D01*
X13112920Y-36879436D02*
X13103396Y-36888960D01*
X13103396Y-36888960D02*
X13084348Y-36898484D01*
X13084348Y-36898484D02*
X13036729Y-36898484D01*
X13036729Y-36898484D02*
X13017682Y-36888960D01*
X13017682Y-36888960D02*
X13008158Y-36879436D01*
X13198634Y-36698484D02*
X13198634Y-36736579D01*
X13274825Y-36698484D02*
X13274825Y-36736579D01*
X13570063Y-36974674D02*
X13560539Y-36965150D01*
X13560539Y-36965150D02*
X13541491Y-36936579D01*
X13541491Y-36936579D02*
X13531968Y-36917531D01*
X13531968Y-36917531D02*
X13522444Y-36888960D01*
X13522444Y-36888960D02*
X13512920Y-36841341D01*
X13512920Y-36841341D02*
X13512920Y-36803246D01*
X13512920Y-36803246D02*
X13522444Y-36755627D01*
X13522444Y-36755627D02*
X13531968Y-36727055D01*
X13531968Y-36727055D02*
X13541491Y-36708008D01*
X13541491Y-36708008D02*
X13560539Y-36679436D01*
X13560539Y-36679436D02*
X13570063Y-36669912D01*
X13731968Y-36698484D02*
X13693872Y-36698484D01*
X13693872Y-36698484D02*
X13674825Y-36708008D01*
X13674825Y-36708008D02*
X13665301Y-36717531D01*
X13665301Y-36717531D02*
X13646253Y-36746103D01*
X13646253Y-36746103D02*
X13636729Y-36784198D01*
X13636729Y-36784198D02*
X13636729Y-36860389D01*
X13636729Y-36860389D02*
X13646253Y-36879436D01*
X13646253Y-36879436D02*
X13655777Y-36888960D01*
X13655777Y-36888960D02*
X13674825Y-36898484D01*
X13674825Y-36898484D02*
X13712920Y-36898484D01*
X13712920Y-36898484D02*
X13731968Y-36888960D01*
X13731968Y-36888960D02*
X13741491Y-36879436D01*
X13741491Y-36879436D02*
X13751015Y-36860389D01*
X13751015Y-36860389D02*
X13751015Y-36812770D01*
X13751015Y-36812770D02*
X13741491Y-36793722D01*
X13741491Y-36793722D02*
X13731968Y-36784198D01*
X13731968Y-36784198D02*
X13712920Y-36774674D01*
X13712920Y-36774674D02*
X13674825Y-36774674D01*
X13674825Y-36774674D02*
X13655777Y-36784198D01*
X13655777Y-36784198D02*
X13646253Y-36793722D01*
X13646253Y-36793722D02*
X13636729Y-36812770D01*
X13989110Y-36898484D02*
X13989110Y-36698484D01*
X14074825Y-36898484D02*
X14074825Y-36793722D01*
X14074825Y-36793722D02*
X14065301Y-36774674D01*
X14065301Y-36774674D02*
X14046253Y-36765150D01*
X14046253Y-36765150D02*
X14017682Y-36765150D01*
X14017682Y-36765150D02*
X13998634Y-36774674D01*
X13998634Y-36774674D02*
X13989110Y-36784198D01*
X14198634Y-36898484D02*
X14179587Y-36888960D01*
X14179587Y-36888960D02*
X14170063Y-36879436D01*
X14170063Y-36879436D02*
X14160539Y-36860389D01*
X14160539Y-36860389D02*
X14160539Y-36803246D01*
X14160539Y-36803246D02*
X14170063Y-36784198D01*
X14170063Y-36784198D02*
X14179587Y-36774674D01*
X14179587Y-36774674D02*
X14198634Y-36765150D01*
X14198634Y-36765150D02*
X14227206Y-36765150D01*
X14227206Y-36765150D02*
X14246253Y-36774674D01*
X14246253Y-36774674D02*
X14255777Y-36784198D01*
X14255777Y-36784198D02*
X14265301Y-36803246D01*
X14265301Y-36803246D02*
X14265301Y-36860389D01*
X14265301Y-36860389D02*
X14255777Y-36879436D01*
X14255777Y-36879436D02*
X14246253Y-36888960D01*
X14246253Y-36888960D02*
X14227206Y-36898484D01*
X14227206Y-36898484D02*
X14198634Y-36898484D01*
X14379587Y-36898484D02*
X14360539Y-36888960D01*
X14360539Y-36888960D02*
X14351015Y-36869912D01*
X14351015Y-36869912D02*
X14351015Y-36698484D01*
X14531968Y-36888960D02*
X14512920Y-36898484D01*
X14512920Y-36898484D02*
X14474825Y-36898484D01*
X14474825Y-36898484D02*
X14455777Y-36888960D01*
X14455777Y-36888960D02*
X14446253Y-36869912D01*
X14446253Y-36869912D02*
X14446253Y-36793722D01*
X14446253Y-36793722D02*
X14455777Y-36774674D01*
X14455777Y-36774674D02*
X14474825Y-36765150D01*
X14474825Y-36765150D02*
X14512920Y-36765150D01*
X14512920Y-36765150D02*
X14531968Y-36774674D01*
X14531968Y-36774674D02*
X14541491Y-36793722D01*
X14541491Y-36793722D02*
X14541491Y-36812770D01*
X14541491Y-36812770D02*
X14446253Y-36831817D01*
X14617682Y-36888960D02*
X14636730Y-36898484D01*
X14636730Y-36898484D02*
X14674825Y-36898484D01*
X14674825Y-36898484D02*
X14693872Y-36888960D01*
X14693872Y-36888960D02*
X14703396Y-36869912D01*
X14703396Y-36869912D02*
X14703396Y-36860389D01*
X14703396Y-36860389D02*
X14693872Y-36841341D01*
X14693872Y-36841341D02*
X14674825Y-36831817D01*
X14674825Y-36831817D02*
X14646253Y-36831817D01*
X14646253Y-36831817D02*
X14627206Y-36822293D01*
X14627206Y-36822293D02*
X14617682Y-36803246D01*
X14617682Y-36803246D02*
X14617682Y-36793722D01*
X14617682Y-36793722D02*
X14627206Y-36774674D01*
X14627206Y-36774674D02*
X14646253Y-36765150D01*
X14646253Y-36765150D02*
X14674825Y-36765150D01*
X14674825Y-36765150D02*
X14693872Y-36774674D01*
X14770063Y-36974674D02*
X14779587Y-36965150D01*
X14779587Y-36965150D02*
X14798634Y-36936579D01*
X14798634Y-36936579D02*
X14808158Y-36917531D01*
X14808158Y-36917531D02*
X14817682Y-36888960D01*
X14817682Y-36888960D02*
X14827206Y-36841341D01*
X14827206Y-36841341D02*
X14827206Y-36803246D01*
X14827206Y-36803246D02*
X14817682Y-36755627D01*
X14817682Y-36755627D02*
X14808158Y-36727055D01*
X14808158Y-36727055D02*
X14798634Y-36708008D01*
X14798634Y-36708008D02*
X14779587Y-36679436D01*
X14779587Y-36679436D02*
X14770063Y-36669912D01*
D10*
X9980356Y-37106356D02*
X9980356Y-37035644D01*
X9909644Y-37035644D01*
X9909644Y-37106356D01*
X9980356Y-37106356D01*
D11*
X10360539Y-37162484D02*
X10246253Y-37162484D01*
X10303396Y-37162484D02*
X10303396Y-36962484D01*
X10303396Y-36962484D02*
X10284348Y-36991055D01*
X10284348Y-36991055D02*
X10265301Y-37010103D01*
X10265301Y-37010103D02*
X10246253Y-37019627D01*
X10446253Y-37143436D02*
X10455777Y-37152960D01*
X10455777Y-37152960D02*
X10446253Y-37162484D01*
X10446253Y-37162484D02*
X10436729Y-37152960D01*
X10436729Y-37152960D02*
X10446253Y-37143436D01*
X10446253Y-37143436D02*
X10446253Y-37162484D01*
X10579586Y-36962484D02*
X10598634Y-36962484D01*
X10598634Y-36962484D02*
X10617682Y-36972008D01*
X10617682Y-36972008D02*
X10627205Y-36981531D01*
X10627205Y-36981531D02*
X10636729Y-37000579D01*
X10636729Y-37000579D02*
X10646253Y-37038674D01*
X10646253Y-37038674D02*
X10646253Y-37086293D01*
X10646253Y-37086293D02*
X10636729Y-37124389D01*
X10636729Y-37124389D02*
X10627205Y-37143436D01*
X10627205Y-37143436D02*
X10617682Y-37152960D01*
X10617682Y-37152960D02*
X10598634Y-37162484D01*
X10598634Y-37162484D02*
X10579586Y-37162484D01*
X10579586Y-37162484D02*
X10560539Y-37152960D01*
X10560539Y-37152960D02*
X10551015Y-37143436D01*
X10551015Y-37143436D02*
X10541491Y-37124389D01*
X10541491Y-37124389D02*
X10531967Y-37086293D01*
X10531967Y-37086293D02*
X10531967Y-37038674D01*
X10531967Y-37038674D02*
X10541491Y-37000579D01*
X10541491Y-37000579D02*
X10551015Y-36981531D01*
X10551015Y-36981531D02*
X10560539Y-36972008D01*
X10560539Y-36972008D02*
X10579586Y-36962484D01*
X10770063Y-36962484D02*
X10789110Y-36962484D01*
X10789110Y-36962484D02*
X10808158Y-36972008D01*
X10808158Y-36972008D02*
X10817682Y-36981531D01*
X10817682Y-36981531D02*
X10827205Y-37000579D01*
X10827205Y-37000579D02*
X10836729Y-37038674D01*
X10836729Y-37038674D02*
X10836729Y-37086293D01*
X10836729Y-37086293D02*
X10827205Y-37124389D01*
X10827205Y-37124389D02*
X10817682Y-37143436D01*
X10817682Y-37143436D02*
X10808158Y-37152960D01*
X10808158Y-37152960D02*
X10789110Y-37162484D01*
X10789110Y-37162484D02*
X10770063Y-37162484D01*
X10770063Y-37162484D02*
X10751015Y-37152960D01*
X10751015Y-37152960D02*
X10741491Y-37143436D01*
X10741491Y-37143436D02*
X10731967Y-37124389D01*
X10731967Y-37124389D02*
X10722444Y-37086293D01*
X10722444Y-37086293D02*
X10722444Y-37038674D01*
X10722444Y-37038674D02*
X10731967Y-37000579D01*
X10731967Y-37000579D02*
X10741491Y-36981531D01*
X10741491Y-36981531D02*
X10751015Y-36972008D01*
X10751015Y-36972008D02*
X10770063Y-36962484D01*
X10960539Y-36962484D02*
X10979586Y-36962484D01*
X10979586Y-36962484D02*
X10998634Y-36972008D01*
X10998634Y-36972008D02*
X11008158Y-36981531D01*
X11008158Y-36981531D02*
X11017682Y-37000579D01*
X11017682Y-37000579D02*
X11027205Y-37038674D01*
X11027205Y-37038674D02*
X11027205Y-37086293D01*
X11027205Y-37086293D02*
X11017682Y-37124389D01*
X11017682Y-37124389D02*
X11008158Y-37143436D01*
X11008158Y-37143436D02*
X10998634Y-37152960D01*
X10998634Y-37152960D02*
X10979586Y-37162484D01*
X10979586Y-37162484D02*
X10960539Y-37162484D01*
X10960539Y-37162484D02*
X10941491Y-37152960D01*
X10941491Y-37152960D02*
X10931967Y-37143436D01*
X10931967Y-37143436D02*
X10922444Y-37124389D01*
X10922444Y-37124389D02*
X10912920Y-37086293D01*
X10912920Y-37086293D02*
X10912920Y-37038674D01*
X10912920Y-37038674D02*
X10922444Y-37000579D01*
X10922444Y-37000579D02*
X10931967Y-36981531D01*
X10931967Y-36981531D02*
X10941491Y-36972008D01*
X10941491Y-36972008D02*
X10960539Y-36962484D01*
X11112920Y-37162484D02*
X11112920Y-37029150D01*
X11112920Y-37048198D02*
X11122444Y-37038674D01*
X11122444Y-37038674D02*
X11141491Y-37029150D01*
X11141491Y-37029150D02*
X11170063Y-37029150D01*
X11170063Y-37029150D02*
X11189110Y-37038674D01*
X11189110Y-37038674D02*
X11198634Y-37057722D01*
X11198634Y-37057722D02*
X11198634Y-37162484D01*
X11198634Y-37057722D02*
X11208158Y-37038674D01*
X11208158Y-37038674D02*
X11227205Y-37029150D01*
X11227205Y-37029150D02*
X11255777Y-37029150D01*
X11255777Y-37029150D02*
X11274824Y-37038674D01*
X11274824Y-37038674D02*
X11284348Y-37057722D01*
X11284348Y-37057722D02*
X11284348Y-37162484D01*
X11379586Y-37162484D02*
X11379586Y-37029150D01*
X11379586Y-37048198D02*
X11389110Y-37038674D01*
X11389110Y-37038674D02*
X11408158Y-37029150D01*
X11408158Y-37029150D02*
X11436729Y-37029150D01*
X11436729Y-37029150D02*
X11455777Y-37038674D01*
X11455777Y-37038674D02*
X11465301Y-37057722D01*
X11465301Y-37057722D02*
X11465301Y-37162484D01*
X11465301Y-37057722D02*
X11474824Y-37038674D01*
X11474824Y-37038674D02*
X11493872Y-37029150D01*
X11493872Y-37029150D02*
X11522443Y-37029150D01*
X11522443Y-37029150D02*
X11541491Y-37038674D01*
X11541491Y-37038674D02*
X11551015Y-37057722D01*
X11551015Y-37057722D02*
X11551015Y-37162484D01*
X11941491Y-36952960D02*
X11770063Y-37210103D01*
X12198634Y-36962484D02*
X12217682Y-36962484D01*
X12217682Y-36962484D02*
X12236729Y-36972008D01*
X12236729Y-36972008D02*
X12246253Y-36981531D01*
X12246253Y-36981531D02*
X12255777Y-37000579D01*
X12255777Y-37000579D02*
X12265301Y-37038674D01*
X12265301Y-37038674D02*
X12265301Y-37086293D01*
X12265301Y-37086293D02*
X12255777Y-37124389D01*
X12255777Y-37124389D02*
X12246253Y-37143436D01*
X12246253Y-37143436D02*
X12236729Y-37152960D01*
X12236729Y-37152960D02*
X12217682Y-37162484D01*
X12217682Y-37162484D02*
X12198634Y-37162484D01*
X12198634Y-37162484D02*
X12179586Y-37152960D01*
X12179586Y-37152960D02*
X12170063Y-37143436D01*
X12170063Y-37143436D02*
X12160539Y-37124389D01*
X12160539Y-37124389D02*
X12151015Y-37086293D01*
X12151015Y-37086293D02*
X12151015Y-37038674D01*
X12151015Y-37038674D02*
X12160539Y-37000579D01*
X12160539Y-37000579D02*
X12170063Y-36981531D01*
X12170063Y-36981531D02*
X12179586Y-36972008D01*
X12179586Y-36972008D02*
X12198634Y-36962484D01*
X12351015Y-37143436D02*
X12360539Y-37152960D01*
X12360539Y-37152960D02*
X12351015Y-37162484D01*
X12351015Y-37162484D02*
X12341491Y-37152960D01*
X12341491Y-37152960D02*
X12351015Y-37143436D01*
X12351015Y-37143436D02*
X12351015Y-37162484D01*
X12484348Y-36962484D02*
X12503396Y-36962484D01*
X12503396Y-36962484D02*
X12522444Y-36972008D01*
X12522444Y-36972008D02*
X12531967Y-36981531D01*
X12531967Y-36981531D02*
X12541491Y-37000579D01*
X12541491Y-37000579D02*
X12551015Y-37038674D01*
X12551015Y-37038674D02*
X12551015Y-37086293D01*
X12551015Y-37086293D02*
X12541491Y-37124389D01*
X12541491Y-37124389D02*
X12531967Y-37143436D01*
X12531967Y-37143436D02*
X12522444Y-37152960D01*
X12522444Y-37152960D02*
X12503396Y-37162484D01*
X12503396Y-37162484D02*
X12484348Y-37162484D01*
X12484348Y-37162484D02*
X12465301Y-37152960D01*
X12465301Y-37152960D02*
X12455777Y-37143436D01*
X12455777Y-37143436D02*
X12446253Y-37124389D01*
X12446253Y-37124389D02*
X12436729Y-37086293D01*
X12436729Y-37086293D02*
X12436729Y-37038674D01*
X12436729Y-37038674D02*
X12446253Y-37000579D01*
X12446253Y-37000579D02*
X12455777Y-36981531D01*
X12455777Y-36981531D02*
X12465301Y-36972008D01*
X12465301Y-36972008D02*
X12484348Y-36962484D01*
X12617682Y-36962484D02*
X12741491Y-36962484D01*
X12741491Y-36962484D02*
X12674825Y-37038674D01*
X12674825Y-37038674D02*
X12703396Y-37038674D01*
X12703396Y-37038674D02*
X12722444Y-37048198D01*
X12722444Y-37048198D02*
X12731967Y-37057722D01*
X12731967Y-37057722D02*
X12741491Y-37076770D01*
X12741491Y-37076770D02*
X12741491Y-37124389D01*
X12741491Y-37124389D02*
X12731967Y-37143436D01*
X12731967Y-37143436D02*
X12722444Y-37152960D01*
X12722444Y-37152960D02*
X12703396Y-37162484D01*
X12703396Y-37162484D02*
X12646253Y-37162484D01*
X12646253Y-37162484D02*
X12627206Y-37152960D01*
X12627206Y-37152960D02*
X12617682Y-37143436D01*
X12836729Y-37162484D02*
X12874825Y-37162484D01*
X12874825Y-37162484D02*
X12893872Y-37152960D01*
X12893872Y-37152960D02*
X12903396Y-37143436D01*
X12903396Y-37143436D02*
X12922444Y-37114865D01*
X12922444Y-37114865D02*
X12931967Y-37076770D01*
X12931967Y-37076770D02*
X12931967Y-37000579D01*
X12931967Y-37000579D02*
X12922444Y-36981531D01*
X12922444Y-36981531D02*
X12912920Y-36972008D01*
X12912920Y-36972008D02*
X12893872Y-36962484D01*
X12893872Y-36962484D02*
X12855777Y-36962484D01*
X12855777Y-36962484D02*
X12836729Y-36972008D01*
X12836729Y-36972008D02*
X12827206Y-36981531D01*
X12827206Y-36981531D02*
X12817682Y-37000579D01*
X12817682Y-37000579D02*
X12817682Y-37048198D01*
X12817682Y-37048198D02*
X12827206Y-37067246D01*
X12827206Y-37067246D02*
X12836729Y-37076770D01*
X12836729Y-37076770D02*
X12855777Y-37086293D01*
X12855777Y-37086293D02*
X12893872Y-37086293D01*
X12893872Y-37086293D02*
X12912920Y-37076770D01*
X12912920Y-37076770D02*
X12922444Y-37067246D01*
X12922444Y-37067246D02*
X12931967Y-37048198D01*
X13103396Y-37029150D02*
X13103396Y-37162484D01*
X13055777Y-36952960D02*
X13008158Y-37095817D01*
X13008158Y-37095817D02*
X13131967Y-37095817D01*
X13198634Y-36962484D02*
X13198634Y-37000579D01*
X13274825Y-36962484D02*
X13274825Y-37000579D01*
X13570063Y-37238674D02*
X13560539Y-37229150D01*
X13560539Y-37229150D02*
X13541491Y-37200579D01*
X13541491Y-37200579D02*
X13531968Y-37181531D01*
X13531968Y-37181531D02*
X13522444Y-37152960D01*
X13522444Y-37152960D02*
X13512920Y-37105341D01*
X13512920Y-37105341D02*
X13512920Y-37067246D01*
X13512920Y-37067246D02*
X13522444Y-37019627D01*
X13522444Y-37019627D02*
X13531968Y-36991055D01*
X13531968Y-36991055D02*
X13541491Y-36972008D01*
X13541491Y-36972008D02*
X13560539Y-36943436D01*
X13560539Y-36943436D02*
X13570063Y-36933912D01*
X13636729Y-36981531D02*
X13646253Y-36972008D01*
X13646253Y-36972008D02*
X13665301Y-36962484D01*
X13665301Y-36962484D02*
X13712920Y-36962484D01*
X13712920Y-36962484D02*
X13731968Y-36972008D01*
X13731968Y-36972008D02*
X13741491Y-36981531D01*
X13741491Y-36981531D02*
X13751015Y-37000579D01*
X13751015Y-37000579D02*
X13751015Y-37019627D01*
X13751015Y-37019627D02*
X13741491Y-37048198D01*
X13741491Y-37048198D02*
X13627206Y-37162484D01*
X13627206Y-37162484D02*
X13751015Y-37162484D01*
X13922444Y-36962484D02*
X13884348Y-36962484D01*
X13884348Y-36962484D02*
X13865301Y-36972008D01*
X13865301Y-36972008D02*
X13855777Y-36981531D01*
X13855777Y-36981531D02*
X13836729Y-37010103D01*
X13836729Y-37010103D02*
X13827206Y-37048198D01*
X13827206Y-37048198D02*
X13827206Y-37124389D01*
X13827206Y-37124389D02*
X13836729Y-37143436D01*
X13836729Y-37143436D02*
X13846253Y-37152960D01*
X13846253Y-37152960D02*
X13865301Y-37162484D01*
X13865301Y-37162484D02*
X13903396Y-37162484D01*
X13903396Y-37162484D02*
X13922444Y-37152960D01*
X13922444Y-37152960D02*
X13931968Y-37143436D01*
X13931968Y-37143436D02*
X13941491Y-37124389D01*
X13941491Y-37124389D02*
X13941491Y-37076770D01*
X13941491Y-37076770D02*
X13931968Y-37057722D01*
X13931968Y-37057722D02*
X13922444Y-37048198D01*
X13922444Y-37048198D02*
X13903396Y-37038674D01*
X13903396Y-37038674D02*
X13865301Y-37038674D01*
X13865301Y-37038674D02*
X13846253Y-37048198D01*
X13846253Y-37048198D02*
X13836729Y-37057722D01*
X13836729Y-37057722D02*
X13827206Y-37076770D01*
X14179587Y-37162484D02*
X14179587Y-36962484D01*
X14265301Y-37162484D02*
X14265301Y-37057722D01*
X14265301Y-37057722D02*
X14255777Y-37038674D01*
X14255777Y-37038674D02*
X14236730Y-37029150D01*
X14236730Y-37029150D02*
X14208158Y-37029150D01*
X14208158Y-37029150D02*
X14189110Y-37038674D01*
X14189110Y-37038674D02*
X14179587Y-37048198D01*
X14389110Y-37162484D02*
X14370063Y-37152960D01*
X14370063Y-37152960D02*
X14360539Y-37143436D01*
X14360539Y-37143436D02*
X14351015Y-37124389D01*
X14351015Y-37124389D02*
X14351015Y-37067246D01*
X14351015Y-37067246D02*
X14360539Y-37048198D01*
X14360539Y-37048198D02*
X14370063Y-37038674D01*
X14370063Y-37038674D02*
X14389110Y-37029150D01*
X14389110Y-37029150D02*
X14417682Y-37029150D01*
X14417682Y-37029150D02*
X14436730Y-37038674D01*
X14436730Y-37038674D02*
X14446253Y-37048198D01*
X14446253Y-37048198D02*
X14455777Y-37067246D01*
X14455777Y-37067246D02*
X14455777Y-37124389D01*
X14455777Y-37124389D02*
X14446253Y-37143436D01*
X14446253Y-37143436D02*
X14436730Y-37152960D01*
X14436730Y-37152960D02*
X14417682Y-37162484D01*
X14417682Y-37162484D02*
X14389110Y-37162484D01*
X14570063Y-37162484D02*
X14551015Y-37152960D01*
X14551015Y-37152960D02*
X14541491Y-37133912D01*
X14541491Y-37133912D02*
X14541491Y-36962484D01*
X14722444Y-37152960D02*
X14703396Y-37162484D01*
X14703396Y-37162484D02*
X14665301Y-37162484D01*
X14665301Y-37162484D02*
X14646253Y-37152960D01*
X14646253Y-37152960D02*
X14636730Y-37133912D01*
X14636730Y-37133912D02*
X14636730Y-37057722D01*
X14636730Y-37057722D02*
X14646253Y-37038674D01*
X14646253Y-37038674D02*
X14665301Y-37029150D01*
X14665301Y-37029150D02*
X14703396Y-37029150D01*
X14703396Y-37029150D02*
X14722444Y-37038674D01*
X14722444Y-37038674D02*
X14731968Y-37057722D01*
X14731968Y-37057722D02*
X14731968Y-37076770D01*
X14731968Y-37076770D02*
X14636730Y-37095817D01*
X14808158Y-37152960D02*
X14827206Y-37162484D01*
X14827206Y-37162484D02*
X14865301Y-37162484D01*
X14865301Y-37162484D02*
X14884349Y-37152960D01*
X14884349Y-37152960D02*
X14893872Y-37133912D01*
X14893872Y-37133912D02*
X14893872Y-37124389D01*
X14893872Y-37124389D02*
X14884349Y-37105341D01*
X14884349Y-37105341D02*
X14865301Y-37095817D01*
X14865301Y-37095817D02*
X14836730Y-37095817D01*
X14836730Y-37095817D02*
X14817682Y-37086293D01*
X14817682Y-37086293D02*
X14808158Y-37067246D01*
X14808158Y-37067246D02*
X14808158Y-37057722D01*
X14808158Y-37057722D02*
X14817682Y-37038674D01*
X14817682Y-37038674D02*
X14836730Y-37029150D01*
X14836730Y-37029150D02*
X14865301Y-37029150D01*
X14865301Y-37029150D02*
X14884349Y-37038674D01*
X14960539Y-37238674D02*
X14970063Y-37229150D01*
X14970063Y-37229150D02*
X14989111Y-37200579D01*
X14989111Y-37200579D02*
X14998634Y-37181531D01*
X14998634Y-37181531D02*
X15008158Y-37152960D01*
X15008158Y-37152960D02*
X15017682Y-37105341D01*
X15017682Y-37105341D02*
X15017682Y-37067246D01*
X15017682Y-37067246D02*
X15008158Y-37019627D01*
X15008158Y-37019627D02*
X14998634Y-36991055D01*
X14998634Y-36991055D02*
X14989111Y-36972008D01*
X14989111Y-36972008D02*
X14970063Y-36943436D01*
X14970063Y-36943436D02*
X14960539Y-36933912D01*
M02*
