G04 #@! TF.GenerationSoftware,KiCad,Pcbnew,8.0.4*
G04 #@! TF.CreationDate,2024-11-11T15:06:12+01:00*
G04 #@! TF.ProjectId,100008_hw-vern-aqm,31303030-3038-45f6-9877-2d7665726e2d,1.1*
G04 #@! TF.SameCoordinates,Original*
G04 #@! TF.FileFunction,Paste,Top*
G04 #@! TF.FilePolarity,Positive*
%FSLAX46Y46*%
G04 Gerber Fmt 4.6, Leading zero omitted, Abs format (unit mm)*
G04 Created by KiCad (PCBNEW 8.0.4) date 2024-11-11 15:06:12*
%MOMM*%
%LPD*%
G01*
G04 APERTURE LIST*
G04 Aperture macros list*
%AMRoundRect*
0 Rectangle with rounded corners*
0 $1 Rounding radius*
0 $2 $3 $4 $5 $6 $7 $8 $9 X,Y pos of 4 corners*
0 Add a 4 corners polygon primitive as box body*
4,1,4,$2,$3,$4,$5,$6,$7,$8,$9,$2,$3,0*
0 Add four circle primitives for the rounded corners*
1,1,$1+$1,$2,$3*
1,1,$1+$1,$4,$5*
1,1,$1+$1,$6,$7*
1,1,$1+$1,$8,$9*
0 Add four rect primitives between the rounded corners*
20,1,$1+$1,$2,$3,$4,$5,0*
20,1,$1+$1,$4,$5,$6,$7,0*
20,1,$1+$1,$6,$7,$8,$9,0*
20,1,$1+$1,$8,$9,$2,$3,0*%
G04 Aperture macros list end*
%ADD10C,0.175000*%
%ADD11RoundRect,0.150000X0.200000X-0.150000X0.200000X0.150000X-0.200000X0.150000X-0.200000X-0.150000X0*%
%ADD12RoundRect,0.200000X-0.200000X-0.275000X0.200000X-0.275000X0.200000X0.275000X-0.200000X0.275000X0*%
%ADD13RoundRect,0.200000X0.275000X-0.200000X0.275000X0.200000X-0.275000X0.200000X-0.275000X-0.200000X0*%
%ADD14RoundRect,0.250000X0.475000X-0.250000X0.475000X0.250000X-0.475000X0.250000X-0.475000X-0.250000X0*%
%ADD15RoundRect,0.218750X-0.218750X-0.256250X0.218750X-0.256250X0.218750X0.256250X-0.218750X0.256250X0*%
%ADD16RoundRect,0.250000X-0.250000X-0.475000X0.250000X-0.475000X0.250000X0.475000X-0.250000X0.475000X0*%
%ADD17RoundRect,0.225000X-0.225000X-0.250000X0.225000X-0.250000X0.225000X0.250000X-0.225000X0.250000X0*%
%ADD18RoundRect,0.150000X-0.150000X-0.625000X0.150000X-0.625000X0.150000X0.625000X-0.150000X0.625000X0*%
%ADD19RoundRect,0.250000X-0.350000X-0.650000X0.350000X-0.650000X0.350000X0.650000X-0.350000X0.650000X0*%
%ADD20RoundRect,0.225000X0.225000X0.250000X-0.225000X0.250000X-0.225000X-0.250000X0.225000X-0.250000X0*%
%ADD21RoundRect,0.150000X-0.150000X-0.200000X0.150000X-0.200000X0.150000X0.200000X-0.150000X0.200000X0*%
%ADD22RoundRect,0.075000X0.350000X-0.075000X0.350000X0.075000X-0.350000X0.075000X-0.350000X-0.075000X0*%
%ADD23C,1.100000*%
%ADD24RoundRect,0.200000X-0.275000X0.200000X-0.275000X-0.200000X0.275000X-0.200000X0.275000X0.200000X0*%
%ADD25RoundRect,0.200000X0.200000X0.275000X-0.200000X0.275000X-0.200000X-0.275000X0.200000X-0.275000X0*%
%ADD26RoundRect,0.250000X0.625000X-0.375000X0.625000X0.375000X-0.625000X0.375000X-0.625000X-0.375000X0*%
%ADD27R,1.000000X1.250000*%
%ADD28RoundRect,0.225000X-0.250000X0.225000X-0.250000X-0.225000X0.250000X-0.225000X0.250000X0.225000X0*%
%ADD29RoundRect,0.112500X0.237500X-0.112500X0.237500X0.112500X-0.237500X0.112500X-0.237500X-0.112500X0*%
%ADD30RoundRect,0.150000X0.150000X0.700000X-0.150000X0.700000X-0.150000X-0.700000X0.150000X-0.700000X0*%
%ADD31RoundRect,0.250000X0.250000X1.150000X-0.250000X1.150000X-0.250000X-1.150000X0.250000X-1.150000X0*%
%ADD32R,1.500000X0.900000*%
%ADD33R,0.900000X1.500000*%
%ADD34R,0.900000X0.900000*%
%ADD35RoundRect,0.218750X0.256250X-0.218750X0.256250X0.218750X-0.256250X0.218750X-0.256250X-0.218750X0*%
%ADD36RoundRect,0.250001X0.714999X-0.714999X0.714999X0.714999X-0.714999X0.714999X-0.714999X-0.714999X0*%
%ADD37RoundRect,0.212500X0.212500X-0.737500X0.212500X0.737500X-0.212500X0.737500X-0.212500X-0.737500X0*%
%ADD38RoundRect,0.212500X0.737500X-0.212500X0.737500X0.212500X-0.737500X0.212500X-0.737500X-0.212500X0*%
%ADD39RoundRect,0.250000X0.250000X0.475000X-0.250000X0.475000X-0.250000X-0.475000X0.250000X-0.475000X0*%
%ADD40RoundRect,0.250000X0.275000X-0.275000X0.275000X0.275000X-0.275000X0.275000X-0.275000X-0.275000X0*%
%ADD41RoundRect,0.062500X0.062500X-0.350000X0.062500X0.350000X-0.062500X0.350000X-0.062500X-0.350000X0*%
%ADD42RoundRect,0.062500X0.350000X-0.062500X0.350000X0.062500X-0.350000X0.062500X-0.350000X-0.062500X0*%
%ADD43RoundRect,0.375000X-0.625000X-0.375000X0.625000X-0.375000X0.625000X0.375000X-0.625000X0.375000X0*%
%ADD44RoundRect,0.500000X-0.500000X-1.400000X0.500000X-1.400000X0.500000X1.400000X-0.500000X1.400000X0*%
G04 APERTURE END LIST*
D10*
X144379524Y-351281524D02*
G75*
G02*
X144203524Y-351281524I-88000J0D01*
G01*
X144203524Y-351281524D02*
G75*
G02*
X144379524Y-351281524I88000J0D01*
G01*
X144379524Y-351931524D02*
G75*
G02*
X144203524Y-351931524I-88000J0D01*
G01*
X144203524Y-351931524D02*
G75*
G02*
X144379524Y-351931524I88000J0D01*
G01*
X144379524Y-352581524D02*
G75*
G02*
X144203524Y-352581524I-88000J0D01*
G01*
X144203524Y-352581524D02*
G75*
G02*
X144379524Y-352581524I88000J0D01*
G01*
X144379524Y-353231524D02*
G75*
G02*
X144203524Y-353231524I-88000J0D01*
G01*
X144203524Y-353231524D02*
G75*
G02*
X144379524Y-353231524I88000J0D01*
G01*
X145829524Y-351281524D02*
G75*
G02*
X145653524Y-351281524I-88000J0D01*
G01*
X145653524Y-351281524D02*
G75*
G02*
X145829524Y-351281524I88000J0D01*
G01*
X145829524Y-351931524D02*
G75*
G02*
X145653524Y-351931524I-88000J0D01*
G01*
X145653524Y-351931524D02*
G75*
G02*
X145829524Y-351931524I88000J0D01*
G01*
X145829524Y-352581524D02*
G75*
G02*
X145653524Y-352581524I-88000J0D01*
G01*
X145653524Y-352581524D02*
G75*
G02*
X145829524Y-352581524I88000J0D01*
G01*
X145829524Y-353231524D02*
G75*
G02*
X145653524Y-353231524I-88000J0D01*
G01*
X145653524Y-353231524D02*
G75*
G02*
X145829524Y-353231524I88000J0D01*
G01*
D11*
X187790000Y-331180000D03*
X187790000Y-332580000D03*
D12*
X165925000Y-309290000D03*
X167575000Y-309290000D03*
D13*
X161150000Y-307415000D03*
X161150000Y-305765000D03*
D12*
X132000000Y-323990000D03*
X133650000Y-323990000D03*
X151300000Y-307765000D03*
X152950000Y-307765000D03*
D14*
X176000000Y-305790000D03*
X176000000Y-303890000D03*
D13*
X124900000Y-325665000D03*
X124900000Y-324015000D03*
D14*
X111450000Y-303540000D03*
X111450000Y-301640000D03*
D11*
X187790000Y-328430000D03*
X187790000Y-329830000D03*
D15*
X162762500Y-304040000D03*
X164337500Y-304040000D03*
D16*
X166000000Y-315940000D03*
X167900000Y-315940000D03*
D17*
X150566524Y-353381524D03*
X152116524Y-353381524D03*
D18*
X183000000Y-351240000D03*
X184000000Y-351240000D03*
X185000000Y-351240000D03*
X186000000Y-351240000D03*
D19*
X181700000Y-355115000D03*
X187300000Y-355115000D03*
D20*
X111225000Y-306515000D03*
X109675000Y-306515000D03*
D21*
X186390000Y-331780000D03*
X184990000Y-331780000D03*
D22*
X190965000Y-330920000D03*
X190965000Y-329420000D03*
X190965000Y-328920000D03*
X190965000Y-328420000D03*
X190965000Y-327920000D03*
X190965000Y-327420000D03*
X190965000Y-326920000D03*
X190975000Y-325420000D03*
X192635000Y-325420000D03*
X192635000Y-326920000D03*
X192635000Y-327420000D03*
X192635000Y-327920000D03*
X192635000Y-328420000D03*
X192635000Y-328920000D03*
X192635000Y-329420000D03*
X192635000Y-330920000D03*
D23*
X189650000Y-330570000D03*
X193950000Y-330570000D03*
X189650000Y-325770000D03*
X193950000Y-325770000D03*
D11*
X140600000Y-308640000D03*
X140600000Y-310040000D03*
D24*
X161950000Y-316965000D03*
X161950000Y-318615000D03*
D25*
X167575000Y-312490000D03*
X165925000Y-312490000D03*
D15*
X158012500Y-304040000D03*
X159587500Y-304040000D03*
D20*
X176175000Y-309340000D03*
X174625000Y-309340000D03*
D14*
X109450000Y-303540000D03*
X109450000Y-301640000D03*
D13*
X161800000Y-346665000D03*
X161800000Y-345015000D03*
D12*
X150516524Y-350181524D03*
X152166524Y-350181524D03*
X109625000Y-307990000D03*
X111275000Y-307990000D03*
D20*
X130125000Y-323990000D03*
X128575000Y-323990000D03*
D26*
X187390000Y-326880000D03*
X187390000Y-324080000D03*
D13*
X121425000Y-325665000D03*
X121425000Y-324015000D03*
D11*
X143600000Y-308640000D03*
X143600000Y-310040000D03*
D20*
X111225000Y-305040000D03*
X109675000Y-305040000D03*
D13*
X159550000Y-307415000D03*
X159550000Y-305765000D03*
D27*
X117350000Y-325815000D03*
X117350000Y-333565000D03*
D16*
X178100000Y-311440000D03*
X180000000Y-311440000D03*
D25*
X167575000Y-307690000D03*
X165925000Y-307690000D03*
D24*
X180000000Y-313277500D03*
X180000000Y-314927500D03*
D28*
X116200000Y-351265000D03*
X116200000Y-352815000D03*
D25*
X156375000Y-310890000D03*
X154725000Y-310890000D03*
X156375000Y-314090000D03*
X154725000Y-314090000D03*
D29*
X153125000Y-313940000D03*
X153125000Y-312640000D03*
X151125000Y-313290000D03*
D17*
X150566524Y-351781524D03*
X152116524Y-351781524D03*
D30*
X172145000Y-350580000D03*
X170895000Y-350580000D03*
X169645000Y-350580000D03*
X168395000Y-350580000D03*
X167145000Y-350580000D03*
X165895000Y-350580000D03*
D31*
X173995000Y-353930000D03*
X164045000Y-353930000D03*
D13*
X158750000Y-318615000D03*
X158750000Y-316965000D03*
D25*
X156375000Y-309290000D03*
X154725000Y-309290000D03*
D13*
X123150000Y-325665000D03*
X123150000Y-324015000D03*
D17*
X165975000Y-310890000D03*
X167525000Y-310890000D03*
D14*
X173900000Y-305790000D03*
X173900000Y-303890000D03*
D32*
X114600000Y-301580000D03*
X114600000Y-302850000D03*
X114600000Y-304120000D03*
X114600000Y-305390000D03*
X114600000Y-306660000D03*
X114600000Y-307930000D03*
X114600000Y-309200000D03*
X114600000Y-310470000D03*
X114600000Y-311740000D03*
X114600000Y-313010000D03*
X114600000Y-314280000D03*
X114600000Y-315550000D03*
X114600000Y-316820000D03*
X114600000Y-318090000D03*
D33*
X116365000Y-319340000D03*
X117635000Y-319340000D03*
X118905000Y-319340000D03*
X120175000Y-319340000D03*
X121445000Y-319340000D03*
X122715000Y-319340000D03*
X123985000Y-319340000D03*
X125255000Y-319340000D03*
X126525000Y-319340000D03*
X127795000Y-319340000D03*
X129065000Y-319340000D03*
X130335000Y-319340000D03*
D32*
X132100000Y-318090000D03*
X132100000Y-316820000D03*
X132100000Y-315550000D03*
X132100000Y-314280000D03*
X132100000Y-313010000D03*
X132100000Y-311740000D03*
X132100000Y-310470000D03*
X132100000Y-309200000D03*
X132100000Y-307930000D03*
X132100000Y-306660000D03*
X132100000Y-305390000D03*
X132100000Y-304120000D03*
X132100000Y-302850000D03*
X132100000Y-301580000D03*
D34*
X120450000Y-307900000D03*
X120450000Y-309300000D03*
X120450000Y-310700000D03*
X120450000Y-310700000D03*
X121850000Y-307900000D03*
X121850000Y-307900000D03*
X121850000Y-309300000D03*
X121850000Y-310700000D03*
X123250000Y-307900000D03*
X123250000Y-309300000D03*
X123250000Y-310700000D03*
D35*
X180000000Y-317865000D03*
X180000000Y-316290000D03*
D12*
X108050000Y-344690000D03*
X109700000Y-344690000D03*
D24*
X142100000Y-308515000D03*
X142100000Y-310165000D03*
D12*
X108050000Y-347290000D03*
X109700000Y-347290000D03*
D36*
X122150000Y-351190000D03*
X124550000Y-351190000D03*
X122150000Y-348790000D03*
X124550000Y-348790000D03*
D37*
X120850000Y-354140000D03*
X122100000Y-354140000D03*
X123350000Y-354140000D03*
X124600000Y-354140000D03*
X125850000Y-354140000D03*
D38*
X127500000Y-352490000D03*
X127500000Y-351240000D03*
X127500000Y-349990000D03*
X127500000Y-348740000D03*
X127500000Y-347490000D03*
D37*
X125850000Y-345840000D03*
X124600000Y-345840000D03*
X123350000Y-345840000D03*
X122100000Y-345840000D03*
X120850000Y-345840000D03*
D38*
X119200000Y-347490000D03*
X119200000Y-348740000D03*
X119200000Y-349990000D03*
X119200000Y-351240000D03*
X119200000Y-352490000D03*
D24*
X160350000Y-316965000D03*
X160350000Y-318615000D03*
D13*
X163550000Y-318615000D03*
X163550000Y-316965000D03*
D39*
X176500000Y-311440000D03*
X174600000Y-311440000D03*
D17*
X165975000Y-314090000D03*
X167525000Y-314090000D03*
D27*
X129350000Y-325815000D03*
X129350000Y-333565000D03*
D29*
X153125000Y-310740000D03*
X153125000Y-309440000D03*
X151125000Y-310090000D03*
D13*
X126625000Y-325665000D03*
X126625000Y-324015000D03*
D40*
X160500000Y-312840000D03*
X161800000Y-312840000D03*
X160500000Y-311540000D03*
X161800000Y-311540000D03*
D41*
X159900000Y-314127500D03*
X160400000Y-314127500D03*
X160900000Y-314127500D03*
X161400000Y-314127500D03*
X161900000Y-314127500D03*
X162400000Y-314127500D03*
D42*
X163087500Y-313440000D03*
X163087500Y-312940000D03*
X163087500Y-312440000D03*
X163087500Y-311940000D03*
X163087500Y-311440000D03*
X163087500Y-310940000D03*
D41*
X162400000Y-310252500D03*
X161900000Y-310252500D03*
X161400000Y-310252500D03*
X160900000Y-310252500D03*
X160400000Y-310252500D03*
X159900000Y-310252500D03*
D42*
X159212500Y-310940000D03*
X159212500Y-311440000D03*
X159212500Y-311940000D03*
X159212500Y-312440000D03*
X159212500Y-312940000D03*
X159212500Y-313440000D03*
D25*
X176225000Y-307540000D03*
X174575000Y-307540000D03*
D13*
X162750000Y-307415000D03*
X162750000Y-305765000D03*
D24*
X160300000Y-345015000D03*
X160300000Y-346665000D03*
D12*
X190965000Y-334180000D03*
X192615000Y-334180000D03*
D28*
X130500000Y-351265000D03*
X130500000Y-352815000D03*
D35*
X174100000Y-317902500D03*
X174100000Y-316327500D03*
D17*
X116575000Y-324090000D03*
X118125000Y-324090000D03*
D16*
X187440000Y-322130000D03*
X189340000Y-322130000D03*
D25*
X192615000Y-322130000D03*
X190965000Y-322130000D03*
D24*
X145100000Y-308515000D03*
X145100000Y-310165000D03*
D12*
X151300000Y-315615000D03*
X152950000Y-315615000D03*
D25*
X156375000Y-312490000D03*
X154725000Y-312490000D03*
D24*
X174100000Y-313315000D03*
X174100000Y-314965000D03*
D43*
X178450000Y-304440000D03*
X178450000Y-306740000D03*
D44*
X184750000Y-306740000D03*
D43*
X178450000Y-309040000D03*
M02*
